<?xml version="1.0" standalone="no"?>
<!DOCTYPE svg PUBLIC "-//W3C//DTD SVG 1.1//EN" "http://www.w3.org/Graphics/SVG/1.1/DTD/svg11.dtd" >
<svg xmlns="http://www.w3.org/2000/svg" xmlns:xlink="http://www.w3.org/1999/xlink" version="1.1">
<metadata>
Created by FontForge 20161003 at Mon Nov 21 11:56:11 2016
 By www-data
Copyright (c) 2014 by (c) 2009 Designed by Svetoslav Simov (c) Fontfabric, Inc. All rights reserved.
</metadata>
<defs>
<font id="UniSansSemiBold" horiz-adv-x="517" >
  <font-face 
    font-family="UniSansSemiBold"
    font-weight="400"
    font-stretch="normal"
    units-per-em="1000"
    panose-1="0 0 5 0 0 0 0 0 0 0"
    ascent="782"
    descent="-218"
    x-height="518"
    cap-height="708"
    bbox="-54 -251 1058 941"
    underline-thickness="50"
    underline-position="-150"
    unicode-range="U+0020-FB02"
  />
<missing-glyph horiz-adv-x="588" 
d="M542 0h-518v700h518v-700zM395 594h-223l112 -164zM237 351q-10 15 -19.5 28.5t-21 31t-27 41t-38.5 58.5v-316zM435 510q-23 -35 -38.5 -58.5t-27 -41t-21 -31t-19.5 -28.5l106 -157v316zM395 107q-6 7 -12.5 16.5t-18.5 27t-31 46t-49 74.5l-112 -164h223z" />
    <glyph glyph-name="fi" unicode="fi" horiz-adv-x="519" 
d="M273 603q-51 0 -78 -18.5t-27 -51.5v-94h99v-110h-99v-329h-110v533q0 45 16.5 79.5t46 57.5t68.5 34q30 8 64 8q10 0 20 -1v-108zM335 639q0 31 20.5 52t51.5 21t52 -21t21 -52t-21 -52t-52 -21t-51.5 21t-20.5 52zM461 -9h-113v517h113v-517z" />
    <glyph glyph-name="fl" unicode="fl" horiz-adv-x="558" 
d="M272 603q-51 0 -78 -18.5t-27 -51.5v-94h99v-110h-99v-329h-110v533q0 45 16.5 79.5t46 57.5t68.5 34q30 8 64 8q10 0 20 -1v-108zM551 -4q-97 0 -148.5 47.5t-51.5 130.5v540h110v-540q0 -32 21.5 -53.5t68.5 -21.5v-103z" />
    <glyph glyph-name=".notdef" horiz-adv-x="588" 
d="M542 0h-518v700h518v-700zM395 594h-223l112 -164zM237 351q-10 15 -19.5 28.5t-21 31t-27 41t-38.5 58.5v-316zM435 510q-23 -35 -38.5 -58.5t-27 -41t-21 -31t-19.5 -28.5l106 -157v316zM395 107q-6 7 -12.5 16.5t-18.5 27t-31 46t-49 74.5l-112 -164h223z" />
    <glyph glyph-name=".null" horiz-adv-x="0" 
 />
    <glyph glyph-name="nonmarkingreturn" horiz-adv-x="333" 
 />
    <glyph glyph-name="space" unicode=" " horiz-adv-x="200" 
 />
    <glyph glyph-name="exclam" unicode="!" horiz-adv-x="235" 
d="M61 705h112v-533h-112v533zM45 61q0 31 20.5 52t51.5 21t52 -21t21 -52t-21 -52t-52 -21t-51.5 21t-20.5 52z" />
    <glyph glyph-name="quotedbl" unicode="&#x22;" horiz-adv-x="354" 
d="M197 456v252h110l-13 -252h-97zM55 456v252h110l-13 -252h-97z" />
    <glyph glyph-name="numbersign" unicode="#" horiz-adv-x="730" 
d="M643 197h-158q-13 -42 -22.5 -74t-16.5 -55.5t-11.5 -40t-7.5 -28.5h-116l57 198h-101l-57 -198h-117l58 198h-125l22 109h135q8 23 14 40t12 41h-147l23 110h156q14 45 28 94t27 94h118l-55 -188h100l55 188h117l-57 -188h131l-30 -110h-134l-22 -81h148zM401 306l24 81
h-100l-24 -81h100z" />
    <glyph glyph-name="dollar" unicode="$" horiz-adv-x="581" 
d="M545 209v-18q-3 -42 -20 -75t-45 -57t-63.5 -39t-74.5 -20v-94h-104v94q-66 11 -123.5 51.5t-88.5 112.5l103 45q17 -39 47 -63t62 -32v202q-39 9 -75 22t-63 35t-42 56q-12 28 -12 69v17q1 42 16 74.5t41 56t60.5 38t74.5 19.5v92h104v-92q66 -10 123 -50t88 -111
l-102 -46q-17 39 -46.5 63t-62.5 31v-181q40 -9 78.5 -22t67 -37.5t44.5 -62.5q13 -32 13 -78zM157 502q0 -30 21 -46q22 -16 60 -26v158q-31 -9 -55 -29t-26 -50v-1v-6zM342 114q35 8 60.5 29.5t30.5 53.5q1 41 -25 62.5t-66 34.5v-180z" />
    <glyph glyph-name="percent" unicode="%" horiz-adv-x="753" 
d="M561 734l92 -59l-490 -748l-91 59zM322 523q0 -86 -42 -134.5t-106 -48.5q-70 0 -108.5 47t-38.5 138q0 42 11 75t30.5 56.5t46.5 36t59 12.5q70 0 109 -47t39 -135zM233 523q0 51 -16.5 74t-45.5 23q-28 0 -42.5 -22.5t-14.5 -72.5q0 -53 14.5 -75.5t43.5 -22.5
q30 0 45.5 23t15.5 73zM726 179q0 -86 -42 -134.5t-106 -48.5q-70 0 -108.5 47t-38.5 138q0 42 11 75t30.5 56.5t46.5 36t59 12.5q70 0 109 -47t39 -135zM637 180q0 51 -16.5 74t-45.5 23q-28 0 -42.5 -22.5t-14.5 -72.5q0 -53 14.5 -75.5t43.5 -22.5q30 0 45.5 23t15.5 73z
" />
    <glyph glyph-name="ampersand" unicode="&#x26;" horiz-adv-x="646" 
d="M252 -4q-45 0 -85 14.5t-69 41t-46 64.5t-17 86q0 35 10.5 63t28 50.5t40 40t46.5 32.5q-24 30 -42 63t-18 74q0 40 15.5 71.5t41 53t59 32.5t69.5 11q33 0 63.5 -11.5t54 -32.5t37.5 -50t14 -64q0 -34 -9.5 -59.5t-26 -45.5t-37.5 -36t-45 -29l95 -102l44 74l98 -48
l-64 -106l126 -145h-145l-46 50q-38 -43 -83 -67.5t-109 -24.5zM282 592q-29 0 -50 -18t-21 -47q0 -23 15 -47t34 -44q15 8 30.5 17.5t27.5 21.5t19.5 26t7.5 31q0 27 -17.5 43.5t-45.5 16.5zM140 202q0 -48 34 -76t84 -28q35 0 64 19t51 46l-145 150q-16 -10 -32 -21.5
t-28.5 -25t-20 -29.5t-7.5 -35z" />
    <glyph glyph-name="quotesingle" unicode="'" horiz-adv-x="213" 
d="M55 455v252h110l-13 -252h-97z" />
    <glyph glyph-name="parenleft" unicode="(" horiz-adv-x="294" 
d="M149 332q0 -99 34 -190t93 -186l-89 -58q-73 103 -111.5 216.5t-38.5 217.5q0 109 38.5 222.5t107.5 210.5l89 -59q-33 -41 -56 -88.5t-38 -96.5t-22 -97.5t-7 -91.5z" />
    <glyph glyph-name="parenright" unicode=")" horiz-adv-x="297" 
d="M147 304q0 100 -33 198.5t-93 193.5l89 59q37 -51 65 -108.5t47 -116t29 -116.5t10 -110q0 -109 -38.5 -222t-108.5 -211l-96 62q32 41 56.5 88t40.5 95.5t24 96t8 91.5z" />
    <glyph glyph-name="asterisk" unicode="*" horiz-adv-x="446" 
d="M174 710h100v-121l116 37l29 -97l-115 -35l73 -98l-79 -60l-75 100l-72 -100l-83 58l75 101l-116 36l28 97l119 -38v120z" />
    <glyph glyph-name="plus" unicode="+" horiz-adv-x="574" 
d="M235 586h111v-198h196v-112h-196v-201h-111v201h-204v112h204v198z" />
    <glyph glyph-name="comma" unicode="," horiz-adv-x="243" 
d="M112 -122h-112l75 262h125z" />
    <glyph glyph-name="hyphen" unicode="-" horiz-adv-x="386" 
d="M332 239h-278v112h278v-112z" />
    <glyph glyph-name="period" unicode="." horiz-adv-x="227" 
d="M41 67q0 31 20.5 52t51.5 21t52 -21t21 -52t-21 -52t-52 -21t-51.5 21t-20.5 52z" />
    <glyph glyph-name="slash" unicode="/" horiz-adv-x="440" 
d="M125 -40l-104 37l296 746l102 -36z" />
    <glyph glyph-name="zero" unicode="0" horiz-adv-x="610" 
d="M50 201v305q0 55 23 95t59.5 66t82.5 38.5t91 12.5t90.5 -12.5t82 -38.5t59.5 -66t23 -95v-305q0 -54 -23 -94t-59.5 -66t-82 -38.5t-90.5 -12.5t-91 12.5t-82.5 38.5t-59.5 66t-23 94zM162 197q0 -28 13.5 -47t34.5 -31t46.5 -17t49.5 -5t49.5 5t46.5 17t34 31t13 47
v305q0 28 -13 47.5t-34 31t-46.5 16.5t-49.5 5t-49.5 -5t-46.5 -16.5t-34.5 -31t-13.5 -47.5v-305z" />
    <glyph glyph-name="one" unicode="1" horiz-adv-x="336" 
d="M164 0v534l-73 -79l-86 69l174 184h96v-708h-111z" />
    <glyph glyph-name="two" unicode="2" horiz-adv-x="568" 
d="M283 607q-48 0 -87 -27q-41 -28 -62 -74l-101 41q18 41 45 73t60.5 53.5t72.5 33t80 11.5q61 0 106.5 -19.5t75 -51.5t42.5 -74q10 -32 10 -66q0 -10 -1 -21q-4 -45 -25 -89.5t-60 -82.5l-207 -201h294v-112h-460l-34 78l327 314q31 34 45 71q8 23 8 44q0 12 -2 22
q-8 31 -37.5 52.5t-85.5 24.5h-4z" />
    <glyph glyph-name="three" unicode="3" horiz-adv-x="592" 
d="M293 107q28 0 54.5 6.5t46.5 20t32.5 33.5t12.5 46q0 60 -35 85q-33 25 -90 25h-4h-83v105h83q45 0 72.5 22t27.5 65q0 23 -10 40t-26 28t-37 16.5t-43 5.5q-41 0 -80.5 -22t-64.5 -66l-100 52q18 37 45 64.5t59 46.5t66.5 28.5t69.5 9.5q45 0 87.5 -12.5t75.5 -37.5
t53 -63t20 -90q0 -18 -4 -36.5t-13 -35.5t-24 -32t-37 -25q33 -13 53.5 -31.5t32.5 -41t16.5 -48.5t4.5 -53q-1 -56 -23.5 -97.5t-59 -68.5t-84 -40.5t-97.5 -13.5q-39 0 -78 10t-74.5 30.5t-65 51.5t-48.5 72l105 49q11 -24 29 -42t40 -30.5t46.5 -19t48.5 -6.5z" />
    <glyph glyph-name="four" unicode="4" horiz-adv-x="565" 
d="M528 170h-64v-168h-112v168h-290l-55 87l351 451h106v-432h64v-106zM374 584h-5l-70 -103l-156 -205h212l2 187l8 60q3 23 5.5 42t3.5 19z" />
    <glyph glyph-name="five" unicode="5" horiz-adv-x="577" 
d="M286 106q27 0 53 6.5t46.5 19t33 32.5t12.5 47v41q0 27 -11.5 46t-31 31t-45 17.5t-53.5 5.5q-45 0 -82 -9.5t-81 -29.5l-64 -2v396h447v-115h-335v-148q27 8 55 14q25 4 51 4h9q46 0 91 -12t81 -37t58 -64.5t23 -95.5v-43q0 -55 -22.5 -96.5t-59 -69t-83 -41
t-94.5 -13.5q-37 0 -73.5 10t-70 29.5t-62 49.5t-47.5 69l102 48q23 -45 65.5 -67.5t87.5 -22.5z" />
    <glyph glyph-name="six" unicode="6" horiz-adv-x="606" 
d="M312 602q-29 0 -56 -6t-48 -19t-33.5 -32t-12.5 -44v-105q15 19 33.5 31.5t39 19.5t40.5 9.5t37 2.5q49 0 95.5 -13.5t82.5 -40.5t58 -66.5t22 -92.5v-44q0 -53 -22 -92.5t-58 -66t-82.5 -40t-95.5 -13.5q-50 0 -97 13t-83.5 39.5t-59 66.5t-22.5 93v304q0 53 22.5 93
t59 66.5t83.5 39.5t97 13q76 0 141 -32.5t103 -110.5l-102 -45q-17 37 -56.5 54.5t-85.5 17.5zM458 245q0 25 -12.5 44t-32.5 32t-46.5 19.5t-54.5 6.5q-29 0 -56 -6.5t-48 -19t-33.5 -32t-12.5 -44.5v-37q0 -26 12.5 -45t33.5 -31.5t48 -19t56 -6.5q28 0 54.5 6.5
t46.5 19.5t32.5 32t12.5 44v37z" />
    <glyph glyph-name="seven" unicode="7" horiz-adv-x="510" 
d="M27 595v112h442l35 -69l-324 -638h-125l298 595h-326z" />
    <glyph glyph-name="eight" unicode="8" horiz-adv-x="614" 
d="M298 -10q-55 0 -102.5 15t-82 44.5t-54.5 72t-21 98.5q0 21 5.5 45t17.5 47.5t31.5 43.5t47.5 33q-20 9 -34 24t-22.5 33t-12.5 37t-4 36q0 54 20 91.5t52.5 61.5t73.5 35t85 11h17q43 0 85 -11.5t74 -35.5t52 -62t20 -90q0 -18 -3.5 -37t-12 -36t-22 -31.5t-33.5 -22.5
q30 -12 49.5 -30.5t31 -41t16 -48.5t4.5 -52q-1 -56 -21.5 -98.5t-55.5 -72t-82 -44.5t-102 -15h-17zM298 617q-23 0 -44 -6.5t-38 -18.5t-27 -29.5t-10 -40.5q0 -25 11 -42.5t28.5 -28t39.5 -15.5t44 -5t45 5t42 15.5t31 28t12 42.5q0 23 -10 40.5t-26.5 29.5t-37.5 18.5
t-43 6.5h-17zM315 95q25 0 51 7.5t47.5 22.5t35 37t13.5 51q0 34 -12 57.5t-32.5 38t-47 21t-55.5 6.5h-17q-29 0 -55.5 -6.5t-47 -21t-32.5 -38t-12 -57.5q0 -29 13.5 -51t34.5 -37t47 -22.5t52 -7.5h17z" />
    <glyph glyph-name="nine" unicode="9" horiz-adv-x="614" 
d="M300 103q29 0 56.5 6.5t48.5 19t33.5 32t12.5 45.5v101q-11 -17 -29 -29t-38.5 -19t-42.5 -10t-41 -3q-50 0 -97 13.5t-83.5 40.5t-59 67t-22.5 93v42q0 54 22.5 94.5t59 67.5t83.5 40.5t97 13.5t97.5 -13.5t84.5 -40.5t59.5 -67.5t23.5 -94.5v-297q0 -54 -23 -94.5
t-60 -67t-85 -40t-97 -13.5q-38 0 -76 10t-72 29.5t-62.5 48.5t-47.5 68l94 46q31 -48 74 -68.5t90 -20.5zM153 460q0 -26 12.5 -45t32.5 -31.5t46.5 -19t55.5 -6.5t56.5 6t48.5 19t33.5 32t12.5 45v41q0 26 -12.5 45t-33.5 31.5t-48.5 18.5t-56.5 6t-55.5 -6t-46.5 -18.5
t-32.5 -31.5t-12.5 -45v-41z" />
    <glyph glyph-name="colon" unicode=":" horiz-adv-x="254" 
d="M54 80q0 31 20.5 52t51.5 21t52 -21t21 -52t-21 -52t-52 -21t-51.5 21t-20.5 52zM54 415q0 31 20.5 52t51.5 21t52 -21t21 -52t-21 -52t-52 -21t-51.5 21t-20.5 52z" />
    <glyph glyph-name="semicolon" unicode=";" horiz-adv-x="265" 
d="M55 402q0 31 20.5 52t51.5 21t52 -21t21 -52t-21 -52t-52 -21t-51.5 21t-20.5 52zM130 -122h-112l75 262h125z" />
    <glyph glyph-name="less" unicode="&#x3c;" horiz-adv-x="445" 
d="M171 298q11 -7 25 -14.5t38 -21t62.5 -35.5t99.5 -57v-128l-371 217v77l371 221v-128z" />
    <glyph glyph-name="equal" unicode="=" horiz-adv-x="530" 
d="M475 324h-420v108h420v-108zM475 153h-420v106h420v-106z" />
    <glyph glyph-name="greater" unicode="&#x3e;" horiz-adv-x="445" 
d="M421 259l-372 -217v128l228 129l-228 129v129l372 -221v-77z" />
    <glyph glyph-name="question" unicode="?" horiz-adv-x="490" 
d="M230 718q44 0 85.5 -14t73.5 -41t51 -67.5t19 -92.5q0 -48 -14.5 -86t-39 -65t-58 -44t-71.5 -23l-8 -124h-99l-8 219q20 -4 38 -4q25 0 47 8q37 13 60.5 38t32.5 57q5 17 5 33q0 14 -4 28q-8 28 -35.5 47.5t-76.5 19.5q-32 0 -65.5 -17.5t-61.5 -52.5l-78 63
q40 64 95 91t112 27zM151 56q0 31 20.5 52t51.5 21t52 -21t21 -52t-21 -52t-52 -21t-51.5 21t-20.5 52z" />
    <glyph glyph-name="at" unicode="@" horiz-adv-x="751" 
d="M625 413q0 51 -18 89.5t-49 64.5t-73 39t-89 13q-62 0 -110.5 -23t-82 -60.5t-52 -85.5t-19.5 -98v-10q0 -62 24 -116q26 -58 75 -95t119 -46q16 -2 32 -2q57 0 124 24l42 -80q-48 -19 -85 -27t-70 -8q-92 0 -158.5 28t-110 77t-64.5 115t-21 141t27.5 141t75.5 114.5
t112.5 76.5t139.5 28q71 0 131.5 -23t105 -63t69.5 -94.5t25 -117.5q0 -62 -19.5 -114.5t-51.5 -91.5t-73 -61t-84 -22q-20 0 -39.5 9t-30.5 30q-41 -28 -83 -28q-1 0 -2 1q-42 0 -77 20.5t-57 57.5t-22 84q0 40 7.5 77.5t23.5 69.5t40 58t57 42q20 10 47 16q22 5 43 5h10
q27 -2 48.5 -13.5t30.5 -35.5l7 23l74 -14l-62 -304q22 1 42 18.5t36 45t25.5 60.5t9.5 65zM289 301q0 -23 12.5 -41t33.5 -18q24 0 45.5 17t37.5 42.5t25 54.5t9 54q0 28 -10 45.5t-31 17.5h-3q-29 0 -51 -16q-23 -17 -38 -42.5t-22.5 -56t-7.5 -57.5z" />
    <glyph glyph-name="A" unicode="A" horiz-adv-x="630" 
d="M631 0h-121l-69 184h-254l-64 -184h-124l255 708h121zM312 591l-29 -114l-57 -177h175l-58 179l-27 112h-4z" />
    <glyph glyph-name="B" unicode="B" horiz-adv-x="624" 
d="M558 513q0 -36 -15 -73.5t-50 -60.5q29 -12 47.5 -30t29.5 -40t15.5 -46.5t4.5 -51.5q-1 -59 -20.5 -99t-52.5 -65t-78 -36t-97 -11h-275v708h276q44 0 83 -12t68.5 -36.5t46.5 -61t17 -85.5zM343 426q44 0 72.5 21t28.5 70q0 41 -29.5 60.5t-71.5 19.5h-160v-171h160z
M352 111q51 0 85 22q37 24 37 82t-36 83q-34 24 -90 24h-5h-160v-211h160h9z" />
    <glyph glyph-name="C" unicode="C" horiz-adv-x="601" 
d="M48 490q0 57 23.5 99.5t62 71t87.5 43t101 14.5q39 0 77 -10t72.5 -30t63.5 -50.5t48 -71.5l-103 -51q-26 48 -70 72.5t-91 24.5q-29 0 -57 -7t-50 -21t-35.5 -35t-13.5 -49v-272q0 -28 13.5 -49t35.5 -35t50 -21t57 -7q48 0 92 24t69 72l103 -48q-20 -41 -49 -72
t-63.5 -51.5t-73.5 -30.5t-78 -10q-51 0 -99.5 14t-86.5 42.5t-61.5 71.5t-23.5 100v272z" />
    <glyph glyph-name="D" unicode="D" horiz-adv-x="635" 
d="M321 708q52 0 99.5 -13t84.5 -40.5t59 -69.5t22 -100v-266q0 -58 -22 -99.5t-59 -68t-84.5 -39t-99.5 -12.5h-254v708h254zM321 116q30 0 57 5.5t47.5 18t32.5 32t12 47.5v266q0 28 -12 48.5t-32.5 33.5t-47.5 19t-57 6h-139v-476h139z" />
    <glyph glyph-name="E" unicode="E" horiz-adv-x="576" 
d="M183 412h323v-116h-323v-180h351v-116h-467v709h467v-116h-351v-181z" />
    <glyph glyph-name="F" unicode="F" horiz-adv-x="562" 
d="M183 393h307v-116h-307v-277h-116v708h466v-116h-350v-199z" />
    <glyph glyph-name="G" unicode="G" horiz-adv-x="632" 
d="M48 491q0 57 23.5 99.5t61.5 71t87 42.5t100 14q39 0 76.5 -9t71.5 -27.5t62 -48t48 -70.5l-104 -50q-23 47 -66.5 68t-89.5 21q-29 0 -57 -7t-49.5 -21t-35 -35t-13.5 -49v-270q0 -29 13.5 -50.5t35.5 -35.5t50.5 -21t57.5 -7q30 0 58.5 7t51 21t36 35.5t13.5 50.5v56
h-199v111h314v-167q0 -58 -23.5 -101.5t-62 -72t-87.5 -42.5t-101 -14q-51 0 -100 14t-87.5 42.5t-61.5 72t-23 101.5v271z" />
    <glyph glyph-name="H" unicode="H" horiz-adv-x="681" 
d="M183 0h-116v708h116v-297h315v297h116v-708h-116v296h-315v-296z" />
    <glyph glyph-name="I" unicode="I" horiz-adv-x="250" 
d="M183 0h-115v708h115v-708z" />
    <glyph glyph-name="J" unicode="J" horiz-adv-x="598" 
d="M536 708v-492q0 -56 -23 -98.5t-60 -71t-84.5 -42.5t-96.5 -14q-44 0 -86.5 13.5t-78 40.5t-61.5 67.5t-36 94.5l116 19q6 -30 20.5 -53t35 -38.5t44.5 -23t49 -7.5q27 0 53 7t46.5 21.5t33 35.5t12.5 49v386h-176v106h292z" />
    <glyph glyph-name="K" unicode="K" horiz-adv-x="631" 
d="M182 0h-115v708h115v-313l307 313h143l-318 -342l320 -366h-147l-255 284l-50 -50v-234z" />
    <glyph glyph-name="L" unicode="L" horiz-adv-x="519" 
d="M67 708h115v-592h323v-116h-438v708z" />
    <glyph glyph-name="M" unicode="M" horiz-adv-x="785" 
d="M67 708h129l195 -460l197 460h130v-708h-116v325l22 192h-10l-60 -167l-116 -252h-91l-117 252l-59 170h-10l21 -196v-324h-115v708z" />
    <glyph glyph-name="N" unicode="N" horiz-adv-x="681" 
d="M67 0v708h122l246 -418l73 -141l7 2l-17 152v405h116v-708h-135l-241 410l-66 135l-7 -2l18 -148v-395h-116z" />
    <glyph glyph-name="O" unicode="O" horiz-adv-x="668" 
d="M334 718q54 0 105.5 -14.5t92 -43t65 -71.5t24.5 -100v-269q0 -57 -24.5 -100.5t-65 -72t-92 -43t-105.5 -14.5t-105.5 14.5t-91.5 43t-64.5 72t-24.5 100.5v269q0 57 24.5 100t64.5 71.5t91.5 43t105.5 14.5zM163 221q0 -29 14.5 -50.5t38.5 -35.5t55 -21.5t63 -7.5
q33 0 64 7.5t55 21.5t38.5 35.5t14.5 50.5v266q0 30 -15 52t-39 36t-55 20.5t-63 6.5t-63 -7t-55 -21t-38.5 -35.5t-14.5 -51.5v-266z" />
    <glyph glyph-name="P" unicode="P" horiz-adv-x="611" 
d="M67 708h274q61 0 107 -20t76.5 -53t46 -75t15.5 -85q0 -44 -15.5 -85.5t-46 -73.5t-76 -51.5t-106.5 -19.5h-161v-245h-114v708zM341 351q33 0 57 11t40.5 28t24.5 39t8 44t-8 43.5t-24.5 38t-41 27t-56.5 10.5h-160v-241h160z" />
    <glyph glyph-name="Q" unicode="Q" horiz-adv-x="668" 
d="M48 220v269q0 57 24.5 100t64.5 71.5t91.5 43t105.5 14.5t105.5 -14.5t92 -43t65 -71.5t24.5 -100v-269q0 -43 -14 -77.5t-38 -61.5l57 -72l-74 -56l-59 72q-35 -17 -76 -26t-83 -9q-54 0 -105.5 14.5t-91.5 43t-64.5 72t-24.5 100.5zM334 106q51 0 87 9l-55 67l78 56
l53 -67q9 21 9 50v266q0 30 -15 52t-39 36t-55 20.5t-63 6.5t-63 -7t-55 -21t-38.5 -35.5t-14.5 -51.5v-266q0 -29 14.5 -50.5t38.5 -35.5t54.5 -21.5t63.5 -7.5z" />
    <glyph glyph-name="R" unicode="R" horiz-adv-x="622" 
d="M183 274v-274h-116v708h274q52 0 97 -12.5t78 -38.5t52 -68t21 -100q0 -50 -14 -87t-39 -62.5t-59.5 -40.5t-74.5 -21l219 -278h-141l-212 274h-85zM342 375q60 0 95.5 26.5t35.5 86.5q0 59 -36.5 81.5t-94.5 22.5h-159v-217h159z" />
    <glyph glyph-name="S" unicode="S" horiz-adv-x="587" 
d="M154 510q0 -21 12.5 -36t33.5 -25t48 -16.5t55 -11.5q46 -9 93 -23t83.5 -40t58.5 -67q18 -35 18 -84q0 -9 -1 -19q-2 -51 -25.5 -88t-60.5 -61.5t-83.5 -36.5t-94.5 -12q-41 0 -80 11t-74 32.5t-63.5 53.5t-47.5 74l106 48q23 -51 67 -77t94 -26q27 0 52.5 5.5
t45.5 16.5t32.5 28.5t14.5 40.5v8q0 25 -10 41q-13 19 -35.5 31t-52 19.5t-62.5 13.5q-44 9 -86.5 22.5t-76.5 37t-55.5 59.5t-21.5 89q3 48 25.5 85.5t58 63t79.5 38.5t91 13q40 0 78 -8t71 -26.5t60.5 -47.5t45.5 -71l-105 -47q-23 50 -62 67t-88 17q-26 0 -50.5 -6
t-44 -17.5t-31.5 -29t-12 -39.5z" />
    <glyph glyph-name="T" unicode="T" horiz-adv-x="574" 
d="M345 592v-592h-116v592h-215v116h546v-116h-215z" />
    <glyph glyph-name="U" unicode="U" horiz-adv-x="672" 
d="M179 223q0 -30 13.5 -52t35.5 -36.5t50.5 -21.5t57.5 -7q30 0 58 7t50.5 21.5t36 36.5t13.5 52v485h116v-486q0 -58 -23.5 -101.5t-62.5 -72.5t-88 -43.5t-100 -14.5t-100.5 14.5t-87.5 43.5t-61.5 72.5t-23.5 101.5v486h116v-485z" />
    <glyph glyph-name="V" unicode="V" horiz-adv-x="631" 
d="M278 258q-1 0 4.5 -21t12.5 -46q8 -29 17 -66h10l30 135l158 448h122l-255 -708h-122l-256 708h123z" />
    <glyph glyph-name="W" unicode="W" horiz-adv-x="926" 
d="M211 0l-205 708h120l125 -443q-1 0 2.5 -20.5t7.5 -45.5q4 -29 11 -66h9l22 137l112 334h97l110 -336q-1 0 4 -21t11 -46q7 -29 15 -66h9l16 132l124 441h119l-205 -708h-123l-112 346l-14 89h-7l-8 -44q-3 -17 -6 -30.5t-2 -13.5l-109 -347h-123z" />
    <glyph glyph-name="X" unicode="X" horiz-adv-x="624" 
d="M483 0l-171 263l-171 -263h-142l242 353l-240 355h140l171 -266l171 266h140l-241 -355l242 -353h-141z" />
    <glyph glyph-name="Y" unicode="Y" horiz-adv-x="600" 
d="M242 0v275l-246 433h133l171 -322l170 322h135l-247 -433v-275h-116z" />
    <glyph glyph-name="Z" unicode="Z" horiz-adv-x="591" 
d="M555 106v-106h-505l-31 76l393 516h-372v116h494l35 -75l-394 -527h380z" />
    <glyph glyph-name="bracketleft" unicode="[" horiz-adv-x="284" 
d="M171 -12h80v-105h-193v845h193v-106h-80v-634z" />
    <glyph glyph-name="backslash" unicode="\" horiz-adv-x="437" 
d="M22 690l104 36l290 -730l-104 -35z" />
    <glyph glyph-name="bracketright" unicode="]" horiz-adv-x="285" 
d="M113 626h-79v103h193v-845h-193v102h79v640z" />
    <glyph glyph-name="asciicircum" unicode="^" horiz-adv-x="585" 
d="M552 424h-137l-126 153l-121 -153h-135l221 282h71z" />
    <glyph glyph-name="underscore" unicode="_" horiz-adv-x="612" 
d="M557 -77h-502v110h502v-110z" />
    <glyph glyph-name="grave" unicode="`" horiz-adv-x="257" 
d="M103 756l-118 151h141l91 -151h-114z" />
    <glyph glyph-name="a" unicode="a" horiz-adv-x="489" 
d="M327 354q0 19 -9 33.5t-24 24t-34.5 14t-40.5 4.5q-31 0 -60 -10.5t-49 -32.5l-62 64q42 47 88.5 62t96.5 15q38 0 74.5 -10.5t65.5 -31.5t46.5 -53t17.5 -76v-332q-36 -14 -87.5 -24.5t-108.5 -10.5q-41 0 -79 7.5t-67 25.5t-47 48.5t-18 76.5q0 43 16.5 74t43.5 51.5
t61.5 30.5t70.5 10q28 0 55 -5t50 -15v60zM238 226q-48 0 -74 -21.5t-26 -55.5q0 -18 8 -31t21.5 -21t30.5 -11.5t36 -3.5q27 0 51 3t42 8v115q-17 8 -40.5 13t-48.5 5z" />
    <glyph glyph-name="b" unicode="b" horiz-adv-x="509" 
d="M264 528q38 0 74 -12t64.5 -35t46 -56t17.5 -76v-185q-4 -48 -22 -81t-45.5 -53.5t-63 -29.5t-74.5 -10h-8q-48 0 -97 10q-54 12 -99 30v679h110v-202q45 21 97 21zM243 82q20 0 40 4.5t35.5 14t26 25t11.5 38.5v190q-4 41 -37.5 60.5t-73.5 19.5q-21 0 -41 -5t-37 -16
v-317q15 -7 35 -10.5t41 -3.5z" />
    <glyph glyph-name="c" unicode="c" horiz-adv-x="473" 
d="M43 350q0 45 17.5 78.5t46.5 55.5t65.5 33t74.5 11q30 0 61.5 -7.5t59 -23.5t48.5 -42t32 -63l-100 -38q-10 35 -37 51t-59 16q-18 0 -35.5 -4.5t-31.5 -13.5t-23 -22t-9 -30v-184q0 -34 29 -52t65 -18q32 0 61.5 16t39.5 51l102 -38q-11 -37 -32.5 -63t-49 -42
t-59.5 -23.5t-62 -7.5q-38 0 -74.5 11t-65.5 33t-46.5 55.5t-17.5 78.5v182z" />
    <glyph glyph-name="d" unicode="d" horiz-adv-x="509" 
d="M259 -10h-8q-39 0 -75 9.5t-64.5 29.5t-46.5 53.5t-22 81.5v185q0 43 17.5 76.5t46 56t65.5 34.5t75 12q51 0 95 -21v202h110v-679q-45 -18 -98 -30q-48 -10 -95 -10zM263 434q-40 0 -73 -19.5t-37 -60.5v-190q1 -23 11.5 -38.5t26 -25t35.5 -14t41 -4.5q44 0 75 14v317
q-33 21 -79 21z" />
    <glyph glyph-name="e" unicode="e" horiz-adv-x="486" 
d="M248 -10q-38 0 -75 11t-66 33.5t-46.5 55.5t-17.5 78v182q0 45 17.5 78.5t46.5 55.5t66 33t75 11q37 0 73.5 -11t65 -33t46 -55.5t17.5 -78.5v-142h-296v-36q0 -18 8 -31.5t20.5 -23.5t29 -15t34.5 -5q29 0 55.5 11.5t40.5 40.5l92 -53q-15 -27 -36.5 -46.5t-46 -33
t-51.5 -20t-52 -6.5zM344 348q0 18 -8 31.5t-21.5 23t-30.5 14t-35 4.5t-35.5 -4.5t-31 -14t-21.5 -23.5t-7 -33v-47h190v49z" />
    <glyph glyph-name="f" unicode="f" horiz-adv-x="287" 
d="M273 603q-51 0 -78 -19t-27 -52v-32h100v-108h-100v-392h-110v533q0 45 16.5 79.5t46 57.5t68.5 34q30 8 64 8q10 0 20 -1v-108z" />
    <glyph glyph-name="g" unicode="g" horiz-adv-x="504" 
d="M244 -106q20 0 37.5 6t31 19.5t21.5 35.5t8 54q-23 -10 -47 -14.5t-48 -4.5q-39 0 -76 12t-65.5 34.5t-45.5 56t-17 77.5v176q0 47 18.5 81.5t48.5 56.5t69.5 33t81.5 11q51 0 101 -15.5t85 -41.5v-481q0 -49 -17 -85t-45.5 -59t-64.5 -34.5t-75 -11.5q-29 0 -57.5 5.5
t-54.5 17t-48 29t-37 40.5l66 63q22 -29 57.5 -45t72.5 -16zM256 427q-20 0 -38.5 -5t-32.5 -14.5t-23 -25t-9 -36.5v-177q1 -20 10 -35t23 -25.5t32 -15.5t37 -5q23 0 45 6t38 17v295q-15 11 -37 16t-45 5z" />
    <glyph glyph-name="h" unicode="h" horiz-adv-x="519" 
d="M262 528h9q37 0 71.5 -11t61.5 -33.5t43.5 -56.5t16.5 -80v-347h-109v348q0 34 -21 52.5t-50 23.5q-15 3 -30.5 3t-31.5 -3q-32 -5 -54 -19v-405h-110v708h110v-200q45 20 94 20z" />
    <glyph glyph-name="i" unicode="i" horiz-adv-x="226" 
d="M42 648q0 31 20.5 52t51.5 21t52 -21t21 -52t-21 -52t-52 -21t-51.5 21t-20.5 52zM168 0h-113v517h113v-517z" />
    <glyph glyph-name="j" unicode="j" horiz-adv-x="226" 
d="M-13 -74q24 0 38 5.5t21.5 15t9.5 23t2 29.5v519h110v-519q0 -83 -42.5 -129.5t-138.5 -46.5v103zM42 648q0 31 20.5 52t51.5 21t52 -21t21 -52t-21 -52t-52 -21t-51.5 21t-20.5 52z" />
    <glyph glyph-name="k" unicode="k" horiz-adv-x="499" 
d="M168 0h-110v708h110v-399l186 209h138l-216 -239l215 -279h-129l-163 212l-31 -31v-181z" />
    <glyph glyph-name="l" unicode="l" horiz-adv-x="261" 
d="M254 -10q-97 0 -148.5 47.5t-51.5 130.5v540h110v-540q0 -32 21.5 -53.5t68.5 -21.5v-103z" />
    <glyph glyph-name="m" unicode="m" horiz-adv-x="773" 
d="M718 357v-357h-109v353q0 35 -25.5 51.5t-57.5 16.5q-16 0 -31.5 -4.5t-28 -12.5t-20 -20t-7.5 -27v-357h-108v355q0 18 -7.5 30.5t-20.5 20.5t-29 11.5t-34 3.5q-20 0 -39 -5t-36 -16v-400h-108v473q34 24 81 39t95 16q47 0 87.5 -15t63.5 -54q23 34 61 51t81 18
q35 0 69.5 -10.5t61.5 -31.5t44 -53.5t17 -75.5z" />
    <glyph glyph-name="n" unicode="n" 
d="M462 344v-344h-109v343q-1 22 -11.5 37.5t-26 25.5t-35 14.5t-39.5 4.5q-21 0 -40.5 -4.5t-33.5 -13.5v-407h-110v486q38 20 84 30.5t93 11.5q44 0 85.5 -10t73 -32t50.5 -57t19 -85z" />
    <glyph glyph-name="o" unicode="o" horiz-adv-x="494" 
d="M43 349q0 45 17.5 78t46.5 55.5t66 34t75 11.5q37 0 73.5 -11.5t65.5 -34t46.5 -55.5t17.5 -78v-180q0 -45 -17.5 -78.5t-46.5 -56t-65.5 -33.5t-73.5 -11q-38 0 -75 11t-66 33.5t-46.5 56t-17.5 78.5v180zM248 421q-17 0 -34 -4.5t-30.5 -13.5t-22 -22.5t-8.5 -31.5
v-175q0 -18 8.5 -32.5t22 -24.5t30.5 -15t34 -5q16 0 32.5 5t30 15t22 24.5t8.5 32.5v175q0 18 -8.5 31.5t-22 22.5t-30 13.5t-32.5 4.5z" />
    <glyph glyph-name="p" unicode="p" horiz-adv-x="510" 
d="M248 528h8q41 0 79 -10t67 -31t46.5 -55.5t17.5 -84.5v-183q0 -43 -17.5 -75.5t-46 -54.5t-65 -33t-73.5 -11h-9q-21 0 -41 4q-24 5 -47 14v-177h-110v655q42 19 95 31q48 11 96 11zM237 87h9q41 0 73.5 17.5t36.5 59.5v185q0 22 -9 38t-23.5 26t-33.5 14.5t-40 4.5
q-46 0 -83 -17v-316q18 -6 39 -9q15 -3 31 -3z" />
    <glyph glyph-name="q" unicode="q" horiz-adv-x="510" 
d="M248 -10q-38 0 -74.5 11t-65.5 33t-46.5 54.5t-17.5 75.5v183q0 49 17 83.5t46 56t66.5 31.5t79.5 10h8q48 0 97 -10q52 -12 95 -32v-655h-110v177q-44 -18 -95 -18zM265 432h-8q-20 0 -39 -4.5t-33 -14.5t-22.5 -26t-8.5 -38v-185q4 -41 35.5 -58.5t71.5 -18.5h9l33 3
q21 3 40 9v316q-19 8 -41 13q-18 4 -37 4z" />
    <glyph glyph-name="r" unicode="r" horiz-adv-x="325" 
d="M253 528q13 0 27.5 -1t31.5 -5v-97q-18 5 -40 5h-7q-26 -1 -48.5 -10.5t-37.5 -27.5t-15 -44v-348h-110v350q0 56 27 95t69 61q12 6 27.5 10.5t30.5 7t27 3.5t18 1z" />
    <glyph glyph-name="s" unicode="s" horiz-adv-x="445" 
d="M232 92h3q28 0 48 14.5t22 43.5q0 14 -7.5 23.5t-19.5 16t-26.5 10.5t-27.5 7q-27 5 -59.5 15t-60 28t-46 47t-18.5 73q0 43 18 73t45.5 49t62 27.5t67.5 8.5q42 0 86.5 -18t82.5 -56l-66 -72q-22 22 -53.5 33t-60.5 11t-50 -11.5t-23 -35.5q-2 -17 6.5 -29.5t22.5 -20.5
t31.5 -13t33.5 -8q31 -5 61.5 -14.5t54.5 -27.5t39.5 -45.5t15.5 -68.5t-15 -71.5t-40 -50.5t-58 -30.5t-68 -10.5q-31 0 -61.5 7.5t-58 23t-50 39t-36.5 54.5l82 53q21 -37 57 -56q34 -18 66 -18z" />
    <glyph glyph-name="t" unicode="t" horiz-adv-x="298" 
d="M237 -10q-38 0 -71.5 10.5t-58.5 33t-39 57.5t-14 84v465h99l10 -122h99v-100h-99v-242q0 -31 9.5 -48.5t25.5 -26t36.5 -10.5t43.5 -2v-96q-21 -3 -41 -3z" />
    <glyph glyph-name="u" unicode="u" 
d="M261 -10q-42 0 -80 10t-66 32t-44.5 56t-16.5 82v348h110v-350q1 -22 11 -37.5t25.5 -25.5t35 -15t40.5 -5q20 0 39.5 5t35.5 13v415h109v-485q-48 -20 -99 -31.5t-100 -11.5z" />
    <glyph glyph-name="v" unicode="v" horiz-adv-x="489" 
d="M368 518h117l-184 -518h-113l-183 518h116l104 -302l17 -103h7l18 103z" />
    <glyph glyph-name="w" unicode="w" horiz-adv-x="709" 
d="M409 505l86 -384h3l19 126l69 271h111l-145 -518h-115l-82 352h-1l-82 -352h-115l-146 518h113l70 -273l18 -126h3q1 9 4.5 30.5t13 65t25.5 113.5t42 177h109z" />
    <glyph glyph-name="x" unicode="x" horiz-adv-x="496" 
d="M485 0h-127l-54 85l-55 99l-57 -100l-54 -84h-128l176 259l-176 259h128l50 -78l61 -107l61 108l48 77h126l-169 -259z" />
    <glyph glyph-name="y" unicode="y" horiz-adv-x="526" 
d="M468 -9q0 -49 -17.5 -85t-46.5 -59.5t-66.5 -35t-77.5 -11.5q-60 0 -115.5 23.5t-85.5 70.5l66 63q22 -29 61 -45q36 -14 71 -14h5q21 0 40.5 7.5t33.5 22t22 34.5q5 17 5 36v11q-44 -17 -95 -19q-40 0 -78.5 12t-68.5 35t-48.5 56.5t-18.5 77.5v347h110v-348
q1 -20 11 -35t26 -25t35.5 -15t39.5 -5q23 0 45 6t38 17v405h109v-527z" />
    <glyph glyph-name="z" unicode="z" horiz-adv-x="470" 
d="M434 106v-106h-369l-45 65l271 349h-245v104h354l42 -66l-267 -346h259z" />
    <glyph glyph-name="braceleft" unicode="{" horiz-adv-x="311" 
d="M229 626q-15 0 -18 -10.5t-3 -29.5v-142q1 -50 -18.5 -87.5t-45.5 -50.5q29 -17 47 -52q17 -34 17 -82v-5v-145q0 -36 15 -36h54v-102h-61q-36 0 -59 9.5t-37 27t-19.5 42.5t-5.5 57v129q0 20 -3 39t-10 33.5t-19 23.5t-30 9v103q18 0 30 9t19 24t10 34t3 39v129
q0 63 28 100t102 37h52v-103h-48z" />
    <glyph glyph-name="bar" unicode="|" horiz-adv-x="226" 
d="M58 -157v884h110v-884h-110z" />
    <glyph glyph-name="braceright" unicode="}" horiz-adv-x="310" 
d="M81 729q45 0 72 -9.5t40.5 -27.5t17.5 -43.5t4 -56.5v-129q0 -20 3 -39t10 -34t19 -24t31 -9v-103q-19 0 -31 -9t-19 -23.5t-10 -33.5t-3 -39v-129q0 -32 -5.5 -57t-20.5 -42.5t-41.5 -27t-68.5 -9.5h-45v102h44q14 0 19.5 9t5.5 27v145v6q0 46 16 82q17 38 46 52
q-13 4 -24.5 16.5t-20 30.5t-13 41t-4.5 49v142q0 19 -3 29.5t-20 10.5h-46v103h47z" />
    <glyph glyph-name="asciitilde" unicode="~" horiz-adv-x="483" 
d="M310 214q-29 0 -54.5 15.5t-48.5 30.5q-15 11 -26.5 15t-21.5 1t-20 -13t-22 -26l-76 65q22 32 52 56t73 24q34 0 59.5 -13.5t45.5 -27.5q17 -14 29 -18t22 0t20 15.5t23 29.5l77 -64q-21 -37 -52.5 -63.5t-79.5 -26.5z" />
    <glyph glyph-name="uni00A0" unicode="&#xa0;" horiz-adv-x="200" 
 />
    <glyph glyph-name="exclamdown" unicode="&#xa1;" horiz-adv-x="226" 
d="M169 -197h-112v531h112v-531zM41 442q0 31 20.5 52t51.5 21t52 -21t21 -52t-21 -52t-52 -21t-51.5 21t-20.5 52z" />
    <glyph glyph-name="cent" unicode="&#xa2;" horiz-adv-x="483" 
d="M286 -76h-74v72q-33 4 -63 17t-53.5 35t-37 52.5t-13.5 70.5v175q0 39 13.5 70t37 52.5t53.5 34.5t63 18v77h74v-77q26 -4 51.5 -13.5t47.5 -25.5t39 -39.5t26 -54.5l-100 -38q-8 26 -25 41t-39 21v-308q22 7 39 22t25 41l102 -38q-9 -32 -26 -55t-39.5 -39.5t-48.5 -26
t-52 -12.5v-72zM155 170q3 -23 18.5 -39t38.5 -24v303q-23 -8 -38.5 -24t-18.5 -39v-177z" />
    <glyph glyph-name="sterling" unicode="&#xa3;" horiz-adv-x="521" 
d="M131 315h-92v102h92v88q0 34 10 72t33.5 69t63.5 51.5t100 20.5q41 0 79 -17t67 -56l-66 -68q-26 28 -56 34q-11 2 -22 2q-18 0 -36 -7q-26 -11 -44 -36t-18 -59v-94h145v-102h-145v-210h242v-105h-445v105h92v210z" />
    <glyph glyph-name="currency" unicode="&#xa4;" horiz-adv-x="610" 
d="M55 343q0 37 10.5 72t30.5 64l-13 15l-37 35l71 77l53 -54q58 39 135 39q75 0 135 -39l54 54l70 -77l-51 -49q20 -29 31 -64t11 -73q0 -79 -42 -137l14 -14l37 -35l-70 -77l-54 54q-32 -21 -64.5 -30t-70.5 -9q-73 0 -135 39l-16 -18l-11 -11q-6 -6 -12 -11
q-7 -6 -14 -13l-71 76l51 49q-42 59 -42 137zM163 342q0 -29 11 -55t30.5 -45.5t45 -30.5t54.5 -11t54.5 11t45 30.5t30.5 45.5t11 55q0 30 -11 56t-30.5 45.5t-45 31t-54.5 11.5t-54.5 -11.5t-45 -31t-30.5 -45.5t-11 -56z" />
    <glyph glyph-name="yen" unicode="&#xa5;" horiz-adv-x="633" 
d="M372 265v-38h139l-21 -87h-118v-140h-112v140h-143l21 87h122v38h-141l22 91h82l-201 352h130l164 -306l164 306h132l-202 -352h100l-21 -91h-117z" />
    <glyph glyph-name="brokenbar" unicode="&#xa6;" horiz-adv-x="231" 
d="M60 315v369h111v-369h-111zM60 -128v370h111v-370h-111z" />
    <glyph glyph-name="section" unicode="&#xa7;" horiz-adv-x="471" 
d="M232.5 -25q30.5 0 53.5 17t23 50q0 27 -20 45.5t-49.5 34t-64.5 30.5t-64.5 35.5t-49.5 49t-20 70.5q0 41 19 70t48 49q-20 20 -33 47t-13 60q0 45 19.5 80t51 57.5t71.5 31.5q23 5 47 5l31 -2q40 -6 75.5 -29t59.5 -64l-88 -54q-17 32 -43 42q-15 5 -31 5q-10 0 -20 -3
q-25 -6 -42.5 -25t-17.5 -44t19.5 -43t48 -33t62.5 -30.5t62.5 -36t48 -48t19.5 -66.5q0 -38 -15 -68t-42 -51q20 -21 32.5 -48t12.5 -59q-1 -55 -24 -94t-59.5 -60.5t-81.5 -26.5q-13 -2 -26 -2q-31 0 -61 9q-43 11 -79.5 39.5t-56.5 73.5l92 50q15 -32 45 -48t60.5 -16z
M327 271q0 22 -20 38t-38 26l-56 31q-22 -8 -41.5 -22.5t-19.5 -34.5q0 -24 13.5 -36t33.5 -22l82 -39q16 11 31 27.5t15 31.5z" />
    <glyph glyph-name="dieresis" unicode="&#xa8;" horiz-adv-x="340" 
d="M199 831q0 31 20.5 52t51.5 21t52 -21t21 -52t-21 -52t-52 -21t-51.5 21t-20.5 52zM-22 831q0 31 20.5 52t51.5 21t52 -21t21 -52t-21 -52t-52 -21t-51.5 21t-20.5 52z" />
    <glyph glyph-name="copyright" unicode="&#xa9;" horiz-adv-x="792" 
d="M37 351q0 74 28.5 139.5t77.5 114t114.5 77t139.5 28.5t139 -28.5t114 -77t77 -114t28 -139.5t-28 -139.5t-77 -114.5t-114 -77t-139 -28t-139.5 28t-114.5 77t-77.5 114.5t-28.5 139.5zM128 351q0 -56 21 -104.5t57.5 -85.5t85.5 -58t105 -21q55 0 103.5 21t85 58
t57.5 85.5t21 104.5t-21 105t-57.5 85t-85 57t-103.5 21q-56 0 -105 -21t-85.5 -57t-57.5 -85t-21 -105zM203 404q0 43 17 74.5t44 52.5t62 31.5t71 10.5q29 0 58.5 -7t55.5 -22.5t46.5 -40t30.5 -59.5l-95 -36q-10 34 -39 50q-25 14 -54 14h-6q-31 -2 -56.5 -19.5
t-29.5 -47.5v-113q4 -30 29.5 -47.5t56.5 -18.5q3 -1 6 -1q29 0 54 14q29 15 39 50l97 -36q-10 -35 -30.5 -59.5t-47 -40t-56.5 -22.5t-59 -7q-36 0 -71 10.5t-62 31.5t-44 52.5t-17 74.5v111z" />
    <glyph glyph-name="ordfeminine" unicode="&#xaa;" horiz-adv-x="390" 
d="M190 702h4q28 0 54 -8.5t46 -26t32 -42.5t12 -58v-233q-35 -10 -73 -16q-33 -5 -64 -5h-10q-31 1 -58.5 8t-48.5 22.5t-33 40.5t-12 62q0 33 11.5 55.5t30.5 36t42 19.5t47 6q33 0 60 -9q0 31 -18.5 45.5t-43.5 14.5q-20 -1 -39 -9.5t-34 -25.5l-49 47q26 39 66 58
q38 18 78 18zM196 488q-20 0 -37.5 -9.5t-18.5 -30.5q0 -27 18.5 -37.5t40.5 -11.5q8 0 16 1t15 3v79q-15 6 -34 6z" />
    <glyph glyph-name="guillemotleft" unicode="&#xab;" horiz-adv-x="487" 
d="M451 454l-111 -164q1 -2 3.5 -6t13 -19t32.5 -47t62 -90l-96 -57l-147 220l147 220zM271 454l-112 -163l112 -164l-95 -56l-148 220l148 220z" />
    <glyph glyph-name="logicalnot" unicode="&#xac;" horiz-adv-x="588" 
d="M48 413h482v-263h-109v154h-373v109z" />
    <glyph glyph-name="uni00AD" unicode="&#xad;" horiz-adv-x="399" 
d="M338 188h-278v112h278v-112z" />
    <glyph glyph-name="registered" unicode="&#xae;" horiz-adv-x="792" 
d="M37 351q0 74 28.5 139.5t77.5 114t114.5 77t139.5 28.5t139 -28.5t114 -77t77 -114t28 -139.5t-28 -139.5t-77 -114.5t-114 -77t-139 -28t-139.5 28t-114.5 77t-77.5 114.5t-28.5 139.5zM128 351q0 -56 21 -104.5t57.5 -85.5t85.5 -58t105 -21q55 0 103.5 21t85 58
t57.5 85.5t21 104.5t-21 105t-57.5 85t-85 57t-103.5 21q-56 0 -105 -21t-85.5 -57t-57.5 -85t-21 -105zM251 527h162q40 0 68.5 -14t45 -36.5t21.5 -49.5q2 -12 2 -24q0 -15 -3 -29q-6 -26 -23.5 -48t-45.5 -33l86 -124h-116l-78 117h-21v-117h-98v358zM410 366
q20 0 29.5 12t9.5 26t-10.5 26t-29.5 12h-60v-76h61z" />
    <glyph glyph-name="macron" unicode="&#xaf;" horiz-adv-x="305" 
d="M10 892h293v-101h-293v101z" />
    <glyph glyph-name="degree" unicode="&#xb0;" horiz-adv-x="363" 
d="M182 413q-31 0 -58 11.5t-47.5 32t-32 47.5t-11.5 58t11.5 58t32 47t47.5 31.5t58 11.5q30 0 57 -11.5t47.5 -31.5t32 -47t11.5 -58q0 -30 -12 -57.5t-32 -47.5t-47 -32t-57 -12zM235 561q0 22 -15.5 38t-37.5 16t-38 -16t-16 -38t16 -37.5t38 -15.5t37.5 15.5t15.5 37.5
z" />
    <glyph glyph-name="plusminus" unicode="&#xb1;" horiz-adv-x="543" 
d="M214 620h111v-154h165v-110h-165v-154h-111v154h-161v110h161v154zM491 52h-440v109h440v-109z" />
    <glyph glyph-name="twosuperior" unicode="&#xb2;" horiz-adv-x="412" 
d="M200 712q54 0 92.5 -26t54.5 -64q10 -25 10 -52q0 -16 -3 -32q-9 -45 -49 -83l-99 -89h157v-101h-291l-30 71l188 186q13 10 18.5 25.5t3 30t-15.5 24.5q-11 9 -31 9h-4q-26 -1 -44.5 -16t-29.5 -32l-87 45q26 58 67.5 81t92.5 23z" />
    <glyph glyph-name="threesuperior" unicode="&#xb3;" horiz-adv-x="387" 
d="M191 374q12 0 25 4q15 5 26 16q7 11 7 24q0 17 -13 32q-12 12 -32 12h-6h-42v79h43q20 3 27.5 14t5.5 23.5t-13.5 22.5t-30.5 10q-17 0 -31 -7t-22 -16l-8 -11l-86 44q13 25 30.5 41.5t36 26.5t37 14.5t35.5 5.5h10q33 0 62 -11q35 -13 57 -41q12 -16 19 -37q5 -17 5 -34
q0 -4 -1 -8q-1 -21 -11.5 -39.5t-33.5 -29.5q31 -12 46.5 -34.5t18.5 -48.5q1 -7 1 -14q0 -20 -7 -40q-9 -27 -28 -48q-26 -29 -65 -42q-36 -11 -71 -11h-5q-42 2 -78 25.5t-57 65.5l-5 13l82 42q11 -23 29 -32t35 -10q4 -1 8 -1z" />
    <glyph glyph-name="acute" unicode="&#xb4;" horiz-adv-x="285" 
d="M145 756h-114l91 151h141z" />
    <glyph glyph-name="mu" unicode="&#xb5;" horiz-adv-x="520" 
d="M259 -11q-27 0 -53 13q-26 12 -39 39v-242h-112v717h113v-318q0 -30 13.5 -50.5t34 -31t44.5 -10.5t44.5 11t34 33t13.5 57v309h113l2 -518h-104l-7 40q-14 -23 -40 -35.5t-54 -12.5q-2 -1 -3 -1z" />
    <glyph glyph-name="paragraph" unicode="&#xb6;" horiz-adv-x="627" 
d="M264 237q-79 0 -132.5 35t-80 87t-26.5 113.5t27 113.5t81 87t135 35h296v-820h-112v717h-75v-717h-113v349z" />
    <glyph glyph-name="periodcentered" unicode="&#xb7;" horiz-adv-x="236" 
d="M46 311q0 31 20.5 52t51.5 21t52 -21t21 -52t-21 -52t-52 -21t-51.5 21t-20.5 52z" />
    <glyph glyph-name="cedilla" unicode="&#xb8;" horiz-adv-x="251" 
d="M241 -141q0 -18 -7 -38q-13 -36 -45.5 -50.5t-73.5 -14.5q-22 0 -49 7t-59 26l25 67q28 -17 50 -20h12q14 0 24 4q13 6 17 17.5t-2.5 22.5t-24.5 19q-16 7 -43 7h-7l46 105h95l-29 -64q49 -17 64 -51q7 -18 7 -37z" />
    <glyph glyph-name="onesuperior" unicode="&#xb9;" horiz-adv-x="279" 
d="M220 690v-435h-105v286l-43 -41l-56 62l117 128h87z" />
    <glyph glyph-name="ordmasculine" unicode="&#xba;" horiz-adv-x="414" 
d="M207 309q-30 0 -59.5 9t-53 26.5t-38 44t-14.5 61.5v102q0 36 14.5 62.5t38 44t53 26t59.5 8.5t60 -8.5t53.5 -26t38 -44t14.5 -62.5v-102q0 -35 -14.5 -61.5t-38 -44t-53.5 -26.5t-60 -9zM208.5 408q22.5 0 40.5 10.5t18 31.5v102q-1 23 -20 34.5t-41 11.5t-40.5 -11.5
t-18.5 -34.5v-102q1 -21 20 -31.5t41.5 -10.5z" />
    <glyph glyph-name="guillemotright" unicode="&#xbb;" horiz-adv-x="488" 
d="M216 128l112 164l-110 163l95 57l147 -220l-147 -220zM35 127l112 164l-110 163l95 57l147 -220l-147 -220z" />
    <glyph glyph-name="onequarter" unicode="&#xbc;" horiz-adv-x="745" 
d="M676 457v-264h36v-93h-36v-100h-110v100h-163l-50 77l228 280h95zM482 192h86l2 108zM183 -41l-91 56l435 712l91 -55zM227 711v-435h-105v286l-43 -41l-56 62l117 128h87z" />
    <glyph glyph-name="onehalf" unicode="&#xbd;" horiz-adv-x="817" 
d="M183 -41l-91 56l435 712l91 -55zM617 447q54 0 92.5 -26t54.5 -64q10 -25 10 -52q0 -16 -3 -32q-9 -45 -49 -83l-99 -89h157v-101h-291l-30 71l188 186q13 10 18.5 25.5t3 30t-15.5 24.5q-11 9 -31 9h-4q-26 -1 -44.5 -16t-29.5 -32l-87 45q26 58 67.5 81t92.5 23z
M226 711v-435h-105v286l-43 -41l-56 62l117 128h87z" />
    <glyph glyph-name="threequarters" unicode="&#xbe;" horiz-adv-x="811" 
d="M172 375q26 0 46 11t20 32q0 17 -14 32q-11 12 -31 12h-6h-42v79h43q20 0 27.5 11t5.5 24t-13.5 24t-30.5 11q-17 0 -31 -7t-22 -16l-8 -11l-86 44q13 25 30.5 42t36 27t37 14.5t35.5 4.5q41 0 74 -12t55 -40q12 -16 18 -37q6 -17 6 -34v-8q-2 -21 -12.5 -39.5
t-33.5 -29.5q31 -12 46.5 -34.5t18.5 -48.5q1 -7 1 -14q0 -20 -7 -40q-9 -27 -28 -48q-26 -29 -65 -42q-36 -11 -71 -11h-5q-42 2 -78 25.5t-57 65.5l-5 13l82 42q11 -23 29 -32.5t35 -9.5zM746 457v-264h36v-93h-36v-100h-110v100h-163l-50 77l228 280h95zM640 300
l-88 -108h86zM248 -41l-91 56l435 712l91 -55z" />
    <glyph glyph-name="questiondown" unicode="&#xbf;" horiz-adv-x="484" 
d="M258 -202q-44 0 -85.5 14t-73.5 41t-51 67t-19 93q0 48 14.5 86t39 65t58 44t71.5 23l8 124h99l8 -219q-20 4 -39 4q-25 0 -46 -8q-37 -13 -60.5 -38t-32.5 -57q-5 -17 -5 -33q0 -14 4 -28q8 -28 35.5 -47.5t76.5 -19.5q32 0 65.5 17.5t61.5 52.5l78 -63q-40 -64 -95 -91
t-112 -27zM201 460q0 31 20.5 52t51.5 21t52 -21t21 -52t-21 -52t-52 -21t-51.5 21t-20.5 52z" />
    <glyph glyph-name="Agrave" unicode="&#xc0;" horiz-adv-x="630" 
d="M284 756l-118 151h141l91 -151h-114zM631 0h-121l-69 184h-254l-64 -184h-124l255 708h121zM312 591l-29 -114l-57 -177h175l-58 179l-27 112h-4z" />
    <glyph glyph-name="Aacute" unicode="&#xc1;" horiz-adv-x="630" 
d="M356 756h-114l91 151h141zM631 0h-121l-69 184h-254l-64 -184h-124l255 708h121zM312 591l-29 -114l-57 -177h175l-58 179l-27 112h-4z" />
    <glyph glyph-name="Acircumflex" unicode="&#xc2;" horiz-adv-x="630" 
d="M492 756h-125l-54 60l-51 -60h-127l138 151h81zM631 0h-121l-69 184h-254l-64 -184h-124l255 708h121zM312 591l-29 -114l-57 -177h175l-58 179l-27 112h-4z" />
    <glyph glyph-name="Atilde" unicode="&#xc3;" horiz-adv-x="630" 
d="M257 907q22 0 38.5 -6.5t29.5 -14.5t23 -14.5t20 -6.5q21 0 29 28l75 -24q-11 -54 -34.5 -80t-57.5 -26q-24 0 -41 6t-30.5 13.5t-24 14t-20.5 6.5q-8 0 -16 -6.5t-14 -25.5l-74 27q11 54 36.5 81.5t60.5 27.5zM631 0h-121l-69 184h-254l-64 -184h-124l255 708h121z
M312 591l-29 -114l-57 -177h175l-58 179l-27 112h-4z" />
    <glyph glyph-name="Adieresis" unicode="&#xc4;" horiz-adv-x="630" 
d="M359 831q0 31 20.5 52t51.5 21t52 -21t21 -52t-21 -52t-52 -21t-51.5 21t-20.5 52zM138 831q0 31 20.5 52t51.5 21t52 -21t21 -52t-21 -52t-52 -21t-51.5 21t-20.5 52zM631 0h-121l-69 184h-254l-64 -184h-124l255 708h121zM312 591l-29 -114l-57 -177h175l-58 179
l-27 112h-4z" />
    <glyph glyph-name="Aring" unicode="&#xc5;" horiz-adv-x="630" 
d="M202 805q0 51 31.5 82t82.5 31t81 -31.5t30 -82.5q0 -34 -13.5 -59t-37.5 -39l255 -706h-121l-69 184h-254l-64 -184h-124l255 707q-25 14 -38.5 39.5t-13.5 58.5zM315 847q-20 0 -32 -11.5t-12 -31.5q0 -19 12 -30.5t32 -11.5q19 0 30.5 11.5t11.5 30.5q0 20 -11.5 31.5
t-30.5 11.5zM343 479l-27 112h-4l-29 -114l-57 -177h175z" />
    <glyph glyph-name="AE" unicode="&#xc6;" horiz-adv-x="820" 
d="M504 592v-181h248v-115h-248v-182h275v-114h-388v215h-164l-107 -215h-132l377 708h414v-116h-275zM391 324v135l7 110h-6l-37 -97l-78 -148h114z" />
    <glyph glyph-name="Ccedilla" unicode="&#xc7;" horiz-adv-x="601" 
d="M319 106q48 0 92 24t69 72l103 -48q-32 -68 -89 -108t-121 -51l-22 -48q49 -17 63 -51q8 -18 8 -37q0 -18 -7 -38q-13 -36 -45.5 -50.5t-73.5 -14.5q-22 0 -49 7t-59 26l25 67q28 -17 50 -20h12q14 0 23 4q14 6 18 17.5t-2.5 22.5t-24.5 19q-16 7 -43 7h-7l38 86
q-45 6 -86.5 22.5t-73 45t-50.5 68t-19 90.5v272q0 57 23.5 99.5t62 71t87.5 43t101 14.5q39 0 77 -10t72.5 -30t63.5 -50.5t48 -71.5l-103 -51q-26 48 -70 72.5t-91 24.5q-29 0 -57 -7t-50 -21t-35.5 -35t-13.5 -49v-272q0 -28 13.5 -49t35.5 -35t50 -21t57 -7z" />
    <glyph glyph-name="Egrave" unicode="&#xc8;" horiz-adv-x="576" 
d="M280 756l-118 151h141l91 -151h-114zM183 412h323v-116h-323v-180h351v-116h-467v709h467v-116h-351v-181z" />
    <glyph glyph-name="Eacute" unicode="&#xc9;" horiz-adv-x="576" 
d="M352 756h-114l91 151h141zM183 412h323v-116h-323v-180h351v-116h-467v709h467v-116h-351v-181z" />
    <glyph glyph-name="Ecircumflex" unicode="&#xca;" horiz-adv-x="576" 
d="M488 756h-125l-54 60l-51 -60h-127l138 151h81zM183 412h323v-116h-323v-180h351v-116h-467v709h467v-116h-351v-181z" />
    <glyph glyph-name="Edieresis" unicode="&#xcb;" horiz-adv-x="576" 
d="M355 831q0 31 20.5 52t51.5 21t52 -21t21 -52t-21 -52t-52 -21t-51.5 21t-20.5 52zM134 831q0 31 20.5 52t51.5 21t52 -21t21 -52t-21 -52t-52 -21t-51.5 21t-20.5 52zM183 412h323v-116h-323v-180h351v-116h-467v709h467v-116h-351v-181z" />
    <glyph glyph-name="Igrave" unicode="&#xcc;" horiz-adv-x="250" 
d="M95 756l-118 151h141l91 -151h-114zM183 0h-115v708h115v-708z" />
    <glyph glyph-name="Iacute" unicode="&#xcd;" horiz-adv-x="250" 
d="M167 756h-114l91 151h141zM183 0h-115v708h115v-708z" />
    <glyph glyph-name="Icircumflex" unicode="&#xce;" horiz-adv-x="250" 
d="M303 756h-125l-54 60l-51 -60h-127l138 151h81zM183 0h-115v708h115v-708z" />
    <glyph glyph-name="Idieresis" unicode="&#xcf;" horiz-adv-x="250" 
d="M150 831q0 31 20.5 52t51.5 21t52 -21t21 -52t-21 -52t-52 -21t-51.5 21t-20.5 52zM-31 831q0 31 20.5 52t51.5 21t52 -21t21 -52t-21 -52t-52 -21t-51.5 21t-20.5 52zM183 0h-115v708h115v-708z" />
    <glyph glyph-name="Eth" unicode="&#xd0;" horiz-adv-x="641" 
d="M73 708h266q51 0 97 -12.5t80.5 -39.5t55 -68.5t20.5 -99.5v-269q0 -58 -20.5 -99.5t-55 -68t-80.5 -39t-97 -12.5h-266v302h-57v95h57v311zM339 116q30 0 55 5.5t43.5 18t29 32t10.5 47.5v269q0 28 -10.5 48t-29 32.5t-43.5 18t-55 5.5h-150v-195h114v-95h-114v-186h150
z" />
    <glyph glyph-name="Ntilde" unicode="&#xd1;" horiz-adv-x="681" 
d="M283 907q22 0 38.5 -6.5t29.5 -14.5t23 -14.5t20 -6.5q21 0 29 28l75 -24q-11 -54 -34.5 -80t-57.5 -26q-24 0 -41 6t-30.5 13.5t-24 14t-20.5 6.5q-8 0 -16 -6.5t-14 -25.5l-74 27q11 54 36.5 81.5t60.5 27.5zM67 0v708h122l246 -418l73 -141l7 2l-17 152v405h116v-708
h-135l-241 410l-66 135l-7 -2l18 -148v-395h-116z" />
    <glyph glyph-name="Ograve" unicode="&#xd2;" horiz-adv-x="668" 
d="M303 756l-118 151h141l91 -151h-114zM334 718q54 0 105.5 -14.5t92 -43t65 -71.5t24.5 -100v-269q0 -57 -24.5 -100.5t-65 -72t-92 -43t-105.5 -14.5t-105.5 14.5t-91.5 43t-64.5 72t-24.5 100.5v269q0 57 24.5 100t64.5 71.5t91.5 43t105.5 14.5zM163 221
q0 -29 14.5 -50.5t38.5 -35.5t55 -21.5t63 -7.5q33 0 64 7.5t55 21.5t38.5 35.5t14.5 50.5v266q0 30 -15 52t-39 36t-55 20.5t-63 6.5t-63 -7t-55 -21t-38.5 -35.5t-14.5 -51.5v-266z" />
    <glyph glyph-name="Oacute" unicode="&#xd3;" horiz-adv-x="668" 
d="M375 756h-114l91 151h141zM334 718q54 0 105.5 -14.5t92 -43t65 -71.5t24.5 -100v-269q0 -57 -24.5 -100.5t-65 -72t-92 -43t-105.5 -14.5t-105.5 14.5t-91.5 43t-64.5 72t-24.5 100.5v269q0 57 24.5 100t64.5 71.5t91.5 43t105.5 14.5zM163 221q0 -29 14.5 -50.5
t38.5 -35.5t55 -21.5t63 -7.5q33 0 64 7.5t55 21.5t38.5 35.5t14.5 50.5v266q0 30 -15 52t-39 36t-55 20.5t-63 6.5t-63 -7t-55 -21t-38.5 -35.5t-14.5 -51.5v-266z" />
    <glyph glyph-name="Ocircumflex" unicode="&#xd4;" horiz-adv-x="668" 
d="M511 756h-125l-54 60l-51 -60h-127l138 151h81zM334 718q54 0 105.5 -14.5t92 -43t65 -71.5t24.5 -100v-269q0 -57 -24.5 -100.5t-65 -72t-92 -43t-105.5 -14.5t-105.5 14.5t-91.5 43t-64.5 72t-24.5 100.5v269q0 57 24.5 100t64.5 71.5t91.5 43t105.5 14.5zM163 221
q0 -29 14.5 -50.5t38.5 -35.5t55 -21.5t63 -7.5q33 0 64 7.5t55 21.5t38.5 35.5t14.5 50.5v266q0 30 -15 52t-39 36t-55 20.5t-63 6.5t-63 -7t-55 -21t-38.5 -35.5t-14.5 -51.5v-266z" />
    <glyph glyph-name="Otilde" unicode="&#xd5;" horiz-adv-x="668" 
d="M276 907q22 0 38.5 -6.5t29.5 -14.5t23 -14.5t20 -6.5q21 0 29 28l75 -24q-11 -54 -34.5 -80t-57.5 -26q-24 0 -41 6t-30.5 13.5t-24 14t-20.5 6.5q-8 0 -16 -6.5t-14 -25.5l-74 27q11 54 36.5 81.5t60.5 27.5zM334 718q54 0 105.5 -14.5t92 -43t65 -71.5t24.5 -100v-269
q0 -57 -24.5 -100.5t-65 -72t-92 -43t-105.5 -14.5t-105.5 14.5t-91.5 43t-64.5 72t-24.5 100.5v269q0 57 24.5 100t64.5 71.5t91.5 43t105.5 14.5zM163 221q0 -29 14.5 -50.5t38.5 -35.5t55 -21.5t63 -7.5q33 0 64 7.5t55 21.5t38.5 35.5t14.5 50.5v266q0 30 -15 52t-39 36
t-55 20.5t-63 6.5t-63 -7t-55 -21t-38.5 -35.5t-14.5 -51.5v-266z" />
    <glyph glyph-name="Odieresis" unicode="&#xd6;" horiz-adv-x="668" 
d="M378 831q0 31 20.5 52t51.5 21t52 -21t21 -52t-21 -52t-52 -21t-51.5 21t-20.5 52zM157 831q0 31 20.5 52t51.5 21t52 -21t21 -52t-21 -52t-52 -21t-51.5 21t-20.5 52zM334 718q54 0 105.5 -14.5t92 -43t65 -71.5t24.5 -100v-269q0 -57 -24.5 -100.5t-65 -72t-92 -43
t-105.5 -14.5t-105.5 14.5t-91.5 43t-64.5 72t-24.5 100.5v269q0 57 24.5 100t64.5 71.5t91.5 43t105.5 14.5zM163 221q0 -29 14.5 -50.5t38.5 -35.5t55 -21.5t63 -7.5q33 0 64 7.5t55 21.5t38.5 35.5t14.5 50.5v266q0 30 -15 52t-39 36t-55 20.5t-63 6.5t-63 -7t-55 -21
t-38.5 -35.5t-14.5 -51.5v-266z" />
    <glyph glyph-name="multiply" unicode="&#xd7;" horiz-adv-x="515" 
d="M401 518l77 -79l-140 -141l139 -139l-77 -78l-140 140l-145 -145l-75 80l142 141l-145 145l77 77l145 -144z" />
    <glyph glyph-name="Oslash" unicode="&#xd8;" horiz-adv-x="668" 
d="M621 489v-269q0 -57 -24.5 -100.5t-65 -72t-92 -43t-105.5 -14.5q-44 0 -86 9l-37 -94l-79 28l37 95q-54 28 -87.5 75.5t-33.5 116.5v269q0 57 24.5 100t64.5 71.5t91.5 43t105.5 14.5t102 -13l34 87l80 -28l-36 -92q48 -29 77.5 -74.5t29.5 -108.5zM163 221
q0 -28 13.5 -49t36.5 -35l181 459q-30 6 -60 6q-32 0 -63 -7t-55 -21t-38.5 -35.5t-14.5 -51.5v-266zM506 487q0 24 -9 42.5t-26 32.5l-179 -453q21 -3 42 -3q33 0 64 7.5t55 21.5t38.5 35.5t14.5 50.5v266z" />
    <glyph glyph-name="Ugrave" unicode="&#xd9;" horiz-adv-x="672" 
d="M306 756l-118 151h141l91 -151h-114zM179 223q0 -30 13.5 -52t35.5 -36.5t50.5 -21.5t57.5 -7q30 0 58 7t50.5 21.5t36 36.5t13.5 52v485h116v-486q0 -58 -23.5 -101.5t-62.5 -72.5t-88 -43.5t-100 -14.5t-100.5 14.5t-87.5 43.5t-61.5 72.5t-23.5 101.5v486h116v-485z
" />
    <glyph glyph-name="Uacute" unicode="&#xda;" horiz-adv-x="672" 
d="M378 756h-114l91 151h141zM179 223q0 -30 13.5 -52t35.5 -36.5t50.5 -21.5t57.5 -7q30 0 58 7t50.5 21.5t36 36.5t13.5 52v485h116v-486q0 -58 -23.5 -101.5t-62.5 -72.5t-88 -43.5t-100 -14.5t-100.5 14.5t-87.5 43.5t-61.5 72.5t-23.5 101.5v486h116v-485z" />
    <glyph glyph-name="Ucircumflex" unicode="&#xdb;" horiz-adv-x="672" 
d="M514 756h-125l-54 60l-51 -60h-127l138 151h81zM179 223q0 -30 13.5 -52t35.5 -36.5t50.5 -21.5t57.5 -7q30 0 58 7t50.5 21.5t36 36.5t13.5 52v485h116v-486q0 -58 -23.5 -101.5t-62.5 -72.5t-88 -43.5t-100 -14.5t-100.5 14.5t-87.5 43.5t-61.5 72.5t-23.5 101.5v486
h116v-485z" />
    <glyph glyph-name="Udieresis" unicode="&#xdc;" horiz-adv-x="672" 
d="M381 831q0 31 20.5 52t51.5 21t52 -21t21 -52t-21 -52t-52 -21t-51.5 21t-20.5 52zM160 831q0 31 20.5 52t51.5 21t52 -21t21 -52t-21 -52t-52 -21t-51.5 21t-20.5 52zM179 223q0 -30 13.5 -52t35.5 -36.5t50.5 -21.5t57.5 -7q30 0 58 7t50.5 21.5t36 36.5t13.5 52v485
h116v-486q0 -58 -23.5 -101.5t-62.5 -72.5t-88 -43.5t-100 -14.5t-100.5 14.5t-87.5 43.5t-61.5 72.5t-23.5 101.5v486h116v-485z" />
    <glyph glyph-name="Yacute" unicode="&#xdd;" horiz-adv-x="600" 
d="M342 756h-114l91 151h141zM242 0v275l-246 433h133l171 -322l170 322h135l-247 -433v-275h-116z" />
    <glyph glyph-name="Thorn" unicode="&#xde;" horiz-adv-x="609" 
d="M67 708h114l-1 -118h161q61 0 107 -20t76.5 -53t46 -75t15.5 -85q0 -44 -15.5 -85.5t-46 -73.5t-76 -51.5t-106.5 -19.5h-161v-127h-114v708zM341 233q33 0 57 11t40.5 28t24.5 39t8 44t-8 43.5t-24.5 38t-41 27t-56.5 10.5h-160v-241h160z" />
    <glyph glyph-name="germandbls" unicode="&#xdf;" horiz-adv-x="577" 
d="M302 107q27 0 52 9q32 11 53.5 36.5t21.5 63.5q0 28 -10 48t-27 33t-40 19t-50 6h-92v105h92q40 0 69.5 26.5t29.5 71.5q0 23 -10 39.5t-26.5 27t-37 15.5t-41.5 5t-42 -5.5t-37.5 -17t-27 -29t-10.5 -41.5v-519h-111v519q0 48 19.5 85t52 62t73.5 37.5t83 12.5t83 -11.5
t73 -35.5t52 -60t20 -84q0 -20 -4 -41t-12 -40.5t-21 -36t-32 -26.5q54 -26 76 -68.5t22 -96.5q-1 -67 -32.5 -114.5t-79.5 -73t-106 -28.5h-13q-51 0 -99 20v112q32 -20 70 -24q10 -1 19 -1z" />
    <glyph glyph-name="agrave" unicode="&#xe0;" horiz-adv-x="489" 
d="M226 578l-118 151h141l91 -151h-114zM327 354q0 19 -9 33.5t-24 24t-34.5 14t-40.5 4.5q-31 0 -60 -10.5t-49 -32.5l-62 64q42 47 88.5 62t96.5 15q38 0 74.5 -10.5t65.5 -31.5t46.5 -53t17.5 -76v-332q-36 -14 -87.5 -24.5t-108.5 -10.5q-41 0 -79 7.5t-67 25.5
t-47 48.5t-18 76.5q0 43 16.5 74t43.5 51.5t61.5 30.5t70.5 10q28 0 55 -5t50 -15v60zM238 226q-48 0 -74 -21.5t-26 -55.5q0 -18 8 -31t21.5 -21t30.5 -11.5t36 -3.5q27 0 51 3t42 8v115q-17 8 -40.5 13t-48.5 5z" />
    <glyph glyph-name="aacute" unicode="&#xe1;" horiz-adv-x="489" 
d="M254 578h-114l91 151h141zM327 354q0 19 -9 33.5t-24 24t-34.5 14t-40.5 4.5q-31 0 -60 -10.5t-49 -32.5l-62 64q42 47 88.5 62t96.5 15q38 0 74.5 -10.5t65.5 -31.5t46.5 -53t17.5 -76v-332q-36 -14 -87.5 -24.5t-108.5 -10.5q-41 0 -79 7.5t-67 25.5t-47 48.5t-18 76.5
q0 43 16.5 74t43.5 51.5t61.5 30.5t70.5 10q28 0 55 -5t50 -15v60zM238 226q-48 0 -74 -21.5t-26 -55.5q0 -18 8 -31t21.5 -21t30.5 -11.5t36 -3.5q27 0 51 3t42 8v115q-17 8 -40.5 13t-48.5 5z" />
    <glyph glyph-name="acircumflex" unicode="&#xe2;" horiz-adv-x="489" 
d="M420 578h-125l-54 60l-51 -60h-127l138 151h81zM327 354q0 19 -9 33.5t-24 24t-34.5 14t-40.5 4.5q-31 0 -60 -10.5t-49 -32.5l-62 64q42 47 88.5 62t96.5 15q38 0 74.5 -10.5t65.5 -31.5t46.5 -53t17.5 -76v-332q-36 -14 -87.5 -24.5t-108.5 -10.5q-41 0 -79 7.5
t-67 25.5t-47 48.5t-18 76.5q0 43 16.5 74t43.5 51.5t61.5 30.5t70.5 10q28 0 55 -5t50 -15v60zM238 226q-48 0 -74 -21.5t-26 -55.5q0 -18 8 -31t21.5 -21t30.5 -11.5t36 -3.5q27 0 51 3t42 8v115q-17 8 -40.5 13t-48.5 5z" />
    <glyph glyph-name="atilde" unicode="&#xe3;" horiz-adv-x="489" 
d="M185 729q22 0 38.5 -6.5t29.5 -14.5t23 -14.5t20 -6.5q21 0 29 28l75 -24q-11 -54 -34.5 -80t-57.5 -26q-24 0 -41 6t-30.5 13.5t-24 14t-20.5 6.5q-8 0 -16 -6.5t-14 -25.5l-74 27q11 54 36.5 81.5t60.5 27.5zM327 354q0 19 -9 33.5t-24 24t-34.5 14t-40.5 4.5
q-31 0 -60 -10.5t-49 -32.5l-62 64q42 47 88.5 62t96.5 15q38 0 74.5 -10.5t65.5 -31.5t46.5 -53t17.5 -76v-332q-36 -14 -87.5 -24.5t-108.5 -10.5q-41 0 -79 7.5t-67 25.5t-47 48.5t-18 76.5q0 43 16.5 74t43.5 51.5t61.5 30.5t70.5 10q28 0 55 -5t50 -15v60zM238 226
q-48 0 -74 -21.5t-26 -55.5q0 -18 8 -31t21.5 -21t30.5 -11.5t36 -3.5q27 0 51 3t42 8v115q-17 8 -40.5 13t-48.5 5z" />
    <glyph glyph-name="adieresis" unicode="&#xe4;" horiz-adv-x="489" 
d="M257 641q0 31 20.5 52t51.5 21t52 -21t21 -52t-21 -52t-52 -21t-51.5 21t-20.5 52zM76 641q0 31 20.5 52t51.5 21t52 -21t21 -52t-21 -52t-52 -21t-51.5 21t-20.5 52zM327 354q0 19 -9 33.5t-24 24t-34.5 14t-40.5 4.5q-31 0 -60 -10.5t-49 -32.5l-62 64q42 47 88.5 62
t96.5 15q38 0 74.5 -10.5t65.5 -31.5t46.5 -53t17.5 -76v-332q-36 -14 -87.5 -24.5t-108.5 -10.5q-41 0 -79 7.5t-67 25.5t-47 48.5t-18 76.5q0 43 16.5 74t43.5 51.5t61.5 30.5t70.5 10q28 0 55 -5t50 -15v60zM238 226q-48 0 -74 -21.5t-26 -55.5q0 -18 8 -31t21.5 -21
t30.5 -11.5t36 -3.5q27 0 51 3t42 8v115q-17 8 -40.5 13t-48.5 5z" />
    <glyph glyph-name="aring" unicode="&#xe5;" horiz-adv-x="489" 
d="M126 669q0 51 33.5 80.5t84.5 29.5t83.5 -30t32.5 -81t-32.5 -80t-83.5 -29t-84.5 29.5t-33.5 80.5zM297 668q0 25 -15 40t-39 15q-25 0 -40.5 -15t-15.5 -40q0 -24 15.5 -39t40.5 -15q24 0 39 15t15 39zM327 354q0 19 -9 33.5t-24 24t-34.5 14t-40.5 4.5
q-31 0 -60 -10.5t-49 -32.5l-62 64q42 47 88.5 62t96.5 15q38 0 74.5 -10.5t65.5 -31.5t46.5 -53t17.5 -76v-332q-36 -14 -87.5 -24.5t-108.5 -10.5q-41 0 -79 7.5t-67 25.5t-47 48.5t-18 76.5q0 43 16.5 74t43.5 51.5t61.5 30.5t70.5 10q28 0 55 -5t50 -15v60zM238 226
q-48 0 -74 -21.5t-26 -55.5q0 -18 8 -31t21.5 -21t30.5 -11.5t36 -3.5q27 0 51 3t42 8v115q-17 8 -40.5 13t-48.5 5z" />
    <glyph glyph-name="ae" unicode="&#xe6;" horiz-adv-x="768" 
d="M529 -9q-39 0 -76 10t-63 44q-32 -32 -74 -43t-84 -11q-39 0 -76 9t-65.5 29t-45.5 52.5t-17 79.5q0 43 15.5 73.5t41 50t59 29t69.5 9.5q29 0 57.5 -4t54.5 -12v46q0 38 -27 55t-64 17q-34 0 -68 -11t-54 -37l-60 61q36 45 83.5 66t97.5 22q45 0 85 -19.5t63 -57.5
q28 39 69 58t86 19q36 0 71.5 -12t63 -35t44.5 -56t17 -76v-138h-297v-42q0 -36 25 -55t58 -21h9q29 0 59 11q33 13 49 41l81 -45q-34 -54 -84.5 -80.5t-102.5 -26.5zM623 348q0 17 -8 29.5t-21.5 21t-30.5 13t-34 4.5q-18 0 -34.5 -4t-30 -12.5t-21.5 -20.5t-8 -28v-50h188
v47zM233 95q26 0 55 4t49 15q-3 11 -5.5 26.5t-2.5 28.5v56q-19 5 -43.5 9.5t-47.5 4.5q-20 0 -37.5 -3.5t-31.5 -12.5t-22.5 -23.5t-8.5 -36.5q1 -38 29.5 -53t65.5 -15z" />
    <glyph glyph-name="ccedilla" unicode="&#xe7;" horiz-adv-x="473" 
d="M350 -141q0 -18 -7 -38q-13 -36 -45.5 -50.5t-73.5 -14.5q-22 0 -49 7t-59 26l25 67q28 -17 50 -20h12q14 0 23 4q14 6 18 17.5t-2.5 22.5t-24.5 19q-16 7 -43 7h-7l38 87q-32 5 -61.5 18.5t-52 35.5t-35.5 52t-13 69v182q0 45 17.5 78.5t46.5 55.5t65.5 33t74.5 11
q30 0 61.5 -7.5t59 -23.5t48.5 -42t32 -63l-100 -38q-10 35 -37 51t-59 16q-18 0 -35.5 -4.5t-31.5 -13.5t-23 -22t-9 -30v-184q0 -34 29 -52t65 -18q32 0 61.5 16t39.5 51l102 -38q-17 -58 -58.5 -89t-90.5 -41l-22 -49q49 -17 63 -51q8 -18 8 -37z" />
    <glyph glyph-name="egrave" unicode="&#xe8;" horiz-adv-x="486" 
d="M217 576l-118 151h141l91 -151h-114zM248 -10q-38 0 -75 11t-66 33.5t-46.5 55.5t-17.5 78v182q0 45 17.5 78.5t46.5 55.5t66 33t75 11q37 0 73.5 -11t65 -33t46 -55.5t17.5 -78.5v-142h-296v-36q0 -18 8 -31.5t20.5 -23.5t29 -15t34.5 -5q29 0 55.5 11.5t40.5 40.5
l92 -53q-15 -27 -36.5 -46.5t-46 -33t-51.5 -20t-52 -6.5zM344 348q0 18 -8 31.5t-21.5 23t-30.5 14t-35 4.5t-35.5 -4.5t-31 -14t-21.5 -23.5t-7 -33v-47h190v49z" />
    <glyph glyph-name="eacute" unicode="&#xe9;" horiz-adv-x="486" 
d="M289 576h-114l91 151h141zM248 -10q-38 0 -75 11t-66 33.5t-46.5 55.5t-17.5 78v182q0 45 17.5 78.5t46.5 55.5t66 33t75 11q37 0 73.5 -11t65 -33t46 -55.5t17.5 -78.5v-142h-296v-36q0 -18 8 -31.5t20.5 -23.5t29 -15t34.5 -5q29 0 55.5 11.5t40.5 40.5l92 -53
q-15 -27 -36.5 -46.5t-46 -33t-51.5 -20t-52 -6.5zM344 348q0 18 -8 31.5t-21.5 23t-30.5 14t-35 4.5t-35.5 -4.5t-31 -14t-21.5 -23.5t-7 -33v-47h190v49z" />
    <glyph glyph-name="ecircumflex" unicode="&#xea;" horiz-adv-x="486" 
d="M425 576h-125l-54 60l-51 -60h-127l138 151h81zM248 -10q-38 0 -75 11t-66 33.5t-46.5 55.5t-17.5 78v182q0 45 17.5 78.5t46.5 55.5t66 33t75 11q37 0 73.5 -11t65 -33t46 -55.5t17.5 -78.5v-142h-296v-36q0 -18 8 -31.5t20.5 -23.5t29 -15t34.5 -5q29 0 55.5 11.5
t40.5 40.5l92 -53q-15 -27 -36.5 -46.5t-46 -33t-51.5 -20t-52 -6.5zM344 348q0 18 -8 31.5t-21.5 23t-30.5 14t-35 4.5t-35.5 -4.5t-31 -14t-21.5 -23.5t-7 -33v-47h190v49z" />
    <glyph glyph-name="edieresis" unicode="&#xeb;" horiz-adv-x="486" 
d="M272 641q0 31 20.5 52t51.5 21t52 -21t21 -52t-21 -52t-52 -21t-51.5 21t-20.5 52zM91 641q0 31 20.5 52t51.5 21t52 -21t21 -52t-21 -52t-52 -21t-51.5 21t-20.5 52zM248 -10q-38 0 -75 11t-66 33.5t-46.5 55.5t-17.5 78v182q0 45 17.5 78.5t46.5 55.5t66 33t75 11
q37 0 73.5 -11t65 -33t46 -55.5t17.5 -78.5v-142h-296v-36q0 -18 8 -31.5t20.5 -23.5t29 -15t34.5 -5q29 0 55.5 11.5t40.5 40.5l92 -53q-15 -27 -36.5 -46.5t-46 -33t-51.5 -20t-52 -6.5zM344 348q0 18 -8 31.5t-21.5 23t-30.5 14t-35 4.5t-35.5 -4.5t-31 -14t-21.5 -23.5
t-7 -33v-47h190v49z" />
    <glyph glyph-name="igrave" unicode="&#xec;" horiz-adv-x="229" 
d="M85 565l-118 151h141l91 -151h-114zM171 0h-113v517h113v-517z" />
    <glyph glyph-name="iacute" unicode="&#xed;" horiz-adv-x="229" 
d="M155 565h-114l91 151h141zM171 0h-113v517h113v-517z" />
    <glyph glyph-name="icircumflex" unicode="&#xee;" horiz-adv-x="229" 
d="M272 566h-122l-37 49l-33 -49h-125l118 151h81zM171 0h-113v517h113v-517z" />
    <glyph glyph-name="idieresis" unicode="&#xef;" horiz-adv-x="229" 
d="M139 641q0 31 20.5 52t51.5 21t52 -21t21 -52t-21 -52t-52 -21t-51.5 21t-20.5 52zM-42 641q0 31 20.5 52t51.5 21t52 -21t21 -52t-21 -52t-52 -21t-51.5 21t-20.5 52zM171 0h-113v517h113v-517z" />
    <glyph glyph-name="eth" unicode="&#xf0;" horiz-adv-x="503" 
d="M235 691q14 0 28 -2l26 79l76 -21l-25 -72q50 -17 78 -57.5t28 -99.5v-487q-43 -12 -74.5 -19.5t-55 -11.5t-41.5 -5t-34 -1q-37 0 -72.5 11.5t-63.5 33.5t-45 55t-17 77v135q0 60 31 96.5t76 51.5q38 13 78 13q10 0 19 -1q51 -3 90 -23v75q0 15 -7 29t-22 23l-22 -61
l-77 22l19 53q-20 0 -43.5 -8.5t-41.5 -23.5l-65 75q38 33 88 51q36 13 69 13zM241 93q26 0 51 3.5t45 10.5v241q-22 15 -53 22q-21 5 -41 5q-10 0 -21 -1q-29 -4 -49.5 -20.5t-20.5 -47.5v-143q0 -17 7.5 -30t20.5 -22t28.5 -13.5t32.5 -4.5z" />
    <glyph glyph-name="ntilde" unicode="&#xf1;" 
d="M202 727q22 0 38.5 -6.5t29.5 -14.5t23 -14.5t20 -6.5q21 0 29 28l75 -24q-11 -54 -34.5 -80t-57.5 -26q-24 0 -41 6t-30.5 13.5t-24 14t-20.5 6.5q-8 0 -16 -6.5t-14 -25.5l-74 27q11 54 36.5 81.5t60.5 27.5zM462 344v-344h-109v343q-1 22 -11.5 37.5t-26 25.5
t-35 14.5t-39.5 4.5q-21 0 -40.5 -4.5t-33.5 -13.5v-407h-110v486q38 20 84 30.5t93 11.5q44 0 85.5 -10t73 -32t50.5 -57t19 -85z" />
    <glyph glyph-name="ograve" unicode="&#xf2;" horiz-adv-x="494" 
d="M217 576l-118 151h141l91 -151h-114zM43 349q0 45 17.5 78t46.5 55.5t66 34t75 11.5q37 0 73.5 -11.5t65.5 -34t46.5 -55.5t17.5 -78v-180q0 -45 -17.5 -78.5t-46.5 -56t-65.5 -33.5t-73.5 -11q-38 0 -75 11t-66 33.5t-46.5 56t-17.5 78.5v180zM248 421q-17 0 -34 -4.5
t-30.5 -13.5t-22 -22.5t-8.5 -31.5v-175q0 -18 8.5 -32.5t22 -24.5t30.5 -15t34 -5q16 0 32.5 5t30 15t22 24.5t8.5 32.5v175q0 18 -8.5 31.5t-22 22.5t-30 13.5t-32.5 4.5z" />
    <glyph glyph-name="oacute" unicode="&#xf3;" horiz-adv-x="494" 
d="M289 576h-114l91 151h141zM43 349q0 45 17.5 78t46.5 55.5t66 34t75 11.5q37 0 73.5 -11.5t65.5 -34t46.5 -55.5t17.5 -78v-180q0 -45 -17.5 -78.5t-46.5 -56t-65.5 -33.5t-73.5 -11q-38 0 -75 11t-66 33.5t-46.5 56t-17.5 78.5v180zM248 421q-17 0 -34 -4.5t-30.5 -13.5
t-22 -22.5t-8.5 -31.5v-175q0 -18 8.5 -32.5t22 -24.5t30.5 -15t34 -5q16 0 32.5 5t30 15t22 24.5t8.5 32.5v175q0 18 -8.5 31.5t-22 22.5t-30 13.5t-32.5 4.5z" />
    <glyph glyph-name="ocircumflex" unicode="&#xf4;" horiz-adv-x="494" 
d="M425 576h-125l-54 60l-51 -60h-127l138 151h81zM43 349q0 45 17.5 78t46.5 55.5t66 34t75 11.5q37 0 73.5 -11.5t65.5 -34t46.5 -55.5t17.5 -78v-180q0 -45 -17.5 -78.5t-46.5 -56t-65.5 -33.5t-73.5 -11q-38 0 -75 11t-66 33.5t-46.5 56t-17.5 78.5v180zM248 421
q-17 0 -34 -4.5t-30.5 -13.5t-22 -22.5t-8.5 -31.5v-175q0 -18 8.5 -32.5t22 -24.5t30.5 -15t34 -5q16 0 32.5 5t30 15t22 24.5t8.5 32.5v175q0 18 -8.5 31.5t-22 22.5t-30 13.5t-32.5 4.5z" />
    <glyph glyph-name="otilde" unicode="&#xf5;" horiz-adv-x="494" 
d="M190 727q22 0 38.5 -6.5t29.5 -14.5t23 -14.5t20 -6.5q21 0 29 28l75 -24q-11 -54 -34.5 -80t-57.5 -26q-24 0 -41 6t-30.5 13.5t-24 14t-20.5 6.5q-8 0 -16 -6.5t-14 -25.5l-74 27q11 54 36.5 81.5t60.5 27.5zM43 349q0 45 17.5 78t46.5 55.5t66 34t75 11.5
q37 0 73.5 -11.5t65.5 -34t46.5 -55.5t17.5 -78v-180q0 -45 -17.5 -78.5t-46.5 -56t-65.5 -33.5t-73.5 -11q-38 0 -75 11t-66 33.5t-46.5 56t-17.5 78.5v180zM248 421q-17 0 -34 -4.5t-30.5 -13.5t-22 -22.5t-8.5 -31.5v-175q0 -18 8.5 -32.5t22 -24.5t30.5 -15t34 -5
q16 0 32.5 5t30 15t22 24.5t8.5 32.5v175q0 18 -8.5 31.5t-22 22.5t-30 13.5t-32.5 4.5z" />
    <glyph glyph-name="odieresis" unicode="&#xf6;" horiz-adv-x="494" 
d="M272 641q0 31 20.5 52t51.5 21t52 -21t21 -52t-21 -52t-52 -21t-51.5 21t-20.5 52zM91 641q0 31 20.5 52t51.5 21t52 -21t21 -52t-21 -52t-52 -21t-51.5 21t-20.5 52zM43 349q0 45 17.5 78t46.5 55.5t66 34t75 11.5q37 0 73.5 -11.5t65.5 -34t46.5 -55.5t17.5 -78v-180
q0 -45 -17.5 -78.5t-46.5 -56t-65.5 -33.5t-73.5 -11q-38 0 -75 11t-66 33.5t-46.5 56t-17.5 78.5v180zM248 421q-17 0 -34 -4.5t-30.5 -13.5t-22 -22.5t-8.5 -31.5v-175q0 -18 8.5 -32.5t22 -24.5t30.5 -15t34 -5q16 0 32.5 5t30 15t22 24.5t8.5 32.5v175q0 18 -8.5 31.5
t-22 22.5t-30 13.5t-32.5 4.5z" />
    <glyph glyph-name="divide" unicode="&#xf7;" horiz-adv-x="515" 
d="M479 271h-443v113h443v-113zM186 166q0 31 20.5 52t51.5 21t52 -21t21 -52t-21 -52t-52 -21t-51.5 21t-20.5 52zM182 488q0 31 20.5 52t51.5 21t52 -21t21 -52t-21 -52t-52 -21t-51.5 21t-20.5 52z" />
    <glyph glyph-name="oslash" unicode="&#xf8;" horiz-adv-x="494" 
d="M451 349v-180q0 -45 -17.5 -78.5t-46.5 -56t-65.5 -33.5t-73.5 -11q-29 0 -61 8l-29 -74l-76 27l31 79q-32 23 -51 57t-19 82v180q0 45 17.5 78t46.5 55.5t66 34t75 11.5q14 0 29 -2t29 -5l28 71l77 -27l-31 -77q32 -23 51.5 -57t19.5 -82zM153 174q0 -15 6 -28l107 274
q-5 1 -9 1h-9q-17 0 -34 -4.5t-30.5 -13.5t-22 -22.5t-8.5 -31.5v-175zM341 349q0 13 -5 26l-109 -276q5 -1 10.5 -1.5t10.5 -0.5q16 0 32.5 5t30 15t22 24.5t8.5 32.5v175z" />
    <glyph glyph-name="ugrave" unicode="&#xf9;" 
d="M226 576l-118 151h141l91 -151h-114zM261 -10q-42 0 -80 10t-66 32t-44.5 56t-16.5 82v348h110v-350q1 -22 11 -37.5t25.5 -25.5t35 -15t40.5 -5q20 0 39.5 5t35.5 13v415h109v-485q-48 -20 -99 -31.5t-100 -11.5z" />
    <glyph glyph-name="uacute" unicode="&#xfa;" 
d="M298 576h-114l91 151h141zM261 -10q-42 0 -80 10t-66 32t-44.5 56t-16.5 82v348h110v-350q1 -22 11 -37.5t25.5 -25.5t35 -15t40.5 -5q20 0 39.5 5t35.5 13v415h109v-485q-48 -20 -99 -31.5t-100 -11.5z" />
    <glyph glyph-name="ucircumflex" unicode="&#xfb;" 
d="M434 576h-125l-54 60l-51 -60h-127l138 151h81zM261 -10q-42 0 -80 10t-66 32t-44.5 56t-16.5 82v348h110v-350q1 -22 11 -37.5t25.5 -25.5t35 -15t40.5 -5q20 0 39.5 5t35.5 13v415h109v-485q-48 -20 -99 -31.5t-100 -11.5z" />
    <glyph glyph-name="udieresis" unicode="&#xfc;" 
d="M301 651q0 31 20.5 52t51.5 21t52 -21t21 -52t-21 -52t-52 -21t-51.5 21t-20.5 52zM80 651q0 31 20.5 52t51.5 21t52 -21t21 -52t-21 -52t-52 -21t-51.5 21t-20.5 52zM261 -10q-42 0 -80 10t-66 32t-44.5 56t-16.5 82v348h110v-350q1 -22 11 -37.5t25.5 -25.5t35 -15
t40.5 -5q20 0 39.5 5t35.5 13v415h109v-485q-48 -20 -99 -31.5t-100 -11.5z" />
    <glyph glyph-name="yacute" unicode="&#xfd;" horiz-adv-x="526" 
d="M312 576h-114l91 151h141zM468 -9q0 -49 -17.5 -85t-46.5 -59.5t-66.5 -35t-77.5 -11.5q-60 0 -115.5 23.5t-85.5 70.5l66 63q22 -29 61 -45q36 -14 71 -14h5q21 0 40.5 7.5t33.5 22t22 34.5q5 17 5 36v11q-44 -17 -95 -19q-40 0 -78.5 12t-68.5 35t-48.5 56.5
t-18.5 77.5v347h110v-348q1 -20 11 -35t26 -25t35.5 -15t39.5 -5q23 0 45 6t38 17v405h109v-527z" />
    <glyph glyph-name="thorn" unicode="&#xfe;" horiz-adv-x="510" 
d="M274 528q34 0 66 -10q36 -10 64 -32t45 -55.5t17 -79.5v-183q1 -41 -16 -73.5t-45.5 -56t-65 -36t-73.5 -12.5q-26 0 -51 6t-47 19v-184h-110v854h110v-177q48 20 99 20h7zM257 86q18 0 35.5 5t31 14.5t22.5 25t10 37.5v190q-1 21 -10 35.5t-22.5 23.5t-31 13t-35.5 4h-7
l-41 -4q-24 -6 -41 -16v-305q18 -11 41.5 -17t47.5 -6z" />
    <glyph glyph-name="ydieresis" unicode="&#xff;" horiz-adv-x="526" 
d="M295 641q0 31 20.5 52t51.5 21t52 -21t21 -52t-21 -52t-52 -21t-51.5 21t-20.5 52zM114 641q0 31 20.5 52t51.5 21t52 -21t21 -52t-21 -52t-52 -21t-51.5 21t-20.5 52zM468 -9q0 -49 -17.5 -85t-46.5 -59.5t-66.5 -35t-77.5 -11.5q-60 0 -115.5 23.5t-85.5 70.5l66 63
q22 -29 61 -45q36 -14 71 -14h5q21 0 40.5 7.5t33.5 22t22 34.5q5 17 5 36v11q-44 -17 -95 -19q-40 0 -78.5 12t-68.5 35t-48.5 56.5t-18.5 77.5v347h110v-348q1 -20 11 -35t26 -25t35.5 -15t39.5 -5q23 0 45 6t38 17v405h109v-527z" />
    <glyph glyph-name="Amacron" unicode="&#x100;" horiz-adv-x="630" 
d="M168 892h293v-101h-293v101zM631 0h-121l-69 184h-254l-64 -184h-124l255 708h121zM312 591l-29 -114l-57 -177h175l-58 179l-27 112h-4z" />
    <glyph glyph-name="amacron" unicode="&#x101;" horiz-adv-x="489" 
d="M107 695h276v-95h-276v95zM327 354q0 19 -9 33.5t-24 24t-34.5 14t-40.5 4.5q-31 0 -60 -10.5t-49 -32.5l-62 64q42 47 88.5 62t96.5 15q38 0 74.5 -10.5t65.5 -31.5t46.5 -53t17.5 -76v-332q-36 -14 -87.5 -24.5t-108.5 -10.5q-41 0 -79 7.5t-67 25.5t-47 48.5t-18 76.5
q0 43 16.5 74t43.5 51.5t61.5 30.5t70.5 10q28 0 55 -5t50 -15v60zM238 226q-48 0 -74 -21.5t-26 -55.5q0 -18 8 -31t21.5 -21t30.5 -11.5t36 -3.5q27 0 51 3t42 8v115q-17 8 -40.5 13t-48.5 5z" />
    <glyph glyph-name="Abreve" unicode="&#x102;" horiz-adv-x="630" 
d="M468 907q0 -73 -40.5 -113.5t-112.5 -40.5t-112 40.5t-40 113.5h98q0 -27 14 -42.5t40 -15.5t41 15.5t15 42.5h97zM631 0h-121l-69 184h-254l-64 -184h-124l255 708h121zM312 591l-29 -114l-57 -177h175l-58 179l-27 112h-4z" />
    <glyph glyph-name="abreve" unicode="&#x103;" horiz-adv-x="489" 
d="M396 729q0 -73 -40.5 -113.5t-112.5 -40.5t-112 40.5t-40 113.5h98q0 -27 14 -42.5t40 -15.5t41 15.5t15 42.5h97zM327 354q0 19 -9 33.5t-24 24t-34.5 14t-40.5 4.5q-31 0 -60 -10.5t-49 -32.5l-62 64q42 47 88.5 62t96.5 15q38 0 74.5 -10.5t65.5 -31.5t46.5 -53
t17.5 -76v-332q-36 -14 -87.5 -24.5t-108.5 -10.5q-41 0 -79 7.5t-67 25.5t-47 48.5t-18 76.5q0 43 16.5 74t43.5 51.5t61.5 30.5t70.5 10q28 0 55 -5t50 -15v60zM238 226q-48 0 -74 -21.5t-26 -55.5q0 -18 8 -31t21.5 -21t30.5 -11.5t36 -3.5q27 0 51 3t42 8v115
q-17 8 -40.5 13t-48.5 5z" />
    <glyph glyph-name="Aogonek" unicode="&#x104;" horiz-adv-x="628" 
d="M562 -244q-46 0 -72 24.5t-26 72.5q0 39 21.5 78t55.5 69h-32l-69 184h-254l-64 -184h-124l255 708h121l256 -708q-32 -24 -47 -54q-14 -26 -14 -47q0 -25 20 -35q6 -2 13 -2q16 0 40 12l35 -69q-26 -23 -56 -36t-59 -13zM342 479l-22 112h-14l-24 -114l-57 -177h175z
" />
    <glyph glyph-name="aogonek" unicode="&#x105;" horiz-adv-x="492" 
d="M247 -10q-41 0 -79.5 7.5t-69 26.5t-49 52t-18.5 84q0 41 16.5 72t43.5 51.5t61.5 30.5t70.5 10q58 0 105 -21v51q0 19 -9 33.5t-24 24t-34.5 14t-40.5 4.5q-31 0 -60.5 -10.5t-49.5 -32.5l-64 59q42 47 90 64.5t98 17.5q38 0 74.5 -10.5t65.5 -31.5t46.5 -53t17.5 -76
v-335q-26 -21 -43 -38.5t-27 -32.5t-13.5 -28t-3.5 -25q0 -23 16 -32q5 -3 12 -3q14 0 36 13l39 -71q-26 -23 -53 -36t-56 -13q-46 0 -72 24.5t-26 72.5q0 35 18 71t47 65l-3 4q-30 -3 -62 -3zM142 157q0 -22 8 -36t21.5 -22.5t30.5 -12t36 -3.5q24 0 47.5 3.5t42.5 8.5v123
q-17 8 -40.5 13t-48.5 5q-48 0 -72.5 -23.5t-24.5 -55.5z" />
    <glyph glyph-name="Cacute" unicode="&#x106;" horiz-adv-x="601" 
d="M363 756h-114l91 151h141zM48 490q0 57 23.5 99.5t62 71t87.5 43t101 14.5q39 0 77 -10t72.5 -30t63.5 -50.5t48 -71.5l-103 -51q-26 48 -70 72.5t-91 24.5q-29 0 -57 -7t-50 -21t-35.5 -35t-13.5 -49v-272q0 -28 13.5 -49t35.5 -35t50 -21t57 -7q48 0 92 24t69 72
l103 -48q-20 -41 -49 -72t-63.5 -51.5t-73.5 -30.5t-78 -10q-51 0 -99.5 14t-86.5 42.5t-61.5 71.5t-23.5 100v272z" />
    <glyph glyph-name="cacute" unicode="&#x107;" horiz-adv-x="473" 
d="M288 577h-114l91 151h141zM43 350q0 45 17.5 78.5t46.5 55.5t65.5 33t74.5 11q30 0 61.5 -7.5t59 -23.5t48.5 -42t32 -63l-100 -38q-10 35 -37 51t-59 16q-18 0 -35.5 -4.5t-31.5 -13.5t-23 -22t-9 -30v-184q0 -34 29 -52t65 -18q32 0 61.5 16t39.5 51l102 -38
q-11 -37 -32.5 -63t-49 -42t-59.5 -23.5t-62 -7.5q-38 0 -74.5 11t-65.5 33t-46.5 55.5t-17.5 78.5v182z" />
    <glyph glyph-name="Cdotaccent" unicode="&#x10a;" horiz-adv-x="601" 
d="M246 831q0 31 20.5 52t51.5 21t52 -21t21 -52t-21 -52t-52 -21t-51.5 21t-20.5 52zM48 490q0 57 23.5 99.5t62 71t87.5 43t101 14.5q39 0 77 -10t72.5 -30t63.5 -50.5t48 -71.5l-103 -51q-26 48 -70 72.5t-91 24.5q-29 0 -57 -7t-50 -21t-35.5 -35t-13.5 -49v-272
q0 -28 13.5 -49t35.5 -35t50 -21t57 -7q48 0 92 24t69 72l103 -48q-20 -41 -49 -72t-63.5 -51.5t-73.5 -30.5t-78 -10q-51 0 -99.5 14t-86.5 42.5t-61.5 71.5t-23.5 100v272z" />
    <glyph glyph-name="cdotaccent" unicode="&#x10b;" horiz-adv-x="473" 
d="M171 652q0 31 20.5 52t51.5 21t52 -21t21 -52t-21 -52t-52 -21t-51.5 21t-20.5 52zM43 350q0 45 17.5 78.5t46.5 55.5t65.5 33t74.5 11q30 0 61.5 -7.5t59 -23.5t48.5 -42t32 -63l-100 -38q-10 35 -37 51t-59 16q-18 0 -35.5 -4.5t-31.5 -13.5t-23 -22t-9 -30v-184
q0 -34 29 -52t65 -18q32 0 61.5 16t39.5 51l102 -38q-11 -37 -32.5 -63t-49 -42t-59.5 -23.5t-62 -7.5q-38 0 -74.5 11t-65.5 33t-46.5 55.5t-17.5 78.5v182z" />
    <glyph glyph-name="Ccaron" unicode="&#x10c;" horiz-adv-x="601" 
d="M270 907l51 -56l54 56h125l-138 -151h-81l-138 151h127zM48 490q0 57 23.5 99.5t62 71t87.5 43t101 14.5q39 0 77 -10t72.5 -30t63.5 -50.5t48 -71.5l-103 -51q-26 48 -70 72.5t-91 24.5q-29 0 -57 -7t-50 -21t-35.5 -35t-13.5 -49v-272q0 -28 13.5 -49t35.5 -35t50 -21
t57 -7q48 0 92 24t69 72l103 -48q-20 -41 -49 -72t-63.5 -51.5t-73.5 -30.5t-78 -10q-51 0 -99.5 14t-86.5 42.5t-61.5 71.5t-23.5 100v272z" />
    <glyph glyph-name="ccaron" unicode="&#x10d;" horiz-adv-x="473" 
d="M195 728l51 -56l54 56h125l-138 -151h-81l-138 151h127zM43 350q0 45 17.5 78.5t46.5 55.5t65.5 33t74.5 11q30 0 61.5 -7.5t59 -23.5t48.5 -42t32 -63l-100 -38q-10 35 -37 51t-59 16q-18 0 -35.5 -4.5t-31.5 -13.5t-23 -22t-9 -30v-184q0 -34 29 -52t65 -18
q32 0 61.5 16t39.5 51l102 -38q-11 -37 -32.5 -63t-49 -42t-59.5 -23.5t-62 -7.5q-38 0 -74.5 11t-65.5 33t-46.5 55.5t-17.5 78.5v182z" />
    <glyph glyph-name="Dcaron" unicode="&#x10e;" horiz-adv-x="635" 
d="M249 907l51 -56l54 56h125l-138 -151h-81l-138 151h127zM321 708q52 0 99.5 -13t84.5 -40.5t59 -69.5t22 -100v-266q0 -58 -22 -99.5t-59 -68t-84.5 -39t-99.5 -12.5h-254v708h254zM321 116q30 0 57 5.5t47.5 18t32.5 32t12 47.5v266q0 28 -12 48.5t-32.5 33.5t-47.5 19
t-57 6h-139v-476h139z" />
    <glyph glyph-name="dcaron" unicode="&#x10f;" horiz-adv-x="515" 
d="M576 525h-92l37 183h105zM259 -10h-8q-39 0 -75 9.5t-64.5 29.5t-46.5 53.5t-22 81.5v185q0 43 17.5 76.5t46 56t65.5 34.5t75 12q51 0 95 -21v202h110v-679q-45 -18 -98 -30q-48 -10 -95 -10zM263 434q-40 0 -73 -19.5t-37 -60.5v-190q1 -23 11.5 -38.5t26 -25t35.5 -14
t41 -4.5q44 0 75 14v317q-33 21 -79 21z" />
    <glyph glyph-name="Dcroat" unicode="&#x110;" horiz-adv-x="641" 
d="M73 708h266q51 0 97 -12.5t80.5 -39.5t55 -68.5t20.5 -99.5v-269q0 -58 -20.5 -99.5t-55 -68t-80.5 -39t-97 -12.5h-266v302h-57v95h57v311zM339 116q30 0 55 5.5t43.5 18t29 32t10.5 47.5v269q0 28 -10.5 48t-29 32.5t-43.5 18t-55 5.5h-150v-195h114v-95h-114v-186h150
z" />
    <glyph glyph-name="dcroat" unicode="&#x111;" horiz-adv-x="509" 
d="M452 571v-541q-45 -18 -98 -30q-48 -10 -95 -10h-8q-39 0 -75 9.5t-64.5 29.5t-46.5 53.5t-22 81.5v185q0 43 17.5 76.5t46 56t65.5 34.5t75 12q51 0 95 -21v64h-104v72h104v66h110v-66h59v-72h-59zM263 434q-40 0 -73 -19.5t-37 -60.5v-190q1 -23 11.5 -38.5t26 -25
t35.5 -14t41 -4.5q44 0 75 14v317q-33 21 -79 21z" />
    <glyph glyph-name="Emacron" unicode="&#x112;" horiz-adv-x="576" 
d="M164 892h293v-101h-293v101zM183 412h323v-116h-323v-180h351v-116h-467v709h467v-116h-351v-181z" />
    <glyph glyph-name="emacron" unicode="&#x113;" horiz-adv-x="486" 
d="M101 712h293v-101h-293v101zM248 -10q-38 0 -75 11t-66 33.5t-46.5 55.5t-17.5 78v182q0 45 17.5 78.5t46.5 55.5t66 33t75 11q37 0 73.5 -11t65 -33t46 -55.5t17.5 -78.5v-142h-296v-36q0 -18 8 -31.5t20.5 -23.5t29 -15t34.5 -5q29 0 55.5 11.5t40.5 40.5l92 -53
q-15 -27 -36.5 -46.5t-46 -33t-51.5 -20t-52 -6.5zM344 348q0 18 -8 31.5t-21.5 23t-30.5 14t-35 4.5t-35.5 -4.5t-31 -14t-21.5 -23.5t-7 -33v-47h190v49z" />
    <glyph glyph-name="Edotaccent" unicode="&#x116;" horiz-adv-x="576" 
d="M235 831q0 31 20.5 52t51.5 21t52 -21t21 -52t-21 -52t-52 -21t-51.5 21t-20.5 52zM183 412h323v-116h-323v-180h351v-116h-467v709h467v-116h-351v-181z" />
    <glyph glyph-name="edotaccent" unicode="&#x117;" horiz-adv-x="486" 
d="M172 651q0 31 20.5 52t51.5 21t52 -21t21 -52t-21 -52t-52 -21t-51.5 21t-20.5 52zM248 -10q-38 0 -75 11t-66 33.5t-46.5 55.5t-17.5 78v182q0 45 17.5 78.5t46.5 55.5t66 33t75 11q37 0 73.5 -11t65 -33t46 -55.5t17.5 -78.5v-142h-296v-36q0 -18 8 -31.5t20.5 -23.5
t29 -15t34.5 -5q29 0 55.5 11.5t40.5 40.5l92 -53q-15 -27 -36.5 -46.5t-46 -33t-51.5 -20t-52 -6.5zM344 348q0 18 -8 31.5t-21.5 23t-30.5 14t-35 4.5t-35.5 -4.5t-31 -14t-21.5 -23.5t-7 -33v-47h190v49z" />
    <glyph glyph-name="Eogonek" unicode="&#x118;" horiz-adv-x="575" 
d="M465 -244q-46 0 -72 24.5t-26 72.5q0 39 21.5 78t55.5 69h-378v709h467v-116h-351v-181h323v-116h-323v-180h351v-116q-32 -24 -47 -54q-15 -27 -15 -48q0 -23 17 -32q5 -2 11 -2q15 0 36 12l39 -71q-26 -23 -53 -36t-56 -13z" />
    <glyph glyph-name="eogonek" unicode="&#x119;" horiz-adv-x="487" 
d="M154 172q0 -18 8 -31.5t20.5 -23.5t29 -15t34.5 -5q29 0 55.5 11.5t40.5 40.5l92 -53q-18 -32 -39.5 -54t-40.5 -43t-32 -44t-13 -57q0 -24 16 -32q5 -2 11 -2q14 0 34 12l39 -71q-26 -23 -53 -36t-56 -13q-46 0 -72 24.5t-26 72.5q0 36 19 72.5t48 65.5q-5 -1 -11 -1
h-10q-38 0 -75 11t-66 33.5t-46.5 55.5t-17.5 78v182q0 45 17.5 78.5t46.5 55.5t66 33t75 11q37 0 73.5 -11t65 -33t46 -55.5t17.5 -78.5v-142h-296v-36zM249 421q-18 0 -35.5 -4.5t-31 -14t-21.5 -23.5t-7 -33v-47h190v49q0 18 -8 31.5t-21.5 23t-30.5 14t-35 4.5z" />
    <glyph glyph-name="Ecaron" unicode="&#x11a;" horiz-adv-x="576" 
d="M259 907l51 -56l54 56h125l-138 -151h-81l-138 151h127zM183 412h323v-116h-323v-180h351v-116h-467v709h467v-116h-351v-181z" />
    <glyph glyph-name="ecaron" unicode="&#x11b;" horiz-adv-x="486" 
d="M196 727l51 -56l54 56h125l-138 -151h-81l-138 151h127zM248 -10q-38 0 -75 11t-66 33.5t-46.5 55.5t-17.5 78v182q0 45 17.5 78.5t46.5 55.5t66 33t75 11q37 0 73.5 -11t65 -33t46 -55.5t17.5 -78.5v-142h-296v-36q0 -18 8 -31.5t20.5 -23.5t29 -15t34.5 -5
q29 0 55.5 11.5t40.5 40.5l92 -53q-15 -27 -36.5 -46.5t-46 -33t-51.5 -20t-52 -6.5zM344 348q0 18 -8 31.5t-21.5 23t-30.5 14t-35 4.5t-35.5 -4.5t-31 -14t-21.5 -23.5t-7 -33v-47h190v49z" />
    <glyph glyph-name="Gbreve" unicode="&#x11e;" horiz-adv-x="632" 
d="M473 907q0 -73 -40.5 -113.5t-112.5 -40.5t-112 40.5t-40 113.5h98q0 -27 14 -42.5t40 -15.5t41 15.5t15 42.5h97zM48 491q0 57 23.5 99.5t61.5 71t87 42.5t100 14q39 0 76.5 -9t71.5 -27.5t62 -48t48 -70.5l-104 -50q-23 47 -66.5 68t-89.5 21q-29 0 -57 -7t-49.5 -21
t-35 -35t-13.5 -49v-270q0 -29 13.5 -50.5t35.5 -35.5t50.5 -21t57.5 -7q30 0 58.5 7t51 21t36 35.5t13.5 50.5v56h-199v111h314v-167q0 -58 -23.5 -101.5t-62 -72t-87.5 -42.5t-101 -14q-51 0 -100 14t-87.5 42.5t-61.5 72t-23 101.5v271z" />
    <glyph glyph-name="gbreve" unicode="&#x11f;" horiz-adv-x="504" 
d="M414 727q0 -73 -40.5 -113.5t-112.5 -40.5t-112 40.5t-40 113.5h98q0 -27 14 -42.5t40 -15.5t41 15.5t15 42.5h97zM244 -106q20 0 37.5 6t31 19.5t21.5 35.5t8 54q-23 -10 -47 -14.5t-48 -4.5q-39 0 -76 12t-65.5 34.5t-45.5 56t-17 77.5v176q0 47 18.5 81.5t48.5 56.5
t69.5 33t81.5 11q51 0 101 -15.5t85 -41.5v-481q0 -49 -17 -85t-45.5 -59t-64.5 -34.5t-75 -11.5q-29 0 -57.5 5.5t-54.5 17t-48 29t-37 40.5l66 63q22 -29 57.5 -45t72.5 -16zM256 427q-20 0 -38.5 -5t-32.5 -14.5t-23 -25t-9 -36.5v-177q1 -20 10 -35t23 -25.5t32 -15.5
t37 -5q23 0 45 6t38 17v295q-15 11 -37 16t-45 5z" />
    <glyph glyph-name="Gdotaccent" unicode="&#x120;" horiz-adv-x="632" 
d="M244 831q0 31 20.5 52t51.5 21t52 -21t21 -52t-21 -52t-52 -21t-51.5 21t-20.5 52zM48 491q0 57 23.5 99.5t61.5 71t87 42.5t100 14q39 0 76.5 -9t71.5 -27.5t62 -48t48 -70.5l-104 -50q-23 47 -66.5 68t-89.5 21q-29 0 -57 -7t-49.5 -21t-35 -35t-13.5 -49v-270
q0 -29 13.5 -50.5t35.5 -35.5t50.5 -21t57.5 -7q30 0 58.5 7t51 21t36 35.5t13.5 50.5v56h-199v111h314v-167q0 -58 -23.5 -101.5t-62 -72t-87.5 -42.5t-101 -14q-51 0 -100 14t-87.5 42.5t-61.5 72t-23 101.5v271z" />
    <glyph glyph-name="gdotaccent" unicode="&#x121;" horiz-adv-x="504" 
d="M185 651q0 31 20.5 52t51.5 21t52 -21t21 -52t-21 -52t-52 -21t-51.5 21t-20.5 52zM244 -106q20 0 37.5 6t31 19.5t21.5 35.5t8 54q-23 -10 -47 -14.5t-48 -4.5q-39 0 -76 12t-65.5 34.5t-45.5 56t-17 77.5v176q0 47 18.5 81.5t48.5 56.5t69.5 33t81.5 11q51 0 101 -15.5
t85 -41.5v-481q0 -49 -17 -85t-45.5 -59t-64.5 -34.5t-75 -11.5q-29 0 -57.5 5.5t-54.5 17t-48 29t-37 40.5l66 63q22 -29 57.5 -45t72.5 -16zM256 427q-20 0 -38.5 -5t-32.5 -14.5t-23 -25t-9 -36.5v-177q1 -20 10 -35t23 -25.5t32 -15.5t37 -5q23 0 45 6t38 17v295
q-15 11 -37 16t-45 5z" />
    <glyph glyph-name="Gcommaaccent" unicode="&#x122;" horiz-adv-x="632" 
d="M334 -244h-112l47 183h125zM48 491q0 57 23.5 99.5t61.5 71t87 42.5t100 14q39 0 76.5 -9t71.5 -27.5t62 -48t48 -70.5l-104 -50q-23 47 -66.5 68t-89.5 21q-29 0 -57 -7t-49.5 -21t-35 -35t-13.5 -49v-270q0 -29 13.5 -50.5t35.5 -35.5t50.5 -21t57.5 -7q30 0 58.5 7
t51 21t36 35.5t13.5 50.5v56h-199v111h314v-167q0 -58 -23.5 -101.5t-62 -72t-87.5 -42.5t-101 -14q-51 0 -100 14t-87.5 42.5t-61.5 72t-23 101.5v271z" />
    <glyph glyph-name="gcommaaccent" unicode="&#x123;" horiz-adv-x="504" 
d="M234 710h112l-19 -141h-125zM244 -106q20 0 37.5 6t31 19.5t21.5 35.5t8 54q-23 -10 -47 -14.5t-48 -4.5q-39 0 -76 12t-65.5 34.5t-45.5 56t-17 77.5v176q0 47 18.5 81.5t48.5 56.5t69.5 33t81.5 11q51 0 101 -15.5t85 -41.5v-481q0 -49 -17 -85t-45.5 -59t-64.5 -34.5
t-75 -11.5q-29 0 -57.5 5.5t-54.5 17t-48 29t-37 40.5l66 63q22 -29 57.5 -45t72.5 -16zM256 427q-20 0 -38.5 -5t-32.5 -14.5t-23 -25t-9 -36.5v-177q1 -20 10 -35t23 -25.5t32 -15.5t37 -5q23 0 45 6t38 17v295q-15 11 -37 16t-45 5z" />
    <glyph glyph-name="Hbar" unicode="&#x126;" horiz-adv-x="691" 
d="M619 543v-543h-116v296h-315v-296h-116v543h-57v83h57v82h116v-82h315v82h116v-82h57v-83h-57zM188 543v-132h315v132h-315z" />
    <glyph glyph-name="hbar" unicode="&#x127;" horiz-adv-x="519" 
d="M464 347v-347h-109v348q0 34 -21 52.5t-50 23.5q-15 3 -30.5 3t-31.5 -3q-32 -5 -54 -19v-405h-110v575h-66v72h66v61h110v-61h107v-72h-107v-67q45 20 94 20h9q37 0 71.5 -11t61.5 -33.5t43.5 -56.5t16.5 -80z" />
    <glyph glyph-name="Imacron" unicode="&#x12a;" horiz-adv-x="250" 
d="M-1 892h253v-111h-253v111zM183 0h-115v708h115v-708z" />
    <glyph glyph-name="imacron" unicode="&#x12b;" horiz-adv-x="229" 
d="M-12 702h253v-111h-253v111zM171 0h-113v517h113v-517z" />
    <glyph glyph-name="Iogonek" unicode="&#x12e;" horiz-adv-x="249" 
d="M114 -244q-46 0 -72 24.5t-26 72.5q0 39 21.5 78t55.5 69h-26v708h115v-708q-36 -27 -51 -56q-13 -26 -13 -45v-6q3 -21 22 -28q5 -2 11 -2q16 0 38 13l39 -71q-26 -23 -55.5 -36t-58.5 -13z" />
    <glyph glyph-name="iogonek" unicode="&#x12f;" horiz-adv-x="226" 
d="M100 -244q-46 0 -72 24.5t-26 72.5q0 39 21.5 78t55.5 69h-21v518h110v-518q-32 -24 -48 -54q-14 -27 -14 -48q0 -23 17 -32q5 -2 11 -2q15 0 36 12l39 -71q-26 -23 -53 -36t-56 -13zM42 638q0 31 20.5 52t51.5 21t52 -21t21 -52t-21 -52t-52 -21t-51.5 21t-20.5 52z" />
    <glyph glyph-name="Idotaccent" unicode="&#x130;" horiz-adv-x="250" 
d="M50 824q0 32 22 53.5t54 21.5t53.5 -21.5t21.5 -53.5t-21.5 -54t-53.5 -22t-54 22t-22 54zM50 0zM183 0h-115v708h115v-708z" />
    <glyph glyph-name="dotlessi" unicode="&#x131;" horiz-adv-x="229" 
d="M171 0h-113v517h113v-517z" />
    <glyph glyph-name="IJ" unicode="&#x132;" horiz-adv-x="848" 
d="M786 708v-492q0 -56 -23 -98.5t-60 -71t-84.5 -42.5t-96.5 -14q-44 0 -86.5 13.5t-78 40.5t-61.5 67.5t-36 94.5l116 19q6 -30 20.5 -53t35 -38.5t44.5 -23t49 -7.5q27 0 53 7t46.5 21.5t33 35.5t12.5 49v386h-176v106h292zM183 0h-115v708h115v-708z" />
    <glyph glyph-name="ij" unicode="&#x133;" horiz-adv-x="452" 
d="M213 -74q24 0 38 5.5t21.5 15t9.5 23t2 29.5v519h110v-519q0 -83 -42.5 -129.5t-138.5 -46.5v103zM268 648q0 31 20.5 52t51.5 21t52 -21t21 -52t-21 -52t-52 -21t-51.5 21t-20.5 52zM42 648q0 31 20.5 52t51.5 21t52 -21t21 -52t-21 -52t-52 -21t-51.5 21t-20.5 52z
M168 0h-113v517h113v-517z" />
    <glyph glyph-name="Kcommaaccent" unicode="&#x136;" horiz-adv-x="631" 
d="M349 -244h-112l47 183h125zM182 0h-115v708h115v-313l307 313h143l-318 -342l320 -366h-147l-255 284l-50 -50v-234z" />
    <glyph glyph-name="kcommaaccent" unicode="&#x137;" horiz-adv-x="499" 
d="M278 -244h-112l47 183h125zM168 0h-110v708h110v-399l186 209h138l-216 -239l215 -279h-129l-163 212l-31 -31v-181z" />
    <glyph glyph-name="Lacute" unicode="&#x139;" horiz-adv-x="519" 
d="M166 756h-114l91 151h141zM67 708h115v-592h323v-116h-438v708z" />
    <glyph glyph-name="lacute" unicode="&#x13a;" horiz-adv-x="261" 
d="M150 756h-114l91 151h141zM254 -10q-97 0 -148.5 47.5t-51.5 130.5v540h110v-540q0 -32 21.5 -53.5t68.5 -21.5v-103z" />
    <glyph glyph-name="Lcommaaccent" unicode="&#x13b;" horiz-adv-x="519" 
d="M300 -244h-112l47 183h125zM67 708h115v-592h323v-116h-438v708z" />
    <glyph glyph-name="lcommaaccent" unicode="&#x13c;" horiz-adv-x="261" 
d="M183 -244h-112l47 183h125zM254 -10q-97 0 -148.5 47.5t-51.5 130.5v540h110v-540q0 -32 21.5 -53.5t68.5 -21.5v-103z" />
    <glyph glyph-name="Lcaron" unicode="&#x13d;" horiz-adv-x="520" 
d="M391 529h-112l47 183h125zM67 708h115v-592h323v-116h-438v708z" />
    <glyph glyph-name="lcaron" unicode="&#x13e;" horiz-adv-x="271" 
d="M292 525h-92l37 183h105zM254 -10q-97 0 -148.5 47.5t-51.5 130.5v540h110v-540q0 -32 21.5 -53.5t68.5 -21.5v-103z" />
    <glyph glyph-name="Ldot" unicode="&#x13f;" horiz-adv-x="526" 
d="M279 399q0 31 20.5 52t51.5 21t52 -21t21 -52t-21 -52t-52 -21t-51.5 21t-20.5 52zM67 708h115v-592h323v-116h-438v708z" />
    <glyph glyph-name="ldot" unicode="&#x140;" horiz-adv-x="322" 
d="M204 371q0 31 20.5 52t51.5 21t52 -21t21 -52t-21 -52t-52 -21t-51.5 21t-20.5 52zM254 -10q-97 0 -148.5 47.5t-51.5 130.5v540h110v-540q0 -32 21.5 -53.5t68.5 -21.5v-103z" />
    <glyph glyph-name="Lslash" unicode="&#x141;" horiz-adv-x="540" 
d="M526 0h-438v227l-38 -32l-54 65l92 79v369h115v-270l65 56l55 -66l-120 -102v-210h323v-116z" />
    <glyph glyph-name="lslash" unicode="&#x142;" horiz-adv-x="292" 
d="M186 168q0 -32 21.5 -53.5t68.5 -21.5v-103q-97 0 -148.5 47.5t-51.5 130.5v64l-30 -23l-49 69l79 60v370h110v-287l54 40l50 -70l-104 -77v-146z" />
    <glyph glyph-name="Nacute" unicode="&#x143;" horiz-adv-x="681" 
d="M382 756h-114l91 151h141zM67 0v708h122l246 -418l73 -141l7 2l-17 152v405h116v-708h-135l-241 410l-66 135l-7 -2l18 -148v-395h-116z" />
    <glyph glyph-name="nacute" unicode="&#x144;" 
d="M301 576h-114l91 151h141zM462 344v-344h-109v343q-1 22 -11.5 37.5t-26 25.5t-35 14.5t-39.5 4.5q-21 0 -40.5 -4.5t-33.5 -13.5v-407h-110v486q38 20 84 30.5t93 11.5q44 0 85.5 -10t73 -32t50.5 -57t19 -85z" />
    <glyph glyph-name="Ncommaaccent" unicode="&#x145;" horiz-adv-x="681" 
d="M355 -244h-112l47 183h125zM67 0v708h122l246 -418l73 -141l7 2l-17 152v405h116v-708h-135l-241 410l-66 135l-7 -2l18 -148v-395h-116z" />
    <glyph glyph-name="ncommaaccent" unicode="&#x146;" 
d="M274 -244h-112l47 183h125zM462 344v-344h-109v343q-1 22 -11.5 37.5t-26 25.5t-35 14.5t-39.5 4.5q-21 0 -40.5 -4.5t-33.5 -13.5v-407h-110v486q38 20 84 30.5t93 11.5q44 0 85.5 -10t73 -32t50.5 -57t19 -85z" />
    <glyph glyph-name="Ncaron" unicode="&#x147;" horiz-adv-x="681" 
d="M289 907l51 -56l54 56h125l-138 -151h-81l-138 151h127zM67 0v708h122l246 -418l73 -141l7 2l-17 152v405h116v-708h-135l-241 410l-66 135l-7 -2l18 -148v-395h-116z" />
    <glyph glyph-name="ncaron" unicode="&#x148;" 
d="M208 727l51 -56l54 56h125l-138 -151h-81l-138 151h127zM462 344v-344h-109v343q-1 22 -11.5 37.5t-26 25.5t-35 14.5t-39.5 4.5q-21 0 -40.5 -4.5t-33.5 -13.5v-407h-110v486q38 20 84 30.5t93 11.5q44 0 85.5 -10t73 -32t50.5 -57t19 -85z" />
    <glyph glyph-name="Eng" unicode="&#x14a;" horiz-adv-x="680" 
d="M613 -1q0 -83 -42.5 -129.5t-138.5 -46.5v103q24 0 38 5.5t21.5 15t9.5 23t2 29.5v1h-25l-241 410l-66 135l-7 -2l18 -148v-395h-116v708h122l246 -418l73 -141l7 2l-17 152v405h116v-709z" />
    <glyph glyph-name="eng" unicode="&#x14b;" horiz-adv-x="516" 
d="M461 344v-344q0 -83 -42.5 -130t-138.5 -47v103q24 0 38 5.5t21.5 15.5t10 23.5t2.5 29.5v343q-1 22 -11.5 37.5t-26 25.5t-35 14.5t-39.5 4.5q-21 0 -40.5 -4.5t-33.5 -13.5v-407h-110v486q38 20 84 30.5t93 11.5q44 0 85.5 -10t73 -32t50.5 -57t19 -85z" />
    <glyph glyph-name="Omacron" unicode="&#x14c;" horiz-adv-x="668" 
d="M187 892h293v-101h-293v101zM334 718q54 0 105.5 -14.5t92 -43t65 -71.5t24.5 -100v-269q0 -57 -24.5 -100.5t-65 -72t-92 -43t-105.5 -14.5t-105.5 14.5t-91.5 43t-64.5 72t-24.5 100.5v269q0 57 24.5 100t64.5 71.5t91.5 43t105.5 14.5zM163 221q0 -29 14.5 -50.5
t38.5 -35.5t55 -21.5t63 -7.5q33 0 64 7.5t55 21.5t38.5 35.5t14.5 50.5v266q0 30 -15 52t-39 36t-55 20.5t-63 6.5t-63 -7t-55 -21t-38.5 -35.5t-14.5 -51.5v-266z" />
    <glyph glyph-name="omacron" unicode="&#x14d;" horiz-adv-x="494" 
d="M101 712h293v-101h-293v101zM43 349q0 45 17.5 78t46.5 55.5t66 34t75 11.5q37 0 73.5 -11.5t65.5 -34t46.5 -55.5t17.5 -78v-180q0 -45 -17.5 -78.5t-46.5 -56t-65.5 -33.5t-73.5 -11q-38 0 -75 11t-66 33.5t-46.5 56t-17.5 78.5v180zM248 421q-17 0 -34 -4.5
t-30.5 -13.5t-22 -22.5t-8.5 -31.5v-175q0 -18 8.5 -32.5t22 -24.5t30.5 -15t34 -5q16 0 32.5 5t30 15t22 24.5t8.5 32.5v175q0 18 -8.5 31.5t-22 22.5t-30 13.5t-32.5 4.5z" />
    <glyph glyph-name="Ohungarumlaut" unicode="&#x150;" horiz-adv-x="668" 
d="M281 757h-101l59 149h124zM468 757h-103l57 149h125zM334 718q54 0 105.5 -14.5t92 -43t65 -71.5t24.5 -100v-269q0 -57 -24.5 -100.5t-65 -72t-92 -43t-105.5 -14.5t-105.5 14.5t-91.5 43t-64.5 72t-24.5 100.5v269q0 57 24.5 100t64.5 71.5t91.5 43t105.5 14.5z
M163 221q0 -29 14.5 -50.5t38.5 -35.5t55 -21.5t63 -7.5q33 0 64 7.5t55 21.5t38.5 35.5t14.5 50.5v266q0 30 -15 52t-39 36t-55 20.5t-63 6.5t-63 -7t-55 -21t-38.5 -35.5t-14.5 -51.5v-266z" />
    <glyph glyph-name="ohungarumlaut" unicode="&#x151;" horiz-adv-x="494" 
d="M191 577h-100l60 143h116zM368 577h-99l58 143h115zM43 349q0 45 17.5 78t46.5 55.5t66 34t75 11.5q37 0 73.5 -11.5t65.5 -34t46.5 -55.5t17.5 -78v-180q0 -45 -17.5 -78.5t-46.5 -56t-65.5 -33.5t-73.5 -11q-38 0 -75 11t-66 33.5t-46.5 56t-17.5 78.5v180zM248 421
q-17 0 -34 -4.5t-30.5 -13.5t-22 -22.5t-8.5 -31.5v-175q0 -18 8.5 -32.5t22 -24.5t30.5 -15t34 -5q16 0 32.5 5t30 15t22 24.5t8.5 32.5v175q0 18 -8.5 31.5t-22 22.5t-30 13.5t-32.5 4.5z" />
    <glyph glyph-name="OE" unicode="&#x152;" horiz-adv-x="904" 
d="M542 410h293v-115h-293v-180h321v-116h-431v22q-39 -18 -82 -25q-28 -5 -54 -5q-17 0 -32 1q-43 5 -82 20t-68.5 41t-46.5 62q-16 34 -16 78v5v305q-1 45 17 82t48 63.5t70 42.5t83 20q14 1 28 1q29 0 57 -5q42 -8 78 -30v30h431v-116h-321v-181zM336 99q26 0 50.5 9
t45.5 25v429q-18 18 -45.5 29t-56.5 13q-10 1 -20 1q-20 0 -40 -3q-29 -5 -52.5 -18t-38 -33.5t-13.5 -48.5v-302q0 -29 14.5 -48.5t38.5 -31t54.5 -16.5t62.5 -5z" />
    <glyph glyph-name="oe" unicode="&#x153;" horiz-adv-x="779" 
d="M538 -10h-4q-42 1 -79.5 18.5t-63.5 54.5q-29 -37 -71 -55q-39 -18 -80 -18h-5q-36 0 -70.5 13t-61.5 36t-43.5 56.5t-16.5 75.5v179q0 43 17 76t45 56t63.5 34.5t72.5 11.5q45 0 85.5 -20t66.5 -59q27 41 69 61q40 18 84 18h4q36 0 71 -12t62.5 -35t44 -56t16.5 -75
v-138h-299v-42q0 -18 8.5 -31.5t22 -22.5t31 -14t35.5 -5q29 0 56.5 13.5t41.5 39.5l83 -58q-30 -50 -82 -76q-50 -26 -103 -26zM245 421q-17 0 -33.5 -4t-30 -12t-21.5 -21t-8 -31v-188q0 -18 8 -30.5t21.5 -21t30 -12.5t33.5 -4t33.5 4t30 12.5t22 21.5t8.5 30v189
q0 18 -8.5 30.5t-22 20.5t-30.5 12t-33 4zM636 350q0 18 -8.5 31t-23 21.5t-32.5 12.5t-36 4q-17 0 -33.5 -4.5t-29.5 -13t-20.5 -21.5t-7.5 -30v-50h191v50z" />
    <glyph glyph-name="Racute" unicode="&#x154;" horiz-adv-x="622" 
d="M336 756h-114l91 151h141zM183 274v-274h-116v708h274q52 0 97 -12.5t78 -38.5t52 -68t21 -100q0 -50 -14 -87t-39 -62.5t-59.5 -40.5t-74.5 -21l219 -278h-141l-212 274h-85zM342 375q60 0 95.5 26.5t35.5 86.5q0 59 -36.5 81.5t-94.5 22.5h-159v-217h159z" />
    <glyph glyph-name="racute" unicode="&#x155;" horiz-adv-x="325" 
d="M233 574h-114l91 151h141zM253 528q13 0 27.5 -1t31.5 -5v-97q-18 5 -40 5h-7q-26 -1 -48.5 -10.5t-37.5 -27.5t-15 -44v-348h-110v350q0 56 27 95t69 61q12 6 27.5 10.5t30.5 7t27 3.5t18 1z" />
    <glyph glyph-name="Rcommaaccent" unicode="&#x156;" horiz-adv-x="622" 
d="M328 -244h-112l47 183h125zM183 274v-274h-116v708h274q52 0 97 -12.5t78 -38.5t52 -68t21 -100q0 -50 -14 -87t-39 -62.5t-59.5 -40.5t-74.5 -21l219 -278h-141l-212 274h-85zM342 375q60 0 95.5 26.5t35.5 86.5q0 59 -36.5 81.5t-94.5 22.5h-159v-217h159z" />
    <glyph glyph-name="rcommaaccent" unicode="&#x157;" horiz-adv-x="325" 
d="M123 -244h-112l47 183h125zM253 528q13 0 27.5 -1t31.5 -5v-97q-18 5 -40 5h-7q-26 -1 -48.5 -10.5t-37.5 -27.5t-15 -44v-348h-110v350q0 56 27 95t69 61q12 6 27.5 10.5t30.5 7t27 3.5t18 1z" />
    <glyph glyph-name="Rcaron" unicode="&#x158;" horiz-adv-x="622" 
d="M243 907l51 -56l54 56h125l-138 -151h-81l-138 151h127zM183 274v-274h-116v708h274q52 0 97 -12.5t78 -38.5t52 -68t21 -100q0 -50 -14 -87t-39 -62.5t-59.5 -40.5t-74.5 -21l219 -278h-141l-212 274h-85zM342 375q60 0 95.5 26.5t35.5 86.5q0 59 -36.5 81.5t-94.5 22.5
h-159v-217h159z" />
    <glyph glyph-name="rcaron" unicode="&#x159;" horiz-adv-x="325" 
d="M142 718l51 -56l54 56h125l-138 -151h-81l-138 151h127zM253 528q13 0 27.5 -1t31.5 -5v-97q-18 5 -40 5h-7q-26 -1 -48.5 -10.5t-37.5 -27.5t-15 -44v-348h-110v350q0 56 27 95t69 61q12 6 27.5 10.5t30.5 7t27 3.5t18 1z" />
    <glyph glyph-name="Sacute" unicode="&#x15a;" horiz-adv-x="587" 
d="M333 756h-114l91 151h141zM154 510q0 -21 12.5 -36t33.5 -25t48 -16.5t55 -11.5q46 -9 93 -23t83.5 -40t58.5 -67q18 -35 18 -84q0 -9 -1 -19q-2 -51 -25.5 -88t-60.5 -61.5t-83.5 -36.5t-94.5 -12q-41 0 -80 11t-74 32.5t-63.5 53.5t-47.5 74l106 48q23 -51 67 -77
t94 -26q27 0 52.5 5.5t45.5 16.5t32.5 28.5t14.5 40.5v8q0 25 -10 41q-13 19 -35.5 31t-52 19.5t-62.5 13.5q-44 9 -86.5 22.5t-76.5 37t-55.5 59.5t-21.5 89q3 48 25.5 85.5t58 63t79.5 38.5t91 13q40 0 78 -8t71 -26.5t60.5 -47.5t45.5 -71l-105 -47q-23 50 -62 67t-88 17
q-26 0 -50.5 -6t-44 -17.5t-31.5 -29t-12 -39.5z" />
    <glyph glyph-name="sacute" unicode="&#x15b;" horiz-adv-x="445" 
d="M246 576h-114l91 151h141zM232 92h3q28 0 48 14.5t22 43.5q0 14 -7.5 23.5t-19.5 16t-26.5 10.5t-27.5 7q-27 5 -59.5 15t-60 28t-46 47t-18.5 73q0 43 18 73t45.5 49t62 27.5t67.5 8.5q42 0 86.5 -18t82.5 -56l-66 -72q-22 22 -53.5 33t-60.5 11t-50 -11.5t-23 -35.5
q-2 -17 6.5 -29.5t22.5 -20.5t31.5 -13t33.5 -8q31 -5 61.5 -14.5t54.5 -27.5t39.5 -45.5t15.5 -68.5t-15 -71.5t-40 -50.5t-58 -30.5t-68 -10.5q-31 0 -61.5 7.5t-58 23t-50 39t-36.5 54.5l82 53q21 -37 57 -56q34 -18 66 -18z" />
    <glyph glyph-name="Scedilla" unicode="&#x15e;" horiz-adv-x="587" 
d="M556 207q0 -9 -1 -19q-2 -44 -20 -77.5t-46.5 -57.5t-66 -38.5t-78.5 -20.5l-21 -47q49 -17 63 -51q8 -18 8 -37q0 -18 -7 -38q-13 -36 -45.5 -50.5t-73.5 -14.5q-22 0 -49 7t-59 26l25 67q28 -17 50 -20h12q14 0 23 4q14 6 18 17.5t-2.5 22.5t-24.5 19q-16 7 -43 7h-7
l38 87q-70 10 -130 52t-93 116l106 48q23 -51 67 -77t94 -26q27 0 52.5 5.5t45.5 16.5t32.5 28.5t14.5 40.5v8q0 25 -10 41q-13 19 -35.5 31t-52 19.5t-62.5 13.5q-44 9 -86.5 22.5t-76.5 37t-55.5 59.5t-21.5 89q3 48 25.5 85.5t58 63t79.5 38.5t91 13q40 0 78 -8t71 -26.5
t60.5 -47.5t45.5 -71l-105 -47q-23 50 -62 67t-88 17q-26 0 -50.5 -6t-44 -17.5t-31.5 -29t-12 -39.5q0 -21 12.5 -36t33.5 -25t48 -16.5t55 -11.5q46 -9 93 -23t83.5 -40t58.5 -67q18 -35 18 -84z" />
    <glyph glyph-name="scedilla" unicode="&#x15f;" horiz-adv-x="445" 
d="M414 152q0 -33 -10 -59t-27 -45.5t-40 -32.5t-50 -20l-22 -49q49 -17 63 -52q8 -17 8 -36q0 -18 -7 -38q-13 -36 -45.5 -50.5t-73.5 -14.5q-22 0 -49 7t-59 26l25 67q28 -17 50 -19q6 -1 12 -1q14 0 23 4q14 6 18 17.5t-2.5 22.5t-24.5 19q-16 7 -43 7h-7l38 88
q-51 8 -95.5 38t-68.5 82l82 53q21 -37 57 -56q34 -18 66 -18h3q28 0 48 14.5t22 43.5q0 14 -7.5 23.5t-19.5 16t-26.5 10.5t-27.5 7q-27 5 -59.5 15t-60 28t-46 47t-18.5 73q0 43 18 73t45.5 49t62 27.5t67.5 8.5q42 0 86.5 -18t82.5 -56l-66 -72q-22 22 -53.5 33t-60.5 11
t-50 -11.5t-23 -35.5q-2 -17 6.5 -29.5t22.5 -20.5t31.5 -13t33.5 -8q31 -5 61.5 -14.5t54.5 -27.5t39.5 -45.5t15.5 -68.5z" />
    <glyph glyph-name="Scaron" unicode="&#x160;" horiz-adv-x="587" 
d="M240 907l51 -56l54 56h125l-138 -151h-81l-138 151h127zM154 510q0 -21 12.5 -36t33.5 -25t48 -16.5t55 -11.5q46 -9 93 -23t83.5 -40t58.5 -67q18 -35 18 -84q0 -9 -1 -19q-2 -51 -25.5 -88t-60.5 -61.5t-83.5 -36.5t-94.5 -12q-41 0 -80 11t-74 32.5t-63.5 53.5
t-47.5 74l106 48q23 -51 67 -77t94 -26q27 0 52.5 5.5t45.5 16.5t32.5 28.5t14.5 40.5v8q0 25 -10 41q-13 19 -35.5 31t-52 19.5t-62.5 13.5q-44 9 -86.5 22.5t-76.5 37t-55.5 59.5t-21.5 89q3 48 25.5 85.5t58 63t79.5 38.5t91 13q40 0 78 -8t71 -26.5t60.5 -47.5t45.5 -71
l-105 -47q-23 50 -62 67t-88 17q-26 0 -50.5 -6t-44 -17.5t-31.5 -29t-12 -39.5z" />
    <glyph glyph-name="scaron" unicode="&#x161;" horiz-adv-x="445" 
d="M181 727l51 -56l54 56h125l-138 -151h-81l-138 151h127zM232 92h3q28 0 48 14.5t22 43.5q0 14 -7.5 23.5t-19.5 16t-26.5 10.5t-27.5 7q-27 5 -59.5 15t-60 28t-46 47t-18.5 73q0 43 18 73t45.5 49t62 27.5t67.5 8.5q42 0 86.5 -18t82.5 -56l-66 -72q-22 22 -53.5 33
t-60.5 11t-50 -11.5t-23 -35.5q-2 -17 6.5 -29.5t22.5 -20.5t31.5 -13t33.5 -8q31 -5 61.5 -14.5t54.5 -27.5t39.5 -45.5t15.5 -68.5t-15 -71.5t-40 -50.5t-58 -30.5t-68 -10.5q-31 0 -61.5 7.5t-58 23t-50 39t-36.5 54.5l82 53q21 -37 57 -56q34 -18 66 -18z" />
    <glyph glyph-name="Tcommaaccent" unicode="&#x162;" horiz-adv-x="574" 
d="M301 -244h-112l47 183h125zM14 0zM345 592v-592h-116v592h-215v116h546v-116h-215z" />
    <glyph glyph-name="tcommaaccent" unicode="&#x163;" horiz-adv-x="298" 
d="M237 -10q-38 0 -71.5 10.5t-58.5 33t-39 57.5t-14 84v465h99l10 -122h99v-102h-99v-240q0 -31 9.5 -48.5t25.5 -26t36.5 -10.5t43.5 -2v-96q-21 -3 -41 -3zM54 0zM183 -251h-112l47 183h125z" />
    <glyph glyph-name="Tcaron" unicode="&#x164;" horiz-adv-x="574" 
d="M235 907l51 -56l54 56h125l-138 -151h-81l-138 151h127zM345 592v-592h-116v592h-215v116h546v-116h-215z" />
    <glyph glyph-name="tcaron" unicode="&#x165;" horiz-adv-x="298" 
d="M286 552h-82l27 139h95zM237 -10q-38 0 -71.5 10.5t-58.5 33t-39 57.5t-14 84v465h99l10 -122h99v-100h-99v-242q0 -31 9.5 -48.5t25.5 -26t36.5 -10.5t43.5 -2v-96q-21 -3 -41 -3z" />
    <glyph glyph-name="Tbar" unicode="&#x166;" horiz-adv-x="578" 
d="M347 380h87v-83h-87v-297h-116v297h-87v83h87v212h-215v116h546v-116h-215v-212z" />
    <glyph glyph-name="tbar" unicode="&#x167;" horiz-adv-x="305" 
d="M170 176q0 -31 9.5 -48.5t25.5 -26t36.5 -10.5t43.5 -2v-96q-21 -3 -41 -3q-38 0 -71.5 10.5t-58.5 33t-39 57.5t-14 84v69h-45v72h45v324h99l10 -122h99v-100h-99v-102h77v-72h-77v-68z" />
    <glyph glyph-name="Umacron" unicode="&#x16a;" horiz-adv-x="672" 
d="M190 892h293v-101h-293v101zM179 223q0 -30 13.5 -52t35.5 -36.5t50.5 -21.5t57.5 -7q30 0 58 7t50.5 21.5t36 36.5t13.5 52v485h116v-486q0 -58 -23.5 -101.5t-62.5 -72.5t-88 -43.5t-100 -14.5t-100.5 14.5t-87.5 43.5t-61.5 72.5t-23.5 101.5v486h116v-485z" />
    <glyph glyph-name="umacron" unicode="&#x16b;" 
d="M110 712h293v-101h-293v101zM261 -10q-42 0 -80 10t-66 32t-44.5 56t-16.5 82v348h110v-350q1 -22 11 -37.5t25.5 -25.5t35 -15t40.5 -5q20 0 39.5 5t35.5 13v415h109v-485q-48 -20 -99 -31.5t-100 -11.5z" />
    <glyph glyph-name="Uring" unicode="&#x16e;" horiz-adv-x="672" 
d="M220 831q0 51 33.5 80.5t84.5 29.5t83.5 -30t32.5 -81t-32.5 -80t-83.5 -29t-84.5 29.5t-33.5 80.5zM379 830q0 20 -11.5 31.5t-30.5 11.5q-20 0 -32 -11.5t-12 -31.5q0 -19 12 -30.5t32 -11.5q19 0 30.5 11.5t11.5 30.5zM179 223q0 -30 13.5 -52t35.5 -36.5t50.5 -21.5
t57.5 -7q30 0 58 7t50.5 21.5t36 36.5t13.5 52v485h116v-486q0 -58 -23.5 -101.5t-62.5 -72.5t-88 -43.5t-100 -14.5t-100.5 14.5t-87.5 43.5t-61.5 72.5t-23.5 101.5v486h116v-485z" />
    <glyph glyph-name="uring" unicode="&#x16f;" 
d="M140 651q0 51 33.5 80.5t84.5 29.5t83.5 -30t32.5 -81t-32.5 -80t-83.5 -29t-84.5 29.5t-33.5 80.5zM299 650q0 20 -11.5 31.5t-30.5 11.5q-20 0 -32 -11.5t-12 -31.5q0 -19 12 -30.5t32 -11.5q19 0 30.5 11.5t11.5 30.5zM261 -10q-42 0 -80 10t-66 32t-44.5 56t-16.5 82
v348h110v-350q1 -22 11 -37.5t25.5 -25.5t35 -15t40.5 -5q20 0 39.5 5t35.5 13v415h109v-485q-48 -20 -99 -31.5t-100 -11.5z" />
    <glyph glyph-name="Uhungarumlaut" unicode="&#x170;" horiz-adv-x="672" 
d="M277 757h-94l59 149h128zM470 757h-102l57 149h132zM179 223q0 -30 13.5 -52t35.5 -36.5t50.5 -21.5t57.5 -7q30 0 58 7t50.5 21.5t36 36.5t13.5 52v485h116v-486q0 -58 -23.5 -101.5t-62.5 -72.5t-88 -43.5t-100 -14.5t-100.5 14.5t-87.5 43.5t-61.5 72.5t-23.5 101.5
v486h116v-485z" />
    <glyph glyph-name="uhungarumlaut" unicode="&#x171;" 
d="M207 577h-104l59 149h141zM393 577h-105l57 149h142zM261 -10q-42 0 -80 10t-66 32t-44.5 56t-16.5 82v348h110v-350q1 -22 11 -37.5t25.5 -25.5t35 -15t40.5 -5q20 0 39.5 5t35.5 13v415h109v-485q-48 -20 -99 -31.5t-100 -11.5z" />
    <glyph glyph-name="Uogonek" unicode="&#x172;" horiz-adv-x="672" 
d="M610 222q0 -63 -26.5 -106.5t-70.5 -75.5t-61 -68q-16 -33 -16 -58v-6q2 -27 22 -38q7 -5 16 -5q15 0 34 11l39 -71q-26 -23 -55.5 -36t-58.5 -13q-46 0 -72 24.5t-26 72.5q0 38 19 76t51 68q-17 -4 -34.5 -5.5t-34.5 -1.5q-51 0 -100.5 14.5t-87.5 43.5t-61.5 72.5
t-23.5 101.5v486h116v-485q0 -30 13.5 -52t35.5 -36.5t50.5 -21.5t57.5 -7q30 0 58 7t50.5 21.5t36 36.5t13.5 52v485h116v-486z" />
    <glyph glyph-name="uogonek" unicode="&#x173;" 
d="M261 -10q-42 0 -80 10t-66 32t-44.5 56t-16.5 82v348h110v-350q1 -22 11 -37.5t25.5 -25.5t35 -15t40.5 -5q20 0 39.5 5t35.5 13v415h109v-488l-38 -30q-32 -24 -48 -54q-14 -27 -14 -48q0 -23 17 -32q5 -2 11 -2q15 0 36 12l39 -71q-26 -23 -53 -36t-56 -13
q-46 0 -72 24.5t-26 72.5q6 47 18 71q19 36 48 65l-3 4q-30 -3 -58 -3z" />
    <glyph glyph-name="Wcircumflex" unicode="&#x174;" horiz-adv-x="926" 
d="M641 756h-125l-54 60l-51 -60h-127l138 151h81zM211 0l-205 708h120l125 -443q-1 0 2.5 -20.5t7.5 -45.5q4 -29 11 -66h9l22 137l112 334h97l110 -336q-1 0 4 -21t11 -46q7 -29 15 -66h9l16 132l124 441h119l-205 -708h-123l-112 346l-14 89h-7l-8 -44q-3 -17 -6 -30.5
t-2 -13.5l-109 -347h-123z" />
    <glyph glyph-name="wcircumflex" unicode="&#x175;" horiz-adv-x="709" 
d="M531 576h-125l-54 60l-51 -60h-127l138 151h81zM409 505l86 -384h3l19 126l69 271h111l-145 -518h-115l-82 352h-1l-82 -352h-115l-146 518h113l70 -273l18 -126h3q1 9 4.5 30.5t13 65t25.5 113.5t42 177h109z" />
    <glyph glyph-name="Ycircumflex" unicode="&#x176;" horiz-adv-x="600" 
d="M478 756h-125l-54 60l-51 -60h-127l138 151h81zM242 0v275l-246 433h133l171 -322l170 322h135l-247 -433v-275h-116z" />
    <glyph glyph-name="ycircumflex" unicode="&#x177;" horiz-adv-x="526" 
d="M448 576h-125l-54 60l-51 -60h-127l138 151h81zM468 -9q0 -49 -17.5 -85t-46.5 -59.5t-66.5 -35t-77.5 -11.5q-60 0 -115.5 23.5t-85.5 70.5l66 63q22 -29 61 -45q36 -14 71 -14h5q21 0 40.5 7.5t33.5 22t22 34.5q5 17 5 36v11q-44 -17 -95 -19q-40 0 -78.5 12t-68.5 35
t-48.5 56.5t-18.5 77.5v347h110v-348q1 -20 11 -35t26 -25t35.5 -15t39.5 -5q23 0 45 6t38 17v405h109v-527z" />
    <glyph glyph-name="Ydieresis" unicode="&#x178;" horiz-adv-x="600" 
d="M345 831q0 31 20.5 52t51.5 21t52 -21t21 -52t-21 -52t-52 -21t-51.5 21t-20.5 52zM124 831q0 31 20.5 52t51.5 21t52 -21t21 -52t-21 -52t-52 -21t-51.5 21t-20.5 52zM242 0v275l-246 433h133l171 -322l170 322h135l-247 -433v-275h-116z" />
    <glyph glyph-name="Zacute" unicode="&#x179;" horiz-adv-x="591" 
d="M339 756h-114l91 151h141zM555 106v-106h-505l-31 76l393 516h-372v116h494l35 -75l-394 -527h380z" />
    <glyph glyph-name="zacute" unicode="&#x17a;" horiz-adv-x="470" 
d="M438 106v-106h-369l-45 65l271 349h-245v104h354l42 -66l-267 -346h259zM280 576h-114l91 151h141z" />
    <glyph glyph-name="Zdotaccent" unicode="&#x17b;" horiz-adv-x="591" 
d="M222 831q0 31 20.5 52t51.5 21t52 -21t21 -52t-21 -52t-52 -21t-51.5 21t-20.5 52zM555 106v-106h-505l-31 76l393 516h-372v116h494l35 -75l-394 -527h380z" />
    <glyph glyph-name="zdotaccent" unicode="&#x17c;" horiz-adv-x="470" 
d="M438 106v-106h-369l-45 65l271 349h-245v104h354l42 -66l-267 -346h259zM163 651q0 31 20.5 52t51.5 21t52 -21t21 -52t-21 -52t-52 -21t-51.5 21t-20.5 52z" />
    <glyph glyph-name="Zcaron" unicode="&#x17d;" horiz-adv-x="591" 
d="M246 907l51 -56l54 56h125l-138 -151h-81l-138 151h127zM555 106v-106h-505l-31 76l393 516h-372v116h494l35 -75l-394 -527h380z" />
    <glyph glyph-name="zcaron" unicode="&#x17e;" horiz-adv-x="470" 
d="M438 106v-106h-369l-45 65l271 349h-245v104h354l42 -66l-267 -346h259zM187 727l51 -56l54 56h125l-138 -151h-81l-138 151h127z" />
    <glyph glyph-name="florin" unicode="&#x192;" horiz-adv-x="442" 
d="M62 323v107h108l24 130q5 28 15.5 56t29 50t46 36t66.5 14q17 0 38 -5t43 -17l-42 -88q-16 8 -30 8t-26 -8q-22 -18 -27 -52l-23 -124h90v-107h-108l-59 -317q-12 -62 -48.5 -98t-108.5 -36q-15 0 -32.5 4t-36.5 14l32 89q14 -4 27 -5t24 4t19 17t12 34l56 294h-89z" />
    <glyph glyph-name="Scommaaccent" unicode="&#x218;" horiz-adv-x="587" 
d="M305 -244h-112l47 183h125zM154 510q0 -21 12.5 -36t33.5 -25t48 -16.5t55 -11.5q46 -9 93 -23t83.5 -40t58.5 -67q18 -35 18 -84q0 -9 -1 -19q-2 -51 -25.5 -88t-60.5 -61.5t-83.5 -36.5t-94.5 -12q-41 0 -80 11t-74 32.5t-63.5 53.5t-47.5 74l106 48q23 -51 67 -77
t94 -26q27 0 52.5 5.5t45.5 16.5t32.5 28.5t14.5 40.5v8q0 25 -10 41q-13 19 -35.5 31t-52 19.5t-62.5 13.5q-44 9 -86.5 22.5t-76.5 37t-55.5 59.5t-21.5 89q3 48 25.5 85.5t58 63t79.5 38.5t91 13q40 0 78 -8t71 -26.5t60.5 -47.5t45.5 -71l-105 -47q-23 50 -62 67t-88 17
q-26 0 -50.5 -6t-44 -17.5t-31.5 -29t-12 -39.5z" />
    <glyph glyph-name="scommaaccent" unicode="&#x219;" horiz-adv-x="445" 
d="M247 -245h-112l47 183h125zM232 92h3q28 0 48 14.5t22 43.5q0 14 -7.5 23.5t-19.5 16t-26.5 10.5t-27.5 7q-27 5 -59.5 15t-60 28t-46 47t-18.5 73q0 43 18 73t45.5 49t62 27.5t67.5 8.5q42 0 86.5 -18t82.5 -56l-66 -72q-22 22 -53.5 33t-60.5 11t-50 -11.5t-23 -35.5
q-2 -17 6.5 -29.5t22.5 -20.5t31.5 -13t33.5 -8q31 -5 61.5 -14.5t54.5 -27.5t39.5 -45.5t15.5 -68.5t-15 -71.5t-40 -50.5t-58 -30.5t-68 -10.5q-31 0 -61.5 7.5t-58 23t-50 39t-36.5 54.5l82 53q21 -37 57 -56q34 -18 66 -18z" />
    <glyph glyph-name="uni021A" unicode="&#x21a;" horiz-adv-x="574" 
d="M301 -244h-112l47 183h125zM345 592v-592h-116v592h-215v116h546v-116h-215z" />
    <glyph glyph-name="uni021B" unicode="&#x21b;" horiz-adv-x="298" 
d="M237 -10q-38 0 -71.5 10.5t-58.5 33t-39 57.5t-14 84v465h99l10 -122h99v-100h-99v-242q0 -31 9.5 -48.5t25.5 -26t36.5 -10.5t43.5 -2v-96q-21 -3 -41 -3zM183 -251h-112l47 183h125z" />
    <glyph glyph-name="circumflex" unicode="&#x2c6;" horiz-adv-x="392" 
d="M489 756h-125l-54 60l-51 -60h-127l138 151h81z" />
    <glyph glyph-name="caron" unicode="&#x2c7;" horiz-adv-x="289" 
d="M96 907l51 -56l54 56h125l-138 -151h-81l-138 151h127z" />
    <glyph glyph-name="uni02C9" unicode="&#x2c9;" horiz-adv-x="240" 
d="M-34 664h293v-101h-293v101z" />
    <glyph glyph-name="breve" unicode="&#x2d8;" horiz-adv-x="252" 
d="M274 907q0 -73 -40.5 -113.5t-112.5 -40.5t-112 40.5t-40 113.5h98q0 -27 14 -42.5t40 -15.5t41 15.5t15 42.5h97z" />
    <glyph glyph-name="dotaccent" unicode="&#x2d9;" horiz-adv-x="240" 
d="M40 831q0 31 20.5 52t51.5 21t52 -21t21 -52t-21 -52t-52 -21t-51.5 21t-20.5 52z" />
    <glyph glyph-name="ring" unicode="&#x2da;" horiz-adv-x="240" 
d="M-4 831q0 51 33.5 80.5t84.5 29.5t83.5 -30t32.5 -81t-32.5 -80t-83.5 -29t-84.5 29.5t-33.5 80.5zM155 830q0 20 -11.5 31.5t-30.5 11.5q-20 0 -32 -11.5t-12 -31.5q0 -19 12 -30.5t32 -11.5q19 0 30.5 11.5t11.5 30.5z" />
    <glyph glyph-name="ogonek" unicode="&#x2db;" horiz-adv-x="240" 
d="M122 -101v-6q3 -21 22 -28q5 -2 11 -2q16 0 38 13l39 -71q-26 -23 -55.5 -36t-58.5 -13q-46 0 -72 24.5t-26 72.5q0 39 22 78.5t56 69.5l88 -1q-36 -27 -51 -56q-13 -26 -13 -45z" />
    <glyph glyph-name="tilde" unicode="&#x2dc;" horiz-adv-x="271" 
d="M77 907q22 0 38.5 -6.5t29.5 -14.5t23 -14.5t20 -6.5q21 0 29 28l75 -24q-11 -54 -34.5 -80t-57.5 -26q-24 0 -41 6t-30.5 13.5t-24 14t-20.5 6.5q-8 0 -16 -6.5t-14 -25.5l-74 27q11 54 36.5 81.5t60.5 27.5z" />
    <glyph glyph-name="hungarumlaut" unicode="&#x2dd;" horiz-adv-x="425" 
d="M120 757h-104l59 149h141zM306 757h-105l57 149h142z" />
    <glyph glyph-name="uni0326" unicode="&#x326;" horiz-adv-x="0" 
d="M163 -244h-112l47 183h125z" />
    <glyph glyph-name="uni03A9" unicode="&#x3a9;" horiz-adv-x="778" 
d="M48 376q0 85 29.5 148t77.5 104.5t109 61.5t123 20h3q65 -1 126.5 -22t109.5 -62.5t77.5 -103t29.5 -142.5q0 -41 -9 -79t-24 -72t-34 -64t-38 -54h106v-111h-307v83q38 21 72.5 51.5t61 68.5t42 82.5t15.5 94.5q0 72 -33.5 121t-84 75t-108.5 27h-5q-56 0 -105 -23
q-50 -25 -83.5 -76t-33.5 -130q0 -46 15 -88t40.5 -79t59.5 -68.5t72 -56.5v-82h-310v111h109q-44 50 -73.5 114.5t-29.5 150.5z" />
    <glyph glyph-name="uni03BC" unicode="&#x3bc;" horiz-adv-x="527" 
d="M262 -11q-27 0 -53 13q-26 12 -39 39v-242h-112v717h113v-318q0 -30 13.5 -50.5t34 -31t44.5 -10.5t44.5 11t34 33t13.5 57v309h113l2 -518h-104l-7 40q-14 -23 -40 -35.5t-54 -12.5q-2 -1 -3 -1z" />
    <glyph glyph-name="pi" unicode="&#x3c0;" horiz-adv-x="563" 
d="M349 153v258h-124v-411h-109v410q-24 -2 -45 -8t-39 -12l-23 88q13 8 25.5 15.5t27 13t33 8.5t43.5 3h399l-10 -107h-67v-253q0 -27 10 -40q8 -10 30 -10h8l1 -111q-47 2 -78 14t-49 32t-25.5 48t-7.5 62z" />
    <glyph glyph-name="uni0401" unicode="&#x401;" horiz-adv-x="576" 
d="M355 831q0 31 20.5 52t51.5 21t52 -21t21 -52t-21 -52t-52 -21t-51.5 21t-20.5 52zM134 831q0 31 20.5 52t51.5 21t52 -21t21 -52t-21 -52t-52 -21t-51.5 21t-20.5 52zM183 412h323v-116h-323v-180h351v-116h-467v709h467v-116h-351v-181z" />
    <glyph glyph-name="uni0410" unicode="&#x410;" horiz-adv-x="630" 
d="M631 0h-121l-69 184h-254l-64 -184h-124l255 708h121zM312 591l-29 -114l-57 -177h175l-58 179l-27 112h-4z" />
    <glyph glyph-name="uni0411" unicode="&#x411;" horiz-adv-x="617" 
d="M339 430q128 0 190 -50t62 -164q0 -56 -18 -96.5t-51 -67t-78.5 -39.5t-99.5 -13h-277v708h466v-106h-351v-172h157zM345 108q30 0 54.5 5.5t41.5 18.5t26 34.5t9 53.5q0 57 -31.5 86t-104.5 29h-158v-227h163z" />
    <glyph glyph-name="uni0412" unicode="&#x412;" horiz-adv-x="625" 
d="M558 513q0 -36 -15 -73.5t-50 -60.5q29 -12 47.5 -30t29.5 -40t15.5 -46.5t4.5 -51.5q-1 -59 -20.5 -99t-52.5 -65t-78 -36t-97 -11h-275v708h276q44 0 83 -12t68.5 -36.5t46.5 -61t17 -85.5zM343 426q44 0 72.5 21t28.5 70q0 41 -29.5 60.5t-71.5 19.5h-160v-171h160z
M352 111q51 0 85 22q37 24 37 82t-36 83q-34 24 -90 24h-5h-160v-211h160h9z" />
    <glyph glyph-name="uni0413" unicode="&#x413;" 
d="M67 0v708h437v-112h-322v-596h-115z" />
    <glyph glyph-name="uni0414" unicode="&#x414;" horiz-adv-x="696" 
d="M551 -131v131h-419v-131h-117v240q44 3 69 22.5t38.5 60.5t20 106t12.5 159l16 251h426v-599h70v-240h-116zM482 109v487h-199l-15 -221q-5 -85 -18 -152.5t-39 -113.5h271z" />
    <glyph glyph-name="uni0415" unicode="&#x415;" horiz-adv-x="576" 
d="M183 412h323v-116h-323v-180h351v-116h-467v709h467v-116h-351v-181z" />
    <glyph glyph-name="uni0416" unicode="&#x416;" horiz-adv-x="941" 
d="M528 0h-115v252l-46 50l-221 -302h-147l280 368l-280 340h145l269 -327v327h115v-327l269 327h145l-280 -340l280 -368h-147l-220 302l-47 -50v-252z" />
    <glyph glyph-name="uni0417" unicode="&#x417;" horiz-adv-x="556" 
d="M271 718q54 0 95.5 -14.5t69 -41t41.5 -63t14 -80.5q0 -43 -18.5 -80.5t-53.5 -60.5q53 -26 77.5 -71.5t24.5 -100.5q-1 -55 -20 -95.5t-53.5 -67.5t-81.5 -40t-103 -13q-81 0 -147 32.5t-106 101.5l90 56q29 -42 70 -62t92 -20q64 0 104 25.5t40 86.5q0 62 -37 88.5
t-100 26.5h-99v93h98q50 0 81 22.5t31 73.5q0 48 -31.5 73t-85.5 25q-49 0 -84.5 -17t-61.5 -44l-78 55q42 59 99.5 85.5t132.5 26.5z" />
    <glyph glyph-name="uni0418" unicode="&#x418;" horiz-adv-x="686" 
d="M67 0v708h115v-439l-6 -95h3l52 95l269 439h119v-708h-116v422l6 93h-2l-51 -93l-264 -422h-125z" />
    <glyph glyph-name="uni0419" unicode="&#x419;" horiz-adv-x="686" 
d="M344 769q-32 0 -62 10t-53.5 29.5t-38.5 49.5t-18 69h101q6 -29 23 -45.5t48 -16.5q32 0 49 16.5t22 45.5h101q-3 -39 -18 -69t-38.5 -49.5t-53.5 -29.5t-62 -10zM67 0v708h115v-439l-6 -95h3l52 95l269 439h119v-708h-116v422l6 93h-2l-51 -93l-264 -422h-125z" />
    <glyph glyph-name="uni041A" unicode="&#x41a;" horiz-adv-x="633" 
d="M184 0h-116v708h116v-325l306 325h148l-321 -343l318 -365h-147l-254 289l-50 -51v-238z" />
    <glyph glyph-name="uni041B" unicode="&#x41b;" horiz-adv-x="687" 
d="M29 0h-16v111h4q48 0 75 22q29 23 44 67t20.5 109t10.5 148l17 251h436v-708h-116v596h-209l-14 -221q-5 -84 -18 -154.5t-42.5 -120.5t-78.5 -76q-45 -24 -113 -24z" />
    <glyph glyph-name="uni041C" unicode="&#x41c;" horiz-adv-x="785" 
d="M67 708h129l195 -460l197 460h130v-708h-116v325l22 192h-10l-60 -167l-116 -252h-91l-117 252l-59 170h-10l21 -196v-324h-115v708z" />
    <glyph glyph-name="uni041D" unicode="&#x41d;" horiz-adv-x="681" 
d="M183 0h-116v708h116v-297h315v297h116v-708h-116v296h-315v-296z" />
    <glyph glyph-name="uni041E" unicode="&#x41e;" horiz-adv-x="668" 
d="M334 718q54 0 105.5 -14.5t92 -43t65 -71.5t24.5 -100v-269q0 -57 -24.5 -100.5t-65 -72t-92 -43t-105.5 -14.5t-105.5 14.5t-91.5 43t-64.5 72t-24.5 100.5v269q0 57 24.5 100t64.5 71.5t91.5 43t105.5 14.5zM163 221q0 -29 14.5 -50.5t38.5 -35.5t55 -21.5t63 -7.5
q33 0 64 7.5t55 21.5t38.5 35.5t14.5 50.5v266q0 30 -15 52t-39 36t-55 20.5t-63 6.5t-63 -7t-55 -21t-38.5 -35.5t-14.5 -51.5v-266z" />
    <glyph glyph-name="uni041F" unicode="&#x41f;" horiz-adv-x="673" 
d="M182 596v-596h-115v708h539v-708h-115v596h-309z" />
    <glyph glyph-name="uni0420" unicode="&#x420;" horiz-adv-x="611" 
d="M67 708h274q61 0 107 -20t76.5 -53t46 -75t15.5 -85q0 -44 -15.5 -85.5t-46 -73.5t-76 -51.5t-106.5 -19.5h-161v-245h-114v708zM341 351q33 0 57 11t40.5 28t24.5 39t8 44t-8 43.5t-24.5 38t-41 27t-56.5 10.5h-160v-241h160z" />
    <glyph glyph-name="uni0421" unicode="&#x421;" horiz-adv-x="601" 
d="M48 490q0 57 23.5 99.5t62 71t87.5 43t101 14.5q39 0 77 -10t72.5 -30t63.5 -50.5t48 -71.5l-103 -51q-26 48 -70 72.5t-91 24.5q-29 0 -57 -7t-50 -21t-35.5 -35t-13.5 -49v-272q0 -28 13.5 -49t35.5 -35t50 -21t57 -7q48 0 92 24t69 72l103 -48q-20 -41 -49 -72
t-63.5 -51.5t-73.5 -30.5t-78 -10q-51 0 -99.5 14t-86.5 42.5t-61.5 71.5t-23.5 100v272z" />
    <glyph glyph-name="uni0422" unicode="&#x422;" horiz-adv-x="572" 
d="M344 597v-592h-116v592h-215v116h546v-116h-215z" />
    <glyph glyph-name="uni0423" unicode="&#x423;" horiz-adv-x="547" 
d="M-19 708h132l128 -277l30 -77h3l32 78l125 276h124l-319 -708h-123l102 226z" />
    <glyph glyph-name="uni0424" unicode="&#x424;" horiz-adv-x="753" 
d="M433 645q54 0 105 -10.5t91 -35t64.5 -64.5t24.5 -98v-165q0 -58 -24.5 -98t-64.5 -64.5t-91 -35.5t-105 -11v-63h-113v63q-54 0 -105 11t-91 35.5t-64.5 64.5t-24.5 98v165q0 58 24.5 98t64.5 64.5t91 35t105 10.5v63h113v-63zM150 437v-166q0 -32 14.5 -52t38.5 -31.5
t54.5 -15.5t62.5 -4l1 373q-32 0 -63 -4.5t-55 -16t-38.5 -31.5t-14.5 -52zM433 168q32 0 62.5 4t54.5 15.5t38.5 31.5t14.5 52v166q0 32 -15.5 52t-40 31.5t-54.5 16t-60 4.5v-373z" />
    <glyph glyph-name="uni0425" unicode="&#x425;" horiz-adv-x="624" 
d="M483 0l-171 263l-171 -263h-142l242 353l-240 355h140l171 -266l171 266h140l-241 -355l242 -353h-141z" />
    <glyph glyph-name="uni0426" unicode="&#x426;" horiz-adv-x="694" 
d="M553 -131v131h-487v708h115v-596h298v596h116v-596h70v-243h-112z" />
    <glyph glyph-name="uni0427" unicode="&#x427;" horiz-adv-x="619" 
d="M280 214q-50 0 -93.5 14t-76.5 42.5t-52 71.5t-19 101v265h116v-265q0 -60 35 -88t95 -28q55 0 91 15.5t59 37.5l1 328h116v-708h-116v273q-29 -25 -68 -42t-88 -17z" />
    <glyph glyph-name="uni0428" unicode="&#x428;" horiz-adv-x="917" 
d="M182 708v-596h219v596h115v-596h219v596h115v-708h-783v708h115z" />
    <glyph glyph-name="uni0429" unicode="&#x429;" horiz-adv-x="947" 
d="M806 -131v131h-741v708h115v-596h219v596h115v-596h219v596h115v-596h70v-243h-112z" />
    <glyph glyph-name="uni042A" unicode="&#x42a;" horiz-adv-x="709" 
d="M432 449q126 0 188.5 -55t62.5 -170q0 -56 -18 -97.5t-50.5 -70t-78 -42.5t-99.5 -14h-275v601h-146v107h262v-259h154zM438 108q61 0 96 27t35 91q0 60 -32 92t-104 32h-155v-242h160z" />
    <glyph glyph-name="uni042B" unicode="&#x42b;" horiz-adv-x="860" 
d="M337 449q126 0 188.5 -55t62.5 -170q0 -56 -18 -97.5t-50.5 -70t-78 -42.5t-99.5 -14h-275v708h116v-259h154zM343 108q61 0 96 27t35 91q0 60 -32 92t-104 32h-155v-242h160zM793 0h-115v708h115v-708z" />
    <glyph glyph-name="uni042C" unicode="&#x42c;" horiz-adv-x="615" 
d="M337 449q126 0 188.5 -55t62.5 -170q0 -56 -18 -97.5t-50.5 -70t-78 -42.5t-99.5 -14h-275v708h116v-259h154zM343 108q61 0 96 27t35 91q0 60 -32 92t-104 32h-155v-242h160z" />
    <glyph glyph-name="uni042D" unicode="&#x42d;" horiz-adv-x="595" 
d="M273 718q51 0 100.5 -15t88 -44t62 -72t23.5 -100v-267q0 -57 -23.5 -99.5t-61.5 -71t-86.5 -43t-99.5 -14.5q-37 0 -74 9t-71 27.5t-62 46.5t-47 66l102 48q10 -22 26.5 -38t37 -26.5t43.5 -15.5t46 -5q29 0 56.5 7.5t49.5 22t35 36t13 50.5v82h-262v105h262v80
q0 29 -13.5 51.5t-35 37.5t-49.5 23t-57 8q-47 0 -90 -21t-65 -63l-98 45q18 40 46 68.5t61 46.5t70 26.5t73 8.5z" />
    <glyph glyph-name="uni042E" unicode="&#x42e;" horiz-adv-x="936" 
d="M602 718q54 0 105.5 -14.5t92 -43t65 -71.5t24.5 -100v-269q0 -57 -24.5 -100.5t-65 -72t-92 -43t-105.5 -14.5t-105.5 14.5t-92 43t-65 72t-24.5 100.5v85h-135v-305h-115v708h115v-296h135v77q0 57 24.5 100t65 71.5t92 43t105.5 14.5zM601 606q-32 0 -63 -7.5t-55 -22
t-38.5 -37t-14.5 -53.5v-265q0 -30 14.5 -52t38.5 -37t55 -22.5t64 -7.5q32 0 63 7.5t55 22t39 37t15 52.5v265q0 31 -15 54t-39.5 37.5t-55.5 21.5t-63 7z" />
    <glyph glyph-name="uni042F" unicode="&#x42f;" horiz-adv-x="629" 
d="M38 489q0 56 19 97.5t52 68.5t79 40t100 13h274v-708h-115v272h-79l-225 -272h-149l237 279q-41 5 -76 19t-61 39t-41 62.5t-15 89.5zM279 596q-55 0 -89 -24q-36 -26 -36 -88q0 -59 35 -86t98 -27h160v225h-160h-8z" />
    <glyph glyph-name="uni0430" unicode="&#x430;" horiz-adv-x="489" 
d="M327 354q0 19 -9 33.5t-24 24t-34.5 14t-40.5 4.5q-31 0 -60 -10.5t-49 -32.5l-62 64q42 47 88.5 62t96.5 15q38 0 74.5 -10.5t65.5 -31.5t46.5 -53t17.5 -76v-332q-36 -14 -87.5 -24.5t-108.5 -10.5q-41 0 -79 7.5t-67 25.5t-47 48.5t-18 76.5q0 43 16.5 74t43.5 51.5
t61.5 30.5t70.5 10q28 0 55 -5t50 -15v60zM238 226q-48 0 -74 -21.5t-26 -55.5q0 -18 8 -31t21.5 -21t30.5 -11.5t36 -3.5q27 0 51 3t42 8v115q-17 8 -40.5 13t-48.5 5zM30 0z" />
    <glyph glyph-name="uni0431" unicode="&#x431;" horiz-adv-x="509" 
d="M164 524v-73q20 15 50 26t68 11q40 0 73.5 -10.5t58 -32.5t38 -54.5t13.5 -76.5v-148q0 -44 -17.5 -77t-46.5 -55t-66 -33t-75 -11t-75 11t-66 33t-47 55t-18 77v366q0 46 17.5 76.5t45 49t62 27.5t68.5 12q50 5 87.5 14.5t66.5 26.5l35 -85q-32 -23 -73.5 -33.5
t-85.5 -15.5q-21 -2 -41.5 -5t-36 -11t-25.5 -23t-10 -41zM264 391q-56 0 -100 -32v-191q0 -19 8.5 -33.5t22 -24t30.5 -14t35 -4.5q17 0 34 4.5t30.5 14t22 24t8.5 33.5v147q0 42 -27 59t-64 17z" />
    <glyph glyph-name="uni0432" unicode="&#x432;" horiz-adv-x="506" 
d="M274 518q78 0 128 -33.5t50 -100.5q0 -38 -15.5 -64.5t-39.5 -44.5q42 -21 57.5 -54.5t15.5 -75.5q0 -39 -14.5 -66.5t-40.5 -45t-62.5 -25.5t-79.5 -8h-215v518h216zM270 303q34 0 55.5 16t21.5 49q0 35 -22.5 49t-55.5 14h-101v-128h102zM269 87q43 0 69 14t26 56
q0 43 -25.5 58t-69.5 15h-101v-143h101z" />
    <glyph glyph-name="uni0433" unicode="&#x433;" horiz-adv-x="392" 
d="M58 0v518h322v-101h-212v-417h-110z" />
    <glyph glyph-name="uni0434" unicode="&#x434;" horiz-adv-x="575" 
d="M442 -117v117h-318v-117h-106v214h9q31 2 49 17t27.5 43t14 69.5t8.5 97.5l15 194h347v-421h60v-214h-106zM381 97v322h-144l-9 -138q-2 -25 -5 -51.5t-8 -51.5t-12 -46t-17 -35h195z" />
    <glyph glyph-name="uni0435" unicode="&#x435;" horiz-adv-x="486" 
d="M248 -10q-38 0 -75 11t-66 33.5t-46.5 55.5t-17.5 78v182q0 45 17.5 78.5t46.5 55.5t66 33t75 11q37 0 73.5 -11t65 -33t46 -55.5t17.5 -78.5v-142h-296v-36q0 -18 8 -31.5t20.5 -23.5t29 -15t34.5 -5q29 0 55.5 11.5t40.5 40.5l92 -53q-15 -27 -36.5 -46.5t-46 -33
t-51.5 -20t-52 -6.5zM344 348q0 18 -8 31.5t-21.5 23t-30.5 14t-35 4.5t-35.5 -4.5t-31 -14t-21.5 -23.5t-7 -33v-47h190v49z" />
    <glyph glyph-name="uni0436" unicode="&#x436;" horiz-adv-x="750" 
d="M429 0h-108v191l-23 24l-157 -215h-130l212 280l-215 238h132l181 -207v207h108v-207l181 207h133l-216 -238l212 -280h-130l-157 214l-23 -23v-191z" />
    <glyph glyph-name="uni0437" unicode="&#x437;" horiz-adv-x="445" 
d="M217 528q37 0 68.5 -10t55 -28t36.5 -44t13 -59q0 -37 -17 -66t-43 -43q38 -16 59.5 -49t21.5 -78q0 -41 -17 -71t-44 -50t-62 -30t-72 -10q-61 0 -114 22.5t-82 74.5l75 56q22 -25 47.5 -38t63.5 -13q43 0 68.5 18t25.5 53q0 38 -23.5 52.5t-68.5 14.5h-69v87h68
q35 0 55.5 12t20.5 44q0 26 -21 39.5t-58 13.5q-35 0 -58.5 -10.5t-43.5 -33.5l-66 57q31 47 78.5 68t102.5 21z" />
    <glyph glyph-name="uni0438" unicode="&#x438;" horiz-adv-x="539" 
d="M58 0v518h110v-292l-4 -86l2 -1l33 77l158 302h124v-518h-109v288l5 83h-2l-33 -76l-162 -295h-122z" />
    <glyph glyph-name="uni0439" unicode="&#x439;" horiz-adv-x="539" 
d="M284 573q-26 0 -51 9t-45 27t-33 44t-15 61h95q4 -23 18.5 -34.5t31.5 -11.5t32 11.5t20 34.5h94q-2 -36 -15.5 -62.5t-34 -44t-46 -26t-51.5 -8.5zM58 0v518h110v-292l-4 -86l2 -1l33 77l158 302h124v-518h-109v288l5 83h-2l-33 -76l-162 -295h-122z" />
    <glyph glyph-name="uni043A" unicode="&#x43a;" horiz-adv-x="505" 
d="M168 0h-110v518h110v-214l198 214h133l-219 -241l215 -277h-130l-160 206l-37 -37v-169z" />
    <glyph glyph-name="uni043B" unicode="&#x43b;" horiz-adv-x="538" 
d="M15 97q36 0 56 8t30.5 30.5t14.5 62t9 101.5l16 219h339v-518h-110v417h-132l-12 -164q-5 -65 -13.5 -112.5t-30 -78.5t-61 -46.5t-106.5 -15.5v97z" />
    <glyph glyph-name="uni043C" unicode="&#x43c;" horiz-adv-x="644" 
d="M168 0h-110v518h126l138 -309l138 309h126v-518h-110v271l5 62h-2l-122 -262h-70l-122 262h-2l5 -72v-261z" />
    <glyph glyph-name="uni043D" unicode="&#x43d;" horiz-adv-x="525" 
d="M168 220v-220h-110v518h110v-197h190v197h109v-518h-109v220h-190z" />
    <glyph glyph-name="uni043E" unicode="&#x43e;" horiz-adv-x="494" 
d="M43 349q0 45 17.5 78t46.5 55.5t66 34t75 11.5q37 0 73.5 -11.5t65.5 -34t46.5 -55.5t17.5 -78v-180q0 -45 -17.5 -78.5t-46.5 -56t-65.5 -33.5t-73.5 -11q-38 0 -75 11t-66 33.5t-46.5 56t-17.5 78.5v180zM248 421q-17 0 -34 -4.5t-30.5 -13.5t-22 -22.5t-8.5 -31.5
v-175q0 -18 8.5 -32.5t22 -24.5t30.5 -15t34 -5q16 0 32.5 5t30 15t22 24.5t8.5 32.5v175q0 18 -8.5 31.5t-22 22.5t-30 13.5t-32.5 4.5z" />
    <glyph glyph-name="uni043F" unicode="&#x43f;" horiz-adv-x="523" 
d="M168 417v-417h-110v518h407v-518h-109v417h-188z" />
    <glyph glyph-name="uni0440" unicode="&#x440;" horiz-adv-x="518" 
d="M472 347v-183q0 -43 -17.5 -75.5t-46 -54.5t-65 -33t-73.5 -11q-26 -1 -50 4t-47 14v-177h-110v655q42 19 94.5 31t104.5 11q41 0 79 -10t67 -31t46.5 -55.5t17.5 -84.5zM362 349q0 22 -9 38t-23.5 26t-33.5 14.5t-40 4.5q-46 0 -83 -17v-316q18 -6 38.5 -9.5t40.5 -2.5
q41 0 73.5 17.5t36.5 59.5v185zM63 0z" />
    <glyph glyph-name="uni0441" unicode="&#x441;" horiz-adv-x="475" 
d="M43 350q0 45 17.5 78.5t46.5 55.5t65.5 33t74.5 11q30 0 61.5 -7.5t59 -23.5t48.5 -42t32 -63l-100 -38q-10 35 -37 51t-59 16q-18 0 -35.5 -4.5t-31.5 -13.5t-23 -22t-9 -30v-184q0 -34 29 -52t65 -18q32 0 61.5 16t39.5 51l102 -38q-11 -37 -32.5 -63t-49 -42
t-59.5 -23.5t-62 -7.5q-38 0 -74.5 11t-65.5 33t-46.5 55.5t-17.5 78.5v182zM43 0z" />
    <glyph glyph-name="uni0442" unicode="&#x442;" horiz-adv-x="440" 
d="M165 0v420h-150v98h410v-98h-150v-420h-110z" />
    <glyph glyph-name="uni0443" unicode="&#x443;" horiz-adv-x="526" 
d="M468 -9q0 -49 -17.5 -85t-46.5 -59.5t-66.5 -35t-77.5 -11.5q-60 0 -115.5 23.5t-85.5 70.5l66 63q22 -29 60.5 -44.5t76.5 -14.5q21 0 40.5 7.5t33.5 22t21.5 35t5.5 46.5q-44 -17 -95 -19q-40 0 -78.5 12t-68.5 35t-48.5 56.5t-18.5 77.5v347h110v-348q1 -20 11 -35
t26 -25t35.5 -15t39.5 -5q23 0 45 6t38 17v405h109v-527zM54 0z" />
    <glyph glyph-name="uni0444" unicode="&#x444;" horiz-adv-x="704" 
d="M480 528q35 0 67.5 -11.5t57.5 -33t40 -54t15 -74.5v-192q0 -42 -15 -74.5t-40 -54t-57.5 -33t-67.5 -11.5q-19 0 -41.5 4t-32.5 9v-186h-108v186q-10 -5 -32.5 -9t-41.5 -4q-35 0 -67.5 11.5t-57.5 33t-40 54t-15 74.5v192q0 42 15 74.5t40 54t57.5 33t67.5 11.5
q19 0 41.5 -4t32.5 -9v193h108v-193q10 5 32.5 9t41.5 4zM249 431q-17 0 -34 -5t-31 -14.5t-22.5 -24.5t-8.5 -35v-186q0 -20 8.5 -35t22.5 -25t31 -14.5t34 -4.5q11 0 25 2.5t24 7.5v324q-10 5 -24 7.5t-25 2.5zM455 431q-11 0 -25 -2.5t-24 -7.5v-324q10 -5 24 -7.5
t25 -2.5q17 0 34 4.5t31 14.5t22.5 25t8.5 35v186q0 20 -8.5 35t-22.5 24.5t-31 14.5t-34 5z" />
    <glyph glyph-name="uni0445" unicode="&#x445;" horiz-adv-x="497" 
d="M486 0h-127l-109 173l-111 -173h-128l176 259l-176 259h128l111 -174l109 174h126l-169 -259z" />
    <glyph glyph-name="uni0446" unicode="&#x446;" horiz-adv-x="548" 
d="M58 0v518h110v-421h184v421h109v-421h63v-218h-105l-3 121h-358z" />
    <glyph glyph-name="uni0447" unicode="&#x447;" horiz-adv-x="492" 
d="M215 147q-33 0 -66 10t-58.5 31t-41.5 53.5t-16 77.5v199h109v-187q0 -44 24.5 -62.5t62.5 -19.5q52 0 95 22v247h110v-518h-110v178q-23 -16 -51 -23.5t-58 -7.5z" />
    <glyph glyph-name="uni0448" unicode="&#x448;" horiz-adv-x="740" 
d="M315 99v419h110v-419h147v419h110v-518h-624v518h110v-419h147z" />
    <glyph glyph-name="uni0449" unicode="&#x449;" horiz-adv-x="768" 
d="M57 0v518h110v-421h147v421h110v-421h147v421h110v-421h62v-218h-105l-3 121h-578z" />
    <glyph glyph-name="uni044A" unicode="&#x44a;" horiz-adv-x="554" 
d="M363 341q85 0 127 -46.5t42 -127.5q0 -45 -14.5 -76.5t-40.5 -51.5t-62 -29.5t-79 -9.5h-219v429h-103v89h213v-177h136zM332 88q42 0 68 19t26 62q0 49 -25.5 67.5t-69.5 18.5h-104v-167h105z" />
    <glyph glyph-name="uni044B" unicode="&#x44b;" horiz-adv-x="717" 
d="M304 341q85 0 127.5 -46.5t42.5 -127.5q0 -45 -14.5 -76.5t-40.5 -51.5t-62.5 -29.5t-79.5 -9.5h-219v518h110v-177h136zM273 88q42 0 68 19t26 66q0 46 -25 63q-25 19 -70 19h-104v-167h105zM659 0h-113v517h113v-517z" />
    <glyph glyph-name="uni044C" unicode="&#x44c;" horiz-adv-x="496" 
d="M304 341q85 0 127.5 -46.5t42.5 -127.5q0 -45 -14.5 -76.5t-40.5 -51.5t-62.5 -29.5t-79.5 -9.5h-219v518h110v-177h136zM273 88q42 0 68 19t26 66q0 46 -25 63q-25 19 -70 19h-104v-167h105z" />
    <glyph glyph-name="uni044D" unicode="&#x44d;" horiz-adv-x="469" 
d="M221 527q38 0 74.5 -11t65.5 -33.5t47 -55.5t18 -78v-179q0 -45 -18 -78.5t-47 -56t-65.5 -33.5t-74.5 -11q-29 0 -59 7.5t-56.5 23.5t-48 41.5t-33.5 61.5l96 35q11 -35 38.5 -54t61.5 -19q18 0 35.5 4.5t31 14t22 23.5t8.5 33v56h-161v81h161v49q0 19 -8.5 33.5t-22 24
t-30.5 14.5t-35 5q-32 0 -57.5 -12.5t-40.5 -43.5l-90 42q13 31 34 53t46.5 36t53 20.5t54.5 6.5z" />
    <glyph glyph-name="uni044E" unicode="&#x44e;" horiz-adv-x="726" 
d="M478 528q38 0 74.5 -11.5t65.5 -34t47 -55.5t18 -78v-183q0 -44 -17.5 -77t-46.5 -55t-66 -33t-75 -11t-75 11t-66 33t-47 55t-18 77v57h-106v-223h-110v518h110v-200h106v35q0 44 18 76.5t47.5 54.5t66 33t74.5 11zM478 425q-17 0 -34.5 -4.5t-31 -13.5t-22 -23.5
t-8.5 -33.5v-182q0 -19 9 -33.5t22.5 -24t30.5 -14t34 -4.5t34 4.5t30.5 14t22 24t8.5 33.5v182q0 19 -8.5 33.5t-22 23.5t-30.5 13.5t-34 4.5z" />
    <glyph glyph-name="uni044F" unicode="&#x44f;" horiz-adv-x="506" 
d="M40 359q0 43 14.5 73.5t40 49.5t61 27.5t77.5 8.5h215v-518h-110l1 202h-53l-150 -202h-128l163 208q-27 4 -51 15.5t-42 30.5t-28 45t-10 60zM233 431q-42 0 -64 -18t-22 -56q0 -42 23 -61t70 -19h98v154h-105z" />
    <glyph glyph-name="uni0451" unicode="&#x451;" horiz-adv-x="486" 
d="M285 640q0 31 20.5 52t51.5 21t52 -21t21 -52t-21 -52t-52 -21t-51.5 21t-20.5 52zM84 640q0 31 20.5 52t51.5 21t52 -21t21 -52t-21 -52t-52 -21t-51.5 21t-20.5 52zM248 -10q-38 0 -75 11t-66 33.5t-46.5 55.5t-17.5 78v182q0 45 17.5 78.5t46.5 55.5t66 33t75 11
q37 0 73.5 -11t65 -33t46 -55.5t17.5 -78.5v-142h-296v-36q0 -18 8 -31.5t20.5 -23.5t29 -15t34.5 -5q29 0 55.5 11.5t40.5 40.5l92 -53q-15 -27 -36.5 -46.5t-46 -33t-51.5 -20t-52 -6.5zM344 348q0 18 -8 31.5t-21.5 23t-30.5 14t-35 4.5t-35.5 -4.5t-31 -14t-21.5 -23.5
t-7 -33v-47h190v49z" />
    <glyph glyph-name="Wgrave" unicode="&#x1e80;" horiz-adv-x="926" 
d="M433 756l-118 151h141l91 -151h-114zM211 0l-205 708h120l125 -443q-1 0 2.5 -20.5t7.5 -45.5q4 -29 11 -66h9l22 137l112 334h97l110 -336q-1 0 4 -21t11 -46q7 -29 15 -66h9l16 132l124 441h119l-205 -708h-123l-112 346l-14 89h-7l-8 -44q-3 -17 -6 -30.5t-2 -13.5
l-109 -347h-123z" />
    <glyph glyph-name="wgrave" unicode="&#x1e81;" horiz-adv-x="709" 
d="M323 576l-118 151h141l91 -151h-114zM409 505l86 -384h3l19 126l69 271h111l-145 -518h-115l-82 352h-1l-82 -352h-115l-146 518h113l70 -273l18 -126h3q1 9 4.5 30.5t13 65t25.5 113.5t42 177h109z" />
    <glyph glyph-name="Wacute" unicode="&#x1e82;" horiz-adv-x="926" 
d="M505 756h-114l91 151h141zM211 0l-205 708h120l125 -443q-1 0 2.5 -20.5t7.5 -45.5q4 -29 11 -66h9l22 137l112 334h97l110 -336q-1 0 4 -21t11 -46q7 -29 15 -66h9l16 132l124 441h119l-205 -708h-123l-112 346l-14 89h-7l-8 -44q-3 -17 -6 -30.5t-2 -13.5l-109 -347
h-123z" />
    <glyph glyph-name="wacute" unicode="&#x1e83;" horiz-adv-x="709" 
d="M395 576h-114l91 151h141zM409 505l86 -384h3l19 126l69 271h111l-145 -518h-115l-82 352h-1l-82 -352h-115l-146 518h113l70 -273l18 -126h3q1 9 4.5 30.5t13 65t25.5 113.5t42 177h109z" />
    <glyph glyph-name="Wdieresis" unicode="&#x1e84;" horiz-adv-x="926" 
d="M508 831q0 31 20.5 52t51.5 21t52 -21t21 -52t-21 -52t-52 -21t-51.5 21t-20.5 52zM287 831q0 31 20.5 52t51.5 21t52 -21t21 -52t-21 -52t-52 -21t-51.5 21t-20.5 52zM211 0l-205 708h120l125 -443q-1 0 2.5 -20.5t7.5 -45.5q4 -29 11 -66h9l22 137l112 334h97l110 -336
q-1 0 4 -21t11 -46q7 -29 15 -66h9l16 132l124 441h119l-205 -708h-123l-112 346l-14 89h-7l-8 -44q-3 -17 -6 -30.5t-2 -13.5l-109 -347h-123z" />
    <glyph glyph-name="wdieresis" unicode="&#x1e85;" horiz-adv-x="709" 
d="M398 651q0 31 20.5 52t51.5 21t52 -21t21 -52t-21 -52t-52 -21t-51.5 21t-20.5 52zM177 651q0 31 20.5 52t51.5 21t52 -21t21 -52t-21 -52t-52 -21t-51.5 21t-20.5 52zM409 505l86 -384h3l19 126l69 271h111l-145 -518h-115l-82 352h-1l-82 -352h-115l-146 518h113
l70 -273l18 -126h3q1 9 4.5 30.5t13 65t25.5 113.5t42 177h109z" />
    <glyph glyph-name="Ygrave" unicode="&#x1ef2;" horiz-adv-x="600" 
d="M270 756l-118 151h141l91 -151h-114zM242 0v275l-246 433h133l171 -322l170 322h135l-247 -433v-275h-116z" />
    <glyph glyph-name="ygrave" unicode="&#x1ef3;" horiz-adv-x="526" 
d="M240 576l-118 151h141l91 -151h-114zM468 -9q0 -49 -17.5 -85t-46.5 -59.5t-66.5 -35t-77.5 -11.5q-60 0 -115.5 23.5t-85.5 70.5l66 63q22 -29 61 -45q36 -14 71 -14h5q21 0 40.5 7.5t33.5 22t22 34.5q5 17 5 36v11q-44 -17 -95 -19q-40 0 -78.5 12t-68.5 35t-48.5 56.5
t-18.5 77.5v347h110v-348q1 -20 11 -35t26 -25t35.5 -15t39.5 -5q23 0 45 6t38 17v405h109v-527z" />
    <glyph glyph-name="endash" unicode="&#x2013;" horiz-adv-x="579" 
d="M525 239h-471v111h471v-111z" />
    <glyph glyph-name="emdash" unicode="&#x2014;" horiz-adv-x="961" 
d="M907 239h-853v111h853v-111z" />
    <glyph glyph-name="quoteleft" unicode="&#x2018;" horiz-adv-x="260" 
d="M120 707h115l-75 -262h-126z" />
    <glyph glyph-name="quoteright" unicode="&#x2019;" horiz-adv-x="258" 
d="M149 446h-112l75 262h125z" />
    <glyph glyph-name="quotesinglbase" unicode="&#x201a;" horiz-adv-x="248" 
d="M112 -122h-111l72 249h130z" />
    <glyph glyph-name="quotedblleft" unicode="&#x201c;" horiz-adv-x="431" 
d="M293 705h115l-75 -262h-126zM121 705h115l-75 -262h-126z" />
    <glyph glyph-name="quotedblright" unicode="&#x201d;" horiz-adv-x="426" 
d="M317 445h-112l75 262h125zM149 445h-112l75 262h125z" />
    <glyph glyph-name="quotedblbase" unicode="&#x201e;" horiz-adv-x="424" 
d="M290 -122h-111l72 249h130zM112 -122h-111l72 249h130z" />
    <glyph glyph-name="dagger" unicode="&#x2020;" horiz-adv-x="503" 
d="M26 514h170v195h112v-195h170v-107h-170v-519h-112v519h-170v107z" />
    <glyph glyph-name="daggerdbl" unicode="&#x2021;" horiz-adv-x="550" 
d="M49 187h170v220h-170v106h170v195h112v-195h170v-106h-170v-220h170v-106h-170v-193h-112v193h-170v106z" />
    <glyph glyph-name="bullet" unicode="&#x2022;" horiz-adv-x="409" 
d="M57 343q0 31 11.5 58t31.5 47t47 31.5t58 11.5t57.5 -11.5t46.5 -31.5t31.5 -47t11.5 -58t-11.5 -58t-31.5 -47.5t-46.5 -32t-57.5 -11.5t-58 11.5t-47 32t-31.5 47.5t-11.5 58z" />
    <glyph glyph-name="ellipsis" unicode="&#x2026;" horiz-adv-x="596" 
d="M410 63q0 31 20.5 52t51.5 21t52 -21t21 -52t-21 -52t-52 -21t-51.5 21t-20.5 52zM41 63q0 31 20.5 52t51.5 21t52 -21t21 -52t-21 -52t-52 -21t-51.5 21t-20.5 52zM226 63q0 31 20.5 52t51.5 21t52 -21t21 -52t-21 -52t-52 -21t-51.5 21t-20.5 52z" />
    <glyph glyph-name="perthousand" unicode="&#x2030;" horiz-adv-x="1083" 
d="M1058 179q0 -86 -42 -134.5t-106 -48.5q-70 0 -108.5 47t-38.5 138q0 42 11 75t30.5 56.5t46.5 36t59 12.5q70 0 109 -47t39 -135zM969 180q0 51 -16.5 74t-45.5 23q-28 0 -42.5 -22.5t-14.5 -72.5q0 -53 14.5 -75.5t43.5 -22.5q30 0 45.5 23t15.5 73zM561 734l92 -59
l-490 -748l-91 59zM322 523q0 -86 -42 -134.5t-106 -48.5q-70 0 -108.5 47t-38.5 138q0 42 11 75t30.5 56.5t46.5 36t59 12.5q70 0 109 -47t39 -135zM233 523q0 51 -16.5 74t-45.5 23q-28 0 -42.5 -22.5t-14.5 -72.5q0 -53 14.5 -75.5t43.5 -22.5q30 0 45.5 23t15.5 73z
M726 179q0 -86 -42 -134.5t-106 -48.5q-70 0 -108.5 47t-38.5 138q0 42 11 75t30.5 56.5t46.5 36t59 12.5q70 0 109 -47t39 -135zM637 180q0 51 -16.5 74t-45.5 23q-28 0 -42.5 -22.5t-14.5 -72.5q0 -53 14.5 -75.5t43.5 -22.5q30 0 45.5 23t15.5 73z" />
    <glyph glyph-name="guilsinglleft" unicode="&#x2039;" horiz-adv-x="307" 
d="M271 454l-112 -163l112 -164l-95 -56l-148 220l148 220z" />
    <glyph glyph-name="guilsinglright" unicode="&#x203a;" horiz-adv-x="307" 
d="M35 127l112 164l-110 163l95 57l147 -220l-147 -220z" />
    <glyph glyph-name="fraction" unicode="&#x2044;" horiz-adv-x="530" 
d="M93 -41l-91 56l435 712l91 -55z" />
    <glyph glyph-name="Euro" unicode="&#x20ac;" horiz-adv-x="610" 
d="M92 495q0 55 21 97t55.5 70t78.5 42t90 14q35 0 70 -10t66.5 -29.5t58 -49.5t45.5 -69l-101 -53q-24 49 -62.5 72t-76.5 23q-25 0 -49 -7t-43 -20.5t-30.5 -34t-11.5 -47.5v-36h246l-16 -81h-227v-44h241l-16 -87h-228v-34q0 -27 11.5 -47t30 -32.5t42 -19t48.5 -6.5
q40 0 78.5 21.5t62.5 69.5l101 -49q-19 -40 -46 -69.5t-59 -49t-67 -29.5t-70 -10q-46 0 -90 13.5t-78 41.5t-54.5 69t-20.5 97v34h-67l18 87h49v44h-59l16 81h43v38z" />
    <glyph glyph-name="uni2113" unicode="&#x2113;" horiz-adv-x="420" 
d="M257 -10q-38 0 -65.5 11.5t-47 32t-31.5 48t-17 60.5q-9 -8 -18 -14t-15 -11l-44 84q17 16 35.5 34t37.5 37v234q0 70 13.5 116t35.5 73.5t49.5 38.5t54.5 11q33 0 57.5 -13t40.5 -35.5t24 -53.5t8 -67q0 -91 -48 -178t-127 -169v-26q0 -47 14 -72.5t34 -32.5q8 -4 18 -4
q11 0 23 5q22 9 38 31l73 -65q-30 -36 -65.5 -55.5t-77.5 -19.5zM277 568q0 25 -5.5 45.5t-25.5 20.5q-8 0 -16.5 -6.5t-16 -22t-12 -41t-4.5 -64.5v-125q39 49 59.5 94.5t20.5 98.5z" />
    <glyph glyph-name="trademark" unicode="&#x2122;" horiz-adv-x="839" 
d="M134 592h-103v102h313v-102h-104v-302h-106v302zM388 694h95l101 -203l103 203h92v-404h-106l7 181l-67 -125h-53l-72 128l6 -184h-106v404z" />
    <glyph glyph-name="Omega" unicode="&#x2126;" horiz-adv-x="784" 
d="M51 376q0 85 29.5 148t77.5 104.5t109 61.5t123 20h3q65 -1 126.5 -22t109.5 -62.5t77.5 -103t29.5 -142.5q0 -41 -9 -79t-24 -72t-34 -64t-38 -54h106v-111h-307v83q38 21 72.5 51.5t61 68.5t42 82.5t15.5 94.5q0 72 -33.5 121t-84 75t-108.5 27h-5q-56 0 -105 -23
q-50 -25 -83.5 -76t-33.5 -130q0 -46 15 -88t40.5 -79t59.5 -68.5t72 -56.5v-82h-310v111h109q-44 50 -73.5 114.5t-29.5 150.5z" />
    <glyph glyph-name="estimated" unicode="&#x212e;" horiz-adv-x="841" 
d="M425 68q31 0 66 5.5t69 18t64.5 33t51.5 51.5l99 -1q-30 -50 -70.5 -85t-87 -57t-96.5 -32t-97 -10q-80 0 -151 27.5t-124 75t-83.5 111.5t-30.5 138q0 73 30.5 137.5t83.5 112.5t124 76t151 28q81 0 152 -28t124 -76t83.5 -112.5t30.5 -137.5v-39h-586v-150l1 -1
q38 -37 89 -61t107 -24zM425 617q-54 0 -106.5 -25t-90.5 -61v-150h394v153q-39 37 -89.5 60t-107.5 23z" />
    <glyph glyph-name="partialdiff" unicode="&#x2202;" horiz-adv-x="512" 
d="M230 718q45 0 88.5 -19.5t78 -61.5t56 -107.5t21.5 -156.5q0 -83 -16.5 -153.5t-48.5 -121.5t-79 -79.5t-107 -28.5q-47 0 -81.5 18.5t-57 49.5t-34.5 71.5t-13 83.5v12q0 47 14 86q16 44 43.5 76t62.5 51t73 22q7 1 15 1q29 0 58 -11q36 -13 64 -45v11q0 55 -17 98
q-20 48 -53.5 74.5t-76.5 29.5h-7q-39 0 -80 -27l-45 84q29 18 64 30.5t78 12.5zM247 355q-20 0 -38 -11t-31.5 -30t-21.5 -44.5t-8 -54.5q0 -53 20.5 -84.5t55.5 -31.5h1q6 -1 12 -1l36 12q24 15 42.5 44t30.5 68.5t14 81.5q-4 11 -15 20.5t-26.5 16t-34 10.5t-37.5 4z" />
    <glyph glyph-name="Delta" unicode="&#x2206;" horiz-adv-x="591" 
d="M566 0h-541v73l221 628h100l220 -627v-74zM150 110h284l-140 438z" />
    <glyph glyph-name="product" unicode="&#x220f;" horiz-adv-x="642" 
d="M413 -61v661h-186v-661h-111v661h-90v109h590v-109h-92v-661h-111z" />
    <glyph glyph-name="summation" unicode="&#x2211;" horiz-adv-x="546" 
d="M40 685h457v-107h-299q47 -68 96.5 -137.5t95.5 -135.5l-206 -277h327v-105h-482v75l230 304l-219 306v77z" />
    <glyph glyph-name="minus" unicode="&#x2212;" horiz-adv-x="620" 
d="M565 247h-502v110h502v-110z" />
    <glyph glyph-name="uni2215" unicode="&#x2215;" horiz-adv-x="522" 
d="M89 -41l-91 56l435 712l91 -55z" />
    <glyph glyph-name="uni2219" unicode="&#x2219;" horiz-adv-x="236" 
d="M46 311q0 31 20.5 52t51.5 21t52 -21t21 -52t-21 -52t-52 -21t-51.5 21t-20.5 52z" />
    <glyph glyph-name="radical" unicode="&#x221a;" horiz-adv-x="529" 
d="M100 266l-61 -21l-37 99l168 64l101 -364l136 756h115l-197 -936h-95z" />
    <glyph glyph-name="infinity" unicode="&#x221e;" horiz-adv-x="704" 
d="M667 288q0 -37 -13.5 -67.5t-36 -52t-52 -33t-60.5 -11.5q-42 0 -76.5 20t-75.5 62q-32 -35 -69 -58.5t-89 -23.5q-33 0 -62 12.5t-50 34t-33.5 51t-12.5 63.5q0 36 12.5 66.5t34 52.5t51.5 34.5t66 12.5q50 0 86 -24.5t68 -59.5q16 17 33 32t36 26.5t40.5 18.5t47.5 7
q34 0 63 -12t49 -33.5t31.5 -51t11.5 -65.5v-1zM509 354q-25 0 -50 -21t-46 -44q31 -33 53.5 -50.5t43.5 -17.5q29 0 44 20t15 44q0 33 -17 51t-43 18zM199 223q24 0 48 20.5t47 43.5q-23 26 -47.5 45.5t-55.5 19.5q-26 0 -39.5 -20t-13.5 -47q0 -26 16 -44t44 -18h1z" />
    <glyph glyph-name="integral" unicode="&#x222b;" horiz-adv-x="349" 
d="M274 734q-16 0 -26 -9q-22 -18 -22 -69l11 -638q0 -40 -11.5 -69.5t-31 -49t-45 -29t-53.5 -9.5q-15 0 -38.5 6.5t-52.5 19.5l25 83q29 -12 51 -12q11 0 21 3q26 10 26 58q0 18 -1 68t-2 115.5t-2.5 139.5t-2.5 139.5t-2 114.5t-1 65q0 41 11 71.5t29.5 51t43 31
t50.5 10.5q18 0 42 -8.5t50 -25.5l-23 -68q-27 11 -46 11z" />
    <glyph glyph-name="approxequal" unicode="&#x2248;" horiz-adv-x="483" 
d="M322 295q-23 0 -45 7q-27 10 -57 24q-15 8 -30.5 14t-27.5 4q-9 -1 -24 -9t-29 -24l-64 55q23 38 52 58.5t61 22.5h3q26 0 54 -13q30 -15 59 -26q25 -10 47 -10h6q25 2 43 36l68 -58q-21 -34 -46 -55.5t-60 -25.5h-10zM322 136q-23 0 -45 8q-27 9 -57 23q-15 8 -30.5 14
t-27.5 4q-9 -1 -24 -9t-29 -24l-64 55q23 38 52 58.5t61 22.5h3q26 0 54 -14q30 -14 59 -25q25 -10 47 -10q3 0 6 1q25 1 43 35l68 -58q-21 -34 -46 -55.5t-60 -25.5h-10z" />
    <glyph glyph-name="notequal" unicode="&#x2260;" horiz-adv-x="534" 
d="M488 314h-158l-28 -63h186v-107h-232l-44 -102l-89 44l24 58h-101v107h147l26 63h-173v106h218l42 98l93 -37l-26 -61h115v-106z" />
    <glyph glyph-name="lessequal" unicode="&#x2264;" horiz-adv-x="485" 
d="M420 281v-116l-371 194v69l371 197v-117l-222 -115zM439 132v-107h-395v107h395z" />
    <glyph glyph-name="greaterequal" unicode="&#x2265;" horiz-adv-x="485" 
d="M436 354l-371 -194v116l222 112l-222 115v117l371 -197v-69zM441 127v-107h-395v107h395z" />
    <glyph glyph-name="lozenge" unicode="&#x25ca;" horiz-adv-x="548" 
d="M22 344l210 372h87l207 -371l-210 -373h-88zM274 105l128 239l-130 248l-127 -246z" />
    <glyph glyph-name="i.loclTRK" horiz-adv-x="229" 
d="M39 641q0 31 20.5 52t51.5 21t52 -21t21 -52t-21 -52t-52 -21t-51.5 21t-20.5 52zM171 0h-113v517h113v-517z" />
    <glyph glyph-name="f_i" horiz-adv-x="519" 
d="M273 603q-51 0 -78 -18.5t-27 -51.5v-94h99v-110h-99v-329h-110v533q0 45 16.5 79.5t46 57.5t68.5 34q30 8 64 8q10 0 20 -1v-108zM335 639q0 31 20.5 52t51.5 21t52 -21t21 -52t-21 -52t-52 -21t-51.5 21t-20.5 52zM461 -9h-113v517h113v-517z" />
    <glyph glyph-name="uni0414.loclBGR" horiz-adv-x="679" 
d="M549 -131v131h-418v-131h-117v238h59l200 601h132l204 -601h56v-238h-116zM484 107l-108 348l-36 127h-2l-33 -124l-109 -351h288z" />
    <glyph glyph-name="uni041B.loclBGR" horiz-adv-x="612" 
d="M307 582h-2l-43 -152l-139 -430h-123l244 708h122l246 -708h-122l-143 434z" />
    <glyph glyph-name="uni0432.loclBGR" horiz-adv-x="509" 
d="M262 718q36 0 70 -9t60.5 -29t43 -51t16.5 -76q0 -29 -8 -53t-20.5 -43t-27.5 -33t-29 -22q40 -4 70.5 -36.5t30.5 -89.5v-110q0 -44 -17.5 -77t-46.5 -55t-66 -33t-75 -11q-49 0 -102 10t-104 28v515q0 40 15.5 72.5t43 55.5t65 35t81.5 12zM260 618q-43 0 -68.5 -20.5
t-25.5 -62.5v-129q23 7 45.5 13.5t45.5 14.5q86 27 86 110q0 74 -83 74zM264 89q18 0 35 5t30.5 15.5t21.5 26t8 35.5v109q0 16 -8 29.5t-21.5 22.5t-31.5 12q-8 2 -17 2q-11 0 -22 -2q-24 -5 -47 -12l-46 -14v-217q23 -7 48 -9.5t50 -2.5z" />
    <glyph glyph-name="uni0433.loclBGR" horiz-adv-x="441" 
d="M222 528q33 0 64.5 -9t56 -27t39 -45.5t14.5 -64.5q0 -40 -13.5 -67t-36.5 -45t-52.5 -29t-61.5 -19q-20 -5 -37.5 -10.5t-30.5 -13t-20 -19t-7 -28.5q0 -34 22 -48t60 -14q42 0 74 11.5t60 39.5l62 -66q-39 -46 -89 -65t-112 -19q-37 0 -70 9.5t-58.5 28t-40.5 47
t-15 67.5q0 38 12 64.5t33 45.5t50.5 31t65.5 22q16 4 33 8.5t30.5 12t22.5 19.5t9 31q0 28 -20 40t-53 12q-57 0 -102 -36l-65 64q37 38 83 55t93 17z" />
    <glyph glyph-name="uni0434.loclBGR" horiz-adv-x="504" 
d="M244 -106q20 0 37.5 6t31 19.5t21.5 35.5t8 54q-23 -10 -47 -14.5t-48 -4.5q-39 0 -76 12t-65.5 34.5t-45.5 56t-17 77.5v176q0 47 18.5 81.5t48.5 56.5t69.5 33t81.5 11q51 0 101 -15.5t85 -41.5v-481q0 -49 -17 -85t-45.5 -59t-64.5 -34.5t-75 -11.5q-29 0 -57.5 5.5
t-54.5 17t-48 29t-37 40.5l66 63q22 -29 57.5 -45t72.5 -16zM256 427q-20 0 -38.5 -5t-32.5 -14.5t-23 -25t-9 -36.5v-177q1 -20 10 -35t23 -25.5t32 -15.5t37 -5q23 0 45 6t38 17v295q-15 11 -37 16t-45 5zM43 0z" />
    <glyph glyph-name="uni0436.loclBGR" horiz-adv-x="749" 
d="M428 0h-108v186l-26 26l-154 -212h-130l212 280l-215 238h132l181 -207v397h108v-397l181 207h133l-215 -238l211 -280h-130l-152 212l-28 -26v-186z" />
    <glyph glyph-name="uni0438.loclBGR" 
d="M263 -10q-40 0 -77.5 10.5t-67 32.5t-47 56t-17.5 81v348h109v-349q0 -20 8 -34.5t21.5 -24.5t31 -15.5t35.5 -5.5q53 0 92 13v416h109v-489q-62 -23 -110.5 -31t-86.5 -8z" />
    <glyph glyph-name="uni0439.loclBGR" horiz-adv-x="518" 
d="M263 572q-26 0 -51 9t-45.5 27t-34 44.5t-15.5 61.5h95q4 -23 19 -34.5t32 -11.5t31.5 11.5t19.5 34.5h94q-2 -35 -15.5 -61.5t-33.5 -44.5t-45 -27t-51 -9zM262 -10q-40 0 -77.5 10.5t-66.5 33t-46.5 56t-17.5 80.5v348h109v-349q0 -19 8 -34t21.5 -25t30 -15.5
t34.5 -5.5q26 0 50 3t44 11v415h110v-489q-63 -23 -111.5 -31t-87.5 -8z" />
    <glyph glyph-name="uni043A.loclBGR" horiz-adv-x="500" 
d="M168 0h-110v708h110v-399l186 209h138l-216 -239l215 -279h-129l-163 212l-31 -31v-181z" />
    <glyph glyph-name="uni043B.loclBGR" horiz-adv-x="480" 
d="M242 420h-2l-25 -117l-89 -303h-119l168 518h134l164 -518h-120l-86 303z" />
    <glyph glyph-name="uni043F.loclBGR" 
d="M255 521q39 0 76.5 -10.5t66.5 -32.5t46.5 -55.5t17.5 -79.5v-343h-108v343q0 20 -8 34.5t-21.5 24.5t-30.5 14.5t-35 4.5q-26 0 -51 -5.5t-42 -12.5v-403h-109v479q47 18 97.5 30t100.5 12z" />
    <glyph glyph-name="uni0442.loclBGR" horiz-adv-x="773" 
d="M718 357v-357h-109v353q0 35 -25.5 51.5t-57.5 16.5q-16 0 -31.5 -4.5t-28 -12.5t-20 -20t-7.5 -27v-357h-108v355q0 18 -7.5 30.5t-20.5 20.5t-29 11.5t-34 3.5q-20 0 -39 -5t-36 -16v-400h-108v473q34 24 81 39t95 16q47 0 87.5 -15t63.5 -54q23 34 61 51t81 18
q35 0 69.5 -10.5t61.5 -31.5t44 -53.5t17 -75.5z" />
    <glyph glyph-name="uni0446.loclBGR" horiz-adv-x="546" 
d="M262 -9q-39 0 -76.5 10.5t-67 32.5t-47 56t-17.5 80v349h109v-349q0 -19 8 -34t21 -25t29.5 -15.5t33.5 -5.5q26 0 48 1.5t43 8.5v419h110v-402h64v-118l-13 -118h-92l3 139l-9 -4q-32 -12 -71.5 -18.5t-75.5 -6.5z" />
    <glyph glyph-name="uni0448.loclBGR" horiz-adv-x="783" 
d="M249 -10q-40 0 -75 11t-61.5 33t-42 55.5t-15.5 77.5v351h110v-351q0 -43 25 -59q23 -16 55 -16h4q14 0 30 4.5t29 12t21.5 18.5t8.5 26v365h108v-365q0 -17 8 -29t21 -19.5t29.5 -11.5t33.5 -4q24 0 44.5 5t33.5 14v410h110v-479q-34 -21 -82 -35t-96 -14
q-43 0 -84.5 14t-70.5 44q-28 -29 -66.5 -43.5t-77.5 -14.5z" />
    <glyph glyph-name="uni0449.loclBGR" horiz-adv-x="817" 
d="M548 -10q-43 0 -84.5 14t-70.5 44q-28 -29 -66.5 -43.5t-77.5 -14.5q-40 0 -75 11t-61.5 33t-42 55.5t-15.5 77.5v351h110v-351q0 -43 25 -59q23 -16 55 -16h4q14 0 30 4.5t29 12t21.5 18.5t8.5 26v365h108v-365q0 -17 8 -29t21 -19.5t29.5 -11.5t33.5 -4q24 0 44.5 3.5
t33.5 10.5v415h110v-401h68v-125l-12 -113h-99l3 139l-2 -1q-30 -12 -66 -19.5t-70 -7.5z" />
    <glyph glyph-name="uni044E.loclBGR" horiz-adv-x="728" 
d="M480 528q38 0 74.5 -11.5t65.5 -34t47 -55.5t18 -78v-183q0 -44 -17.5 -77t-46.5 -55t-66 -33t-75 -11t-75 11t-66 33t-47 55t-18 77v57h-107v-223h-109v708h109v-390h107v34q1 44 19 77t47 54.5t65.5 33t74.5 11.5zM480 425q-17 0 -34.5 -4.5t-31 -13.5t-22 -23.5
t-8.5 -33.5v-182q0 -19 8.5 -33.5t22 -24t30.5 -14t35 -4.5q17 0 34 4.5t30.5 14t22 24t8.5 33.5v182q0 19 -8.5 33.5t-22 23.5t-30.5 13.5t-34 4.5z" />
    <glyph glyph-name="newGlyph" horiz-adv-x="600" 
 />
    <glyph glyph-name=".ttfautohint" horiz-adv-x="250" 
d="M0 0z" />
    </font>
</defs>
</svg>
