<?xml version="1.0" standalone="no"?>
<!DOCTYPE svg PUBLIC "-//W3C//DTD SVG 1.1//EN" "http://www.w3.org/Graphics/SVG/1.1/DTD/svg11.dtd" >
<svg xmlns="http://www.w3.org/2000/svg" xmlns:xlink="http://www.w3.org/1999/xlink" version="1.1">
<metadata>
Created by FontForge 20161003 at Mon Nov 21 12:19:43 2016
 By www-data
Copyright (c) 2014 by (c) 2009 Designed by Svetoslav Simov (c) Fontfabric, Inc. All rights reserved.
</metadata>
<defs>
<font id="UniSansBook" horiz-adv-x="490" >
  <font-face 
    font-family="UniSansBook"
    font-weight="400"
    font-stretch="normal"
    units-per-em="1000"
    panose-1="0 0 5 0 0 0 0 0 0 0"
    ascent="777"
    descent="-223"
    x-height="518"
    cap-height="708"
    bbox="-43 -244 1050 921"
    underline-thickness="50"
    underline-position="-150"
    unicode-range="U+0020-FB02"
  />
<missing-glyph horiz-adv-x="500" 
d="M500 0h-500v700h500v-700zM250 395l170 255h-340zM50 605v-510l170 255zM280 350l170 -255v510zM80 50h340l-170 255z" />
    <glyph glyph-name="fi" unicode="fi" horiz-adv-x="470" 
d="M328 645q0 20 14 34t34 14t34 -14t14 -34t-14 -34t-34 -14t-34 14t-14 34zM401 0h-60v518h60v-518zM220 661q-45 0 -68 -23q-28 -28 -28 -94v-50h112v-50h-112v-444h-56v544q0 46 13 79.5t36 54.5t55 30q22 5 47 5q12 0 24 -1v-52q-12 1 -23 1z" />
    <glyph glyph-name="fl" unicode="fl" horiz-adv-x="499" 
d="M493 -10q-76 0 -117 43t-41 121v554h56v-554q0 -52 24.5 -80t77.5 -28v-56zM219 661q-45 0 -68 -23q-28 -28 -28 -94v-50h112v-50h-112v-444h-56v544q0 46 13 79.5t36 54.5t55 30q22 5 47 5q12 0 24 -1v-52q-12 1 -23 1z" />
    <glyph glyph-name=".notdef" horiz-adv-x="500" 
d="M500 0h-500v700h500v-700zM250 395l170 255h-340zM50 605v-510l170 255zM280 350l170 -255v510zM80 50h340l-170 255z" />
    <glyph glyph-name=".null" horiz-adv-x="0" 
 />
    <glyph glyph-name="nonmarkingreturn" horiz-adv-x="333" 
 />
    <glyph glyph-name="space" unicode=" " horiz-adv-x="219" 
 />
    <glyph glyph-name="exclam" unicode="!" horiz-adv-x="205" 
d="M132 186h-60v518h60v-518zM55 38q0 20 14 34t34 14t34 -14t14 -34t-14 -34t-34 -14t-34 14t-14 34z" />
    <glyph glyph-name="quotedbl" unicode="&#x22;" horiz-adv-x="316" 
d="M202 480v228h60l-12 -228h-48zM64 480v228h60l-12 -228h-48z" />
    <glyph glyph-name="numbersign" unicode="#" horiz-adv-x="636" 
d="M552 223h-130l-65 -223h-63l66 223h-161l-65 -223h-63l66 223h-107l12 56h112l47 159h-130l12 57h135l63 213h63l-63 -213h160l63 213h64l-64 -213h104l-15 -57h-107l-46 -159h126zM377 279l47 159h-160l-47 -159h160z" />
    <glyph glyph-name="dollar" unicode="$" horiz-adv-x="581" 
d="M542 192v-16q-2 -44 -22 -78t-51.5 -57.5t-72 -36.5t-84.5 -16v-102h-49v102q-37 3 -72 12.5t-65.5 27t-54.5 41.5t-37 56l54 24q21 -47 68.5 -72t106.5 -30v298q-42 9 -82 20.5t-71 32.5t-49 54q-16 31 -16 77v10q1 42 19.5 75t48.5 55.5t69 36t81 16.5v102h49v-102
q36 -2 71.5 -11.5t65.5 -26.5t53.5 -40.5t37.5 -54.5l-53 -24q-10 22 -28 40t-41 30.5t-50.5 19.5t-55.5 9v-272q44 -9 86.5 -21t75.5 -35.5t52 -61.5q16 -33 16 -82zM103 527q0 -28 10 -47q12 -23 34 -38t52 -24t64 -16v262q-30 -3 -58 -12t-50 -25t-36 -38.5t-16 -52.5v-9
zM484 193q0 30 -10 51q-13 27 -37 44t-56.5 27.5t-68.5 18.5v-287q32 2 62 11.5t53 25.5t38 39.5t18 54.5q1 8 1 15z" />
    <glyph glyph-name="percent" unicode="%" horiz-adv-x="749" 
d="M92 -40l499 790l49 -30l-498 -790zM330 517q0 -89 -41.5 -139.5t-106.5 -50.5q-71 0 -109.5 49t-38.5 143q0 43 11 78t30.5 60t47 38t59.5 13q69 0 108.5 -50t39.5 -141zM272 517q0 70 -24 102t-67 32q-45 0 -66.5 -31t-21.5 -101q0 -72 21.5 -103t67.5 -31
q45 0 67.5 31.5t22.5 100.5zM715 186q0 -89 -41.5 -139t-105.5 -50q-72 0 -110 48.5t-38 142.5q0 44 11 79t30.5 59.5t46.5 37.5t60 13q69 0 108 -49.5t39 -141.5zM657 186q0 70 -24 102.5t-67 32.5q-45 0 -66.5 -31.5t-21.5 -101.5q0 -72 21.5 -103t68.5 -31
q44 0 66.5 31.5t22.5 100.5z" />
    <glyph glyph-name="ampersand" unicode="&#x26;" horiz-adv-x="624" 
d="M248 -4q-44 0 -83 14t-67.5 40t-45 62.5t-16.5 82.5q0 40 13.5 70t36 53t51 42t58.5 37q-15 18 -30 37t-27.5 39t-20 42t-7.5 45q0 37 14.5 66t38.5 49t55.5 30.5t66.5 10.5q31 0 59 -10.5t50 -29.5t35 -45.5t13 -59.5q0 -37 -13.5 -64.5t-35.5 -48.5t-50 -38t-57 -32
l171 -180l56 94l49 -24l-66 -108l111 -127h-76l-67 76q-42 -57 -92.5 -90t-123.5 -33zM281 665q-23 0 -43 -7.5t-35 -21.5t-24 -33t-9 -41q0 -19 8 -38t19.5 -37t25 -35t25.5 -30q22 11 45.5 24.5t43.5 30.5t33 39t13 51q0 43 -28.5 70.5t-73.5 27.5zM96 197
q0 -33 12.5 -60.5t34.5 -46.5t51.5 -29.5t62.5 -10.5q28 0 52.5 9t45.5 24t38.5 35t32.5 41l-195 201q-24 -14 -48 -29.5t-43.5 -35t-31.5 -43.5t-12 -55z" />
    <glyph glyph-name="quotesingle" unicode="'" horiz-adv-x="181" 
d="M64 480v228h60l-12 -228h-48z" />
    <glyph glyph-name="parenleft" unicode="(" horiz-adv-x="261" 
d="M105 341q0 -117 34.5 -217t96.5 -197l-47 -30q-35 48 -61.5 102.5t-44.5 111.5t-27.5 115t-9.5 115q0 119 36.5 235t102.5 209l48 -32q-33 -41 -57 -91.5t-39.5 -104.5t-23.5 -109t-8 -107z" />
    <glyph glyph-name="parenright" unicode=")" horiz-adv-x="261" 
d="M155 310q0 118 -34 226.5t-96 206.5l47 30q35 -48 61.5 -105.5t44.5 -118t27.5 -121.5t9.5 -118q0 -119 -36.5 -235t-102.5 -209l-51 32q33 41 57 91t40.5 104t24.5 109.5t8 107.5z" />
    <glyph glyph-name="asterisk" unicode="*" horiz-adv-x="446" 
d="M201 708h47v-152l144 48l15 -48l-144 -45l91 -124l-37 -29l-94 125l-89 -125l-40 29l91 126l-146 46l14 46l148 -48v151z" />
    <glyph glyph-name="plus" unicode="+" horiz-adv-x="589" 
d="M271 595h57v-225h222v-58h-222v-227h-57v227h-231v58h231v225z" />
    <glyph glyph-name="comma" unicode="," horiz-adv-x="206" 
d="M70 -138h-59l66 228h70z" />
    <glyph glyph-name="hyphen" unicode="-" horiz-adv-x="371" 
d="M309 271h-247v58h247v-58z" />
    <glyph glyph-name="period" unicode="." horiz-adv-x="204" 
d="M54 42q0 20 14 34t34 14t34 -14t14 -34t-14 -34t-34 -14t-34 14t-14 34z" />
    <glyph glyph-name="slash" unicode="/" horiz-adv-x="400" 
d="M75 -36l-53 18l304 762l52 -18z" />
    <glyph glyph-name="zero" unicode="0" horiz-adv-x="629" 
d="M315 -11q-45 0 -91 12.5t-82.5 38t-59.5 64t-23 91.5v317q0 53 23 92t59.5 64.5t82.5 37.5t91 12t90.5 -12t82 -37.5t59.5 -64.5t23 -92v-317q0 -53 -23 -91.5t-59.5 -64t-82 -38t-90.5 -12.5zM118 196q0 -41 18 -69t46.5 -45.5t63.5 -25t69 -7.5q33 0 68 7.5t63.5 25
t46.5 45.5t18 69v316q0 41 -18 69t-46.5 45.5t-63.5 25t-68 7.5q-34 0 -69 -7.5t-63.5 -25t-46.5 -45.5t-18 -69v-316z" />
    <glyph glyph-name="one" unicode="1" horiz-adv-x="305" 
d="M232 0h-58v627l-120 -124l-43 35l161 170h60v-708z" />
    <glyph glyph-name="two" unicode="2" horiz-adv-x="573" 
d="M280 659q-65 0 -114 -27.5t-70 -75.5l-52 23q28 66 92 102.5t145 36.5q29 0 70.5 -9.5t79.5 -32t65 -61t27 -96.5q0 -43 -21 -88.5t-67 -89.5l-295 -282h383v-58h-464l-19 45l352 335q37 35 54.5 71t17.5 68q0 42 -19.5 68.5t-48 42.5t-60 22t-56.5 6z" />
    <glyph glyph-name="three" unicode="3" horiz-adv-x="586" 
d="M285 49q37 0 72 9t62.5 28t44 47.5t16.5 66.5q0 84 -47 122q-46 36 -125 36h-4h-59v55h59q31 0 57.5 6t45.5 20.5t30 37t11 55.5q0 34 -13.5 58t-36 39.5t-52 22.5t-60.5 7q-53 0 -101 -20t-71 -61l-50 29q13 28 36 48.5t52 34.5t62 21t67 7q42 0 82.5 -11t72 -34
t50.5 -58t19 -83t-18 -84.5t-60 -60.5q63 -23 87.5 -73.5t24.5 -114.5q-1 -53 -23 -92t-58 -65t-82 -39t-94 -13q-38 0 -76 8t-71 24.5t-59 40.5t-42 57l53 26q12 -24 32.5 -42t47 -30t57 -18.5t61.5 -6.5z" />
    <glyph glyph-name="four" unicode="4" horiz-adv-x="568" 
d="M527 184h-59v-184h-59v184h-346l-46 62l381 462h70v-471h59v-53zM409 237l2 402l-329 -402h327z" />
    <glyph glyph-name="five" unicode="5" horiz-adv-x="586" 
d="M288 49q37 0 72.5 10t63.5 30t45 50t17 69v44q0 39 -16 66.5t-42.5 45.5t-61.5 26t-73 8q-55 0 -99 -11.5t-93 -34.5h-31v356h438v-59h-379v-224q40 17 80 26q36 8 75 8h9q46 0 91 -12t80.5 -37t57.5 -64t23 -93v-46q-1 -54 -23.5 -94.5t-58.5 -67.5t-82.5 -41t-94.5 -14
q-37 0 -73.5 8.5t-68.5 25t-57.5 40.5t-40.5 56l53 26q11 -23 31 -41t45 -30.5t54 -19t59 -6.5z" />
    <glyph glyph-name="six" unicode="6" horiz-adv-x="626" 
d="M323 659q-39 0 -76 -9t-65.5 -28t-45.5 -47t-17 -65v-152q35 50 90.5 69.5t113.5 19.5q49 0 95.5 -13t82.5 -39t58 -64.5t22 -89.5v-45q0 -51 -22 -90t-58 -64.5t-82.5 -38.5t-95.5 -13q-50 0 -97 12.5t-84 38.5t-59.5 64.5t-22.5 90.5v316q0 52 22.5 90.5t59.5 64.5
t84 38.5t97 12.5q38 0 74.5 -8t68 -23.5t57 -39t40.5 -54.5l-53 -28q-23 48 -74.5 71t-112.5 23zM522 240q0 37 -17 65t-44.5 46.5t-63.5 28t-74 9.5q-39 0 -76 -9t-65.5 -28t-45.5 -47t-17 -65v-42q0 -38 17 -65.5t45.5 -46.5t65.5 -28t76 -9q38 0 74 9.5t63.5 28
t44.5 46.5t17 65v42z" />
    <glyph glyph-name="seven" unicode="7" horiz-adv-x="513" 
d="M34 709h446l21 -44l-380 -665h-67l371 649h-391v60z" />
    <glyph glyph-name="eight" unicode="8" horiz-adv-x="622" 
d="M301 -10q-48 0 -93.5 13.5t-81 40t-57.5 66t-23 92.5q0 31 7.5 60t22.5 53.5t37 42.5t51 27v3q-43 17 -64 57t-21 85q0 47 19 82.5t50 59t71 35t82 11.5h19q42 0 82 -11.5t71 -35t50 -59t19 -82.5q0 -45 -21 -85t-64 -57v-3q29 -9 51 -27t37 -42.5t23 -53.5t8 -60
q-1 -53 -23 -92.5t-58 -66t-81.5 -40t-93.5 -13.5h-19zM301 659q-32 0 -61.5 -7.5t-52.5 -23t-37 -40t-14 -58.5q0 -39 14.5 -62t37.5 -35.5t53 -16.5t60 -4h19q30 0 60 4t53 16.5t37.5 35.5t14.5 62q0 34 -14 58.5t-37 40t-53 23t-61 7.5h-19zM320 49q34 0 69 8.5t63.5 27
t46.5 48t18 70.5q0 48 -16.5 78t-43.5 46.5t-62.5 22.5t-74.5 6h-19q-39 0 -74.5 -6t-62.5 -22.5t-43.5 -46.5t-16.5 -78q0 -41 18 -70.5t46.5 -48t63.5 -27t69 -8.5h19z" />
    <glyph glyph-name="nine" unicode="9" horiz-adv-x="624" 
d="M302 49q39 0 75.5 9t65 28t46 46.5t17.5 65.5v152q-35 -50 -90.5 -69.5t-113.5 -19.5q-49 0 -95.5 13t-82.5 39t-58 64.5t-22 89.5v45q0 51 22 90t58 64.5t82.5 38.5t95.5 13t96 -12.5t84 -38.5t59.5 -64.5t23.5 -90.5v-315q0 -52 -22.5 -90.5t-59.5 -64.5t-84.5 -38.5
t-96.5 -12.5q-38 0 -74.5 8t-68 23.5t-57 39t-40.5 54.5l53 27q23 -48 74.5 -71t112.5 -23zM103 468q0 -37 16.5 -65t44.5 -46.5t64 -28t74 -9.5q39 0 75.5 9t65 28t46 46.5t17.5 65.5v42q0 37 -17.5 65t-46 47t-65 28t-75.5 9q-38 0 -74 -9.5t-64 -28t-44.5 -46.5
t-16.5 -65v-42z" />
    <glyph glyph-name="colon" unicode=":" horiz-adv-x="222" 
d="M63 57q0 20 14 34t34 14t34 -14t14 -34t-14 -34t-34 -14t-34 14t-14 34zM63 435q0 20 14 34t34 14t34 -14t14 -34t-14 -34t-34 -14t-34 14t-14 34z" />
    <glyph glyph-name="semicolon" unicode=";" horiz-adv-x="250" 
d="M99 -138h-59l66 228h70zM72 420q0 20 14 34t34 14t34 -14t14 -34t-14 -34t-34 -14t-34 14t-14 34z" />
    <glyph glyph-name="less" unicode="&#x3c;" horiz-adv-x="441" 
d="M385 138v-66l-352 207v48l352 210v-67l-287 -167z" />
    <glyph glyph-name="equal" unicode="=" horiz-adv-x="535" 
d="M471 345h-407v54h407v-54zM471 207h-407v55h407v-55z" />
    <glyph glyph-name="greater" unicode="&#x3e;" horiz-adv-x="441" 
d="M408 279l-352 -207v66l287 165l-287 167v67l352 -210v-48z" />
    <glyph glyph-name="question" unicode="?" horiz-adv-x="478" 
d="M221 718q43 0 83.5 -13t72 -38.5t50.5 -63.5t19 -89t-17.5 -88t-46 -63t-65 -41.5t-76.5 -22.5l-8 -163h-49l-6 210q40 0 78.5 11.5t68 33t47.5 53.5q17 29 17 67q0 39 -15 69q-15 27 -39 45t-54 27t-62 9q-43 0 -83 -16.5t-66 -48.5h-1l-44 35q35 44 87.5 65.5
t108.5 21.5zM162 37q0 20 14 34t34 14t34 -14t14 -34t-14 -34t-34 -14t-34 14t-14 34z" />
    <glyph glyph-name="at" unicode="@" horiz-adv-x="782" 
d="M511 215q0 -8 4.5 -17t20.5 -9q25 0 51 15t48 45t39 74t25 103q2 15 2 30q0 37 -13 70q-18 45 -56 78t-94 51t-123 18t-121.5 -26t-94.5 -70t-64.5 -101t-31.5 -120q-3 -25 -3 -49q0 -43 10 -79q15 -56 46 -95t74.5 -63t91.5 -33q33 -6 66 -6q17 0 34 1q50 5 96 23
l12 -44q-55 -21 -114 -27q-23 -2 -45 -2q-36 0 -71 6q-56 10 -105 37.5t-84 73.5t-52 109q-12 44 -12 96q0 25 3 52q7 76 36.5 142.5t76.5 116t110.5 77.5t139.5 28q84 0 148.5 -22.5t107.5 -62t63 -93.5q17 -42 17 -92q0 -12 -1 -24q-5 -61 -24.5 -114t-49 -92t-67 -61.5
t-79.5 -22.5q-13 0 -25 4t-21 13t-14 23q-4 10 -4 24q0 5 1 11h-2q-30 -37 -63 -56t-71 -19q-33 0 -58 11.5t-41.5 31t-24.5 46t-8 55.5q0 51 16 102t46 91.5t72.5 66t96.5 25.5q33 0 63 -18t43 -63h2l22 62h59l-95 -284q-5 -16 -8 -29t-3 -18zM252 282q0 -41 24 -67t62 -26
q34 0 64.5 22.5t53 56.5t35.5 73t13 71q0 48 -19 75t-61 27h-4q-40 0 -72 -22q-32 -23 -53.5 -57.5t-32 -75.5t-10.5 -77z" />
    <glyph glyph-name="A" unicode="A" horiz-adv-x="609" 
d="M603 0h-62l-85 236h-304l-83 -236h-62l254 708h86zM173 295h262l-131 369z" />
    <glyph glyph-name="B" unicode="B" horiz-adv-x="627" 
d="M347 0h-268v708h269q41 0 78 -11t64.5 -33t43.5 -56t16 -79q0 -48 -17 -88t-59 -64q62 -22 86 -69t24 -111q-1 -55 -19.5 -92.5t-50 -61t-74.5 -33.5t-93 -10zM348 405q31 0 57.5 6.5t46 21.5t30.5 38.5t11 57.5t-11.5 57t-31 37t-46 20t-56.5 6h-210v-244h210zM359 59
q33 0 61 5q32 6 55.5 22t36.5 43t13 69t-12.5 70.5t-35.5 46t-55.5 24.5t-73.5 7h-210v-287h210h11z" />
    <glyph glyph-name="C" unicode="C" horiz-adv-x="593" 
d="M325 718q37 0 74 -8t69 -23.5t57.5 -39.5t40.5 -56l-53 -26v-1q-12 24 -32 41.5t-45.5 29.5t-54.5 18t-59 6q-38 0 -75 -10t-65.5 -29.5t-46 -48.5t-17.5 -68v-298q0 -39 17.5 -68.5t46 -49t65.5 -29t75 -9.5q30 0 59 6t54.5 18t45.5 29.5t32 41.5l53 -26
q-15 -32 -41 -56t-58.5 -40t-69.5 -24t-75 -8q-50 0 -97 13.5t-84 40.5t-59.5 67t-22.5 94v298q0 53 23 93.5t60.5 67.5t85 40.5t97.5 13.5z" />
    <glyph glyph-name="D" unicode="D" horiz-adv-x="640" 
d="M79 708h236q50 0 97.5 -12t85 -37t60 -64t22.5 -94v-295q0 -54 -22.5 -93t-60 -64t-85 -37t-97.5 -12h-236v708zM315 59q39 0 76 8t66 26t46.5 46t17.5 67v295q0 40 -17.5 68t-46.5 46t-66 26t-76 8h-177v-590h177z" />
    <glyph glyph-name="E" unicode="E" horiz-adv-x="569" 
d="M138 384h355v-60h-355v-265h385v-59h-444v708h444v-59h-385v-265z" />
    <glyph glyph-name="F" unicode="F" horiz-adv-x="555" 
d="M138 649v-286h337v-59h-337v-304h-59v708h443v-59h-384z" />
    <glyph glyph-name="G" unicode="G" horiz-adv-x="634" 
d="M324 718q37 0 74 -8t69 -24t57.5 -40t40.5 -56l-53 -26q-12 24 -32 41.5t-45 29.5t-54 18t-59 6q-38 0 -75 -10t-65.5 -29.5t-46 -48.5t-17.5 -68v-296q0 -39 17.5 -69t47 -49.5t66.5 -29.5t76 -10t76 10t66 29.5t46.5 49.5t17.5 69v89h-217v59h276v-147q0 -54 -23 -95
t-60 -68.5t-85 -41t-97 -13.5q-50 0 -97.5 13.5t-85 41t-60.5 68.5t-23 95v295q0 53 23 93.5t60 67.5t84.5 40.5t97.5 13.5z" />
    <glyph glyph-name="H" unicode="H" horiz-adv-x="689" 
d="M138 0h-59v708h59v-325h413v325h59v-708h-59v327h-413v-327z" />
    <glyph glyph-name="I" unicode="I" horiz-adv-x="217" 
d="M138 0h-59v708h59v-708z" />
    <glyph glyph-name="J" unicode="J" horiz-adv-x="593" 
d="M224 708h295v-504q0 -53 -22 -93t-58 -67t-81.5 -40.5t-93.5 -13.5q-42 0 -82.5 11t-74 33t-57.5 54.5t-32 75.5l58 14q6 -32 24.5 -56.5t44.5 -40.5t57.5 -24t64.5 -8q36 0 71 10t62 29.5t43.5 49.5t16.5 69v442h-236v59z" />
    <glyph glyph-name="K" unicode="K" horiz-adv-x="616" 
d="M138 0h-59v708h59v-389l396 389h76l-341 -341l339 -367h-76l-305 325l-89 -89v-236z" />
    <glyph glyph-name="L" unicode="L" horiz-adv-x="508" 
d="M79 0v708h59v-649h354v-59h-413z" />
    <glyph glyph-name="M" unicode="M" horiz-adv-x="803" 
d="M138 0h-59v708h86l237 -535l236 535h86v-708h-59v626l-235 -529h-56l-236 529v-626z" />
    <glyph glyph-name="N" unicode="N" horiz-adv-x="689" 
d="M551 708h59v-708h-88l-384 617v-617h-59v708h72l400 -643v643z" />
    <glyph glyph-name="O" unicode="O" horiz-adv-x="677" 
d="M58 500q0 54 24 95t63.5 68.5t90 41t103.5 13.5q52 0 102.5 -13.5t90 -41t63.5 -68.5t24 -95v-292q0 -54 -24 -95t-63.5 -68.5t-90 -41t-102.5 -13.5q-53 0 -103.5 13.5t-90 41t-63.5 68.5t-24 95v292zM117 208q0 -40 19 -69.5t50.5 -49.5t71 -30t81.5 -10q41 0 81 10
t71 30t50 49.5t19 69.5v292q0 42 -19 72t-50.5 49.5t-71.5 28.5t-82 9q-41 0 -80.5 -9.5t-70.5 -29t-50 -49.5t-19 -71v-292z" />
    <glyph glyph-name="P" unicode="P" horiz-adv-x="613" 
d="M79 0v708h267q78 0 130 -33t78 -82q27 -48 27 -104q0 -59 -27 -109q-25 -49 -77 -82t-130 -33h-209v-265h-59zM346 324q59 0 98.5 24.5t58.5 60.5t19 78.5t-20 78.5t-59 60q-37 23 -92 23h-5h-208v-325h208z" />
    <glyph glyph-name="Q" unicode="Q" horiz-adv-x="677" 
d="M619 208q0 -45 -16 -79.5t-43 -60.5l56 -67l-43 -31l-56 66q-38 -23 -84 -34.5t-94 -11.5q-53 0 -103.5 13.5t-90 41t-63.5 68.5t-24 95v292q0 54 24 95t63.5 68.5t90 41t103.5 13.5q52 0 102.5 -13.5t90 -41t63.5 -68.5t24 -95v-292zM560 500q0 42 -19 72t-50.5 49.5
t-71.5 28.5t-82 9q-41 0 -80.5 -9.5t-70.5 -29t-50 -49.5t-19 -71v-292q0 -40 19 -69.5t50.5 -49.5t71 -30t81.5 -10t78 7t65 21l-59 70l42 33l60 -71q17 19 26 43t9 56v292z" />
    <glyph glyph-name="R" unicode="R" horiz-adv-x="618" 
d="M138 300v-300h-59v708h267q50 0 93 -11.5t74.5 -36.5t50 -64t19.5 -94q0 -55 -19 -93.5t-51.5 -62.5t-75 -35t-90.5 -11h-2l237 -300h-73l-232 300h-139zM347 354q41 0 73.5 7.5t55.5 24.5t35.5 45.5t12.5 70.5t-13 70t-36.5 45t-56 24.5t-71.5 7.5h-209v-295h209z" />
    <glyph glyph-name="S" unicode="S" horiz-adv-x="591" 
d="M106 526q0 -30 13 -50q15 -24 42 -39.5t62.5 -24.5t74.5 -16q46 -9 91.5 -20.5t81.5 -35t57 -62.5q18 -34 18 -87v-15q-2 -47 -24.5 -81.5t-57.5 -58t-79.5 -35t-91.5 -11.5q-40 0 -79 8.5t-73 26t-61 43t-42 59.5l54 24q11 -26 32 -45t48.5 -31.5t59 -19t63.5 -6.5
q35 0 68.5 8t60 24t43.5 40t20 57v13q0 35 -13 59q-16 28 -45 45.5t-67 27.5t-79 19q-44 9 -86.5 20t-76 32t-53.5 55q-18 31 -18 79v10q1 45 22.5 78.5t55.5 56t77.5 34t89.5 11.5q39 0 77.5 -8.5t72 -25t59.5 -41.5t41 -58l-53 -24q-11 25 -31.5 43.5t-47 31t-57 18.5
t-61.5 6q-35 0 -67.5 -7.5t-58.5 -22.5t-42.5 -38t-18.5 -54q-1 -6 -1 -12z" />
    <glyph glyph-name="T" unicode="T" horiz-adv-x="559" 
d="M545 651h-236v-651h-59v651h-236v57h531v-57z" />
    <glyph glyph-name="U" unicode="U" horiz-adv-x="679" 
d="M133 210q0 -40 17.5 -70t47 -50.5t66.5 -30.5t76 -10t76 10t66 30.5t46.5 50.5t17.5 70v498h59v-497q0 -55 -23 -96.5t-60 -69t-85 -41.5t-97 -14q-50 0 -97.5 14t-85 41.5t-60.5 69t-23 96.5v497h59v-498z" />
    <glyph glyph-name="V" unicode="V" horiz-adv-x="608" 
d="M6 709h62l237 -665l235 665h62l-254 -709h-87z" />
    <glyph glyph-name="W" unicode="W" horiz-adv-x="941" 
d="M865 708h62l-205 -708h-86l-165 522l-166 -522h-86l-205 708h62l186 -664l180 571h57l180 -571z" />
    <glyph glyph-name="X" unicode="X" horiz-adv-x="573" 
d="M564 0h-71l-206 307l-207 -307h-71l243 353l-241 355h69l207 -303l206 303h70l-241 -355z" />
    <glyph glyph-name="Y" unicode="Y" horiz-adv-x="559" 
d="M309 0h-59v277l-246 431h69l207 -372l206 372h70l-247 -431v-277z" />
    <glyph glyph-name="Z" unicode="Z" horiz-adv-x="577" 
d="M42 708h486l21 -45l-441 -604h431v-59h-497l-18 45l441 604h-423v59z" />
    <glyph glyph-name="bracketleft" unicode="[" horiz-adv-x="249" 
d="M126 -85h90v-48h-150v888h150v-47h-90v-793z" />
    <glyph glyph-name="backslash" unicode="\" horiz-adv-x="401" 
d="M22 726l53 18l304 -762l-54 -18z" />
    <glyph glyph-name="bracketright" unicode="]" horiz-adv-x="249" 
d="M123 708h-90v48h150v-888h-150v48h90v792z" />
    <glyph glyph-name="asciicircum" unicode="^" horiz-adv-x="539" 
d="M496 425h-70l-160 226l-154 -226h-69l200 283h46z" />
    <glyph glyph-name="underscore" unicode="_" horiz-adv-x="628" 
d="M564 -87h-500v56h500v-56z" />
    <glyph glyph-name="grave" unicode="`" horiz-adv-x="210" 
d="M5 869h80l70 -113h-58z" />
    <glyph glyph-name="a" unicode="a" horiz-adv-x="491" 
d="M373 363q0 28 -12 48.5t-32.5 34.5t-46 21t-52.5 7q-39 0 -75 -13t-56 -39l-38 36q32 35 79 52.5t96 17.5q37 0 72 -10.5t62 -31t43 -51.5t16 -72v-340q-96 -33 -200 -33h-12q-38 0 -71 10t-57.5 30t-38.5 49.5t-14 70.5q0 44 17.5 74.5t45.5 50t63.5 28.5t72.5 9
q36 0 71.5 -7t66.5 -20v78zM237 264q-29 0 -55 -5.5t-46 -19t-32 -35t-12 -54.5q0 -59 36.5 -84t91.5 -26h17q30 0 60 2q39 4 76 13v184q-26 10 -62 17.5t-74 7.5z" />
    <glyph glyph-name="b" unicode="b" horiz-adv-x="512" 
d="M263 528q37 0 72.5 -10.5t63 -32t44.5 -53t17 -72.5v-202q0 -44 -16.5 -75t-44 -51.5t-62.5 -30.5t-71 -11q-51 0 -101.5 9t-98.5 26v685h56v-213q68 31 141 31zM266 45q26 0 50.5 7t44 21t31 34.5t11.5 48.5v207q0 28 -11.5 49t-31 34.5t-45 20.5t-51.5 7
q-36 0 -72.5 -7.5t-69.5 -21.5v-381q35 -12 71.5 -15.5t72.5 -3.5z" />
    <glyph glyph-name="c" unicode="c" horiz-adv-x="461" 
d="M248 474q-26 0 -51.5 -6.5t-45 -20t-31.5 -34t-12 -49.5v-210q0 -29 12 -49.5t31.5 -34t45 -20t51.5 -6.5q45 0 84.5 19.5t51.5 60.5l51 -23q-10 -28 -29.5 -49t-44.5 -34.5t-54 -20.5t-59 -7q-36 0 -71.5 10.5t-63 31.5t-44.5 52.5t-17 73.5v202q0 42 17 73.5t44.5 52.5
t63 31.5t71.5 10.5q54 0 102.5 -22t74.5 -67l-47 -28q-17 32 -53 47.5t-77 15.5z" />
    <glyph glyph-name="d" unicode="d" horiz-adv-x="512" 
d="M52 158v201q0 41 17 72.5t44.5 53t63 32t72.5 10.5q73 0 141 -31v214h56v-685q-48 -17 -98.5 -26t-101.5 -9q-36 1 -71 11.5t-62.5 31.5t-44 52t-16.5 73zM248 471q-26 0 -51.5 -7t-45 -20.5t-31 -34.5t-11.5 -49v-204q0 -28 11.5 -48.5t31 -34.5t44 -21t50.5 -7
q36 0 72.5 3.5t71.5 15.5v378q-33 14 -69.5 21.5t-72.5 7.5z" />
    <glyph glyph-name="e" unicode="e" 
d="M109 156q0 -29 12 -50t31.5 -35t44.5 -20.5t52 -6.5q42 0 79 17t53 52l50 -23q-12 -25 -31 -44t-43.5 -31.5t-52 -18.5t-55.5 -6q-37 0 -72.5 10.5t-63 31.5t-44.5 52.5t-17 73.5v202q0 42 17 73.5t44.5 52.5t63 31.5t72.5 10.5q36 0 71.5 -10.5t63 -31.5t44.5 -52.5
t17 -73.5v-126h-336v-78zM389 364q0 28 -12 49t-31.5 34.5t-45 20t-51.5 6.5q-27 0 -52 -6.5t-45 -20t-31.5 -34.5t-11.5 -49v-83h280v83z" />
    <glyph glyph-name="f" unicode="f" horiz-adv-x="256" 
d="M220 661q-45 0 -68 -23q-28 -28 -28 -94v-50h112v-50h-112v-444h-56v544q0 46 13 79.5t36 54.5t55 30q22 5 47 5q12 0 24 -1v-52q-12 1 -23 1z" />
    <glyph glyph-name="g" unicode="g" horiz-adv-x="507" 
d="M245 -155q28 0 54 7.5t45 22.5t30.5 37.5t11.5 52.5v56q-33 -17 -68 -24t-71 -7q-37 0 -72 10.5t-62.5 31.5t-44 52.5t-16.5 72.5v205q0 41 16.5 72t43 52t61 31.5t70.5 10.5q35 0 71.5 -6.5t71.5 -16.5l55 -17v-522q0 -42 -16.5 -74t-43.5 -54t-62 -33t-73 -11
q-48 0 -93 16t-77 50l35 33q23 -24 59.5 -36t74.5 -12zM243 474q-26 0 -50 -7t-43 -20.5t-30.5 -34t-11.5 -48.5v-211q0 -27 11.5 -48t31 -34.5t44 -20.5t50.5 -7q35 1 71.5 8t69.5 21v372q-23 10 -62 20t-81 10z" />
    <glyph glyph-name="h" unicode="h" horiz-adv-x="525" 
d="M264 528q37 0 72 -11t62.5 -32t44.5 -52t17 -72v-361h-56v364q0 28 -12 48.5t-31.5 34t-44.5 20.5t-51 7q-73 0 -141 -28v-446h-56v708h56v-211q67 31 140 31z" />
    <glyph glyph-name="i" unicode="i" horiz-adv-x="192" 
d="M51 645q0 20 14 34t34 14t34 -14t14 -34t-14 -34t-34 -14t-34 14t-14 34zM124 0h-60v518h60v-518z" />
    <glyph glyph-name="j" unicode="j" horiz-adv-x="192" 
d="M-35 -136q54 0 78.5 30t24.5 84v540h56v-540q0 -79 -41 -124.5t-118 -45.5v56zM51 645q0 20 14 34t34 14t34 -14t14 -34t-14 -34t-34 -14t-34 14t-14 34z" />
    <glyph glyph-name="k" unicode="k" horiz-adv-x="483" 
d="M124 0h-56v708h56v-462l273 272h70l-232 -234l230 -284h-69l-200 244l-72 -72v-172z" />
    <glyph glyph-name="l" unicode="l" horiz-adv-x="229" 
d="M223 -10q-76 0 -117 43t-41 121v554h56v-554q0 -52 24.5 -80t77.5 -28v-56z" />
    <glyph glyph-name="m" unicode="m" horiz-adv-x="811" 
d="M238 528q48 0 91.5 -16t72.5 -54q29 37 70 53.5t81 16.5q39 0 74 -10.5t62 -32.5t42.5 -54.5t15.5 -75.5v-355h-57v355q0 33 -11.5 55.5t-30 36.5t-43 20.5t-50.5 6.5q-21 0 -43 -6t-40 -17.5t-29.5 -29t-11.5 -40.5v-381h-55v377q0 25 -13 43.5t-33.5 30.5t-46.5 17.5
t-53 5.5q-32 0 -60.5 -7.5t-46.5 -21.5v-445h-57v484q34 19 79 31.5t93 12.5z" />
    <glyph glyph-name="n" unicode="n" horiz-adv-x="522" 
d="M457 361v-361h-56v363q0 28 -12 49t-31.5 35t-43.5 20.5t-49 6.5q-42 0 -81 -10t-62 -20v-444h-56v487q48 17 98 29t101 12q36 -1 70.5 -11.5t61.5 -31t43.5 -51.5t16.5 -73z" />
    <glyph glyph-name="o" unicode="o" horiz-adv-x="497" 
d="M52 359q0 42 17 73.5t44.5 52.5t63 32t72.5 11t72 -11t62.5 -32t44.5 -52.5t17 -73.5v-200q0 -42 -17 -74t-44.5 -53t-62.5 -31.5t-72 -10.5t-72.5 10.5t-63 31.5t-44.5 53t-17 74v200zM249 474q-26 0 -51 -6.5t-45 -20t-32.5 -34.5t-12.5 -51v-205q0 -30 12.5 -51
t32.5 -35t45 -20.5t51 -6.5q25 0 50 6.5t45 20.5t32.5 35t12.5 51v205q0 30 -12.5 51t-32.5 34.5t-45 20t-50 6.5z" />
    <glyph glyph-name="p" unicode="p" horiz-adv-x="513" 
d="M267 527q36 0 71 -10.5t62.5 -31.5t44 -52t16.5 -73v-201q0 -41 -17 -72.5t-44.5 -53t-63 -32.5t-72.5 -11t-72.5 8.5t-68.5 23.5v-213h-56v683q48 17 98.5 26t101.5 9zM265 43q26 0 51 7t44.5 21t31.5 34.5t12 48.5v211q0 28 -11.5 48.5t-31 34t-44 20t-50.5 6.5
q-36 0 -72.5 -2.5t-71.5 -14.5v-385q33 -14 69.5 -21.5t72.5 -7.5z" />
    <glyph glyph-name="q" unicode="q" horiz-adv-x="513" 
d="M250 -10q-37 0 -72.5 10t-63 30t-44.5 51t-17 72v212q0 42 17 72.5t44 51t62 30t71 9.5q52 0 102 -9t98 -26v-684h-56v213q-33 -15 -68.5 -23.5t-72.5 -8.5zM247 474q-26 0 -50.5 -6.5t-44 -20t-31 -34t-11.5 -48.5v-211q0 -28 12 -48.5t31.5 -34t44.5 -20.5t51 -7
q74 0 142 28v385q-35 12 -71.5 14.5t-72.5 2.5z" />
    <glyph glyph-name="r" unicode="r" horiz-adv-x="302" 
d="M251 528q9 0 18.5 -0.5t19.5 -1.5v-56q-17 4 -32 4h-4q-17 -1 -36 -5q-39 -9 -67.5 -35.5t-28.5 -72.5v-361h-56v361q0 46 19 78t47 51.5t60.5 28.5t59.5 9z" />
    <glyph glyph-name="s" unicode="s" horiz-adv-x="440" 
d="M234 44q21 0 42 4.5t37.5 15.5t26 29t9.5 45q0 26 -11 43t-28.5 28t-38.5 16.5t-41 9.5q-32 6 -64 14.5t-57.5 24.5t-42 41.5t-16.5 65.5q0 39 17 67t44 46t59.5 26t63.5 8q40 0 78.5 -13t66.5 -39l-36 -42q-22 23 -50 31.5t-59 8.5q-20 0 -42.5 -4.5t-42 -15t-32 -28.5
t-12.5 -45q0 -26 14 -42.5t34.5 -26.5t43.5 -15t43 -9q30 -6 59.5 -16t53 -27t38 -43t14.5 -64q0 -39 -14.5 -66.5t-38.5 -45.5t-54.5 -26.5t-63.5 -9.5h-8q-57 0 -106 26q-52 27 -86 81l43 27q29 -40 70.5 -60t86.5 -20z" />
    <glyph glyph-name="t" unicode="t" horiz-adv-x="263" 
d="M209 -12q-23 0 -41 6q-35 9 -57.5 31t-34 56t-11.5 76v479h49l7 -118h112v-50h-112v-311q0 -27 6 -50.5t21 -40t40 -23.5q13 -4 30 -4q14 0 31 3v-50q-21 -4 -40 -4z" />
    <glyph glyph-name="u" unicode="u" horiz-adv-x="521" 
d="M256 -10q-36 0 -70.5 10.5t-61.5 31.5t-43.5 52t-16.5 73v362h56v-365q0 -27 11.5 -47.5t30.5 -34.5t43.5 -21t50.5 -7q42 0 81 10.5t62 20.5v444h56v-489l-56 -17q-35 -10 -71.5 -16.5t-71.5 -6.5z" />
    <glyph glyph-name="v" unicode="v" horiz-adv-x="471" 
d="M458 518l-182 -518h-81l-182 518h59l164 -467l163 467h59z" />
    <glyph glyph-name="w" unicode="w" horiz-adv-x="723" 
d="M174 0l-156 518h59l137 -460l112 460h71l112 -460l137 460h59l-156 -518h-80l-107 443l-108 -443h-80z" />
    <glyph glyph-name="x" unicode="x" horiz-adv-x="463" 
d="M265 259l178 -259h-68l-143 218l-144 -218h-68l178 259l-178 259h68l144 -219l143 219h68z" />
    <glyph glyph-name="y" unicode="y" horiz-adv-x="535" 
d="M264 -152q29 0 55.5 8t46.5 23.5t32 39t12 55.5v50q-33 -21 -69.5 -27t-74.5 -7q-38 0 -74.5 11t-65 33t-45.5 54.5t-17 74.5v355h58v-357q0 -29 12.5 -51t32.5 -37t45.5 -23t52.5 -8q74 0 145 31v445h57v-544q0 -45 -16.5 -79t-44.5 -56.5t-64 -33.5t-76 -11
q-51 0 -98.5 18t-78.5 52l39 36q26 -27 60.5 -39.5t75.5 -12.5z" />
    <glyph glyph-name="z" unicode="z" horiz-adv-x="464" 
d="M45 518h361l23 -41l-323 -418h321v-59h-377l-24 40l326 424h-307v54z" />
    <glyph glyph-name="braceleft" unicode="{" horiz-adv-x="276" 
d="M206 708q-15 0 -23.5 -5.5t-12.5 -15.5t-4.5 -24.5t-0.5 -33.5v-160q0 -39 -6.5 -67.5t-15.5 -47.5t-18.5 -29t-14.5 -12v-2q5 -3 14.5 -13t18.5 -28.5t15.5 -47t6.5 -67.5v-164q0 -37 7.5 -56t38.5 -19h32v-48h-50q-42 0 -65 32.5t-23 88.5v146q0 29 -3 56.5t-11 49
t-21.5 34.5t-34.5 13v48q21 0 34.5 13t21.5 34.5t11 49.5t3 57v145q0 57 23 89t65 32h50v-48h-37z" />
    <glyph glyph-name="bar" unicode="|" horiz-adv-x="188" 
d="M66 -178v932h56v-932h-56z" />
    <glyph glyph-name="braceright" unicode="}" horiz-adv-x="276" 
d="M83 756q42 0 65 -32t23 -89v-145q0 -29 3 -57t11 -49.5t21.5 -34.5t34.5 -13v-48q-21 0 -34.5 -13t-21.5 -34.5t-11 -49t-3 -56.5v-146q0 -56 -23 -88.5t-65 -32.5h-50v48h32q31 0 38.5 19t7.5 56v164q0 39 6.5 67.5t15.5 47t18.5 28.5t14.5 13v2q-5 2 -14.5 12t-18.5 29
t-15.5 47.5t-6.5 67.5v160q0 19 -0.5 33.5t-4.5 24.5t-12.5 15.5t-23.5 5.5h-37v48h50z" />
    <glyph glyph-name="asciitilde" unicode="~" horiz-adv-x="527" 
d="M346 242q-26 0 -47 11t-40.5 23.5t-38.5 23.5t-40 11q-30 0 -50.5 -20t-37.5 -46l-34 29q8 16 19.5 32t26.5 29t34.5 21t44.5 8q28 0 50.5 -10.5t42 -23.5t37.5 -23.5t37 -10.5q30 0 50.5 21t37.5 47l33 -30q-8 -17 -19.5 -33.5t-26.5 -29.5t-34.5 -21t-44.5 -8z" />
    <glyph glyph-name="uni00A0" unicode="&#xa0;" horiz-adv-x="218" 
 />
    <glyph glyph-name="exclamdown" unicode="&#xa1;" horiz-adv-x="198" 
d="M129 -190h-60v518h60v-518zM51 480q0 20 14 34t34 14t34 -14t14 -34t-14 -34t-34 -14t-34 14t-14 34z" />
    <glyph glyph-name="cent" unicode="&#xa2;" horiz-adv-x="473" 
d="M268 -94h-46v92q-33 4 -63.5 16t-53.5 33t-37 50.5t-14 67.5v190q0 38 14 67.5t37 50.5t53.5 33t63.5 15v93h46v-92q49 -3 92 -24.5t66 -63.5l-47 -30q-15 29 -45.5 44t-65.5 18v-412q40 3 73.5 22.5t44.5 56.5l50 -25q-19 -52 -66 -79t-102 -31v-92zM110 357v-2v-190v-2
q0 -24 9 -43t24.5 -32.5t35.5 -21.5t43 -11v410q-23 -3 -43 -11t-35.5 -21.5t-24.5 -32.5t-9 -43z" />
    <glyph glyph-name="sterling" unicode="&#xa3;" horiz-adv-x="527" 
d="M147 349h-104v44h104v118q0 34 9.5 70.5t33 67t62 50t96.5 19.5q40 0 72 -13.5t64 -41.5l-40 -36q-21 21 -44 30t-55 9q-38 0 -64.5 -14.5t-43.5 -36t-25 -47.5t-8 -48v-127h165v-44h-165v-300h275v-49h-436v49h104v300z" />
    <glyph glyph-name="currency" unicode="&#xa4;" horiz-adv-x="621" 
d="M62 354q0 92 60 157l-57 55l34 37l57 -56q33 26 73 39.5t82 13.5t82 -13.5t73 -39.5l57 56l34 -37l-57 -55q60 -65 60 -157t-60 -157l57 -55l-34 -37l-57 56q-33 -26 -73 -39.5t-82 -13.5t-82 13.5t-73 39.5l-57 -56l-34 37l57 55q-60 65 -60 157zM116 353
q0 -41 15.5 -76t41.5 -61.5t61.5 -41.5t74.5 -15q40 0 75 15t61.5 41.5t42 61.5t15.5 76t-15.5 77t-42 62.5t-61.5 42t-75 15.5q-39 0 -74.5 -15.5t-61.5 -42t-41.5 -62.5t-15.5 -77z" />
    <glyph glyph-name="yen" unicode="&#xa5;" horiz-adv-x="598" 
d="M328 265v-53h169l-10 -44h-159v-167h-59v167h-168l9 44h159v53h-165l10 44h137l-228 400h69l207 -380l206 380h70l-229 -400h150l-10 -44h-158z" />
    <glyph glyph-name="brokenbar" unicode="&#xa6;" horiz-adv-x="200" 
d="M71 356v350h58v-350h-58zM71 -144v350h58v-350h-58z" />
    <glyph glyph-name="section" unicode="&#xa7;" horiz-adv-x="475" 
d="M229 -87q22 0 45 6.5t41 19.5t29.5 31.5t11.5 42.5q0 34 -22.5 56.5t-56.5 40t-73 34t-73 39t-56.5 53t-22.5 77.5q0 25 8.5 45t23.5 36t34 27.5t40 20.5q-36 22 -59 52t-23 75q0 39 16 68t42.5 49t59.5 30t68 10q25 0 49.5 -5.5t46 -16.5t38 -29t26.5 -43l-53 -29
q-14 34 -44 50.5t-66 16.5q-23 0 -45 -6.5t-39 -19.5t-28 -32t-11 -43q0 -32 22 -53.5t54.5 -39t70.5 -34t70.5 -38.5t54.5 -52t22 -74q0 -46 -25.5 -78.5t-63.5 -53.5q33 -20 54 -51.5t21 -71.5t-15.5 -71t-41.5 -52.5t-59.5 -32.5t-69.5 -11q-31 0 -60.5 7t-54.5 22
t-45 37.5t-32 53.5l53 25q17 -45 55 -66.5t83 -21.5zM373 273q0 19 -8 34t-20 27.5t-26.5 21.5t-26.5 16l-76 43q-17 -6 -35 -14.5t-33 -20.5t-24.5 -28t-9.5 -37q0 -40 20.5 -59.5t49.5 -34.5l106 -51q13 7 27.5 18t27 24.5t20.5 28.5t8 32z" />
    <glyph glyph-name="dieresis" unicode="&#xa8;" horiz-adv-x="281" 
d="M191 813q0 20 14 34t34 14t34 -14t14 -34t-14 -34t-34 -14t-34 14t-14 34zM11 813q0 20 14 34t34 14t34 -14t14 -34t-14 -34t-34 -14t-34 14t-14 34z" />
    <glyph glyph-name="copyright" unicode="&#xa9;" horiz-adv-x="836" 
d="M46 354q0 77 29.5 144.5t80 118t118 80t144.5 29.5t144.5 -29.5t118 -80t80 -118t29.5 -144.5t-29.5 -144.5t-80 -118t-118 -80t-144.5 -29.5t-144.5 29.5t-118 80t-80 118t-29.5 144.5zM105 354q0 -65 24.5 -122t67 -99.5t99.5 -67t122 -24.5t122 24.5t99.5 67t67 99.5
t24.5 122t-24.5 122t-67 99.5t-99.5 67t-122 24.5t-122 -24.5t-99.5 -67t-67 -99.5t-24.5 -122zM418 542q-26 0 -51.5 -6.5t-45 -20t-31.5 -34.5t-12 -49v-2v-151v-2q0 -28 12 -49t31.5 -34.5t45 -20t51.5 -6.5q45 0 84.5 19.5t51.5 60.5l51 -25q-10 -28 -29.5 -49
t-44.5 -34.5t-54 -20.5t-59 -7q-36 0 -71.5 10.5t-63 31.5t-44.5 52.5t-17 73.5v151q0 42 17 73.5t44.5 52.5t63 31.5t71.5 10.5q54 0 102.5 -22t74.5 -67l-47 -30q-17 32 -53 47.5t-77 15.5z" />
    <glyph glyph-name="ordfeminine" unicode="&#xaa;" horiz-adv-x="378" 
d="M262 610q0 28 -25.5 41.5t-56.5 13.5q-23 0 -47.5 -7.5t-39.5 -26.5l-34 33q25 28 58.5 41t66.5 13q25 0 49 -7t42.5 -20.5t30 -34t11.5 -48.5v-230q-37 -12 -73 -17q-31 -4 -61 -4h-12q-53 1 -89 33t-36 89q0 31 12 52t31.5 33.5t44.5 17.5t52 5q40 0 76 -14v37z
M184 541q-16 0 -31 -2.5t-26.5 -9.5t-18.5 -19t-7 -31q0 -34 21 -53t51 -20q22 0 44.5 1.5t44.5 6.5v114q-16 5 -36.5 9t-41.5 4z" />
    <glyph glyph-name="guillemotleft" unicode="&#xab;" horiz-adv-x="414" 
d="M366 469l-119 -174l119 -174l-48 -29l-137 203l137 203zM221 469l-119 -174l119 -174l-48 -29l-137 203l137 203z" />
    <glyph glyph-name="logicalnot" unicode="&#xac;" horiz-adv-x="610" 
d="M64 399h477v-229h-55v174h-422v55z" />
    <glyph glyph-name="uni00AD" unicode="&#xad;" horiz-adv-x="327" 
d="M287 213h-247v58h247v-58z" />
    <glyph glyph-name="registered" unicode="&#xae;" horiz-adv-x="836" 
d="M46 354q0 77 29.5 144.5t80 118t118 80t144.5 29.5t144.5 -29.5t118 -80t80 -118t29.5 -144.5t-29.5 -144.5t-80 -118t-118 -80t-144.5 -29.5t-144.5 29.5t-118 80t-80 118t-29.5 144.5zM103 354q0 -65 24.5 -122.5t67.5 -100.5t100.5 -67.5t122.5 -24.5t122.5 24.5
t100 67.5t67.5 100.5t25 122.5t-25 122.5t-67.5 100t-100 67.5t-122.5 25t-122.5 -25t-100.5 -67.5t-67.5 -100t-24.5 -122.5zM283 570h153q73 0 110 -33.5t37 -91.5q0 -30 -8.5 -52.5t-23.5 -38.5t-34.5 -25.5t-41.5 -13.5l128 -174h-61l-128 174h-78v-174h-53v429z
M406 363q22 0 44 3t39.5 11.5t28.5 24.5t11 43q0 21 -8.5 35.5t-22 23.5t-31 13.5t-34.5 4.5h-97v-159h70z" />
    <glyph glyph-name="macron" unicode="&#xaf;" horiz-adv-x="240" 
d="M264 799h-247v58h247v-58z" />
    <glyph glyph-name="degree" unicode="&#xb0;" horiz-adv-x="354" 
d="M177 449q-28 0 -52.5 10.5t-42.5 29t-28.5 43t-10.5 52.5t10.5 52t28.5 42t42.5 28.5t52.5 10.5t52.5 -10.5t42.5 -28.5t28.5 -42t10.5 -52t-10.5 -52.5t-29 -43t-43 -29t-51.5 -10.5zM177 499q35 0 59.5 24.5t24.5 59.5t-24.5 59.5t-59.5 24.5t-59.5 -24.5t-24.5 -59.5
t24.5 -59.5t59.5 -24.5z" />
    <glyph glyph-name="plusminus" unicode="&#xb1;" horiz-adv-x="564" 
d="M251 615h57v-179h193v-57h-193v-180h-57v180h-188v57h188v179zM497 95h-430v55h430v-55z" />
    <glyph glyph-name="twosuperior" unicode="&#xb2;" horiz-adv-x="412" 
d="M351 284h-283l-15 37l208 197q15 14 27 33.5t12 40.5q0 18 -8.5 32t-22.5 23.5t-31.5 14t-35.5 4.5q-33 0 -59.5 -12.5t-40.5 -40.5l-47 20q9 23 25 39t35.5 25.5t41 14t43.5 4.5q69 0 110 -34t41 -88q0 -32 -15.5 -61.5t-38.5 -50.5l-154 -147h208v-51z" />
    <glyph glyph-name="threesuperior" unicode="&#xb3;" horiz-adv-x="393" 
d="M194 287q-14 0 -34.5 3.5t-41.5 12.5t-40 24.5t-30 39.5l-4 8l45 22l4 -8q13 -26 41 -38.5t61 -14.5q44 0 73 20t29 59q0 43 -23 61q-21 17 -59 17h-8h-32v40h32q33 0 53 19.5t20 46.5q0 31 -24.5 49.5t-60.5 18.5q-26 0 -51 -11t-37 -33l-4 -8l-42 23q10 26 29 41.5
t40 23t39 9.5t27 2q60 0 96 -31.5t36 -83.5q0 -26 -11.5 -48t-34.5 -34q34 -13 50 -40t16 -62q-2 -61 -45 -94.5t-109 -33.5z" />
    <glyph glyph-name="acute" unicode="&#xb4;" horiz-adv-x="619" 
d="M346 756h-58l69 113h80z" />
    <glyph glyph-name="mu" unicode="&#xb5;" horiz-adv-x="526" 
d="M123 -228h-59v740h60v-322q0 -28 5 -54.5t17.5 -47.5t35 -33.5t58.5 -12.5q33 0 62.5 11.5t51 35t34 59t12.5 83.5v281h60l3 -512h-58q-1 26 -1.5 45.5t-2.5 26.5h-3q-18 -38 -59.5 -61t-98.5 -23q-41 0 -69 14.5t-48 42.5v-273z" />
    <glyph glyph-name="paragraph" unicode="&#xb6;" horiz-adv-x="567" 
d="M254 266q-76 0 -127 32.5t-77 81.5q-24 48 -24 103q0 59 28 111q27 49 81 81.5t135 32.5h227v-834h-58v786h-125v-786h-60v392z" />
    <glyph glyph-name="periodcentered" unicode="&#xb7;" horiz-adv-x="220" 
d="M62 318q0 20 14 34t34 14t34 -14t14 -34t-14 -34t-34 -14t-34 14t-14 34z" />
    <glyph glyph-name="cedilla" unicode="&#xb8;" horiz-adv-x="240" 
d="M137 -69q35 0 56 -17q25 -20 25 -59v-6q-1 -24 -11.5 -42t-26.5 -29t-35.5 -16.5t-38.5 -5.5q-45 0 -88 20l13 37q18 -9 35 -13t38 -4q25 0 45 13q22 14 22 44q0 19 -9 29q-11 12 -26 15q-9 2 -18 2q-7 0 -14 -1q-17 -3 -27 -8l-14 14l58 109h37l-42 -81l1 -2q11 1 20 1z
" />
    <glyph glyph-name="onesuperior" unicode="&#xb9;" horiz-adv-x="241" 
d="M174 713v-424h-50v346l-61 -68l-38 30l101 116h48z" />
    <glyph glyph-name="ordmasculine" unicode="&#xba;" horiz-adv-x="408" 
d="M204 356q-28 0 -55.5 7.5t-49 23.5t-35 39t-13.5 55v112q0 31 13.5 54.5t35 39.5t49 23.5t55.5 7.5t55.5 -7.5t49 -23.5t35 -39.5t13.5 -54.5v-112q0 -32 -13.5 -55t-35 -39t-49 -23.5t-55.5 -7.5zM102 481q0 -21 9.5 -35.5t24 -23t32.5 -12.5t36 -4t36 4t32.5 12.5
t24 23t9.5 35.5v112q0 21 -9.5 35.5t-24 23t-32.5 12.5t-36 4t-36 -4t-32.5 -12.5t-24 -23t-9.5 -35.5v-112z" />
    <glyph glyph-name="guillemotright" unicode="&#xbb;" horiz-adv-x="414" 
d="M193 121l119 174l-119 174l48 29l137 -203l-137 -203zM48 121l119 174l-119 174l48 29l137 -203l-137 -203z" />
    <glyph glyph-name="onequarter" unicode="&#xbc;" horiz-adv-x="720" 
d="M650 426v-276h34v-47h-34v-103h-51v103h-193l-33 48l224 275h53zM603 362l-169 -212h165zM174 713v-424h-50v346l-61 -68l-38 30l101 116h48zM138 -34l-45 28l456 748l46 -28z" />
    <glyph glyph-name="onehalf" unicode="&#xbd;" horiz-adv-x="767" 
d="M726 49v-49h-283l-15 37l208 194q15 14 27 33.5t12 40.5q0 29 -25.5 51.5t-72.5 22.5q-32 0 -58.5 -11.5t-41.5 -41.5l-47 20q9 23 25 39t35.5 25.5t41 14t43.5 4.5q69 0 110 -34t41 -88q0 -32 -15.5 -61.5t-38.5 -50.5l-154 -146h208zM174 713v-424h-50v346l-61 -68
l-38 30l101 116h48zM118 -34l-45 28l456 748l46 -28z" />
    <glyph glyph-name="threequarters" unicode="&#xbe;" horiz-adv-x="775" 
d="M336 415q0 -32 -13.5 -56t-35.5 -40t-50 -24t-56 -8q-11 0 -30 3t-41 11.5t-42 24t-32 41.5l-4 8l45 22l4 -8q7 -15 20 -25.5t28 -16.5t29.5 -8.5t25.5 -2.5q17 0 35 4.5t32.5 14.5t24 25t9.5 35q0 43 -23 60.5t-67 17.5h-32v40h32q27 0 50 18t23 48q0 31 -24.5 49.5
t-60.5 18.5q-26 0 -51 -11t-37 -33l-4 -8l-42 23q8 21 23 35.5t32.5 23t36 12.5t35.5 5h7q26 0 49 -6q25 -7 43.5 -22t29.5 -37t11 -50q0 -26 -11.5 -48t-34.5 -34q34 -13 50 -40t16 -62zM705 424v-275h34v-47h-34v-102h-51v102h-193l-33 48l224 274h53zM489 149h165l4 211z
M226 -34l-45 28l456 748l46 -28z" />
    <glyph glyph-name="questiondown" unicode="&#xbf;" horiz-adv-x="474" 
d="M256 -200q-43 0 -83.5 12.5t-72 38t-50.5 64t-19 89.5t17.5 88t46 63t65 41.5t76.5 22.5l8 163h49l6 -210q-41 0 -79 -11.5t-67.5 -33t-47.5 -53.5q-17 -29 -17 -67q0 -39 16 -69q14 -27 38 -45t54 -27t62 -9q43 0 83 16.5t66 48.5h1l44 -35q-35 -44 -87.5 -65.5
t-108.5 -21.5zM221 481q0 20 14 34t34 14t34 -14t14 -34t-14 -34t-34 -14t-34 14t-14 34z" />
    <glyph glyph-name="Agrave" unicode="&#xc0;" horiz-adv-x="609" 
d="M195 869h80l70 -113h-58zM603 0h-62l-85 236h-304l-83 -236h-62l254 708h86zM173 295h262l-131 369z" />
    <glyph glyph-name="Aacute" unicode="&#xc1;" horiz-adv-x="609" 
d="M316 756h-58l69 113h80zM603 0h-62l-85 236h-304l-83 -236h-62l254 708h86zM173 295h262l-131 369z" />
    <glyph glyph-name="Acircumflex" unicode="&#xc2;" horiz-adv-x="609" 
d="M440 756h-63l-75 78l-70 -78h-64l103 113h66zM603 0h-62l-85 236h-304l-83 -236h-62l254 708h86zM173 295h262l-131 369z" />
    <glyph glyph-name="Atilde" unicode="&#xc3;" horiz-adv-x="609" 
d="M253 869q16 0 30 -7.5t27 -16.5t25.5 -16.5t24.5 -7.5q29 0 38 37l39 -15q-9 -34 -29 -53.5t-48 -19.5q-17 0 -31.5 7.5t-27 16.5t-25.5 16.5t-27 7.5q-25 0 -38 -38l-40 14q6 35 27.5 55t54.5 20zM603 0h-62l-85 236h-304l-83 -236h-62l254 708h86zM173 295h262
l-131 369z" />
    <glyph glyph-name="Adieresis" unicode="&#xc4;" horiz-adv-x="609" 
d="M353 813q0 20 14 34t34 14t34 -14t14 -34t-14 -34t-34 -14t-34 14t-14 34zM173 813q0 20 14 34t34 14t34 -14t14 -34t-14 -34t-34 -14t-34 14t-14 34zM603 0h-62l-85 236h-304l-83 -236h-62l254 708h86zM173 295h262l-131 369z" />
    <glyph glyph-name="Aring" unicode="&#xc5;" horiz-adv-x="609" 
d="M207 792q0 19 7.5 36.5t21 30.5t31 20.5t37.5 7.5t37.5 -7.5t31 -20.5t21 -30.5t7.5 -36.5q0 -28 -15 -50.5t-39 -34.5l256 -707h-62l-85 236h-304l-83 -236h-62l254 707q-24 12 -39 34.5t-15 50.5zM304 843q-21 0 -35.5 -15t-14.5 -36t14.5 -36t35.5 -15q20 0 34 15
t14 36t-14 36t-34 15zM304 664l-131 -369h262z" />
    <glyph glyph-name="AE" unicode="&#xc6;" horiz-adv-x="802" 
d="M757 708v-59h-302v-266h271v-59h-271v-265h302v-59h-361v236h-215l-117 -236h-69l361 708h401zM396 295v366l-185 -366h185z" />
    <glyph glyph-name="Ccedilla" unicode="&#xc7;" horiz-adv-x="593" 
d="M322 49q30 0 59 6t54.5 18t45.5 29.5t32 41.5l53 -26q-15 -31 -39.5 -54t-55 -39t-66 -25t-71.5 -10l-30 -58l1 -2q11 1 20 1q35 0 56 -17q25 -20 25 -59v-6q-1 -24 -11.5 -42t-26.5 -29t-35.5 -16.5t-38.5 -5.5q-45 0 -88 20l13 37q18 -9 35 -13t38 -4q25 0 45 13
q22 14 22 44q0 19 -9 29q-11 12 -26 15q-9 2 -18 2q-7 0 -14 -1q-17 -3 -27 -8l-14 14l46 87q-46 3 -89 18t-76 42t-53 65.5t-20 88.5v298q0 53 23 93.5t60.5 67.5t85 40.5t97.5 13.5q37 0 74 -8t69 -23.5t57.5 -39.5t40.5 -56l-53 -26v-1q-12 24 -32 41.5t-45.5 29.5
t-54.5 18t-59 6q-38 0 -75 -10t-65.5 -29.5t-46 -48.5t-17.5 -68v-298q0 -39 17.5 -68.5t46 -49t65.5 -29t75 -9.5z" />
    <glyph glyph-name="Egrave" unicode="&#xc8;" horiz-adv-x="569" 
d="M205 869h80l70 -113h-58zM138 384h355v-60h-355v-265h385v-59h-444v708h444v-59h-385v-265z" />
    <glyph glyph-name="Eacute" unicode="&#xc9;" horiz-adv-x="569" 
d="M326 756h-58l69 113h80zM138 384h355v-60h-355v-265h385v-59h-444v708h444v-59h-385v-265z" />
    <glyph glyph-name="Ecircumflex" unicode="&#xca;" horiz-adv-x="569" 
d="M450 756h-63l-75 78l-70 -78h-64l103 113h66zM138 384h355v-60h-355v-265h385v-59h-444v708h444v-59h-385v-265z" />
    <glyph glyph-name="Edieresis" unicode="&#xcb;" horiz-adv-x="569" 
d="M363 813q0 20 14 34t34 14t34 -14t14 -34t-14 -34t-34 -14t-34 14t-14 34zM183 813q0 20 14 34t34 14t34 -14t14 -34t-14 -34t-34 -14t-34 14t-14 34zM138 384h355v-60h-355v-265h385v-59h-444v708h444v-59h-385v-265z" />
    <glyph glyph-name="Igrave" unicode="&#xcc;" horiz-adv-x="217" 
d="M0 869h80l70 -113h-58zM138 0h-59v708h59v-708z" />
    <glyph glyph-name="Iacute" unicode="&#xcd;" horiz-adv-x="217" 
d="M121 756h-58l69 113h80zM138 0h-59v708h59v-708z" />
    <glyph glyph-name="Icircumflex" unicode="&#xce;" horiz-adv-x="217" 
d="M215 773h-63l-41 81l-44 -81h-64l73 113h66zM138 0h-59v708h59v-708z" />
    <glyph glyph-name="Idieresis" unicode="&#xcf;" horiz-adv-x="217" 
d="M138 829q0 20 14 34t34 14t34 -14t14 -34t-14 -34t-34 -14t-34 14t-14 34zM-2 829q0 20 14 34t34 14t34 -14t14 -34t-14 -34t-34 -14t-34 14t-14 34zM138 0h-59v708h59v-708z" />
    <glyph glyph-name="Eth" unicode="&#xd0;" horiz-adv-x="644" 
d="M83 708h236q50 0 97.5 -12t85 -37t60 -64t22.5 -94v-295q0 -54 -22.5 -93t-60 -64t-85 -37t-97.5 -12h-236v326h-63v50h63v332zM319 59q39 0 76 8t66 26t46.5 46t17.5 67v295q0 40 -17.5 68t-46.5 46t-66 26t-76 8h-177v-273h125v-50h-125v-267h177z" />
    <glyph glyph-name="Ntilde" unicode="&#xd1;" horiz-adv-x="689" 
d="M314 869q16 0 30 -7.5t27 -16.5t25.5 -16.5t24.5 -7.5q29 0 38 37l39 -15q-9 -34 -29 -53.5t-48 -19.5q-17 0 -31.5 7.5t-27 16.5t-25.5 16.5t-27 7.5q-25 0 -38 -38l-40 14q6 35 27.5 55t54.5 20zM551 708h59v-708h-88l-384 617v-617h-59v708h72l400 -643v643z" />
    <glyph glyph-name="Ograve" unicode="&#xd2;" horiz-adv-x="677" 
d="M230 869h80l70 -113h-58zM58 500q0 54 24 95t63.5 68.5t90 41t103.5 13.5q52 0 102.5 -13.5t90 -41t63.5 -68.5t24 -95v-292q0 -54 -24 -95t-63.5 -68.5t-90 -41t-102.5 -13.5q-53 0 -103.5 13.5t-90 41t-63.5 68.5t-24 95v292zM117 208q0 -40 19 -69.5t50.5 -49.5
t71 -30t81.5 -10q41 0 81 10t71 30t50 49.5t19 69.5v292q0 42 -19 72t-50.5 49.5t-71.5 28.5t-82 9q-41 0 -80.5 -9.5t-70.5 -29t-50 -49.5t-19 -71v-292z" />
    <glyph glyph-name="Oacute" unicode="&#xd3;" horiz-adv-x="677" 
d="M351 756h-58l69 113h80zM58 500q0 54 24 95t63.5 68.5t90 41t103.5 13.5q52 0 102.5 -13.5t90 -41t63.5 -68.5t24 -95v-292q0 -54 -24 -95t-63.5 -68.5t-90 -41t-102.5 -13.5q-53 0 -103.5 13.5t-90 41t-63.5 68.5t-24 95v292zM117 208q0 -40 19 -69.5t50.5 -49.5t71 -30
t81.5 -10q41 0 81 10t71 30t50 49.5t19 69.5v292q0 42 -19 72t-50.5 49.5t-71.5 28.5t-82 9q-41 0 -80.5 -9.5t-70.5 -29t-50 -49.5t-19 -71v-292z" />
    <glyph glyph-name="Ocircumflex" unicode="&#xd4;" horiz-adv-x="677" 
d="M475 756h-63l-75 78l-70 -78h-64l103 113h66zM58 500q0 54 24 95t63.5 68.5t90 41t103.5 13.5q52 0 102.5 -13.5t90 -41t63.5 -68.5t24 -95v-292q0 -54 -24 -95t-63.5 -68.5t-90 -41t-102.5 -13.5q-53 0 -103.5 13.5t-90 41t-63.5 68.5t-24 95v292zM117 208
q0 -40 19 -69.5t50.5 -49.5t71 -30t81.5 -10q41 0 81 10t71 30t50 49.5t19 69.5v292q0 42 -19 72t-50.5 49.5t-71.5 28.5t-82 9q-41 0 -80.5 -9.5t-70.5 -29t-50 -49.5t-19 -71v-292z" />
    <glyph glyph-name="Otilde" unicode="&#xd5;" horiz-adv-x="677" 
d="M288 869q16 0 30 -7.5t27 -16.5t25.5 -16.5t24.5 -7.5q29 0 38 37l39 -15q-9 -34 -29 -53.5t-48 -19.5q-17 0 -31.5 7.5t-27 16.5t-25.5 16.5t-27 7.5q-25 0 -38 -38l-40 14q6 35 27.5 55t54.5 20zM58 500q0 54 24 95t63.5 68.5t90 41t103.5 13.5q52 0 102.5 -13.5
t90 -41t63.5 -68.5t24 -95v-292q0 -54 -24 -95t-63.5 -68.5t-90 -41t-102.5 -13.5q-53 0 -103.5 13.5t-90 41t-63.5 68.5t-24 95v292zM117 208q0 -40 19 -69.5t50.5 -49.5t71 -30t81.5 -10q41 0 81 10t71 30t50 49.5t19 69.5v292q0 42 -19 72t-50.5 49.5t-71.5 28.5t-82 9
q-41 0 -80.5 -9.5t-70.5 -29t-50 -49.5t-19 -71v-292z" />
    <glyph glyph-name="Odieresis" unicode="&#xd6;" horiz-adv-x="677" 
d="M388 813q0 20 14 34t34 14t34 -14t14 -34t-14 -34t-34 -14t-34 14t-14 34zM208 813q0 20 14 34t34 14t34 -14t14 -34t-14 -34t-34 -14t-34 14t-14 34zM58 500q0 54 24 95t63.5 68.5t90 41t103.5 13.5q52 0 102.5 -13.5t90 -41t63.5 -68.5t24 -95v-292q0 -54 -24 -95
t-63.5 -68.5t-90 -41t-102.5 -13.5q-53 0 -103.5 13.5t-90 41t-63.5 68.5t-24 95v292zM117 208q0 -40 19 -69.5t50.5 -49.5t71 -30t81.5 -10q41 0 81 10t71 30t50 49.5t19 69.5v292q0 42 -19 72t-50.5 49.5t-71.5 28.5t-82 9q-41 0 -80.5 -9.5t-70.5 -29t-50 -49.5t-19 -71
v-292z" />
    <glyph glyph-name="multiply" unicode="&#xd7;" horiz-adv-x="504" 
d="M414 502l39 -40l-159 -159l157 -157l-40 -41l-158 158l-162 -162l-39 41l160 160l-163 164l40 40l164 -165z" />
    <glyph glyph-name="Oslash" unicode="&#xd8;" horiz-adv-x="677" 
d="M619 500v-292q0 -54 -24 -95t-63.5 -68.5t-90 -41t-102.5 -13.5q-66 0 -124 20l-44 -97l-45 15l45 101q-50 26 -81.5 71t-31.5 108v292q0 54 24 95t63.5 68.5t90 41t103.5 13.5q69 0 132 -23l40 90l44 -15l-42 -95q47 -27 76.5 -70.5t29.5 -104.5zM117 208q0 -43 22 -74
t57 -51l251 559q-26 9 -53.5 13t-56.5 4q-41 0 -80.5 -9.5t-70.5 -29t-50 -49.5t-19 -71v-292zM560 500q0 43 -19.5 73t-51.5 49l-250 -558q23 -8 48.5 -11.5t51.5 -3.5q41 0 81 10t71 30t50 49.5t19 69.5v292z" />
    <glyph glyph-name="Ugrave" unicode="&#xd9;" horiz-adv-x="679" 
d="M231 869h80l70 -113h-58zM133 210q0 -40 17.5 -70t47 -50.5t66.5 -30.5t76 -10t76 10t66 30.5t46.5 50.5t17.5 70v498h59v-497q0 -55 -23 -96.5t-60 -69t-85 -41.5t-97 -14q-50 0 -97.5 14t-85 41.5t-60.5 69t-23 96.5v497h59v-498z" />
    <glyph glyph-name="Uacute" unicode="&#xda;" horiz-adv-x="679" 
d="M352 756h-58l69 113h80zM133 210q0 -40 17.5 -70t47 -50.5t66.5 -30.5t76 -10t76 10t66 30.5t46.5 50.5t17.5 70v498h59v-497q0 -55 -23 -96.5t-60 -69t-85 -41.5t-97 -14q-50 0 -97.5 14t-85 41.5t-60.5 69t-23 96.5v497h59v-498z" />
    <glyph glyph-name="Ucircumflex" unicode="&#xdb;" horiz-adv-x="679" 
d="M476 756h-63l-75 78l-70 -78h-64l103 113h66zM133 210q0 -40 17.5 -70t47 -50.5t66.5 -30.5t76 -10t76 10t66 30.5t46.5 50.5t17.5 70v498h59v-497q0 -55 -23 -96.5t-60 -69t-85 -41.5t-97 -14q-50 0 -97.5 14t-85 41.5t-60.5 69t-23 96.5v497h59v-498z" />
    <glyph glyph-name="Udieresis" unicode="&#xdc;" horiz-adv-x="679" 
d="M389 813q0 20 14 34t34 14t34 -14t14 -34t-14 -34t-34 -14t-34 14t-14 34zM209 813q0 20 14 34t34 14t34 -14t14 -34t-14 -34t-34 -14t-34 14t-14 34zM133 210q0 -40 17.5 -70t47 -50.5t66.5 -30.5t76 -10t76 10t66 30.5t46.5 50.5t17.5 70v498h59v-497q0 -55 -23 -96.5
t-60 -69t-85 -41.5t-97 -14q-50 0 -97.5 14t-85 41.5t-60.5 69t-23 96.5v497h59v-498z" />
    <glyph glyph-name="Yacute" unicode="&#xdd;" horiz-adv-x="559" 
d="M292 756h-58l69 113h80zM309 0h-59v277l-246 431h69l207 -372l206 372h70l-247 -431v-277z" />
    <glyph glyph-name="Thorn" unicode="&#xde;" horiz-adv-x="613" 
d="M79 0v708h59v-131h208q78 0 130 -33t78 -82q27 -48 27 -104q0 -59 -27 -109q-25 -49 -77 -82t-130 -33h-209v-134h-59zM346 193q59 0 98.5 24.5t58.5 60.5t19 78.5t-20 78.5t-59 60q-37 23 -92 23h-5h-208v-325h208z" />
    <glyph glyph-name="germandbls" unicode="&#xdf;" horiz-adv-x="590" 
d="M292 59q34 0 67 8q37 9 65.5 28t46 48t17.5 68q0 40 -14 69t-38 47.5t-56.5 26.5t-69.5 8h-92v56h92q30 0 56.5 8.5t46.5 25.5t31.5 42.5t11.5 58.5q0 35 -14.5 59.5t-38 39.5t-53 22t-59.5 7t-59.5 -7.5t-53 -24t-38 -42t-14.5 -60.5v-548h-58v548q0 46 19 81.5
t50.5 59.5t71.5 36.5t82 12.5t82 -11.5t71.5 -34t51 -57.5t19.5 -81q0 -48 -19 -91.5t-63 -68.5q63 -22 89 -70t26 -113q-1 -54 -24 -94t-60 -66.5t-84 -39.5q-43 -11 -88 -11h-7q-28 1 -55 6t-53 18l1 63q22 -11 51 -18.5t55 -8.5h8z" />
    <glyph glyph-name="agrave" unicode="&#xe0;" horiz-adv-x="491" 
d="M137 690h80l70 -113h-58zM373 363q0 28 -12 48.5t-32.5 34.5t-46 21t-52.5 7q-39 0 -75 -13t-56 -39l-38 36q32 35 79 52.5t96 17.5q37 0 72 -10.5t62 -31t43 -51.5t16 -72v-340q-96 -33 -200 -33h-12q-38 0 -71 10t-57.5 30t-38.5 49.5t-14 70.5q0 44 17.5 74.5t45.5 50
t63.5 28.5t72.5 9q36 0 71.5 -7t66.5 -20v78zM237 264q-29 0 -55 -5.5t-46 -19t-32 -35t-12 -54.5q0 -59 36.5 -84t91.5 -26h17q30 0 60 2q39 4 76 13v184q-26 10 -62 17.5t-74 7.5z" />
    <glyph glyph-name="aacute" unicode="&#xe1;" horiz-adv-x="491" 
d="M258 577h-58l69 113h80zM373 363q0 28 -12 48.5t-32.5 34.5t-46 21t-52.5 7q-39 0 -75 -13t-56 -39l-38 36q32 35 79 52.5t96 17.5q37 0 72 -10.5t62 -31t43 -51.5t16 -72v-340q-96 -33 -200 -33h-12q-38 0 -71 10t-57.5 30t-38.5 49.5t-14 70.5q0 44 17.5 74.5t45.5 50
t63.5 28.5t72.5 9q36 0 71.5 -7t66.5 -20v78zM237 264q-29 0 -55 -5.5t-46 -19t-32 -35t-12 -54.5q0 -59 36.5 -84t91.5 -26h17q30 0 60 2q39 4 76 13v184q-26 10 -62 17.5t-74 7.5z" />
    <glyph glyph-name="acircumflex" unicode="&#xe2;" horiz-adv-x="491" 
d="M382 577h-63l-75 78l-70 -78h-64l103 113h66zM373 363q0 28 -12 48.5t-32.5 34.5t-46 21t-52.5 7q-39 0 -75 -13t-56 -39l-38 36q32 35 79 52.5t96 17.5q37 0 72 -10.5t62 -31t43 -51.5t16 -72v-340q-96 -33 -200 -33h-12q-38 0 -71 10t-57.5 30t-38.5 49.5t-14 70.5
q0 44 17.5 74.5t45.5 50t63.5 28.5t72.5 9q36 0 71.5 -7t66.5 -20v78zM237 264q-29 0 -55 -5.5t-46 -19t-32 -35t-12 -54.5q0 -59 36.5 -84t91.5 -26h17q30 0 60 2q39 4 76 13v184q-26 10 -62 17.5t-74 7.5z" />
    <glyph glyph-name="atilde" unicode="&#xe3;" horiz-adv-x="491" 
d="M195 690q16 0 30 -7.5t27 -16.5t25.5 -16.5t24.5 -7.5q29 0 38 37l39 -15q-9 -34 -29 -53.5t-48 -19.5q-17 0 -31.5 7.5t-27 16.5t-25.5 16.5t-27 7.5q-25 0 -38 -38l-40 14q6 35 27.5 55t54.5 20zM373 363q0 28 -12 48.5t-32.5 34.5t-46 21t-52.5 7q-39 0 -75 -13
t-56 -39l-38 36q32 35 79 52.5t96 17.5q37 0 72 -10.5t62 -31t43 -51.5t16 -72v-340q-96 -33 -200 -33h-12q-38 0 -71 10t-57.5 30t-38.5 49.5t-14 70.5q0 44 17.5 74.5t45.5 50t63.5 28.5t72.5 9q36 0 71.5 -7t66.5 -20v78zM237 264q-29 0 -55 -5.5t-46 -19t-32 -35
t-12 -54.5q0 -59 36.5 -84t91.5 -26h17q30 0 60 2q39 4 76 13v184q-26 10 -62 17.5t-74 7.5z" />
    <glyph glyph-name="adieresis" unicode="&#xe4;" horiz-adv-x="491" 
d="M295 634q0 20 14 34t34 14t34 -14t14 -34t-14 -34t-34 -14t-34 14t-14 34zM115 634q0 20 14 34t34 14t34 -14t14 -34t-14 -34t-34 -14t-34 14t-14 34zM373 363q0 28 -12 48.5t-32.5 34.5t-46 21t-52.5 7q-39 0 -75 -13t-56 -39l-38 36q32 35 79 52.5t96 17.5
q37 0 72 -10.5t62 -31t43 -51.5t16 -72v-340q-96 -33 -200 -33h-12q-38 0 -71 10t-57.5 30t-38.5 49.5t-14 70.5q0 44 17.5 74.5t45.5 50t63.5 28.5t72.5 9q36 0 71.5 -7t66.5 -20v78zM237 264q-29 0 -55 -5.5t-46 -19t-32 -35t-12 -54.5q0 -59 36.5 -84t91.5 -26h17
q30 0 60 2q39 4 76 13v184q-26 10 -62 17.5t-74 7.5z" />
    <glyph glyph-name="aring" unicode="&#xe5;" horiz-adv-x="491" 
d="M153 653q0 19 7.5 35.5t20 29t29.5 19.5t36 7t36 -7t29.5 -19.5t20 -29t7.5 -35.5t-7.5 -35.5t-20 -29t-29.5 -19.5t-36 -7t-36 7t-29.5 19.5t-20 29t-7.5 35.5zM299 653q0 23 -15.5 39.5t-37.5 16.5q-23 0 -39 -16.5t-16 -39.5t16 -39.5t39 -16.5q22 0 37.5 16.5
t15.5 39.5zM373 363q0 28 -12 48.5t-32.5 34.5t-46 21t-52.5 7q-39 0 -75 -13t-56 -39l-38 36q32 35 79 52.5t96 17.5q37 0 72 -10.5t62 -31t43 -51.5t16 -72v-340q-96 -33 -200 -33h-12q-38 0 -71 10t-57.5 30t-38.5 49.5t-14 70.5q0 44 17.5 74.5t45.5 50t63.5 28.5
t72.5 9q36 0 71.5 -7t66.5 -20v78zM237 264q-29 0 -55 -5.5t-46 -19t-32 -35t-12 -54.5q0 -59 36.5 -84t91.5 -26h17q30 0 60 2q39 4 76 13v184q-26 10 -62 17.5t-74 7.5z" />
    <glyph glyph-name="ae" unicode="&#xe6;" horiz-adv-x="810" 
d="M373 365q0 28 -12 48.5t-32 34t-45.5 20t-52.5 6.5q-39 0 -75 -13.5t-56 -39.5l-38 36q32 35 78.5 52.5t95.5 17.5q51 0 96 -18t71 -56q27 37 72 56t94 19q37 0 72 -10.5t62.5 -31.5t44.5 -52.5t17 -73.5v-130h-336v-75q0 -28 12 -49t31.5 -34.5t45 -20.5t51.5 -7
q42 0 79.5 17.5t52.5 52.5l50 -25q-12 -25 -31 -43.5t-43.5 -31t-52 -18.5t-55.5 -6q-45 0 -86.5 14.5t-69.5 45.5q-34 -29 -81.5 -44.5t-97.5 -15.5q-38 0 -73.5 10t-63 30.5t-44 52.5t-16.5 77q0 46 17.5 78t46 52t66 29.5t76.5 9.5q69 0 130 -28v64zM709 364q0 27 -12 48
t-31.5 34.5t-45 20.5t-51.5 7t-51 -7t-45 -20.5t-32 -34t-12 -47.5v-87h280v86zM240 279q-29 0 -55 -6t-46.5 -19.5t-33 -36.5t-12.5 -57q0 -31 12 -53t31.5 -36t45 -20.5t53.5 -6.5q42 0 82 12.5t69 34.5q-13 31 -13 66v97q-26 11 -61.5 18t-71.5 7z" />
    <glyph glyph-name="ccedilla" unicode="&#xe7;" horiz-adv-x="461" 
d="M251 -69q35 0 56 -17q25 -20 25 -59v-6q-1 -24 -11.5 -42t-26.5 -29t-35.5 -16.5t-38.5 -5.5q-45 0 -88 20l13 37q18 -9 35 -13t38 -4q25 0 45 13q22 14 22 44q0 19 -9 29q-11 12 -26 15q-9 2 -18 2q-7 0 -14 -1q-17 -3 -27 -8l-14 14l46 87q-33 3 -64 15t-54.5 33
t-38 50.5t-14.5 68.5v202q0 42 17 73.5t44.5 52.5t63 31.5t71.5 10.5q54 0 102.5 -22t74.5 -67l-47 -28q-17 32 -53 47.5t-77 15.5q-26 0 -51.5 -6.5t-45 -20t-31.5 -34t-12 -49.5v-210q0 -29 12 -49.5t31.5 -34t45 -20t51.5 -6.5q45 0 84.5 19.5t51.5 60.5l51 -23
q-10 -27 -28 -47t-41 -33.5t-50.5 -21.5t-55.5 -9l-30 -58l1 -2q11 1 20 1z" />
    <glyph glyph-name="egrave" unicode="&#xe8;" 
d="M140 689h80l70 -113h-58zM109 156q0 -29 12 -50t31.5 -35t44.5 -20.5t52 -6.5q42 0 79 17t53 52l50 -23q-12 -25 -31 -44t-43.5 -31.5t-52 -18.5t-55.5 -6q-37 0 -72.5 10.5t-63 31.5t-44.5 52.5t-17 73.5v202q0 42 17 73.5t44.5 52.5t63 31.5t72.5 10.5q36 0 71.5 -10.5
t63 -31.5t44.5 -52.5t17 -73.5v-126h-336v-78zM389 364q0 28 -12 49t-31.5 34.5t-45 20t-51.5 6.5q-27 0 -52 -6.5t-45 -20t-31.5 -34.5t-11.5 -49v-83h280v83z" />
    <glyph glyph-name="eacute" unicode="&#xe9;" 
d="M261 576h-58l69 113h80zM109 156q0 -29 12 -50t31.5 -35t44.5 -20.5t52 -6.5q42 0 79 17t53 52l50 -23q-12 -25 -31 -44t-43.5 -31.5t-52 -18.5t-55.5 -6q-37 0 -72.5 10.5t-63 31.5t-44.5 52.5t-17 73.5v202q0 42 17 73.5t44.5 52.5t63 31.5t72.5 10.5q36 0 71.5 -10.5
t63 -31.5t44.5 -52.5t17 -73.5v-126h-336v-78zM389 364q0 28 -12 49t-31.5 34.5t-45 20t-51.5 6.5q-27 0 -52 -6.5t-45 -20t-31.5 -34.5t-11.5 -49v-83h280v83z" />
    <glyph glyph-name="ecircumflex" unicode="&#xea;" 
d="M385 576h-63l-75 78l-70 -78h-64l103 113h66zM109 156q0 -29 12 -50t31.5 -35t44.5 -20.5t52 -6.5q42 0 79 17t53 52l50 -23q-12 -25 -31 -44t-43.5 -31.5t-52 -18.5t-55.5 -6q-37 0 -72.5 10.5t-63 31.5t-44.5 52.5t-17 73.5v202q0 42 17 73.5t44.5 52.5t63 31.5
t72.5 10.5q36 0 71.5 -10.5t63 -31.5t44.5 -52.5t17 -73.5v-126h-336v-78zM389 364q0 28 -12 49t-31.5 34.5t-45 20t-51.5 6.5q-27 0 -52 -6.5t-45 -20t-31.5 -34.5t-11.5 -49v-83h280v83z" />
    <glyph glyph-name="edieresis" unicode="&#xeb;" 
d="M298 633q0 20 14 34t34 14t34 -14t14 -34t-14 -34t-34 -14t-34 14t-14 34zM118 633q0 20 14 34t34 14t34 -14t14 -34t-14 -34t-34 -14t-34 14t-14 34zM109 156q0 -29 12 -50t31.5 -35t44.5 -20.5t52 -6.5q42 0 79 17t53 52l50 -23q-12 -25 -31 -44t-43.5 -31.5t-52 -18.5
t-55.5 -6q-37 0 -72.5 10.5t-63 31.5t-44.5 52.5t-17 73.5v202q0 42 17 73.5t44.5 52.5t63 31.5t72.5 10.5q36 0 71.5 -10.5t63 -31.5t44.5 -52.5t17 -73.5v-126h-336v-78zM389 364q0 28 -12 49t-31.5 34.5t-45 20t-51.5 6.5q-27 0 -52 -6.5t-45 -20t-31.5 -34.5t-11.5 -49
v-83h280v83z" />
    <glyph glyph-name="igrave" unicode="&#xec;" horiz-adv-x="196" 
d="M-11 689h80l70 -113h-58zM128 0h-60v518h60v-518z" />
    <glyph glyph-name="iacute" unicode="&#xed;" horiz-adv-x="196" 
d="M110 576h-58l69 113h80zM128 0h-60v518h60v-518z" />
    <glyph glyph-name="icircumflex" unicode="&#xee;" horiz-adv-x="196" 
d="M204 583h-63l-41 78l-44 -78h-64l73 113h66zM128 0h-60v518h60v-518z" />
    <glyph glyph-name="idieresis" unicode="&#xef;" horiz-adv-x="196" 
d="M117 641q0 20 14 34t34 14t34 -14t14 -34t-14 -34t-34 -14t-34 14t-14 34zM-3 641q0 20 14 34t34 14t34 -14t14 -34t-14 -34t-34 -14t-34 14t-14 34zM128 0h-60v518h60v-518z" />
    <glyph glyph-name="eth" unicode="&#xf0;" horiz-adv-x="505" 
d="M247 716q13 0 25 -1l22 67l44 -15l-19 -61q51 -15 85.5 -53t34.5 -101v-518q-11 -4 -25 -8t-30 -9q-35 -10 -71 -16.5t-72 -6.5t-70 10.5t-60.5 31.5t-43 52t-16.5 72v152q0 40 16.5 71.5t43.5 52.5t62 31.5t72 10.5q36 0 71 -7t68 -24v105q0 41 -23.5 66t-58.5 36
l-25 -80l-45 16l24 73q-8 1 -16 1q-34 0 -66 -11q-40 -13 -61 -40l-38 35q34 38 88 55q42 13 84 13zM243 423q-26 0 -50.5 -7t-43.5 -20.5t-31 -34t-12 -48.5v-1v-152v-1q0 -28 11.5 -48.5t30.5 -34t43.5 -20.5t50.5 -7q42 0 80.5 10t61.5 20v315q-67 29 -141 29z" />
    <glyph glyph-name="ntilde" unicode="&#xf1;" horiz-adv-x="522" 
d="M214 689q16 0 30 -7.5t27 -16.5t25.5 -16.5t24.5 -7.5q29 0 38 37l39 -15q-9 -34 -29 -53.5t-48 -19.5q-17 0 -31.5 7.5t-27 16.5t-25.5 16.5t-27 7.5q-25 0 -38 -38l-40 14q6 35 27.5 55t54.5 20zM457 361v-361h-56v363q0 28 -12 49t-31.5 35t-43.5 20.5t-49 6.5
q-42 0 -81 -10t-62 -20v-444h-56v487q48 17 98 29t101 12q36 -1 70.5 -11.5t61.5 -31t43.5 -51.5t16.5 -73z" />
    <glyph glyph-name="ograve" unicode="&#xf2;" horiz-adv-x="497" 
d="M140 689h80l70 -113h-58zM52 359q0 42 17 73.5t44.5 52.5t63 32t72.5 11t72 -11t62.5 -32t44.5 -52.5t17 -73.5v-200q0 -42 -17 -74t-44.5 -53t-62.5 -31.5t-72 -10.5t-72.5 10.5t-63 31.5t-44.5 53t-17 74v200zM249 474q-26 0 -51 -6.5t-45 -20t-32.5 -34.5t-12.5 -51
v-205q0 -30 12.5 -51t32.5 -35t45 -20.5t51 -6.5q25 0 50 6.5t45 20.5t32.5 35t12.5 51v205q0 30 -12.5 51t-32.5 34.5t-45 20t-50 6.5z" />
    <glyph glyph-name="oacute" unicode="&#xf3;" horiz-adv-x="497" 
d="M261 576h-58l69 113h80zM52 359q0 42 17 73.5t44.5 52.5t63 32t72.5 11t72 -11t62.5 -32t44.5 -52.5t17 -73.5v-200q0 -42 -17 -74t-44.5 -53t-62.5 -31.5t-72 -10.5t-72.5 10.5t-63 31.5t-44.5 53t-17 74v200zM249 474q-26 0 -51 -6.5t-45 -20t-32.5 -34.5t-12.5 -51
v-205q0 -30 12.5 -51t32.5 -35t45 -20.5t51 -6.5q25 0 50 6.5t45 20.5t32.5 35t12.5 51v205q0 30 -12.5 51t-32.5 34.5t-45 20t-50 6.5z" />
    <glyph glyph-name="ocircumflex" unicode="&#xf4;" horiz-adv-x="497" 
d="M385 576h-63l-75 78l-70 -78h-64l103 113h66zM52 359q0 42 17 73.5t44.5 52.5t63 32t72.5 11t72 -11t62.5 -32t44.5 -52.5t17 -73.5v-200q0 -42 -17 -74t-44.5 -53t-62.5 -31.5t-72 -10.5t-72.5 10.5t-63 31.5t-44.5 53t-17 74v200zM249 474q-26 0 -51 -6.5t-45 -20
t-32.5 -34.5t-12.5 -51v-205q0 -30 12.5 -51t32.5 -35t45 -20.5t51 -6.5q25 0 50 6.5t45 20.5t32.5 35t12.5 51v205q0 30 -12.5 51t-32.5 34.5t-45 20t-50 6.5z" />
    <glyph glyph-name="otilde" unicode="&#xf5;" horiz-adv-x="497" 
d="M198 689q16 0 30 -7.5t27 -16.5t25.5 -16.5t24.5 -7.5q29 0 38 37l39 -15q-9 -34 -29 -53.5t-48 -19.5q-17 0 -31.5 7.5t-27 16.5t-25.5 16.5t-27 7.5q-25 0 -38 -38l-40 14q6 35 27.5 55t54.5 20zM52 359q0 42 17 73.5t44.5 52.5t63 32t72.5 11t72 -11t62.5 -32
t44.5 -52.5t17 -73.5v-200q0 -42 -17 -74t-44.5 -53t-62.5 -31.5t-72 -10.5t-72.5 10.5t-63 31.5t-44.5 53t-17 74v200zM249 474q-26 0 -51 -6.5t-45 -20t-32.5 -34.5t-12.5 -51v-205q0 -30 12.5 -51t32.5 -35t45 -20.5t51 -6.5q25 0 50 6.5t45 20.5t32.5 35t12.5 51v205
q0 30 -12.5 51t-32.5 34.5t-45 20t-50 6.5z" />
    <glyph glyph-name="odieresis" unicode="&#xf6;" horiz-adv-x="497" 
d="M298 633q0 20 14 34t34 14t34 -14t14 -34t-14 -34t-34 -14t-34 14t-14 34zM118 633q0 20 14 34t34 14t34 -14t14 -34t-14 -34t-34 -14t-34 14t-14 34zM52 359q0 42 17 73.5t44.5 52.5t63 32t72.5 11t72 -11t62.5 -32t44.5 -52.5t17 -73.5v-200q0 -42 -17 -74t-44.5 -53
t-62.5 -31.5t-72 -10.5t-72.5 10.5t-63 31.5t-44.5 53t-17 74v200zM249 474q-26 0 -51 -6.5t-45 -20t-32.5 -34.5t-12.5 -51v-205q0 -30 12.5 -51t32.5 -35t45 -20.5t51 -6.5q25 0 50 6.5t45 20.5t32.5 35t12.5 51v205q0 30 -12.5 51t-32.5 34.5t-45 20t-50 6.5z" />
    <glyph glyph-name="divide" unicode="&#xf7;" horiz-adv-x="546" 
d="M491 301h-434v60h434v-60zM228 171q0 20 14 34t34 14t34 -14t14 -34t-14 -34t-34 -14t-34 14t-14 34zM228 479q0 20 14 34t34 14t34 -14t14 -34t-14 -34t-34 -14t-34 14t-14 34z" />
    <glyph glyph-name="oslash" unicode="&#xf8;" horiz-adv-x="497" 
d="M445 359v-200q0 -42 -17 -74t-44.5 -53t-62.5 -31.5t-72 -10.5q-45 0 -85 15l-33 -80l-35 14l35 82q-35 21 -57 55t-22 83v200q0 42 17 73.5t44.5 52.5t63 32t72.5 11q23 0 45 -4t43 -12l29 69l34 -12l-31 -74q34 -20 55 -54t21 -82zM108 157q0 -29 12 -50t32 -35
l164 390q-32 12 -67 12q-26 0 -51 -6.5t-45 -20t-32.5 -34.5t-12.5 -51v-205zM389 362q0 28 -11.5 48.5t-29.5 34.5l-163 -390q15 -6 31 -8.5t33 -2.5q25 0 50 6.5t45 20.5t32.5 35t12.5 51v205z" />
    <glyph glyph-name="ugrave" unicode="&#xf9;" horiz-adv-x="521" 
d="M151 679h80l70 -113h-58zM256 -10q-36 0 -70.5 10.5t-61.5 31.5t-43.5 52t-16.5 73v362h56v-365q0 -27 11.5 -47.5t30.5 -34.5t43.5 -21t50.5 -7q42 0 81 10.5t62 20.5v444h56v-489l-56 -17q-35 -10 -71.5 -16.5t-71.5 -6.5z" />
    <glyph glyph-name="uacute" unicode="&#xfa;" horiz-adv-x="521" 
d="M272 566h-58l69 113h80zM256 -10q-36 0 -70.5 10.5t-61.5 31.5t-43.5 52t-16.5 73v362h56v-365q0 -27 11.5 -47.5t30.5 -34.5t43.5 -21t50.5 -7q42 0 81 10.5t62 20.5v444h56v-489l-56 -17q-35 -10 -71.5 -16.5t-71.5 -6.5z" />
    <glyph glyph-name="ucircumflex" unicode="&#xfb;" horiz-adv-x="521" 
d="M396 566h-63l-75 78l-70 -78h-64l103 113h66zM256 -10q-36 0 -70.5 10.5t-61.5 31.5t-43.5 52t-16.5 73v362h56v-365q0 -27 11.5 -47.5t30.5 -34.5t43.5 -21t50.5 -7q42 0 81 10.5t62 20.5v444h56v-489l-56 -17q-35 -10 -71.5 -16.5t-71.5 -6.5z" />
    <glyph glyph-name="udieresis" unicode="&#xfc;" horiz-adv-x="521" 
d="M309 623q0 20 14 34t34 14t34 -14t14 -34t-14 -34t-34 -14t-34 14t-14 34zM129 623q0 20 14 34t34 14t34 -14t14 -34t-14 -34t-34 -14t-34 14t-14 34zM256 -10q-36 0 -70.5 10.5t-61.5 31.5t-43.5 52t-16.5 73v362h56v-365q0 -27 11.5 -47.5t30.5 -34.5t43.5 -21t50.5 -7
q42 0 81 10.5t62 20.5v444h56v-489l-56 -17q-35 -10 -71.5 -16.5t-71.5 -6.5z" />
    <glyph glyph-name="yacute" unicode="&#xfd;" horiz-adv-x="535" 
d="M278 566h-58l69 113h80zM264 -152q29 0 55.5 8t46.5 23.5t32 39t12 55.5v50q-33 -21 -69.5 -27t-74.5 -7q-38 0 -74.5 11t-65 33t-45.5 54.5t-17 74.5v355h58v-357q0 -29 12.5 -51t32.5 -37t45.5 -23t52.5 -8q74 0 145 31v445h57v-544q0 -45 -16.5 -79t-44.5 -56.5
t-64 -33.5t-76 -11q-51 0 -98.5 18t-78.5 52l39 36q26 -27 60.5 -39.5t75.5 -12.5z" />
    <glyph glyph-name="thorn" unicode="&#xfe;" horiz-adv-x="514" 
d="M124 707v-197q70 18 144 18q36 0 71 -10.5t62.5 -31.5t44 -52t16.5 -73v-202q0 -41 -17 -72.5t-44.5 -53t-63 -32.5t-72.5 -11q-74 2 -141 32v-213h-56v898h56zM267 44q26 0 51 7t44.5 20.5t31 34.5t11.5 48v211q0 27 -11.5 47.5t-30.5 34t-44 20.5t-51 7
q-36 0 -72.5 -2.5t-71.5 -14.5v-384q69 -29 143 -29z" />
    <glyph glyph-name="ydieresis" unicode="&#xff;" horiz-adv-x="535" 
d="M315 623q0 20 14 34t34 14t34 -14t14 -34t-14 -34t-34 -14t-34 14t-14 34zM135 623q0 20 14 34t34 14t34 -14t14 -34t-14 -34t-34 -14t-34 14t-14 34zM264 -152q29 0 55.5 8t46.5 23.5t32 39t12 55.5v50q-33 -21 -69.5 -27t-74.5 -7q-38 0 -74.5 11t-65 33t-45.5 54.5
t-17 74.5v355h58v-357q0 -29 12.5 -51t32.5 -37t45.5 -23t52.5 -8q74 0 145 31v445h57v-544q0 -45 -16.5 -79t-44.5 -56.5t-64 -33.5t-76 -11q-51 0 -98.5 18t-78.5 52l39 36q26 -27 60.5 -39.5t75.5 -12.5z" />
    <glyph glyph-name="Amacron" unicode="&#x100;" horiz-adv-x="609" 
d="M179 813h250v-48h-250v48zM7 0zM603 0h-62l-85 236h-304l-83 -236h-62l254 708h86zM173 295h262l-131 369z" />
    <glyph glyph-name="amacron" unicode="&#x101;" horiz-adv-x="491" 
d="M368 620h-247v58h247v-58zM373 363q0 28 -12 48.5t-32.5 34.5t-46 21t-52.5 7q-39 0 -75 -13t-56 -39l-38 36q32 35 79 52.5t96 17.5q37 0 72 -10.5t62 -31t43 -51.5t16 -72v-340q-96 -33 -200 -33h-12q-38 0 -71 10t-57.5 30t-38.5 49.5t-14 70.5q0 44 17.5 74.5
t45.5 50t63.5 28.5t72.5 9q36 0 71.5 -7t66.5 -20v78zM237 264q-29 0 -55 -5.5t-46 -19t-32 -35t-12 -54.5q0 -59 36.5 -84t91.5 -26h17q30 0 60 2q39 4 76 13v184q-26 10 -62 17.5t-74 7.5z" />
    <glyph glyph-name="Abreve" unicode="&#x102;" horiz-adv-x="609" 
d="M425 869q0 -53 -33 -85t-88 -32t-88 32t-33 85h47q0 -31 20.5 -50t53.5 -19t53.5 19t20.5 50h47zM603 0h-62l-85 236h-304l-83 -236h-62l254 708h86zM173 295h262l-131 369z" />
    <glyph glyph-name="abreve" unicode="&#x103;" horiz-adv-x="491" 
d="M367 690q0 -53 -33 -85t-88 -32t-88 32t-33 85h47q0 -31 20.5 -50t53.5 -19t53.5 19t20.5 50h47zM373 363q0 28 -12 48.5t-32.5 34.5t-46 21t-52.5 7q-39 0 -75 -13t-56 -39l-38 36q32 35 79 52.5t96 17.5q37 0 72 -10.5t62 -31t43 -51.5t16 -72v-340q-96 -33 -200 -33
h-12q-38 0 -71 10t-57.5 30t-38.5 49.5t-14 70.5q0 44 17.5 74.5t45.5 50t63.5 28.5t72.5 9q36 0 71.5 -7t66.5 -20v78zM237 264q-29 0 -55 -5.5t-46 -19t-32 -35t-12 -54.5q0 -59 36.5 -84t91.5 -26h17q30 0 60 2q39 4 76 13v184q-26 10 -62 17.5t-74 7.5z" />
    <glyph glyph-name="Aogonek" unicode="&#x104;" horiz-adv-x="608" 
d="M561 -244q-38 0 -60 24.5t-22 62.5q0 16 6.5 36.5t17.5 41.5t25.5 41.5t31.5 37.5h-20l-85 236h-304l-83 -236h-62l254 708h86l256 -708q-40 -45 -56 -86q-15 -36 -15 -58v-5q1 -17 11 -27.5t24 -13.5q5 -1 10 -1q10 0 21 4q17 6 33 21l16 -45q-16 -14 -36.5 -23.5
t-48.5 -9.5zM172 295h262l-131 369z" />
    <glyph glyph-name="aogonek" unicode="&#x105;" horiz-adv-x="493" 
d="M373 363q0 28 -12 48.5t-32.5 34.5t-46 21t-52.5 7q-39 0 -75 -13t-56 -39l-38 36q32 35 79 52.5t96 17.5q37 0 72 -10.5t62 -31t43 -51.5t16 -72v-340q-28 -33 -46 -60t-28 -48t-13 -37t-2 -27q1 -17 11 -27.5t24 -13.5q5 -1 10 -1q10 0 21 4q17 6 33 21l16 -45
q-16 -14 -36.5 -23.5t-48.5 -9.5q-38 0 -60 24.5t-22 62.5q0 17 7 38.5t18.5 43t27 43t33.5 38.5l-1 1q-38 -9 -77.5 -13t-78.5 -4q-38 0 -71 10t-57.5 30t-38.5 49.5t-14 70.5q0 44 17.5 74.5t45.5 50t63.5 28.5t72.5 9q36 0 71.5 -7t66.5 -20v78zM237 264q-29 0 -55 -5.5
t-46 -19t-32 -35t-12 -54.5q0 -59 36.5 -84t91.5 -26h17q30 0 60 2q39 4 76 13v184q-26 10 -62 17.5t-74 7.5z" />
    <glyph glyph-name="Cacute" unicode="&#x106;" horiz-adv-x="593" 
d="M337 756h-58l69 113h80zM325 718q37 0 74 -8t69 -23.5t57.5 -39.5t40.5 -56l-53 -26v-1q-12 24 -32 41.5t-45.5 29.5t-54.5 18t-59 6q-38 0 -75 -10t-65.5 -29.5t-46 -48.5t-17.5 -68v-298q0 -39 17.5 -68.5t46 -49t65.5 -29t75 -9.5q30 0 59 6t54.5 18t45.5 29.5
t32 41.5l53 -26q-15 -32 -41 -56t-58.5 -40t-69.5 -24t-75 -8q-50 0 -97 13.5t-84 40.5t-59.5 67t-22.5 94v298q0 53 23 93.5t60.5 67.5t85 40.5t97.5 13.5z" />
    <glyph glyph-name="cacute" unicode="&#x107;" horiz-adv-x="461" 
d="M260 576h-58l69 113h80zM248 474q-26 0 -51.5 -6.5t-45 -20t-31.5 -34t-12 -49.5v-210q0 -29 12 -49.5t31.5 -34t45 -20t51.5 -6.5q45 0 84.5 19.5t51.5 60.5l51 -23q-10 -28 -29.5 -49t-44.5 -34.5t-54 -20.5t-59 -7q-36 0 -71.5 10.5t-63 31.5t-44.5 52.5t-17 73.5v202
q0 42 17 73.5t44.5 52.5t63 31.5t71.5 10.5q54 0 102.5 -22t74.5 -67l-47 -28q-17 32 -53 47.5t-77 15.5z" />
    <glyph glyph-name="Cdotaccent" unicode="&#x10a;" horiz-adv-x="593" 
d="M280 813q0 20 14 34t34 14t34 -14t14 -34t-14 -34t-34 -14t-34 14t-14 34zM325 718q37 0 74 -8t69 -23.5t57.5 -39.5t40.5 -56l-53 -26v-1q-12 24 -32 41.5t-45.5 29.5t-54.5 18t-59 6q-38 0 -75 -10t-65.5 -29.5t-46 -48.5t-17.5 -68v-298q0 -39 17.5 -68.5t46 -49
t65.5 -29t75 -9.5q30 0 59 6t54.5 18t45.5 29.5t32 41.5l53 -26q-15 -32 -41 -56t-58.5 -40t-69.5 -24t-75 -8q-50 0 -97 13.5t-84 40.5t-59.5 67t-22.5 94v298q0 53 23 93.5t60.5 67.5t85 40.5t97.5 13.5z" />
    <glyph glyph-name="cdotaccent" unicode="&#x10b;" horiz-adv-x="461" 
d="M203 633q0 20 14 34t34 14t34 -14t14 -34t-14 -34t-34 -14t-34 14t-14 34zM248 474q-26 0 -51.5 -6.5t-45 -20t-31.5 -34t-12 -49.5v-210q0 -29 12 -49.5t31.5 -34t45 -20t51.5 -6.5q45 0 84.5 19.5t51.5 60.5l51 -23q-10 -28 -29.5 -49t-44.5 -34.5t-54 -20.5t-59 -7
q-36 0 -71.5 10.5t-63 31.5t-44.5 52.5t-17 73.5v202q0 42 17 73.5t44.5 52.5t63 31.5t71.5 10.5q54 0 102.5 -22t74.5 -67l-47 -28q-17 32 -53 47.5t-77 15.5z" />
    <glyph glyph-name="Ccaron" unicode="&#x10c;" horiz-adv-x="593" 
d="M175 869h66l79 -76l74 76h67l-108 -113h-70zM325 718q37 0 74 -8t69 -23.5t57.5 -39.5t40.5 -56l-53 -26v-1q-12 24 -32 41.5t-45.5 29.5t-54.5 18t-59 6q-38 0 -75 -10t-65.5 -29.5t-46 -48.5t-17.5 -68v-298q0 -39 17.5 -68.5t46 -49t65.5 -29t75 -9.5q30 0 59 6
t54.5 18t45.5 29.5t32 41.5l53 -26q-15 -32 -41 -56t-58.5 -40t-69.5 -24t-75 -8q-50 0 -97 13.5t-84 40.5t-59.5 67t-22.5 94v298q0 53 23 93.5t60.5 67.5t85 40.5t97.5 13.5z" />
    <glyph glyph-name="ccaron" unicode="&#x10d;" horiz-adv-x="461" 
d="M98 689h66l79 -76l74 76h67l-108 -113h-70zM248 474q-26 0 -51.5 -6.5t-45 -20t-31.5 -34t-12 -49.5v-210q0 -29 12 -49.5t31.5 -34t45 -20t51.5 -6.5q45 0 84.5 19.5t51.5 60.5l51 -23q-10 -28 -29.5 -49t-44.5 -34.5t-54 -20.5t-59 -7q-36 0 -71.5 10.5t-63 31.5
t-44.5 52.5t-17 73.5v202q0 42 17 73.5t44.5 52.5t63 31.5t71.5 10.5q54 0 102.5 -22t74.5 -67l-47 -28q-17 32 -53 47.5t-77 15.5z" />
    <glyph glyph-name="Dcaron" unicode="&#x10e;" horiz-adv-x="640" 
d="M168 869h66l79 -76l74 76h67l-108 -113h-70zM79 708h236q50 0 97.5 -12t85 -37t60 -64t22.5 -94v-295q0 -54 -22.5 -93t-60 -64t-85 -37t-97.5 -12h-236v708zM315 59q39 0 76 8t66 26t46.5 46t17.5 67v295q0 40 -17.5 68t-46.5 46t-66 26t-76 8h-177v-590h177z" />
    <glyph glyph-name="dcaron" unicode="&#x10f;" horiz-adv-x="524" 
d="M525 555h-39l25 153h50zM52 158v201q0 41 17 72.5t44.5 53t63 32t72.5 10.5q73 0 141 -31v214h56v-685q-48 -17 -98.5 -26t-101.5 -9q-36 1 -71 11.5t-62.5 31.5t-44 52t-16.5 73zM248 471q-26 0 -51.5 -7t-45 -20.5t-31 -34.5t-11.5 -49v-204q0 -28 11.5 -48.5t31 -34.5
t44 -21t50.5 -7q36 0 72.5 3.5t71.5 15.5v378q-33 14 -69.5 21.5t-72.5 7.5z" />
    <glyph glyph-name="Dcroat" unicode="&#x110;" horiz-adv-x="644" 
d="M83 708h236q50 0 97.5 -12t85 -37t60 -64t22.5 -94v-295q0 -54 -22.5 -93t-60 -64t-85 -37t-97.5 -12h-236v326h-63v50h63v332zM319 59q39 0 76 8t66 26t46.5 46t17.5 67v295q0 40 -17.5 68t-46.5 46t-66 26t-76 8h-177v-273h125v-50h-125v-267h177z" />
    <glyph glyph-name="dcroat" unicode="&#x111;" horiz-adv-x="512" 
d="M446 601v-576q-48 -17 -98.5 -26t-101.5 -9q-36 1 -71 11.5t-62.5 31.5t-44 52t-16.5 73v201q0 41 17 72.5t44.5 53t63 32t72.5 10.5q73 0 141 -31v105h-117v43h117v66h56v-66h61v-43h-61zM248 471q-26 0 -51.5 -7t-45 -20.5t-31 -34.5t-11.5 -49v-204q0 -28 11.5 -48.5
t31 -34.5t44 -21t50.5 -7q36 0 72.5 3.5t71.5 15.5v378q-33 14 -69.5 21.5t-72.5 7.5z" />
    <glyph glyph-name="Emacron" unicode="&#x112;" horiz-adv-x="569" 
d="M436 799h-247v58h247v-58zM138 384h355v-60h-355v-265h385v-59h-444v708h444v-59h-385v-265z" />
    <glyph glyph-name="emacron" unicode="&#x113;" 
d="M371 619h-247v58h247v-58zM109 156q0 -29 12 -50t31.5 -35t44.5 -20.5t52 -6.5q42 0 79 17t53 52l50 -23q-12 -25 -31 -44t-43.5 -31.5t-52 -18.5t-55.5 -6q-37 0 -72.5 10.5t-63 31.5t-44.5 52.5t-17 73.5v202q0 42 17 73.5t44.5 52.5t63 31.5t72.5 10.5
q36 0 71.5 -10.5t63 -31.5t44.5 -52.5t17 -73.5v-126h-336v-78zM389 364q0 28 -12 49t-31.5 34.5t-45 20t-51.5 6.5q-27 0 -52 -6.5t-45 -20t-31.5 -34.5t-11.5 -49v-83h280v83z" />
    <glyph glyph-name="Edotaccent" unicode="&#x116;" horiz-adv-x="569" 
d="M269 813q0 20 14 34t34 14t34 -14t14 -34t-14 -34t-34 -14t-34 14t-14 34zM138 384h355v-60h-355v-265h385v-59h-444v708h444v-59h-385v-265z" />
    <glyph glyph-name="edotaccent" unicode="&#x117;" 
d="M204 633q0 20 14 34t34 14t34 -14t14 -34t-14 -34t-34 -14t-34 14t-14 34zM109 156q0 -29 12 -50t31.5 -35t44.5 -20.5t52 -6.5q42 0 79 17t53 52l50 -23q-12 -25 -31 -44t-43.5 -31.5t-52 -18.5t-55.5 -6q-37 0 -72.5 10.5t-63 31.5t-44.5 52.5t-17 73.5v202
q0 42 17 73.5t44.5 52.5t63 31.5t72.5 10.5q36 0 71.5 -10.5t63 -31.5t44.5 -52.5t17 -73.5v-126h-336v-78zM389 364q0 28 -12 49t-31.5 34.5t-45 20t-51.5 6.5q-27 0 -52 -6.5t-45 -20t-31.5 -34.5t-11.5 -49v-83h280v83z" />
    <glyph glyph-name="Eogonek" unicode="&#x118;" horiz-adv-x="568" 
d="M481 -244q-38 0 -60 24.5t-22 62.5q0 16 6.5 36.5t17.5 41.5t25.5 41.5t31.5 37.5h-402v708h444v-59h-385v-265h355v-60h-355v-265h385v-59q-40 -45 -56 -86q-15 -36 -15 -58v-5q1 -17 11 -27.5t24 -13.5q5 -1 10 -1q10 0 21 4q17 6 33 21l16 -45q-16 -14 -36.5 -23.5
t-48.5 -9.5z" />
    <glyph glyph-name="eogonek" unicode="&#x119;" 
d="M109 156q0 -29 12 -50t31.5 -35t44.5 -20.5t52 -6.5q42 0 79 17t53 52l50 -23q-5 -11 -10.5 -20t-15 -19t-24.5 -23t-37 -31q-23 -18 -37 -39t-22.5 -41t-11 -37.5t-1.5 -28.5q1 -17 11 -27.5t24 -13.5q5 -1 10 -1q10 0 21 4q17 6 33 21l16 -45q-16 -14 -36.5 -23.5
t-48.5 -9.5q-38 0 -60 24.5t-22 62.5q0 32 17.5 70t58.5 81q-12 -2 -23.5 -3t-23.5 -1q-37 0 -72.5 10.5t-63 31.5t-44.5 52.5t-17 73.5v202q0 42 17 73.5t44.5 52.5t63 31.5t72.5 10.5q36 0 71.5 -10.5t63 -31.5t44.5 -52.5t17 -73.5v-133h-336v-71zM249 474
q-27 0 -52 -6.5t-45 -20t-31.5 -34.5t-11.5 -49v-88h280v88q0 28 -12 49t-31.5 34.5t-45 20t-51.5 6.5z" />
    <glyph glyph-name="Ecaron" unicode="&#x11a;" horiz-adv-x="569" 
d="M164 869h66l79 -76l74 76h67l-108 -113h-70zM138 384h355v-60h-355v-265h385v-59h-444v708h444v-59h-385v-265z" />
    <glyph glyph-name="ecaron" unicode="&#x11b;" 
d="M99 689h66l79 -76l74 76h67l-108 -113h-70zM109 156q0 -29 12 -50t31.5 -35t44.5 -20.5t52 -6.5q42 0 79 17t53 52l50 -23q-12 -25 -31 -44t-43.5 -31.5t-52 -18.5t-55.5 -6q-37 0 -72.5 10.5t-63 31.5t-44.5 52.5t-17 73.5v202q0 42 17 73.5t44.5 52.5t63 31.5
t72.5 10.5q36 0 71.5 -10.5t63 -31.5t44.5 -52.5t17 -73.5v-126h-336v-78zM389 364q0 28 -12 49t-31.5 34.5t-45 20t-51.5 6.5q-27 0 -52 -6.5t-45 -20t-31.5 -34.5t-11.5 -49v-83h280v83z" />
    <glyph glyph-name="Gbreve" unicode="&#x11e;" horiz-adv-x="634" 
d="M445 869q0 -53 -33 -85t-88 -32t-88 32t-33 85h47q0 -31 20.5 -50t53.5 -19t53.5 19t20.5 50h47zM324 718q37 0 74 -8t69 -24t57.5 -40t40.5 -56l-53 -26q-12 24 -32 41.5t-45 29.5t-54 18t-59 6q-38 0 -75 -10t-65.5 -29.5t-46 -48.5t-17.5 -68v-296q0 -39 17.5 -69
t47 -49.5t66.5 -29.5t76 -10t76 10t66 29.5t46.5 49.5t17.5 69v89h-217v59h276v-147q0 -54 -23 -95t-60 -68.5t-85 -41t-97 -13.5q-50 0 -97.5 13.5t-85 41t-60.5 68.5t-23 95v295q0 53 23 93.5t60 67.5t84.5 40.5t97.5 13.5z" />
    <glyph glyph-name="gbreve" unicode="&#x11f;" horiz-adv-x="507" 
d="M384 689q0 -53 -33 -85t-88 -32t-88 32t-33 85h47q0 -31 20.5 -50t53.5 -19t53.5 19t20.5 50h47zM245 -155q28 0 54 7.5t45 22.5t30.5 37.5t11.5 52.5v56q-33 -17 -68 -24t-71 -7q-37 0 -72 10.5t-62.5 31.5t-44 52.5t-16.5 72.5v205q0 41 16.5 72t43 52t61 31.5
t70.5 10.5q35 0 71.5 -6.5t71.5 -16.5l55 -17v-522q0 -42 -16.5 -74t-43.5 -54t-62 -33t-73 -11q-48 0 -93 16t-77 50l35 33q23 -24 59.5 -36t74.5 -12zM243 474q-26 0 -50 -7t-43 -20.5t-30.5 -34t-11.5 -48.5v-211q0 -27 11.5 -48t31 -34.5t44 -20.5t50.5 -7q35 1 71.5 8
t69.5 21v372q-23 10 -62 20t-81 10z" />
    <glyph glyph-name="Gdotaccent" unicode="&#x120;" horiz-adv-x="634" 
d="M279 813q0 20 14 34t34 14t34 -14t14 -34t-14 -34t-34 -14t-34 14t-14 34zM324 718q37 0 74 -8t69 -24t57.5 -40t40.5 -56l-53 -26q-12 24 -32 41.5t-45 29.5t-54 18t-59 6q-38 0 -75 -10t-65.5 -29.5t-46 -48.5t-17.5 -68v-296q0 -39 17.5 -69t47 -49.5t66.5 -29.5
t76 -10t76 10t66 29.5t46.5 49.5t17.5 69v89h-217v59h276v-147q0 -54 -23 -95t-60 -68.5t-85 -41t-97 -13.5q-50 0 -97.5 13.5t-85 41t-60.5 68.5t-23 95v295q0 53 23 93.5t60 67.5t84.5 40.5t97.5 13.5z" />
    <glyph glyph-name="gdotaccent" unicode="&#x121;" horiz-adv-x="507" 
d="M218 633q0 20 14 34t34 14t34 -14t14 -34t-14 -34t-34 -14t-34 14t-14 34zM245 -155q28 0 54 7.5t45 22.5t30.5 37.5t11.5 52.5v56q-33 -17 -68 -24t-71 -7q-37 0 -72 10.5t-62.5 31.5t-44 52.5t-16.5 72.5v205q0 41 16.5 72t43 52t61 31.5t70.5 10.5q35 0 71.5 -6.5
t71.5 -16.5l55 -17v-522q0 -42 -16.5 -74t-43.5 -54t-62 -33t-73 -11q-48 0 -93 16t-77 50l35 33q23 -24 59.5 -36t74.5 -12zM243 474q-26 0 -50 -7t-43 -20.5t-30.5 -34t-11.5 -48.5v-211q0 -27 11.5 -48t31 -34.5t44 -20.5t50.5 -7q35 1 71.5 8t69.5 21v372q-23 10 -62 20
t-81 10z" />
    <glyph glyph-name="Gcommaaccent" unicode="&#x122;" horiz-adv-x="634" 
d="M303 -242h-58l50 166h69zM324 718q37 0 74 -8t69 -24t57.5 -40t40.5 -56l-53 -26q-12 24 -32 41.5t-45 29.5t-54 18t-59 6q-38 0 -75 -10t-65.5 -29.5t-46 -48.5t-17.5 -68v-296q0 -39 17.5 -69t47 -49.5t66.5 -29.5t76 -10t76 10t66 29.5t46.5 49.5t17.5 69v89h-217v59
h276v-147q0 -54 -23 -95t-60 -68.5t-85 -41t-97 -13.5q-50 0 -97.5 13.5t-85 41t-60.5 68.5t-23 95v295q0 53 23 93.5t60 67.5t84.5 40.5t97.5 13.5z" />
    <glyph glyph-name="gcommaaccent" unicode="&#x123;" horiz-adv-x="507" 
d="M270 708h59l-37 -128h-70zM245 -155q28 0 54 7.5t45 22.5t30.5 37.5t11.5 52.5v56q-33 -17 -68 -24t-71 -7q-37 0 -72 10.5t-62.5 31.5t-44 52.5t-16.5 72.5v205q0 41 16.5 72t43 52t61 31.5t70.5 10.5q35 0 71.5 -6.5t71.5 -16.5l55 -17v-522q0 -42 -16.5 -74t-43.5 -54
t-62 -33t-73 -11q-48 0 -93 16t-77 50l35 33q23 -24 59.5 -36t74.5 -12zM243 474q-26 0 -50 -7t-43 -20.5t-30.5 -34t-11.5 -48.5v-211q0 -27 11.5 -48t31 -34.5t44 -20.5t50.5 -7q35 1 71.5 8t69.5 21v372q-23 10 -62 20t-81 10z" />
    <glyph glyph-name="Hbar" unicode="&#x126;" horiz-adv-x="699" 
d="M615 523v-523h-59v327h-413v-327h-59v523h-65v48h65v137h59v-137h413v137h59v-137h65v-48h-65zM143 523v-140h413v140h-413z" />
    <glyph glyph-name="hbar" unicode="&#x127;" horiz-adv-x="525" 
d="M264 528q37 0 72 -11t62.5 -32t44.5 -52t17 -72v-361h-56v364q0 28 -12 48.5t-31.5 34t-44.5 20.5t-51 7q-73 0 -141 -28v-446h-56v601h-71v43h71v64h56v-64h127v-43h-127v-104q67 31 140 31z" />
    <glyph glyph-name="Imacron" unicode="&#x12a;" horiz-adv-x="217" 
d="M9 839h194v-53h-194v53zM138 0h-59v708h59v-708z" />
    <glyph glyph-name="imacron" unicode="&#x12b;" horiz-adv-x="196" 
d="M1 669h194v-53h-194v53zM128 0h-60v518h60v-518z" />
    <glyph glyph-name="Iogonek" unicode="&#x12e;" horiz-adv-x="217" 
d="M97 -244q-38 0 -60 24.5t-22 62.5q0 16 6.5 36.5t17.5 41.5t25.5 41.5t31.5 37.5h-17v708h59v-708q-40 -45 -56 -86q-15 -36 -15 -58v-5q1 -17 11 -27.5t24 -13.5q5 -1 10 -1q10 0 21 4q17 6 33 21l16 -45q-16 -14 -36.5 -23.5t-48.5 -9.5z" />
    <glyph glyph-name="iogonek" unicode="&#x12f;" horiz-adv-x="192" 
d="M83 -244q-38 0 -60 24.5t-22 62.5q0 16 6.5 36.5t17.5 41.5t25.5 41.5t31.5 37.5h-14v518h56v-518q-40 -45 -56 -86q-15 -36 -15 -58v-5q1 -17 11 -27.5t24 -13.5q5 -1 10 -1q10 0 21 4q17 6 33 21l16 -45q-16 -14 -36.5 -23.5t-48.5 -9.5zM51 645q0 20 14 34t34 14
t34 -14t14 -34t-14 -34t-34 -14t-34 14t-14 34z" />
    <glyph glyph-name="Idotaccent" unicode="&#x130;" horiz-adv-x="217" 
d="M64 813q0 20 14 34t34 14t34 -14t14 -34t-14 -34t-34 -14t-34 14t-14 34zM138 0h-59v708h59v-708z" />
    <glyph glyph-name="dotlessi" unicode="&#x131;" horiz-adv-x="196" 
d="M128 0h-60v518h60v-518z" />
    <glyph glyph-name="IJ" unicode="&#x132;" horiz-adv-x="810" 
d="M441 708h295v-504q0 -53 -22 -93t-58 -67t-81.5 -40.5t-93.5 -13.5q-42 0 -82.5 11t-74 33t-57.5 54.5t-32 75.5l58 14q6 -32 24.5 -56.5t44.5 -40.5t57.5 -24t64.5 -8q36 0 71 10t62 29.5t43.5 49.5t16.5 69v442h-236v59zM138 0h-59v708h59v-708z" />
    <glyph glyph-name="ij" unicode="&#x133;" horiz-adv-x="384" 
d="M157 -136q54 0 78.5 30t24.5 84v540h56v-540q0 -79 -41 -124.5t-118 -45.5v56zM243 645q0 20 14 34t34 14t34 -14t14 -34t-14 -34t-34 -14t-34 14t-14 34zM51 645q0 20 14 34t34 14t34 -14t14 -34t-14 -34t-34 -14t-34 14t-14 34zM124 0h-60v518h60v-518z" />
    <glyph glyph-name="Kcommaaccent" unicode="&#x136;" horiz-adv-x="616" 
d="M318 -234h-52l45 150h62zM138 0h-59v708h59v-389l396 389h76l-341 -341l339 -367h-76l-305 325l-89 -89v-236z" />
    <glyph glyph-name="kcommaaccent" unicode="&#x137;" horiz-adv-x="483" 
d="M236 -234h-52l45 150h62zM124 0h-56v708h56v-462l273 272h70l-232 -234l230 -284h-69l-200 244l-72 -72v-172z" />
    <glyph glyph-name="Lacute" unicode="&#x139;" horiz-adv-x="508" 
d="M121 756h-58l69 113h80zM79 0v708h59v-649h354v-59h-413z" />
    <glyph glyph-name="lacute" unicode="&#x13a;" horiz-adv-x="229" 
d="M105 756h-58l69 113h80zM223 -10q-76 0 -117 43t-41 121v554h56v-554q0 -52 24.5 -80t77.5 -28v-56z" />
    <glyph glyph-name="Lcommaaccent" unicode="&#x13b;" horiz-adv-x="508" 
d="M275 -242h-58l50 166h69zM79 0v708h59v-649h354v-59h-413z" />
    <glyph glyph-name="lcommaaccent" unicode="&#x13c;" horiz-adv-x="229" 
d="M131 -234h-52l45 150h62zM223 -10q-76 0 -117 43t-41 121v554h56v-554q0 -52 24.5 -80t77.5 -28v-56z" />
    <glyph glyph-name="Lcaron" unicode="&#x13d;" horiz-adv-x="508" 
d="M346 518h-59l53 190h70zM79 0v708h59v-649h354v-59h-413z" />
    <glyph glyph-name="lcaron" unicode="&#x13e;" horiz-adv-x="240" 
d="M213 543h-44l36 156h54zM223 -10q-76 0 -117 43t-41 121v554h56v-554q0 -52 24.5 -80t77.5 -28v-56z" />
    <glyph glyph-name="Ldot" unicode="&#x13f;" horiz-adv-x="511" 
d="M273 356q0 20 14 34t34 14t34 -14t14 -34t-14 -34t-34 -14t-34 14t-14 34zM79 0v708h59v-649h354v-59h-413z" />
    <glyph glyph-name="ldot" unicode="&#x140;" horiz-adv-x="251" 
d="M175 355q0 20 14 34t34 14t34 -14t14 -34t-14 -34t-34 -14t-34 14t-14 34zM223 -10q-76 0 -117 43t-41 121v554h56v-554q0 -52 24.5 -80t77.5 -28v-56z" />
    <glyph glyph-name="Lslash" unicode="&#x141;" horiz-adv-x="520" 
d="M504 0h-413v299l-67 -34l-20 37l87 45v361h59v-331l117 60l20 -37l-137 -70v-271h354v-59z" />
    <glyph glyph-name="lslash" unicode="&#x142;" horiz-adv-x="258" 
d="M141 154q0 -52 24.5 -80t77.5 -28v-56q-76 0 -117 43t-41 121v118l-60 -34l-19 37l79 46v387h56v-355l82 48l19 -39l-101 -58v-150z" />
    <glyph glyph-name="Nacute" unicode="&#x143;" horiz-adv-x="689" 
d="M367 756h-58l69 113h80zM551 708h59v-708h-88l-384 617v-617h-59v708h72l400 -643v643z" />
    <glyph glyph-name="nacute" unicode="&#x144;" horiz-adv-x="522" 
d="M277 576h-58l69 113h80zM457 361v-361h-56v363q0 28 -12 49t-31.5 35t-43.5 20.5t-49 6.5q-42 0 -81 -10t-62 -20v-444h-56v487q48 17 98 29t101 12q36 -1 70.5 -11.5t61.5 -31t43.5 -51.5t16.5 -73z" />
    <glyph glyph-name="Ncommaaccent" unicode="&#x145;" horiz-adv-x="689" 
d="M323 -242h-58l50 166h69zM551 708h59v-708h-88l-384 617v-617h-59v708h72l400 -643v643z" />
    <glyph glyph-name="ncommaaccent" unicode="&#x146;" horiz-adv-x="522" 
d="M239 -242h-58l50 166h69zM457 361v-361h-56v363q0 28 -12 49t-31.5 35t-43.5 20.5t-49 6.5q-42 0 -81 -10t-62 -20v-444h-56v487q48 17 98 29t101 12q36 -1 70.5 -11.5t61.5 -31t43.5 -51.5t16.5 -73z" />
    <glyph glyph-name="Ncaron" unicode="&#x147;" horiz-adv-x="689" 
d="M195 869h66l79 -76l74 76h67l-108 -113h-70zM551 708h59v-708h-88l-384 617v-617h-59v708h72l400 -643v643z" />
    <glyph glyph-name="ncaron" unicode="&#x148;" horiz-adv-x="522" 
d="M115 689h66l79 -76l74 76h67l-108 -113h-70zM457 361v-361h-56v363q0 28 -12 49t-31.5 35t-43.5 20.5t-49 6.5q-42 0 -81 -10t-62 -20v-444h-56v487q48 17 98 29t101 12q36 -1 70.5 -11.5t61.5 -31t43.5 -51.5t16.5 -73z" />
    <glyph glyph-name="Eng" unicode="&#x14a;" horiz-adv-x="688" 
d="M609 -22q0 -79 -46 -124.5t-123 -45.5v56q54 0 83.5 30t29.5 84v22h-32l-384 617v-617h-59v708h72l400 -643v643h59v-730z" />
    <glyph glyph-name="eng" unicode="&#x14b;" horiz-adv-x="521" 
d="M456 361v-383q0 -79 -46 -124.5t-123 -45.5v56q54 0 83.5 30t29.5 84v385q0 28 -12 49t-31.5 35t-43.5 20.5t-49 6.5q-42 0 -81 -10t-62 -20v-444h-56v487q48 17 98 29t101 12q36 -1 70.5 -11.5t61.5 -31t43.5 -51.5t16.5 -73z" />
    <glyph glyph-name="Omacron" unicode="&#x14c;" horiz-adv-x="677" 
d="M461 799h-247v58h247v-58zM58 500q0 54 24 95t63.5 68.5t90 41t103.5 13.5q52 0 102.5 -13.5t90 -41t63.5 -68.5t24 -95v-292q0 -54 -24 -95t-63.5 -68.5t-90 -41t-102.5 -13.5q-53 0 -103.5 13.5t-90 41t-63.5 68.5t-24 95v292zM117 208q0 -40 19 -69.5t50.5 -49.5
t71 -30t81.5 -10q41 0 81 10t71 30t50 49.5t19 69.5v292q0 42 -19 72t-50.5 49.5t-71.5 28.5t-82 9q-41 0 -80.5 -9.5t-70.5 -29t-50 -49.5t-19 -71v-292z" />
    <glyph glyph-name="omacron" unicode="&#x14d;" horiz-adv-x="497" 
d="M371 619h-247v58h247v-58zM52 359q0 42 17 73.5t44.5 52.5t63 32t72.5 11t72 -11t62.5 -32t44.5 -52.5t17 -73.5v-200q0 -42 -17 -74t-44.5 -53t-62.5 -31.5t-72 -10.5t-72.5 10.5t-63 31.5t-44.5 53t-17 74v200zM249 474q-26 0 -51 -6.5t-45 -20t-32.5 -34.5t-12.5 -51
v-205q0 -30 12.5 -51t32.5 -35t45 -20.5t51 -6.5q25 0 50 6.5t45 20.5t32.5 35t12.5 51v205q0 30 -12.5 51t-32.5 34.5t-45 20t-50 6.5z" />
    <glyph glyph-name="Ohungarumlaut" unicode="&#x150;" horiz-adv-x="677" 
d="M286 773h-50l49 113h80zM432 773h-50l49 113h80zM58 500q0 54 24 95t63.5 68.5t90 41t103.5 13.5q52 0 102.5 -13.5t90 -41t63.5 -68.5t24 -95v-292q0 -54 -24 -95t-63.5 -68.5t-90 -41t-102.5 -13.5q-53 0 -103.5 13.5t-90 41t-63.5 68.5t-24 95v292zM117 208
q0 -40 19 -69.5t50.5 -49.5t71 -30t81.5 -10q41 0 81 10t71 30t50 49.5t19 69.5v292q0 42 -19 72t-50.5 49.5t-71.5 28.5t-82 9q-41 0 -80.5 -9.5t-70.5 -29t-50 -49.5t-19 -71v-292z" />
    <glyph glyph-name="ohungarumlaut" unicode="&#x151;" horiz-adv-x="497" 
d="M196 576h-40l49 113h70zM322 576h-40l49 113h70zM52 359q0 42 17 73.5t44.5 52.5t63 32t72.5 11t72 -11t62.5 -32t44.5 -52.5t17 -73.5v-200q0 -42 -17 -74t-44.5 -53t-62.5 -31.5t-72 -10.5t-72.5 10.5t-63 31.5t-44.5 53t-17 74v200zM249 474q-26 0 -51 -6.5t-45 -20
t-32.5 -34.5t-12.5 -51v-205q0 -30 12.5 -51t32.5 -35t45 -20.5t51 -6.5q25 0 50 6.5t45 20.5t32.5 35t12.5 51v205q0 30 -12.5 51t-32.5 34.5t-45 20t-50 6.5z" />
    <glyph glyph-name="OE" unicode="&#x152;" horiz-adv-x="924" 
d="M534 649v-267h313v-59h-313v-264h344v-59h-403v18q-32 -17 -69.5 -22.5t-74.5 -5.5q-52 0 -101 14t-87.5 41.5t-61.5 68t-23 93.5v294q0 54 24 94.5t63 67.5t89 41t102 14q36 0 73 -6.5t66 -26.5v23h403v-59h-344zM346 659h-9q-41 0 -80.5 -9t-70.5 -28.5t-50 -49.5
t-19 -71v-294q0 -57 38 -94t93 -53q43 -12 89 -12q14 0 28 2q62 4 110 30v551q-29 15 -65 22q-31 6 -64 6z" />
    <glyph glyph-name="oe" unicode="&#x153;" horiz-adv-x="823" 
d="M52 360q0 42 17 73.5t44.5 52t62.5 31t71 10.5q51 0 98 -23t69 -71q9 25 26.5 43t41 29.5t49.5 17t51 5.5q36 0 71.5 -10.5t63 -31.5t44.5 -52.5t17 -73.5v-128l-336 1v-72q0 -29 12.5 -50.5t32.5 -35t45 -20t50 -6.5q42 0 79 17t53 52l50 -26q-12 -25 -31 -44t-43.5 -32
t-52 -19.5t-55.5 -6.5q-51 0 -98 22.5t-70 70.5q-23 -48 -70 -70t-97 -23q-36 0 -71 10.5t-62.5 31.5t-44.5 52t-17 73v203zM247 474q-25 0 -50 -6.5t-44.5 -20t-32 -34.5t-12.5 -50v-206q0 -29 12.5 -50t32 -34.5t44.5 -20t50 -6.5t50 7t44.5 21t32 35.5t12.5 50.5v204
q0 29 -12.5 49.5t-32.5 34t-44.5 20t-49.5 6.5zM722 363q0 28 -12 49t-31.5 34.5t-45 20.5t-51.5 7t-51 -6.5t-44.5 -20t-32 -34.5t-12.5 -51v-80l280 -1v82z" />
    <glyph glyph-name="Racute" unicode="&#x154;" horiz-adv-x="618" 
d="M336 756h-58l69 113h80zM138 300v-300h-59v708h267q50 0 93 -11.5t74.5 -36.5t50 -64t19.5 -94q0 -55 -19 -93.5t-51.5 -62.5t-75 -35t-90.5 -11h-2l237 -300h-73l-232 300h-139zM347 354q41 0 73.5 7.5t55.5 24.5t35.5 45.5t12.5 70.5t-13 70t-36.5 45t-56 24.5
t-71.5 7.5h-209v-295h209z" />
    <glyph glyph-name="racute" unicode="&#x155;" horiz-adv-x="302" 
d="M206 569h-58l69 113h80zM251 528q9 0 18.5 -0.5t19.5 -1.5v-56q-17 4 -32 4h-4q-17 -1 -36 -5q-39 -9 -67.5 -35.5t-28.5 -72.5v-361h-56v361q0 46 19 78t47 51.5t60.5 28.5t59.5 9z" />
    <glyph glyph-name="Rcommaaccent" unicode="&#x156;" horiz-adv-x="618" 
d="M295 -242h-58l50 166h69zM138 300v-300h-59v708h267q50 0 93 -11.5t74.5 -36.5t50 -64t19.5 -94q0 -55 -19 -93.5t-51.5 -62.5t-75 -35t-90.5 -11h-2l237 -300h-73l-232 300h-139zM347 354q41 0 73.5 7.5t55.5 24.5t35.5 45.5t12.5 70.5t-13 70t-36.5 45t-56 24.5
t-71.5 7.5h-209v-295h209z" />
    <glyph glyph-name="rcommaaccent" unicode="&#x157;" horiz-adv-x="302" 
d="M79 -240h-52l39 137h62zM251 528q9 0 18.5 -0.5t19.5 -1.5v-56q-17 4 -32 4h-4q-17 -1 -36 -5q-39 -9 -67.5 -35.5t-28.5 -72.5v-361h-56v361q0 46 19 78t47 51.5t60.5 28.5t59.5 9z" />
    <glyph glyph-name="Rcaron" unicode="&#x158;" horiz-adv-x="618" 
d="M168 869h66l79 -76l74 76h67l-108 -113h-70zM138 300v-300h-59v708h267q50 0 93 -11.5t74.5 -36.5t50 -64t19.5 -94q0 -55 -19 -93.5t-51.5 -62.5t-75 -35t-90.5 -11h-2l237 -300h-73l-232 300h-139zM347 354q41 0 73.5 7.5t55.5 24.5t35.5 45.5t12.5 70.5t-13 70
t-36.5 45t-56 24.5t-71.5 7.5h-209v-295h209z" />
    <glyph glyph-name="rcaron" unicode="&#x159;" horiz-adv-x="302" 
d="M59 676h66l79 -76l74 76h67l-108 -113h-70zM251 528q9 0 18.5 -0.5t19.5 -1.5v-56q-17 4 -32 4h-4q-17 -1 -36 -5q-39 -9 -67.5 -35.5t-28.5 -72.5v-361h-56v361q0 46 19 78t47 51.5t60.5 28.5t59.5 9z" />
    <glyph glyph-name="Sacute" unicode="&#x15a;" horiz-adv-x="591" 
d="M306 756h-58l69 113h80zM106 526q0 -30 13 -50q15 -24 42 -39.5t62.5 -24.5t74.5 -16q46 -9 91.5 -20.5t81.5 -35t57 -62.5q18 -34 18 -87v-15q-2 -47 -24.5 -81.5t-57.5 -58t-79.5 -35t-91.5 -11.5q-40 0 -79 8.5t-73 26t-61 43t-42 59.5l54 24q11 -26 32 -45
t48.5 -31.5t59 -19t63.5 -6.5q35 0 68.5 8t60 24t43.5 40t20 57v13q0 35 -13 59q-16 28 -45 45.5t-67 27.5t-79 19q-44 9 -86.5 20t-76 32t-53.5 55q-18 31 -18 79v10q1 45 22.5 78.5t55.5 56t77.5 34t89.5 11.5q39 0 77.5 -8.5t72 -25t59.5 -41.5t41 -58l-53 -24
q-11 25 -31.5 43.5t-47 31t-57 18.5t-61.5 6q-35 0 -67.5 -7.5t-58.5 -22.5t-42.5 -38t-18.5 -54q-1 -6 -1 -12z" />
    <glyph glyph-name="sacute" unicode="&#x15b;" horiz-adv-x="440" 
d="M246 576h-58l69 113h80zM234 44q21 0 42 4.5t37.5 15.5t26 29t9.5 45q0 26 -11 43t-28.5 28t-38.5 16.5t-41 9.5q-32 6 -64 14.5t-57.5 24.5t-42 41.5t-16.5 65.5q0 39 17 67t44 46t59.5 26t63.5 8q40 0 78.5 -13t66.5 -39l-36 -42q-22 23 -50 31.5t-59 8.5
q-20 0 -42.5 -4.5t-42 -15t-32 -28.5t-12.5 -45q0 -26 14 -42.5t34.5 -26.5t43.5 -15t43 -9q30 -6 59.5 -16t53 -27t38 -43t14.5 -64q0 -39 -14.5 -66.5t-38.5 -45.5t-54.5 -26.5t-63.5 -9.5h-8q-57 0 -106 26q-52 27 -86 81l43 27q29 -40 70.5 -60t86.5 -20z" />
    <glyph glyph-name="Scedilla" unicode="&#x15e;" horiz-adv-x="591" 
d="M546 191v-15q-2 -44 -22 -77t-51.5 -56.5t-72 -36t-84.5 -15.5l-30 -59l1 -2q11 1 20 1q35 0 56 -17q25 -20 25 -59v-6q-1 -24 -11.5 -42t-26.5 -29t-35.5 -16.5t-38.5 -5.5q-45 0 -88 20l13 37q18 -9 35 -13t38 -4q25 0 45 13q22 14 22 44q0 19 -9 29q-11 12 -26 15
q-9 2 -18 2q-7 0 -14 -1q-17 -3 -27 -8l-14 14l46 86q-38 1 -75 10.5t-69.5 27t-57.5 42t-39 57.5l54 24q11 -26 32 -45t48.5 -31.5t59 -19t63.5 -6.5q35 0 68.5 8t60 24t43.5 40t20 57v13q0 35 -13 59q-16 28 -45 45.5t-67 27.5t-79 19q-44 9 -86.5 20t-76 32t-53.5 55
q-18 31 -18 79v10q1 45 22.5 78.5t55.5 56t77.5 34t89.5 11.5q39 0 77.5 -8.5t72 -25t59.5 -41.5t41 -58l-53 -24q-11 25 -31.5 43.5t-47 31t-57 18.5t-61.5 6q-35 0 -67.5 -7.5t-58.5 -22.5t-42.5 -38t-18.5 -54q-1 -6 -1 -12q0 -30 13 -50q15 -24 42 -39.5t62.5 -24.5
t74.5 -16q46 -9 91.5 -20.5t81.5 -35t57 -62.5q18 -34 18 -87z" />
    <glyph glyph-name="scedilla" unicode="&#x15f;" horiz-adv-x="440" 
d="M405 138q0 -37 -13 -63.5t-35 -44.5t-51 -27.5t-60 -11.5l-30 -59l1 -2q11 1 20 1q35 0 56 -17q25 -20 25 -59v-6q-1 -24 -11.5 -42t-26.5 -29t-35.5 -16.5t-38.5 -5.5q-45 0 -88 20l13 37q18 -9 35 -13t38 -4q25 0 45 13q22 14 22 44q0 19 -9 29q-11 12 -26 15
q-9 2 -18 2q-7 0 -14 -1q-17 -3 -27 -8l-14 14l46 87q-54 4 -99.5 30.5t-75.5 75.5l43 27q29 -40 70.5 -60t86.5 -20q21 0 42 4.5t37.5 15.5t26 29t9.5 45q0 26 -11 43t-28.5 28t-38.5 16.5t-41 9.5q-32 6 -64 14.5t-57.5 24.5t-42 41.5t-16.5 65.5q0 39 17 67t44 46
t59.5 26t63.5 8q40 0 78.5 -13t66.5 -39l-36 -42q-22 23 -50 31.5t-59 8.5q-20 0 -42.5 -4.5t-42 -15t-32 -28.5t-12.5 -45q0 -26 14 -42.5t34.5 -26.5t43.5 -15t43 -9q30 -6 59.5 -16t53 -27t38 -43t14.5 -64z" />
    <glyph glyph-name="Scaron" unicode="&#x160;" horiz-adv-x="591" 
d="M144 869h66l79 -76l74 76h67l-108 -113h-70zM106 526q0 -30 13 -50q15 -24 42 -39.5t62.5 -24.5t74.5 -16q46 -9 91.5 -20.5t81.5 -35t57 -62.5q18 -34 18 -87v-15q-2 -47 -24.5 -81.5t-57.5 -58t-79.5 -35t-91.5 -11.5q-40 0 -79 8.5t-73 26t-61 43t-42 59.5l54 24
q11 -26 32 -45t48.5 -31.5t59 -19t63.5 -6.5q35 0 68.5 8t60 24t43.5 40t20 57v13q0 35 -13 59q-16 28 -45 45.5t-67 27.5t-79 19q-44 9 -86.5 20t-76 32t-53.5 55q-18 31 -18 79v10q1 45 22.5 78.5t55.5 56t77.5 34t89.5 11.5q39 0 77.5 -8.5t72 -25t59.5 -41.5t41 -58
l-53 -24q-11 25 -31.5 43.5t-47 31t-57 18.5t-61.5 6q-35 0 -67.5 -7.5t-58.5 -22.5t-42.5 -38t-18.5 -54q-1 -6 -1 -12z" />
    <glyph glyph-name="scaron" unicode="&#x161;" horiz-adv-x="440" 
d="M84 689h66l79 -76l74 76h67l-108 -113h-70zM234 44q21 0 42 4.5t37.5 15.5t26 29t9.5 45q0 26 -11 43t-28.5 28t-38.5 16.5t-41 9.5q-32 6 -64 14.5t-57.5 24.5t-42 41.5t-16.5 65.5q0 39 17 67t44 46t59.5 26t63.5 8q40 0 78.5 -13t66.5 -39l-36 -42q-22 23 -50 31.5
t-59 8.5q-20 0 -42.5 -4.5t-42 -15t-32 -28.5t-12.5 -45q0 -26 14 -42.5t34.5 -26.5t43.5 -15t43 -9q30 -6 59.5 -16t53 -27t38 -43t14.5 -64q0 -39 -14.5 -66.5t-38.5 -45.5t-54.5 -26.5t-63.5 -9.5h-8q-57 0 -106 26q-52 27 -86 81l43 27q29 -40 70.5 -60t86.5 -20z" />
    <glyph glyph-name="Tcommaaccent" unicode="&#x162;" horiz-adv-x="559" 
d="M258 -242h-58l50 166h69zM14 0zM545 651h-236v-651h-59v651h-236v57h531v-57z" />
    <glyph glyph-name="tcommaaccent" unicode="&#x163;" horiz-adv-x="263" 
d="M142 -229h-54l46 153h64zM65 157v479h49l7 -118h112v-50h-112v-311q0 -27 6 -50.5t21 -40t39.5 -23.5t61.5 -1v-50q-47 -8 -81.5 1.5t-57 31.5t-34 56t-11.5 76zM65 0z" />
    <glyph glyph-name="Tcaron" unicode="&#x164;" horiz-adv-x="559" 
d="M130 869h66l79 -76l74 76h67l-108 -113h-70zM545 651h-236v-651h-59v651h-236v57h531v-57z" />
    <glyph glyph-name="tcaron" unicode="&#x165;" horiz-adv-x="263" 
d="M230 568h-47l38 140h56zM209 -12q-23 0 -41 6q-35 9 -57.5 31t-34 56t-11.5 76v479h49l7 -118h112v-50h-112v-311q0 -27 6 -50.5t21 -40t40 -23.5q13 -4 30 -4q14 0 31 3v-50q-21 -4 -40 -4z" />
    <glyph glyph-name="Tbar" unicode="&#x166;" horiz-adv-x="565" 
d="M312 394h105v-48h-105v-346h-59v346h-106v48h106v257h-236v57h531v-57h-236v-257z" />
    <glyph glyph-name="tbar" unicode="&#x167;" horiz-adv-x="268" 
d="M214 -12q-23 0 -42 6q-34 9 -56.5 31t-34 56t-11.5 76v132h-54v43h54v304h49l7 -118h112v-50h-112v-136h93v-43h-93v-132q0 -27 6 -50.5t21 -40t39 -23.5q14 -4 31 -4q14 0 31 3v-50q-21 -4 -40 -4z" />
    <glyph glyph-name="Umacron" unicode="&#x16a;" horiz-adv-x="679" 
d="M462 799h-247v58h247v-58zM133 210q0 -40 17.5 -70t47 -50.5t66.5 -30.5t76 -10t76 10t66 30.5t46.5 50.5t17.5 70v498h59v-497q0 -55 -23 -96.5t-60 -69t-85 -41.5t-97 -14q-50 0 -97.5 14t-85 41.5t-60.5 69t-23 96.5v497h59v-498z" />
    <glyph glyph-name="umacron" unicode="&#x16b;" horiz-adv-x="521" 
d="M382 609h-247v58h247v-58zM256 -10q-36 0 -70.5 10.5t-61.5 31.5t-43.5 52t-16.5 73v362h56v-365q0 -27 11.5 -47.5t30.5 -34.5t43.5 -21t50.5 -7q42 0 81 10.5t62 20.5v444h56v-489l-56 -17q-35 -10 -71.5 -16.5t-71.5 -6.5z" />
    <glyph glyph-name="Uring" unicode="&#x16e;" horiz-adv-x="679" 
d="M247 827q0 19 7.5 35.5t20 29t29.5 19.5t36 7t36 -7t29.5 -19.5t20 -29t7.5 -35.5t-7.5 -35.5t-20 -29t-29.5 -19.5t-36 -7t-36 7t-29.5 19.5t-20 29t-7.5 35.5zM393 827q0 23 -15.5 39.5t-37.5 16.5q-23 0 -39 -16.5t-16 -39.5t16 -39.5t39 -16.5q22 0 37.5 16.5
t15.5 39.5zM133 210q0 -40 17.5 -70t47 -50.5t66.5 -30.5t76 -10t76 10t66 30.5t46.5 50.5t17.5 70v498h59v-497q0 -55 -23 -96.5t-60 -69t-85 -41.5t-97 -14q-50 0 -97.5 14t-85 41.5t-60.5 69t-23 96.5v497h59v-498z" />
    <glyph glyph-name="uring" unicode="&#x16f;" horiz-adv-x="521" 
d="M173 634q0 19 7.5 35.5t20 29t29.5 19.5t36 7t36 -7t29.5 -19.5t20 -29t7.5 -35.5t-7.5 -35.5t-20 -29t-29.5 -19.5t-36 -7t-36 7t-29.5 19.5t-20 29t-7.5 35.5zM319 634q0 23 -15.5 39.5t-37.5 16.5q-23 0 -39 -16.5t-16 -39.5t16 -39.5t39 -16.5q22 0 37.5 16.5
t15.5 39.5zM256 -10q-36 0 -70.5 10.5t-61.5 31.5t-43.5 52t-16.5 73v362h56v-365q0 -27 11.5 -47.5t30.5 -34.5t43.5 -21t50.5 -7q42 0 81 10.5t62 20.5v444h56v-489l-56 -17q-35 -10 -71.5 -16.5t-71.5 -6.5z" />
    <glyph glyph-name="Uhungarumlaut" unicode="&#x170;" horiz-adv-x="679" 
d="M297 756h-40l49 113h70zM423 756h-40l49 113h70zM133 210q0 -40 17.5 -70t47 -50.5t66.5 -30.5t76 -10t76 10t66 30.5t46.5 50.5t17.5 70v498h59v-497q0 -55 -23 -96.5t-60 -69t-85 -41.5t-97 -14q-50 0 -97.5 14t-85 41.5t-60.5 69t-23 96.5v497h59v-498z" />
    <glyph glyph-name="uhungarumlaut" unicode="&#x171;" horiz-adv-x="521" 
d="M217 566h-40l49 113h70zM343 566h-40l49 113h70zM256 -10q-36 0 -70.5 10.5t-61.5 31.5t-43.5 52t-16.5 73v362h56v-365q0 -27 11.5 -47.5t30.5 -34.5t43.5 -21t50.5 -7q42 0 81 10.5t62 20.5v444h56v-489l-56 -17q-35 -10 -71.5 -16.5t-71.5 -6.5z" />
    <glyph glyph-name="Uogonek" unicode="&#x172;" horiz-adv-x="679" 
d="M605 211q0 -34 -8 -62t-25.5 -53t-44.5 -48.5t-65 -49.5q-24 -16 -39 -37t-23.5 -41.5t-11 -39t-1.5 -29.5q1 -17 11 -27.5t24 -13.5q5 -1 10 -1q10 0 21 4q17 6 33 21l16 -45q-16 -14 -36.5 -23.5t-48.5 -9.5q-38 0 -60 24.5t-22 62.5q0 16 5.5 37t16 42.5t25 41
t32.5 34.5q-38 -8 -74 -8q-50 0 -97.5 14t-85 41.5t-60.5 69t-23 96.5v497h59v-498q0 -40 17.5 -70t47 -50.5t66.5 -30.5t76 -10t76 10t66 30.5t46.5 50.5t17.5 70v498h59v-497z" />
    <glyph glyph-name="uogonek" unicode="&#x173;" horiz-adv-x="522" 
d="M256 -10q-36 0 -70.5 10.5t-61.5 31.5t-43.5 52t-16.5 73v362h56v-365q0 -27 11.5 -47.5t30.5 -34.5t43.5 -21t50.5 -7q42 0 81 10.5t62 20.5v444h56v-489q-30 -36 -49 -64t-29.5 -49.5t-13.5 -37.5t-2 -28q1 -17 11 -27.5t24 -13.5q5 -1 10 -1q10 0 21 4q17 6 33 21
l16 -45q-16 -14 -36.5 -23.5t-48.5 -9.5q-38 0 -60 24.5t-22 62.5q0 16 7 37.5t18.5 44t26.5 44t32 38.5l-2 4q-33 -9 -67.5 -15t-67.5 -6z" />
    <glyph glyph-name="Wcircumflex" unicode="&#x174;" horiz-adv-x="941" 
d="M607 756h-63l-75 78l-70 -78h-64l103 113h66zM865 708h62l-205 -708h-86l-165 522l-166 -522h-86l-205 708h62l186 -664l180 571h57l180 -571z" />
    <glyph glyph-name="wcircumflex" unicode="&#x175;" horiz-adv-x="723" 
d="M498 566h-63l-75 78l-70 -78h-64l103 113h66zM174 0l-156 518h59l137 -460l112 460h71l112 -460l137 460h59l-156 -518h-80l-107 443l-108 -443h-80z" />
    <glyph glyph-name="Ycircumflex" unicode="&#x176;" horiz-adv-x="559" 
d="M416 756h-63l-75 78l-70 -78h-64l103 113h66zM309 0h-59v277l-246 431h69l207 -372l206 372h70l-247 -431v-277z" />
    <glyph glyph-name="ycircumflex" unicode="&#x177;" horiz-adv-x="535" 
d="M407 566h-63l-75 78l-70 -78h-64l103 113h66zM264 -152q29 0 55.5 8t46.5 23.5t32 39t12 55.5v50q-33 -21 -69.5 -27t-74.5 -7q-38 0 -74.5 11t-65 33t-45.5 54.5t-17 74.5v355h58v-357q0 -29 12.5 -51t32.5 -37t45.5 -23t52.5 -8q74 0 145 31v445h57v-544
q0 -45 -16.5 -79t-44.5 -56.5t-64 -33.5t-76 -11q-51 0 -98.5 18t-78.5 52l39 36q26 -27 60.5 -39.5t75.5 -12.5z" />
    <glyph glyph-name="Ydieresis" unicode="&#x178;" horiz-adv-x="559" 
d="M329 813q0 20 14 34t34 14t34 -14t14 -34t-14 -34t-34 -14t-34 14t-14 34zM149 813q0 20 14 34t34 14t34 -14t14 -34t-14 -34t-34 -14t-34 14t-14 34zM309 0h-59v277l-246 431h69l207 -372l206 372h70l-247 -431v-277z" />
    <glyph glyph-name="Zacute" unicode="&#x179;" horiz-adv-x="577" 
d="M321 756h-58l69 113h80zM42 708h486l21 -45l-441 -604h431v-59h-497l-18 45l441 604h-423v59z" />
    <glyph glyph-name="zacute" unicode="&#x17a;" horiz-adv-x="464" 
d="M248 576h-58l69 113h80zM45 518h361l23 -41l-323 -418h321v-59h-377l-24 40l326 424h-307v54z" />
    <glyph glyph-name="Zdotaccent" unicode="&#x17b;" horiz-adv-x="577" 
d="M256 813q0 20 14 34t34 14t34 -14t14 -34t-14 -34t-34 -14t-34 14t-14 34zM42 708h486l21 -45l-441 -604h431v-59h-497l-18 45l441 604h-423v59z" />
    <glyph glyph-name="zdotaccent" unicode="&#x17c;" horiz-adv-x="464" 
d="M191 633q0 20 14 34t34 14t34 -14t14 -34t-14 -34t-34 -14t-34 14t-14 34zM45 518h361l23 -41l-323 -418h321v-59h-377l-24 40l326 424h-307v54z" />
    <glyph glyph-name="Zcaron" unicode="&#x17d;" horiz-adv-x="577" 
d="M151 869h66l79 -76l74 76h67l-108 -113h-70zM42 708h486l21 -45l-441 -604h431v-59h-497l-18 45l441 604h-423v59z" />
    <glyph glyph-name="zcaron" unicode="&#x17e;" horiz-adv-x="464" 
d="M86 689h66l79 -76l74 76h67l-108 -113h-70zM45 518h361l23 -41l-323 -418h321v-59h-377l-24 40l326 424h-307v54z" />
    <glyph glyph-name="florin" unicode="&#x192;" horiz-adv-x="473" 
d="M36 -144q-21 0 -41.5 5t-37.5 19l30 47q11 -9 25 -13t28 -4q40 0 58.5 28.5t28.5 82.5l64 345h-108v53h117l28 152q5 26 14.5 52.5t26.5 47.5t42 34t60 13q49 0 90 -30l-32 -45q-13 9 -27.5 15t-30.5 6q-38 0 -57 -26.5t-26 -63.5l-28 -155h108v-53h-117l-72 -386
q-11 -58 -44.5 -91t-98.5 -33z" />
    <glyph glyph-name="Scommaaccent" unicode="&#x218;" horiz-adv-x="591" 
d="M271 -242h-58l50 166h69zM106 526q0 -30 13 -50q15 -24 42 -39.5t62.5 -24.5t74.5 -16q46 -9 91.5 -20.5t81.5 -35t57 -62.5q18 -34 18 -87v-15q-2 -47 -24.5 -81.5t-57.5 -58t-79.5 -35t-91.5 -11.5q-40 0 -79 8.5t-73 26t-61 43t-42 59.5l54 24q11 -26 32 -45
t48.5 -31.5t59 -19t63.5 -6.5q35 0 68.5 8t60 24t43.5 40t20 57v13q0 35 -13 59q-16 28 -45 45.5t-67 27.5t-79 19q-44 9 -86.5 20t-76 32t-53.5 55q-18 31 -18 79v10q1 45 22.5 78.5t55.5 56t77.5 34t89.5 11.5q39 0 77.5 -8.5t72 -25t59.5 -41.5t41 -58l-53 -24
q-11 25 -31.5 43.5t-47 31t-57 18.5t-61.5 6q-35 0 -67.5 -7.5t-58.5 -22.5t-42.5 -38t-18.5 -54q-1 -6 -1 -12z" />
    <glyph glyph-name="scommaaccent" unicode="&#x219;" horiz-adv-x="440" 
d="M214 -234h-52l45 150h62zM234 44q21 0 42 4.5t37.5 15.5t26 29t9.5 45q0 26 -11 43t-28.5 28t-38.5 16.5t-41 9.5q-32 6 -64 14.5t-57.5 24.5t-42 41.5t-16.5 65.5q0 39 17 67t44 46t59.5 26t63.5 8q40 0 78.5 -13t66.5 -39l-36 -42q-22 23 -50 31.5t-59 8.5
q-20 0 -42.5 -4.5t-42 -15t-32 -28.5t-12.5 -45q0 -26 14 -42.5t34.5 -26.5t43.5 -15t43 -9q30 -6 59.5 -16t53 -27t38 -43t14.5 -64q0 -39 -14.5 -66.5t-38.5 -45.5t-54.5 -26.5t-63.5 -9.5h-8q-57 0 -106 26q-52 27 -86 81l43 27q29 -40 70.5 -60t86.5 -20z" />
    <glyph glyph-name="uni021A" unicode="&#x21a;" horiz-adv-x="559" 
d="M258 -242h-58l50 166h69zM545 651h-236v-651h-59v651h-236v57h531v-57z" />
    <glyph glyph-name="uni021B" unicode="&#x21b;" horiz-adv-x="263" 
d="M142 -229h-54l46 153h64zM209 -12q-23 0 -41 6q-35 9 -57.5 31t-34 56t-11.5 76v479h49l7 -118h112v-50h-112v-311q0 -27 6 -50.5t21 -40t40 -23.5q13 -4 30 -4q14 0 31 3v-50q-21 -4 -40 -4z" />
    <glyph glyph-name="circumflex" unicode="&#x2c6;" horiz-adv-x="262" 
d="M264 756h-63l-75 78l-70 -78h-64l103 113h66z" />
    <glyph glyph-name="caron" unicode="&#x2c7;" horiz-adv-x="257" 
d="M-18 869h66l79 -76l74 76h67l-108 -113h-70z" />
    <glyph glyph-name="breve" unicode="&#x2d8;" horiz-adv-x="240" 
d="M229 869q0 -53 -33 -85t-88 -32t-88 32t-33 85h47q0 -31 20.5 -50t53.5 -19t53.5 19t20.5 50h47z" />
    <glyph glyph-name="dotaccent" unicode="&#x2d9;" horiz-adv-x="240" 
d="M78 813q0 20 14 34t34 14t34 -14t14 -34t-14 -34t-34 -14t-34 14t-14 34z" />
    <glyph glyph-name="ring" unicode="&#x2da;" horiz-adv-x="240" 
d="M28 827q0 19 7.5 35.5t20 29t29.5 19.5t36 7t36 -7t29.5 -19.5t20 -29t7.5 -35.5t-7.5 -35.5t-20 -29t-29.5 -19.5t-36 -7t-36 7t-29.5 19.5t-20 29t-7.5 35.5zM174 827q0 23 -15.5 39.5t-37.5 16.5q-23 0 -39 -16.5t-16 -39.5t16 -39.5t39 -16.5q22 0 37.5 16.5
t15.5 39.5z" />
    <glyph glyph-name="ogonek" unicode="&#x2db;" horiz-adv-x="240" 
d="M102 -244q-38 0 -60 24.5t-22 62.5q0 17 7 38t18.5 43t27 43t33.5 38l37 -5q-40 -45 -57 -86q-14 -36 -14 -58v-5q1 -17 11 -27.5t24 -13.5q5 -1 10 -1q10 0 21 4q17 6 33 21l16 -45q-16 -14 -36.5 -23.5t-48.5 -9.5z" />
    <glyph glyph-name="tilde" unicode="&#x2dc;" horiz-adv-x="271" 
d="M80 869q16 0 30 -7.5t27 -16.5t25.5 -16.5t24.5 -7.5q29 0 38 37l39 -15q-9 -34 -29 -53.5t-48 -19.5q-17 0 -31.5 7.5t-27 16.5t-25.5 16.5t-27 7.5q-25 0 -38 -38l-40 14q6 35 27.5 55t54.5 20z" />
    <glyph glyph-name="hungarumlaut" unicode="&#x2dd;" horiz-adv-x="273" 
d="M75 756h-40l49 113h70zM201 756h-40l49 113h70z" />
    <glyph glyph-name="uni0326" unicode="&#x326;" horiz-adv-x="0" 
d="M137 -242h-58l50 166h69z" />
    <glyph glyph-name="uni03A9" unicode="&#x3a9;" horiz-adv-x="777" 
d="M56 378q0 77 26.5 139.5t72.5 106.5t107.5 68t131.5 24q73 0 133.5 -26.5t103.5 -71.5t66.5 -106t23.5 -130q0 -57 -12.5 -106t-33.5 -90.5t-48.5 -74t-57.5 -54.5v-3h165v-54h-268v37q41 24 77 58.5t62.5 78.5t41.5 96.5t15 111.5q0 50 -18 100t-52.5 90t-85 65
t-114.5 25q-60 0 -110.5 -21.5t-87.5 -59.5t-57.5 -90.5t-20.5 -114.5q0 -56 15.5 -105.5t42.5 -92t63.5 -78.5t78.5 -63v-37h-272v54h166v3q-31 25 -59 58t-49 73.5t-33.5 88t-12.5 101.5z" />
    <glyph glyph-name="uni03BC" unicode="&#x3bc;" horiz-adv-x="534" 
d="M127 -228h-59v740h60v-322q0 -28 5 -54.5t17.5 -47.5t35 -33.5t58.5 -12.5q33 0 62.5 11.5t51 35t34 59t12.5 83.5v281h60l3 -512h-58q-1 26 -1.5 45.5t-2.5 26.5h-3q-18 -38 -59.5 -61t-98.5 -23q-41 0 -69 14.5t-48 42.5v-273z" />
    <glyph glyph-name="pi" unicode="&#x3c0;" horiz-adv-x="557" 
d="M391 139v333h-208v-472h-55v472q-46 0 -69 -4t-37 -9l-11 40q17 11 47 18t83 7h391l-6 -52h-77v-327q0 -50 11 -73q10 -20 38 -20h5l1 -53q-33 1 -55 12t-34.5 29t-18 43t-5.5 56z" />
    <glyph glyph-name="uni0401" unicode="&#x401;" horiz-adv-x="569" 
d="M363 813q0 20 14 34t34 14t34 -14t14 -34t-14 -34t-34 -14t-34 14t-14 34zM183 813q0 20 14 34t34 14t34 -14t14 -34t-14 -34t-34 -14t-34 14t-14 34zM138 384h355v-60h-355v-265h385v-59h-444v708h444v-59h-385v-265z" />
    <glyph glyph-name="uni0410" unicode="&#x410;" horiz-adv-x="609" 
d="M603 0h-62l-85 236h-304l-83 -236h-62l254 708h86zM173 295h262l-131 369z" />
    <glyph glyph-name="uni0411" unicode="&#x411;" horiz-adv-x="613" 
d="M346 409q55 0 98.5 -11.5t73.5 -37t45 -65t15 -95.5t-18 -94.5t-49 -62t-74 -33.5t-92 -10h-266v708h446v-58h-387v-241h208zM347 58q38 0 69.5 6.5t54.5 23t36 44t13 69.5q0 79 -43.5 116t-132.5 37h-206v-296h209z" />
    <glyph glyph-name="uni0412" unicode="&#x412;" horiz-adv-x="627" 
d="M347 0h-268v708h269q41 0 78 -11t64.5 -33t43.5 -56t16 -79q0 -48 -17 -88t-59 -64q62 -22 86 -69t24 -111q-1 -55 -19.5 -92.5t-50 -61t-74.5 -33.5t-93 -10zM348 405q31 0 57.5 6.5t46 21.5t30.5 38.5t11 57.5t-11.5 57t-31 37t-46 20t-56.5 6h-210v-244h210zM359 59
q33 0 61 5q32 6 55.5 22t36.5 43t13 69t-12.5 70.5t-35.5 46t-55.5 24.5t-73.5 7h-210v-287h210h11z" />
    <glyph glyph-name="uni0413" unicode="&#x413;" horiz-adv-x="514" 
d="M79 0v708h420v-58h-362v-650h-58z" />
    <glyph glyph-name="uni0414" unicode="&#x414;" horiz-adv-x="672" 
d="M582 -139v139h-516v-139h-56v197h23q34 5 58 29.5t39.5 72.5t25.5 122t18 178l18 248h379v-650h68v-197h-57zM512 58v592h-269l-16 -240q-10 -143 -32 -228.5t-62 -123.5h379z" />
    <glyph glyph-name="uni0415" unicode="&#x415;" horiz-adv-x="569" 
d="M138 384h355v-60h-355v-265h385v-59h-444v708h444v-59h-385v-265z" />
    <glyph glyph-name="uni0416" unicode="&#x416;" horiz-adv-x="897" 
d="M478 0h-58v255l-72 78l-261 -333h-77l293 372l-297 336h78l336 -380v380h58v-380l335 380h79l-297 -336l292 -372h-76l-261 333l-72 -78v-255z" />
    <glyph glyph-name="uni0417" unicode="&#x417;" horiz-adv-x="537" 
d="M261 718q93 0 145.5 -51t52.5 -139q0 -51 -19 -86.5t-68 -63.5q36 -14 59 -33.5t36.5 -42.5t19 -49.5t5.5 -55.5q-1 -56 -19.5 -95t-50 -64t-73.5 -36.5t-91 -11.5q-77 0 -138 28t-100 91l53 28q32 -46 78 -67.5t109 -21.5q38 0 70 8t55 26t36 46.5t13 69.5t-12.5 69.5
t-35 46.5t-54.5 26.5t-72 8.5h-92v53h92q62 0 102 29.5t40 95.5q0 34 -11 59t-30 41.5t-45.5 24.5t-57.5 8q-54 0 -94 -16.5t-69 -53.5l-49 26q38 55 92 78.5t123 23.5z" />
    <glyph glyph-name="uni0418" unicode="&#x418;" horiz-adv-x="682" 
d="M79 0v708h58v-548l-1 -80h1l47 73l349 555h70v-708h-58v613h-1l-40 -64l-349 -549h-76z" />
    <glyph glyph-name="uni0419" unicode="&#x419;" horiz-adv-x="682" 
d="M344 779q-31 0 -58.5 9.5t-48.5 28t-35 45t-18 59.5h58q9 -40 33 -63.5t69 -23.5t69 23.5t33 63.5h58q-9 -67 -53.5 -104.5t-106.5 -37.5zM79 0v708h58v-628h1l395 628h70v-708h-58v613h-1l-37 -59l-352 -554h-76z" />
    <glyph glyph-name="uni041A" unicode="&#x41a;" horiz-adv-x="616" 
d="M138 0h-59v708h59v-389l396 389h76l-341 -341l339 -367h-76l-305 325l-89 -89v-236z" />
    <glyph glyph-name="uni041B" unicode="&#x41b;" horiz-adv-x="655" 
d="M7 58q54 0 84.5 26.5t46 75.5t21.5 117.5t12 152.5l19 278h386v-708h-59v650h-271l-17 -250q-6 -84 -14.5 -157t-31 -127t-64 -85t-112.5 -31v58z" />
    <glyph glyph-name="uni041C" unicode="&#x41c;" horiz-adv-x="803" 
d="M138 0h-59v708h86l237 -535l236 535h86v-708h-59v626l-235 -529h-56l-236 529v-626z" />
    <glyph glyph-name="uni041D" unicode="&#x41d;" horiz-adv-x="689" 
d="M138 0h-59v708h59v-325h413v325h59v-708h-59v327h-413v-327z" />
    <glyph glyph-name="uni041E" unicode="&#x41e;" horiz-adv-x="665" 
d="M58 506q0 54 24 95t63.5 68.5t90 41t103.5 13.5q52 0 102.5 -13.5t90 -41t63.5 -68.5t24 -95v-292q0 -54 -24 -95t-63.5 -68.5t-90 -41t-102.5 -13.5q-53 0 -103.5 13.5t-90 41t-63.5 68.5t-24 95v292zM117 214q0 -40 19 -69.5t50.5 -49.5t71 -30t81.5 -10q41 0 81 10
t71 30t50 49.5t19 69.5v292q0 42 -19 72t-50.5 49.5t-71.5 28.5t-82 9q-41 0 -80.5 -9.5t-70.5 -29t-50 -49.5t-19 -71v-292z" />
    <glyph glyph-name="uni041F" unicode="&#x41f;" horiz-adv-x="670" 
d="M79 708h512v-708h-58v650h-396v-650h-58v708z" />
    <glyph glyph-name="uni0420" unicode="&#x420;" horiz-adv-x="613" 
d="M79 0v708h267q78 0 130 -33t78 -82q27 -48 27 -104q0 -59 -27 -109q-25 -49 -77 -82t-130 -33h-209v-265h-59zM346 324q59 0 98.5 24.5t58.5 60.5t19 78.5t-20 78.5t-59 60q-37 23 -92 23h-5h-208v-325h208z" />
    <glyph glyph-name="uni0421" unicode="&#x421;" horiz-adv-x="593" 
d="M325 718q37 0 74 -8t69 -23.5t57.5 -39.5t40.5 -56l-53 -26v-1q-12 24 -32 41.5t-45.5 29.5t-54.5 18t-59 6q-38 0 -75 -10t-65.5 -29.5t-46 -48.5t-17.5 -68v-298q0 -39 17.5 -68.5t46 -49t65.5 -29t75 -9.5q30 0 59 6t54.5 18t45.5 29.5t32 41.5l53 -26
q-15 -32 -41 -56t-58.5 -40t-69.5 -24t-75 -8q-50 0 -97 13.5t-84 40.5t-59.5 67t-22.5 94v298q0 53 23 93.5t60.5 67.5t85 40.5t97.5 13.5z" />
    <glyph glyph-name="uni0422" unicode="&#x422;" horiz-adv-x="559" 
d="M545 651h-236v-651h-59v651h-236v57h531v-57z" />
    <glyph glyph-name="uni0423" unicode="&#x423;" horiz-adv-x="509" 
d="M-10 708h69l198 -420h2l189 420h62l-319 -708h-63l100 221z" />
    <glyph glyph-name="uni0424" unicode="&#x424;" horiz-adv-x="723" 
d="M391 634q54 0 105.5 -8.5t91.5 -29.5t64.5 -56.5t24.5 -89.5v-192q0 -54 -24.5 -89.5t-64.5 -56.5t-91.5 -29t-105.5 -8v-75h-59v75q-54 0 -105.5 8t-91.5 29t-64.5 56.5t-24.5 89.5v192q0 54 24.5 89.5t64.5 56.5t91.5 29.5t105.5 8.5v74h59v-74zM104 450v-192
q0 -41 20 -66t52.5 -39t73.5 -19t82 -5l1 451q-41 0 -82 -5t-73.5 -19t-53 -39.5t-20.5 -66.5zM391 129q41 0 82 5t73.5 19t52.5 39t20 66v192q0 41 -21 66.5t-54 39.5t-73.5 19t-79.5 5v-451z" />
    <glyph glyph-name="uni0425" unicode="&#x425;" horiz-adv-x="573" 
d="M564 0h-71l-206 307l-207 -307h-71l243 353l-241 355h69l207 -303l206 303h70l-241 -355z" />
    <glyph glyph-name="uni0426" unicode="&#x426;" horiz-adv-x="681" 
d="M589 -139v139h-511v708h58v-650h385v650h59v-650h68v-197h-59z" />
    <glyph glyph-name="uni0427" unicode="&#x427;" horiz-adv-x="601" 
d="M277 232q-48 0 -90 13t-73.5 39.5t-49.5 67t-18 94.5v262h58v-262q0 -41 13.5 -70t37 -48.5t55 -28.5t67.5 -9q69 0 112 24t74 57v337h59v-708h-59v313q-36 -35 -81 -58t-105 -23z" />
    <glyph glyph-name="uni0428" unicode="&#x428;" horiz-adv-x="877" 
d="M137 708v-650h272v650h59v-650h272v650h58v-708h-719v708h58z" />
    <glyph glyph-name="uni0429" unicode="&#x429;" horiz-adv-x="898" 
d="M806 -139v139h-729v708h58v-650h272v650h59v-650h272v650h59v-650h67v-197h-58z" />
    <glyph glyph-name="uni042A" unicode="&#x42a;" horiz-adv-x="671" 
d="M406 425q111 0 172 -52q60 -51 60 -166q0 -60 -18 -98.5t-49.5 -62.5t-74 -35t-92.5 -11h-260v653h-128v55h186v-283h204zM407 58q38 0 69.5 7t54.5 24.5t36 45.5t13 70q0 85 -43.5 125.5t-133.5 40.5h-201v-313h205z" />
    <glyph glyph-name="uni042B" unicode="&#x42b;" horiz-adv-x="818" 
d="M739 0h-59v708h59v-708zM340 425q112 0 173 -52q60 -51 60 -166q0 -60 -18 -98.5t-49.5 -62.5t-74.5 -35t-92 -11h-260v708h58v-283h203zM342 58q37 0 69 7t54.5 24.5t35.5 45.5t13 70q0 85 -43 125.5t-133 40.5h-201v-313h205z" />
    <glyph glyph-name="uni042C" unicode="&#x42c;" horiz-adv-x="607" 
d="M340 425q112 0 173 -52q60 -51 60 -166q0 -60 -18 -98.5t-49.5 -62.5t-74.5 -35t-92 -11h-260v708h58v-283h203zM342 58q37 0 69 7t54.5 24.5t35.5 45.5t13 70q0 85 -43 125.5t-133 40.5h-201v-313h205z" />
    <glyph glyph-name="uni042D" unicode="&#x42d;" horiz-adv-x="590" 
d="M271 718q50 0 97 -13.5t83.5 -40.5t58.5 -67t22 -92v-302q0 -53 -22.5 -92.5t-59 -65.5t-83 -39.5t-94.5 -13.5q-36 0 -72 8t-68 23.5t-58 39t-42 55.5l52 25q13 -23 33.5 -40.5t45 -29t52.5 -17.5t57 -6q37 0 73 9.5t64 28.5t45.5 47.5t17.5 67.5v122h-324v58h324v122
q0 39 -17.5 68t-45.5 48.5t-64 29t-73 9.5q-29 0 -57 -6t-53 -18t-45 -30t-33 -41l-52 28q16 31 42 54.5t57.5 39.5t67 23.5t71.5 7.5z" />
    <glyph glyph-name="uni042E" unicode="&#x42e;" horiz-adv-x="913" 
d="M580 718q51 0 100.5 -13t88.5 -39.5t62.5 -66t23.5 -93.5v-302q0 -54 -23.5 -94t-62.5 -66.5t-88.5 -40t-100.5 -13.5t-100.5 13.5t-88 40t-62 66.5t-23.5 94v126h-171v-330h-58v708h58v-322h171v120q0 53 23.5 93t62 66.5t88 39.5t100.5 13zM579 661q-41 0 -79.5 -9.5
t-68.5 -28.5t-48.5 -48.5t-18.5 -69.5v-301q0 -39 18.5 -68.5t48.5 -49t69 -29t80 -9.5q40 0 79 9.5t70 29t49.5 49t18.5 68.5v301q0 41 -19 70.5t-49.5 48.5t-70 28t-79.5 9z" />
    <glyph glyph-name="uni042F" unicode="&#x42f;" horiz-adv-x="616" 
d="M42 497q0 101 63 156t175 55h257v-708h-59l1 298h-131l-254 -298h-77l256 298q-47 1 -89 12.5t-73.5 35.5t-50 61t-18.5 90zM272 651q-84 0 -127 -41q-44 -41 -44 -113q0 -39 15 -67t40 -45t57.5 -25t68.5 -8h197l-1 299h-202h-4z" />
    <glyph glyph-name="uni0430" unicode="&#x430;" horiz-adv-x="491" 
d="M373 363q0 28 -12 48.5t-32.5 34.5t-46 21t-52.5 7q-39 0 -75 -13t-56 -39l-38 36q32 35 79 52.5t96 17.5q37 0 72 -10.5t62 -31t43 -51.5t16 -72v-340q-102 -35 -212 -33q-38 0 -71 10t-57.5 30t-38.5 49.5t-14 70.5q0 44 17.5 74.5t45.5 50t63.5 28.5t72.5 9
q36 0 71.5 -7t66.5 -20v78zM237 264q-29 0 -55 -5.5t-46 -19t-32 -35t-12 -54.5q0 -59 36.5 -84t91.5 -26q38 -1 77 2.5t76 12.5v184q-26 10 -62 17.5t-74 7.5zM36 0z" />
    <glyph glyph-name="uni0431" unicode="&#x431;" horiz-adv-x="500" 
d="M265 484q37 0 70 -10t58 -30t39.5 -50.5t14.5 -71.5v-169q0 -41 -16.5 -71.5t-43.5 -51t-61 -30.5t-69 -10q-36 0 -70.5 10t-61.5 30.5t-43.5 51t-16.5 71.5v369q0 41 16.5 70.5t43 49t60 30.5t68.5 14q48 5 81.5 14t62.5 25l19 -47q-32 -21 -72.5 -30.5t-87.5 -14.5
q-26 -3 -50 -10t-43 -20t-30.5 -33t-11.5 -48l-1 -92q26 22 62 38t83 16zM260 431q-41 0 -74 -13.5t-66 -39.5v-225q0 -29 12 -49.5t31.5 -33.5t44 -19.5t49.5 -6.5q24 0 48 6.5t43.5 19.5t31.5 33.5t12 49.5v169q0 30 -11 50.5t-29.5 33.5t-42.5 19t-49 6z" />
    <glyph glyph-name="uni0432" unicode="&#x432;" horiz-adv-x="494" 
d="M266 518q75 0 119.5 -33t44.5 -99q0 -42 -19.5 -69t-45.5 -43q85 -31 85 -129q0 -40 -14 -67.5t-38.5 -45t-57 -25t-69.5 -7.5h-203v518h198zM266 289q21 0 41 5t35 16t24 28.5t9 41.5q0 50 -30.5 69t-78.5 19h-143v-179h143zM265 50q27 0 50.5 4.5t41.5 15.5t28 29.5
t10 47.5q0 57 -33.5 78t-94.5 21h-144v-196h142z" />
    <glyph glyph-name="uni0433" unicode="&#x433;" horiz-adv-x="387" 
d="M68 0v518h306v-53h-251v-465h-55z" />
    <glyph glyph-name="uni0434" unicode="&#x434;" horiz-adv-x="542" 
d="M461 -122v122h-395v-122h-54v176h16q29 3 47 20t28.5 50t16 83.5t10.5 119.5l14 191h310v-464h61v-176h-54zM399 54v410h-204l-13 -173q-3 -38 -7.5 -74.5t-11 -68t-16.5 -56.5t-23 -38h275z" />
    <glyph glyph-name="uni0435" unicode="&#x435;" 
d="M109 156q0 -29 12 -50t31.5 -35t44.5 -20.5t52 -6.5q42 0 79 17t53 52l50 -23q-12 -25 -31 -44t-43.5 -31.5t-52 -18.5t-55.5 -6q-37 0 -72.5 10.5t-63 31.5t-44.5 52.5t-17 73.5v202q0 42 17 73.5t44.5 52.5t63 31.5t72.5 10.5q36 0 71.5 -10.5t63 -31.5t44.5 -52.5
t17 -73.5v-126h-336v-78zM389 364q0 28 -12 49t-31.5 34.5t-45 20t-51.5 6.5q-27 0 -52 -6.5t-45 -20t-31.5 -34.5t-11.5 -49v-83h280v83z" />
    <glyph glyph-name="uni0436" unicode="&#x436;" horiz-adv-x="721" 
d="M387 0h-54v202l-49 49l-197 -251h-68l224 286l-226 232h70l246 -253v253h54v-253l246 253h71l-226 -232l224 -286h-68l-197 251l-50 -49v-202z" />
    <glyph glyph-name="uni0437" unicode="&#x437;" horiz-adv-x="439" 
d="M211 528q84 0 124.5 -39.5t40.5 -101.5q0 -42 -21 -70t-50 -41q43 -12 67.5 -46.5t24.5 -85.5q0 -39 -15.5 -68t-40.5 -48t-57.5 -28.5t-67.5 -9.5q-63 0 -107.5 21.5t-76.5 69.5l47 24q48 -65 131 -65q27 0 51 5.5t42 17.5t28.5 32t10.5 50q0 59 -33.5 81.5t-95.5 22.5
h-81v43h78q22 0 42 5.5t35.5 17.5t24.5 30t9 42q0 48 -29.5 69.5t-81.5 21.5q-45 0 -74.5 -14t-52.5 -44l-41 22q29 44 73.5 65t95.5 21z" />
    <glyph glyph-name="uni0438" unicode="&#x438;" horiz-adv-x="523" 
d="M68 0v518h55v-371l-1 -75h2l38 71l220 375h73v-518h-55v367l2 78h-2l-39 -70l-223 -375h-70z" />
    <glyph glyph-name="uni0439" unicode="&#x439;" horiz-adv-x="523" 
d="M269 582q-40 0 -74 27t-42 79h51q7 -26 25.5 -40t39.5 -14q20 0 38.5 14t25.5 40h51q-3 -26 -14.5 -45.5t-27 -33t-35 -20.5t-38.5 -7zM68 0v518h55v-371l-1 -75h2l38 71l220 375h73v-518h-55v367l2 78h-2l-39 -70l-223 -375h-70z" />
    <glyph glyph-name="uni043A" unicode="&#x43a;" horiz-adv-x="476" 
d="M123 0h-55v518h55v-271l265 271h71l-227 -235l225 -283h-68l-196 244l-70 -70v-174z" />
    <glyph glyph-name="uni043B" unicode="&#x43b;" horiz-adv-x="515" 
d="M11 0v55q39 0 60.5 13t33 42t16 75t9.5 112l16 221h301v-518h-55v464h-196l-14 -197q-5 -59 -10.5 -108t-22 -84t-48.5 -55t-90 -20z" />
    <glyph glyph-name="uni043C" unicode="&#x43c;" horiz-adv-x="628" 
d="M68 0v518h70l176 -365l176 365h70v-518h-55v368l1 61h-1l-171 -350h-41l-169 350h-1l1 -66l-1 -363h-55z" />
    <glyph glyph-name="uni043D" unicode="&#x43d;" horiz-adv-x="517" 
d="M123 244v-244h-55v518h55v-220h271v220h55v-518h-55v244h-271z" />
    <glyph glyph-name="uni043E" unicode="&#x43e;" horiz-adv-x="497" 
d="M52 359q0 42 17 73.5t44.5 52.5t63 32t72.5 11t72 -11t62.5 -32t44.5 -52.5t17 -73.5v-200q0 -42 -17 -74t-44.5 -53t-62.5 -31.5t-72 -10.5t-72.5 10.5t-63 31.5t-44.5 53t-17 74v200zM249 474q-26 0 -51 -6.5t-45 -20t-32.5 -34.5t-12.5 -51v-205q0 -30 12.5 -51
t32.5 -35t45 -20.5t51 -6.5q25 0 50 6.5t45 20.5t32.5 35t12.5 51v205q0 30 -12.5 51t-32.5 34.5t-45 20t-50 6.5z" />
    <glyph glyph-name="uni043F" unicode="&#x43f;" horiz-adv-x="514" 
d="M123 464v-464h-55v518h378v-518h-55v464h-268z" />
    <glyph glyph-name="uni0440" unicode="&#x440;" horiz-adv-x="526" 
d="M275 527q36 0 71 -10.5t62.5 -31.5t44 -52t16.5 -73v-201q0 -41 -17 -72.5t-44.5 -53t-63 -32.5t-72.5 -11t-72.5 8.5t-68.5 23.5v-213h-56v683q48 17 98.5 26t101.5 9zM273 43q26 0 51 7t44.5 21t31.5 34.5t12 48.5v211q0 28 -11.5 48.5t-31 34t-44 20t-50.5 6.5
q-36 0 -72.5 -2.5t-71.5 -14.5v-385q33 -14 69.5 -21.5t72.5 -7.5z" />
    <glyph glyph-name="uni0441" unicode="&#x441;" horiz-adv-x="465" 
d="M248 474q-26 0 -51.5 -6.5t-45 -20t-31.5 -34t-12 -49.5v-210q0 -29 12 -49.5t31.5 -34t45 -20t51.5 -6.5q45 0 84.5 19.5t51.5 60.5l51 -23q-10 -28 -29.5 -49t-44.5 -34.5t-54 -20.5t-59 -7q-36 0 -71.5 10.5t-63 31.5t-44.5 52.5t-17 73.5v202q0 42 17 73.5t44.5 52.5
t63 31.5t71.5 10.5q54 0 102.5 -22t74.5 -67l-47 -28q-17 32 -53 47.5t-77 15.5z" />
    <glyph glyph-name="uni0442" unicode="&#x442;" horiz-adv-x="419" 
d="M182 0v464h-168v54h391v-54h-168v-464h-55z" />
    <glyph glyph-name="uni0443" unicode="&#x443;" horiz-adv-x="535" 
d="M264 -152q29 0 55.5 8t46.5 23.5t32 39t12 55.5v50q-33 -21 -69.5 -27t-74.5 -7q-38 0 -74.5 11t-65 33t-45.5 54.5t-17 74.5v355h58v-357q0 -29 12.5 -51t32.5 -37t45.5 -23t52.5 -8q74 0 145 31v445h57v-544q0 -45 -16.5 -79t-44.5 -56.5t-64 -33.5t-76 -11
q-51 0 -98.5 18t-78.5 52l39 36q26 -27 60.5 -39.5t75.5 -12.5zM64 0z" />
    <glyph glyph-name="uni0444" unicode="&#x444;" horiz-adv-x="685" 
d="M451 528q31 0 63.5 -10.5t58.5 -30.5t42.5 -51t16.5 -71v-212q0 -41 -16.5 -71.5t-42.5 -50.5t-58.5 -30.5t-63.5 -10.5q-18 0 -43.5 4t-37.5 10v-190h-55l-1 190q-6 -3 -15.5 -5.5t-21 -4.5t-23.5 -3t-21 -1q-31 0 -63 10.5t-58 30.5t-42.5 50.5t-16.5 71.5v212
q0 40 16.5 71t42.5 51t58 30.5t63 10.5q19 0 44.5 -4t37.5 -10v194h55v-194q6 3 16 5.5t21.5 4.5t23 3t20.5 1zM244 475q-24 0 -48.5 -7t-44 -21t-31.5 -34.5t-12 -47.5v-212q0 -27 12 -47.5t31.5 -34.5t44 -21t48.5 -7q17 0 37 3.5t34 8.5v408q-14 5 -34 8.5t-37 3.5z
M441 475q-17 0 -37.5 -3.5t-33.5 -8.5v-408q13 -5 33.5 -8.5t37.5 -3.5q24 0 48 7t43.5 21t32 34.5t12.5 47.5v212q0 27 -12.5 47.5t-32 34.5t-43.5 21t-48 7z" />
    <glyph glyph-name="uni0445" unicode="&#x445;" horiz-adv-x="463" 
d="M265 259l178 -259h-68l-143 218l-144 -218h-68l178 259l-178 259h68l144 -219l143 219h68z" />
    <glyph glyph-name="uni0446" unicode="&#x446;" horiz-adv-x="528" 
d="M447 -122v122h-380v518h55v-464h264v464h54v-464h62v-176h-55z" />
    <glyph glyph-name="uni0447" unicode="&#x447;" horiz-adv-x="478" 
d="M222 158q-35 0 -67.5 9.5t-57.5 30t-40.5 51.5t-15.5 74v195h54v-194q0 -30 10.5 -51.5t28.5 -35t41 -19.5t47 -6q35 0 69.5 9.5t63.5 30.5v266h55v-518h-55v202q-61 -44 -133 -44z" />
    <glyph glyph-name="uni0448" unicode="&#x448;" horiz-adv-x="722" 
d="M334 54v464h54v-464h211v464h55v-518h-586v518h55v-464h211z" />
    <glyph glyph-name="uni0449" unicode="&#x449;" horiz-adv-x="741" 
d="M659 -122v122h-592v518h55v-464h211v464h54v-464h211v464h55v-464h61v-176h-55z" />
    <glyph glyph-name="uni044A" unicode="&#x44a;" horiz-adv-x="531" 
d="M339 317q76 0 119.5 -41t43.5 -120q0 -41 -14 -70t-38 -48.5t-56.5 -28.5t-69.5 -9h-207v468h-100v50h154v-201h168zM317 51q27 0 50.5 5.5t41.5 18t28 32.5t10 49q0 32 -10 53t-27.5 34t-41.5 18.5t-51 5.5h-146v-216h146z" />
    <glyph glyph-name="uni044B" unicode="&#x44b;" horiz-adv-x="677" 
d="M609 0h-60v518h60v-518zM290 317q76 0 120 -41t44 -120q0 -41 -14 -70t-38 -48.5t-56.5 -28.5t-69.5 -9h-208v518h55v-201h167zM269 51q27 0 50.5 5.5t41 18t28 32.5t10.5 49q0 32 -10 53t-28 34t-42 18.5t-51 5.5h-145v-216h146z" />
    <glyph glyph-name="uni044C" unicode="&#x44c;" horiz-adv-x="483" 
d="M290 317q76 0 120 -41t44 -120q0 -41 -14 -70t-38 -48.5t-56.5 -28.5t-69.5 -9h-208v518h55v-201h167zM269 51q27 0 50.5 5.5t41 18t28 32.5t10.5 49q0 32 -10 53t-28 34t-42 18.5t-51 5.5h-145v-216h146z" />
    <glyph glyph-name="uni044D" unicode="&#x44d;" horiz-adv-x="458" 
d="M214 527q36 0 70 -10t61 -30.5t43.5 -51t16.5 -71.5v-209q0 -41 -16.5 -72t-43.5 -51.5t-61 -30.5t-70 -10q-57 0 -108 27t-74 82l51 25q7 -20 20.5 -35t31.5 -25t38 -14.5t41 -4.5q25 0 49.5 6.5t44 19.5t31 33.5t11.5 47.5v84h-217v48h217v80q0 27 -11.5 47.5t-31 34
t-44 20t-49.5 6.5q-40 0 -73.5 -13.5t-54.5 -46.5l-44 27q28 45 74.5 66t97.5 21z" />
    <glyph glyph-name="uni044E" unicode="&#x44e;" horiz-adv-x="704" 
d="M461 528q36 0 70 -10.5t60.5 -31t43 -51t16.5 -70.5v-212q0 -41 -16.5 -71.5t-43 -50.5t-60.5 -30.5t-70 -10.5t-70.5 10.5t-61.5 30.5t-43.5 50.5t-16.5 71.5v94h-148v-247h-55v518h55v-219h148v66q0 40 16.5 70.5t43.5 51t61.5 31t70.5 10.5zM461 473q-25 0 -49.5 -6
t-44 -19.5t-31.5 -34t-12 -48.5v-212q0 -29 12 -49.5t31.5 -33.5t44 -19.5t49.5 -6.5q24 0 48 6.5t43.5 19.5t31.5 33.5t12 49.5v212q0 28 -12 48.5t-31.5 34t-43.5 19.5t-48 6z" />
    <glyph glyph-name="uni044F" unicode="&#x44f;" horiz-adv-x="491" 
d="M47 363q0 80 45 117.5t123 37.5h208v-518h-55v217h-105l-172 -217h-67l173 217q-32 1 -59.5 11t-47.5 29t-31.5 45.5t-11.5 60.5zM217 466q-54 0 -84 -23.5t-30 -80.5q0 -54 35 -77t89 -23h141v204h-151z" />
    <glyph glyph-name="uni0451" unicode="&#x451;" 
d="M298 633q0 20 14 34t34 14t34 -14t14 -34t-14 -34t-34 -14t-34 14t-14 34zM118 633q0 20 14 34t34 14t34 -14t14 -34t-14 -34t-34 -14t-34 14t-14 34zM109 156q0 -29 12 -50t31.5 -35t44.5 -20.5t52 -6.5q42 0 79 17t53 52l50 -23q-12 -25 -31 -44t-43.5 -31.5t-52 -18.5
t-55.5 -6q-37 0 -72.5 10.5t-63 31.5t-44.5 52.5t-17 73.5v202q0 42 17 73.5t44.5 52.5t63 31.5t72.5 10.5q36 0 71.5 -10.5t63 -31.5t44.5 -52.5t17 -73.5v-126h-336v-78zM389 364q0 28 -12 49t-31.5 34.5t-45 20t-51.5 6.5q-27 0 -52 -6.5t-45 -20t-31.5 -34.5t-11.5 -49
v-83h280v83z" />
    <glyph glyph-name="Wgrave" unicode="&#x1e80;" horiz-adv-x="941" 
d="M362 869h80l70 -113h-58zM865 708h62l-205 -708h-86l-165 522l-166 -522h-86l-205 708h62l186 -664l180 571h57l180 -571z" />
    <glyph glyph-name="wgrave" unicode="&#x1e81;" horiz-adv-x="723" 
d="M253 679h80l70 -113h-58zM174 0l-156 518h59l137 -460l112 460h71l112 -460l137 460h59l-156 -518h-80l-107 443l-108 -443h-80z" />
    <glyph glyph-name="Wacute" unicode="&#x1e82;" horiz-adv-x="941" 
d="M483 756h-58l69 113h80zM865 708h62l-205 -708h-86l-165 522l-166 -522h-86l-205 708h62l186 -664l180 571h57l180 -571z" />
    <glyph glyph-name="wacute" unicode="&#x1e83;" horiz-adv-x="723" 
d="M374 566h-58l69 113h80zM174 0l-156 518h59l137 -460l112 460h71l112 -460l137 460h59l-156 -518h-80l-107 443l-108 -443h-80z" />
    <glyph glyph-name="Wdieresis" unicode="&#x1e84;" horiz-adv-x="941" 
d="M520 813q0 20 14 34t34 14t34 -14t14 -34t-14 -34t-34 -14t-34 14t-14 34zM340 813q0 20 14 34t34 14t34 -14t14 -34t-14 -34t-34 -14t-34 14t-14 34zM865 708h62l-205 -708h-86l-165 522l-166 -522h-86l-205 708h62l186 -664l180 571h57l180 -571z" />
    <glyph glyph-name="wdieresis" unicode="&#x1e85;" horiz-adv-x="723" 
d="M411 623q0 20 14 34t34 14t34 -14t14 -34t-14 -34t-34 -14t-34 14t-14 34zM231 623q0 20 14 34t34 14t34 -14t14 -34t-14 -34t-34 -14t-34 14t-14 34zM174 0l-156 518h59l137 -460l112 460h71l112 -460l137 460h59l-156 -518h-80l-107 443l-108 -443h-80z" />
    <glyph glyph-name="Ygrave" unicode="&#x1ef2;" horiz-adv-x="559" 
d="M171 869h80l70 -113h-58zM309 0h-59v277l-246 431h69l207 -372l206 372h70l-247 -431v-277z" />
    <glyph glyph-name="ygrave" unicode="&#x1ef3;" horiz-adv-x="535" 
d="M157 679h80l70 -113h-58zM264 -152q29 0 55.5 8t46.5 23.5t32 39t12 55.5v50q-33 -21 -69.5 -27t-74.5 -7q-38 0 -74.5 11t-65 33t-45.5 54.5t-17 74.5v355h58v-357q0 -29 12.5 -51t32.5 -37t45.5 -23t52.5 -8q74 0 145 31v445h57v-544q0 -45 -16.5 -79t-44.5 -56.5
t-64 -33.5t-76 -11q-51 0 -98.5 18t-78.5 52l39 36q26 -27 60.5 -39.5t75.5 -12.5z" />
    <glyph glyph-name="endash" unicode="&#x2013;" horiz-adv-x="588" 
d="M526 271h-464v57h464v-57z" />
    <glyph glyph-name="emdash" unicode="&#x2014;" horiz-adv-x="1020" 
d="M958 271h-896v57h896v-57z" />
    <glyph glyph-name="quoteleft" unicode="&#x2018;" horiz-adv-x="217" 
d="M122 708h60l-64 -228h-72z" />
    <glyph glyph-name="quoteright" unicode="&#x2019;" horiz-adv-x="216" 
d="M106 480h-59l66 228h70z" />
    <glyph glyph-name="quotesinglbase" unicode="&#x201a;" horiz-adv-x="210" 
d="M73 -138h-59l63 213h73z" />
    <glyph glyph-name="quotedblleft" unicode="&#x201c;" horiz-adv-x="370" 
d="M275 708h60l-64 -228h-72zM122 708h60l-64 -228h-72z" />
    <glyph glyph-name="quotedblright" unicode="&#x201d;" horiz-adv-x="366" 
d="M256 480h-59l66 228h70zM106 480h-59l66 228h70z" />
    <glyph glyph-name="quotedblbase" unicode="&#x201e;" horiz-adv-x="372" 
d="M236 -138h-59l63 213h73zM72 -138h-59l63 213h73z" />
    <glyph glyph-name="dagger" unicode="&#x2020;" horiz-adv-x="496" 
d="M26 514h192v194h60v-194h192v-53h-192v-587h-60v587h-192v53z" />
    <glyph glyph-name="daggerdbl" unicode="&#x2021;" horiz-adv-x="561" 
d="M58 121h192v340h-192v52h192v195h60v-195h192v-52h-192v-340h192v-51h-192v-196h-60v196h-192v51z" />
    <glyph glyph-name="bullet" unicode="&#x2022;" horiz-adv-x="422" 
d="M66 354q0 30 11.5 56.5t31 46t46 31t56.5 11.5t56.5 -11.5t46 -31t31 -46t11.5 -56.5t-11.5 -56.5t-31 -46t-46 -31t-56.5 -11.5t-56.5 11.5t-46 31t-31 46t-11.5 56.5z" />
    <glyph glyph-name="ellipsis" unicode="&#x2026;" horiz-adv-x="621" 
d="M471 42q0 20 14 34t34 14t34 -14t14 -34t-14 -34t-34 -14t-34 14t-14 34zM263 42q0 20 14 34t34 14t34 -14t14 -34t-14 -34t-34 -14t-34 14t-14 34zM54 42q0 20 14 34t34 14t34 -14t14 -34t-14 -34t-34 -14t-34 14t-14 34z" />
    <glyph glyph-name="perthousand" unicode="&#x2030;" horiz-adv-x="1079" 
d="M1050 186q0 -89 -41.5 -139t-105.5 -50q-72 0 -110 48.5t-38 142.5q0 44 11 79t30.5 59.5t46.5 37.5t60 13q69 0 108 -49.5t39 -141.5zM992 186q0 70 -24 102.5t-67 32.5q-45 0 -66.5 -31.5t-21.5 -101.5q0 -72 21.5 -103t68.5 -31q44 0 66.5 31.5t22.5 100.5zM92 -40
l499 790l49 -30l-498 -790zM330 517q0 -89 -41.5 -139.5t-106.5 -50.5q-71 0 -109.5 49t-38.5 143q0 43 11 78t30.5 60t47 38t59.5 13q69 0 108.5 -50t39.5 -141zM272 517q0 70 -24 102t-67 32q-45 0 -66.5 -31t-21.5 -101q0 -72 21.5 -103t67.5 -31q45 0 67.5 31.5
t22.5 100.5zM715 186q0 -89 -41.5 -139t-105.5 -50q-72 0 -110 48.5t-38 142.5q0 44 11 79t30.5 59.5t46.5 37.5t60 13q69 0 108 -49.5t39 -141.5zM657 186q0 70 -24 102.5t-67 32.5q-45 0 -66.5 -31.5t-21.5 -101.5q0 -72 21.5 -103t68.5 -31q44 0 66.5 31.5t22.5 100.5z
" />
    <glyph glyph-name="guilsinglleft" unicode="&#x2039;" horiz-adv-x="269" 
d="M221 469l-119 -174l119 -174l-48 -29l-137 203l137 203z" />
    <glyph glyph-name="guilsinglright" unicode="&#x203a;" horiz-adv-x="269" 
d="M48 121l119 174l-119 174l48 29l137 -203l-137 -203z" />
    <glyph glyph-name="fraction" unicode="&#x2044;" horiz-adv-x="516" 
d="M52 -34l-45 28l456 748l46 -28z" />
    <glyph glyph-name="Euro" unicode="&#x20ac;" horiz-adv-x="612" 
d="M97 500q0 54 21 95t55 68t78 41t90 14q34 0 68 -8t64 -24t54.5 -40.5t39.5 -56.5l-53 -26q-24 49 -72 72.5t-101 23.5q-35 0 -68.5 -10t-59.5 -30t-42 -49.5t-16 -68.5v-76h271l-10 -45h-261v-54h272l-9 -44h-263v-76q0 -39 15.5 -68.5t41.5 -49t58.5 -29.5t67.5 -10
q54 0 103 23.5t73 71.5l53 -26q-15 -32 -40 -56.5t-55 -40.5t-64.5 -24t-69.5 -8q-46 0 -89.5 13.5t-77 40.5t-54 68t-20.5 95v76h-66l10 44h56v54h-63l10 45h53v75z" />
    <glyph glyph-name="uni2113" unicode="&#x2113;" horiz-adv-x="438" 
d="M249 -7q-41 0 -69.5 15.5t-47 42t-27 62t-9.5 75.5v10q-13 -11 -27 -21.5t-28 -22.5l-20 36q20 18 39 37t36 37v278q0 69 12.5 114.5t32.5 72.5t44.5 38t49.5 11q28 0 49.5 -12t35.5 -33t21 -50t7 -62q0 -97 -54 -192t-143 -186v-29q0 -48 9 -80t23.5 -51.5t33.5 -27.5
t41 -8q42 0 73.5 28t48.5 67l39 -31q-29 -57 -71.5 -87.5t-98.5 -30.5zM295 618q0 21 -2.5 40t-9.5 33.5t-19.5 23.5t-31.5 9q-14 0 -28.5 -8.5t-26 -28.5t-19 -54.5t-7.5 -85.5v-235q63 74 103.5 149t40.5 157z" />
    <glyph glyph-name="trademark" unicode="&#x2122;" horiz-adv-x="835" 
d="M160 659h-130v49h312v-49h-130v-341h-52v341zM391 708h60l127 -279l127 279h61v-390h-53l4 304l-117 -257h-44l-115 253l2 -300h-52v390z" />
    <glyph glyph-name="Omega" unicode="&#x2126;" horiz-adv-x="782" 
d="M58 378q0 77 26.5 139.5t72.5 106.5t107.5 68t131.5 24q73 0 133.5 -26.5t103.5 -71.5t66.5 -106t23.5 -130q0 -57 -12.5 -106t-33.5 -90.5t-48.5 -74t-57.5 -54.5v-3h165v-54h-268v37q41 24 77 58.5t62.5 78.5t41.5 96.5t15 111.5q0 50 -18 100t-52.5 90t-85 65
t-114.5 25q-60 0 -110.5 -21.5t-87.5 -59.5t-57.5 -90.5t-20.5 -114.5q0 -56 15.5 -105.5t42.5 -92t63.5 -78.5t78.5 -63v-37h-272v54h166v3q-31 25 -59 58t-49 73.5t-33.5 88t-12.5 101.5z" />
    <glyph glyph-name="estimated" unicode="&#x212e;" horiz-adv-x="888" 
d="M199 344q-5 0 -5 -5v-199q0 -12 8 -23q48 -50 112 -79t137 -29q79 0 146.5 33t115.5 88h59q-55 -64 -139 -102.5t-183 -38.5q-84 0 -158 28.5t-129 78t-87 116t-32 142.5t32 142.5t87 116t129 78.5t158 29t158.5 -29t129.5 -78.5t87 -116t32 -142.5v-10h-658zM708 570
q0 14 -10 24q-48 48 -111 76t-136 28q-72 0 -136 -29t-112 -78q-9 -11 -9 -25v-196q0 -2 1.5 -4.5t3.5 -2.5h505q2 0 3 2.5t1 4.5v200z" />
    <glyph glyph-name="partialdiff" unicode="&#x2202;" horiz-adv-x="509" 
d="M229 753q44 0 86 -21t74.5 -65.5t52.5 -112.5t20 -162q0 -87 -15.5 -160t-45.5 -126.5t-75 -83t-105 -29.5q-45 0 -78 18t-55 48t-33 69.5t-11 82.5q0 57 17 102.5t44.5 77.5t64 49t75.5 17q33 0 59.5 -10t46.5 -24t33 -29.5t19 -26.5h1q2 21 2 41q0 45 -8 88
q-12 61 -36 106.5t-59.5 72t-78.5 26.5q-44 0 -75 -13.5t-51 -30.5l-22 45q24 19 61 35t92 16zM223 47q34 0 65 20.5t54.5 55t38 80t15.5 95.5q-6 17 -19.5 36t-33 34.5t-44 26t-51.5 10.5q-30 0 -56.5 -15t-46.5 -41t-31.5 -61t-11.5 -75q0 -75 32.5 -120.5t87.5 -45.5h1z
" />
    <glyph glyph-name="Delta" unicode="&#x2206;" horiz-adv-x="594" 
d="M569 0h-544v43l240 682h66l238 -681v-44zM294 633l-201 -574h402l-197 574h-4z" />
    <glyph glyph-name="product" unicode="&#x220f;" horiz-adv-x="652" 
d="M465 -70v723h-279v-723h-57v723h-103v56h600v-56h-104v-723h-57z" />
    <glyph glyph-name="summation" unicode="&#x2211;" horiz-adv-x="544" 
d="M42 707h449v-53h-368v-4l240 -339l-256 -343v-4h400v-52h-477v42l267 353l-255 357v43z" />
    <glyph glyph-name="minus" unicode="&#x2212;" horiz-adv-x="638" 
d="M574 279h-500v56h500v-56z" />
    <glyph glyph-name="uni2215" unicode="&#x2215;" horiz-adv-x="510" 
d="M49 -34l-45 28l456 748l46 -28z" />
    <glyph glyph-name="uni2219" unicode="&#x2219;" horiz-adv-x="220" 
d="M62 318q0 20 14 34t34 14t34 -14t14 -34t-14 -34t-34 -14t-34 14t-14 34z" />
    <glyph glyph-name="radical" unicode="&#x221a;" horiz-adv-x="525" 
d="M100 311l-71 -26l-19 50l125 48l136 -439l183 893h58l-209 -991h-54z" />
    <glyph glyph-name="infinity" unicode="&#x221e;" horiz-adv-x="741" 
d="M693 292q0 -35 -12.5 -63t-33 -47.5t-47.5 -30.5t-56 -11q-23 0 -43.5 6.5t-41 20t-41.5 34t-46 47.5q-19 -20 -38.5 -39.5t-41 -34.5t-46 -24.5t-53.5 -9.5q-30 0 -56.5 11.5t-46 31.5t-31 47t-11.5 59q0 33 11.5 61t31.5 48.5t48 32t61 11.5q27 0 50.5 -9.5t45 -25
t41 -35.5t38.5 -41l2 3q18 20 37 39.5t40 34.5t45 24.5t53 9.5q64 -1 102.5 -42t38.5 -107v-1zM200 192q19 0 36.5 8t33.5 20t30.5 27t28.5 30l12 12q-15 18 -31.5 36.5t-34.5 32.5t-38.5 23t-44.5 9q-21 0 -38 -8.5t-28 -22.5t-17 -32.5t-6 -38.5q1 -40 26.5 -68t69.5 -28
h1zM546 390q-18 0 -35.5 -7.5t-33.5 -19.5t-30 -26.5t-26 -27.5l-16 -17q23 -24 41.5 -42.5t35 -31.5t32.5 -19.5t34 -6.5q22 0 38.5 8.5t28 22t17.5 31t6 35.5q0 49 -26 75t-65 26h-1z" />
    <glyph glyph-name="integral" unicode="&#x222b;" horiz-adv-x="325" 
d="M252 815q-21 0 -36 -13t-23 -37t-8 -57q1 -39 2 -96.5t2.5 -124.5t3 -138.5t2.5 -139t2 -125.5t1 -98q0 -48 -17.5 -79.5t-45 -47.5t-61 -16t-65.5 14l12 44q23 -9 42 -9h7q22 2 38 14t25 33t9 48q0 40 -1 99t-2 126.5t-3 140t-3 139.5t-2 125t-1 97q0 51 17.5 85
t44.5 51q25 15 56 15h4q32 -1 62 -20l-12 -47q-26 16 -48 16q-1 1 -2 1z" />
    <glyph glyph-name="approxequal" unicode="&#x2248;" horiz-adv-x="540" 
d="M370 303q-29 0 -53.5 10.5t-58.5 30.5q-21 12 -42 21.5t-43 9.5q-23 0 -41 -14t-33 -35l-38 31q23 33 53 51t65 18q29 0 52.5 -10.5t41.5 -21.5l15 -8l14 -8q18 -11 34.5 -17.5t37.5 -6.5q20 0 36.5 11.5t32.5 34.5l35 -30q-19 -29 -45 -48t-63 -19zM370 158
q-29 0 -53.5 10.5t-59.5 30.5q-21 12 -41.5 22t-42.5 10q-23 0 -41.5 -13.5t-32.5 -34.5l-38 30q23 34 52.5 52t65.5 18q30 0 53.5 -11t41.5 -21h-1l14 -8l8 -4q20 -12 38 -20t41 -8q20 0 35.5 10.5t30.5 31.5l38 -29q-19 -29 -45.5 -47.5t-62.5 -18.5z" />
    <glyph glyph-name="notequal" unicode="&#x2260;" horiz-adv-x="559" 
d="M500 349h-169q-15 -34 -28 -63t-29 -63h226v-53h-248q-11 -26 -26 -56.5t-26 -56.5l-44 22l42 91h-139v53h162q15 34 28 63t29 63h-219v53h242l51 111l43 -20l-42 -91h147v-53z" />
    <glyph glyph-name="lessequal" unicode="&#x2264;" 
d="M431 111v-53h-379v53h379zM418 210v-66l-352 207v48l352 210v-67l-287 -167z" />
    <glyph glyph-name="greaterequal" unicode="&#x2265;" 
d="M438 111v-53h-379v53h379zM424 345l-352 -207v66l287 165l-287 167v67l352 -210v-48z" />
    <glyph glyph-name="lozenge" unicode="&#x25ca;" horiz-adv-x="538" 
d="M24 355l217 388h59l214 -387l-217 -388h-60zM286 635q-5 9 -9.5 20.5t-8.5 21.5q-3 -8 -8.5 -19.5t-10.5 -22.5l-156 -278l159 -284q5 -11 9 -22.5t7 -21.5q3 10 8 23t10 21l159 282z" />
    <glyph glyph-name="i.loclTRK" horiz-adv-x="196" 
d="M53 633q0 20 14 34t34 14t34 -14t14 -34t-14 -34t-34 -14t-34 14t-14 34zM128 0h-60v518h60v-518z" />
    <glyph glyph-name="f_i" horiz-adv-x="470" 
d="M328 645q0 20 14 34t34 14t34 -14t14 -34t-14 -34t-34 -14t-34 14t-14 34zM401 0h-60v518h60v-518zM220 661q-45 0 -68 -23q-28 -28 -28 -94v-50h112v-50h-112v-444h-56v544q0 46 13 79.5t36 54.5t55 30q22 5 47 5q12 0 24 -1v-52q-12 1 -23 1z" />
    <glyph glyph-name="f_l" horiz-adv-x="502" 
d="M496 -10q-76 0 -117 43t-41 121v554h56v-554q0 -52 24.5 -80t77.5 -28v-56zM219 661q-45 0 -68 -23q-28 -28 -28 -94v-50h112v-50h-112v-444h-56v544q0 46 13 79.5t36 54.5t55 30q22 5 47 5q12 0 24 -1v-52q-12 1 -23 1z" />
    <glyph glyph-name="uni0414.loclBGR" horiz-adv-x="665" 
d="M596 -139v139h-526v-139h-59v196h66l217 651h75l220 -651h65v-196h-58zM138 57h389l-196 590z" />
    <glyph glyph-name="uni041B.loclBGR" horiz-adv-x="590" 
d="M295 651h-2l-224 -651h-62l248 708h78l250 -708h-62l-181 522z" />
    <glyph glyph-name="uni0432.loclBGR" horiz-adv-x="498" 
d="M259 718q81 0 127.5 -38t46.5 -119q0 -29 -9.5 -53.5t-23.5 -45t-31.5 -35t-33.5 -23.5q22 0 42.5 -9.5t36.5 -26t25.5 -39.5t9.5 -51v-123q0 -41 -16 -71.5t-42.5 -51t-60 -31t-68.5 -11.5q-49 0 -98 7.5t-97 23.5v534q0 38 14.5 68t40 51t61 32.5t76.5 11.5zM259 665
q-28 0 -53 -7t-43.5 -21t-29.5 -35.5t-11 -51.5v-176l130 41q57 17 91.5 55t34.5 89q0 106 -119 106zM262 41q25 0 49 8t42.5 23t30 36t11.5 47v123q0 26 -11 45.5t-30.5 31t-45.5 13.5q-7 1 -14 1q-20 0 -42 -5q-38 -9 -69.5 -19.5t-60.5 -19.5v-267q33 -11 70.5 -14
t69.5 -3z" />
    <glyph glyph-name="uni0433.loclBGR" horiz-adv-x="439" 
d="M222 528q34 0 64 -8t52 -24t34.5 -41t12.5 -59q0 -36 -13.5 -60t-37 -40.5t-53.5 -27.5t-63 -21q-29 -9 -52.5 -18.5t-39.5 -22t-24.5 -29t-8.5 -39.5q0 -54 31 -76.5t88 -22.5q54 0 93.5 17.5t66.5 46.5l35 -32q-33 -39 -83 -60t-113 -21q-79 0 -126 36.5t-47 108.5
q0 33 11 57.5t32 43t51 31.5t68 24q26 8 50 16.5t42 20t28.5 28t10.5 39.5q0 80 -107 80q-41 0 -75 -13.5t-59 -38.5l-36 36q36 35 79 52t89 17z" />
    <glyph glyph-name="uni0434.loclBGR" horiz-adv-x="507" 
d="M245 -155q28 0 54 7.5t45 22.5t30.5 37.5t11.5 52.5v56q-33 -17 -68 -24t-71 -7q-37 0 -72 10.5t-62.5 31.5t-44 52.5t-16.5 72.5v205q0 41 16.5 72t43 52t61 31.5t70.5 10.5q35 0 71.5 -6.5t71.5 -16.5l55 -17v-522q0 -42 -16.5 -74t-43.5 -54t-62 -33t-73 -11
q-48 0 -93 16t-77 50l35 33q23 -24 59.5 -36t74.5 -12zM243 474q-26 0 -50 -7t-43 -20.5t-30.5 -34t-11.5 -48.5v-211q0 -27 11.5 -48t31 -34.5t44 -20.5t50.5 -7q35 1 71.5 8t69.5 21v372q-23 10 -62 20t-81 10zM52 0z" />
    <glyph glyph-name="uni0436.loclBGR" horiz-adv-x="719" 
d="M386 0h-54v198l-51 50l-195 -248h-68l224 286l-226 232h70l246 -253v443h54v-443l246 253h71l-225 -232l223 -286h-68l-194 248l-53 -50v-198z" />
    <glyph glyph-name="uni0438.loclBGR" horiz-adv-x="512" 
d="M252 -10q-35 0 -69 10.5t-60 30.5t-42 50.5t-16 71.5v365h55v-366q0 -27 11.5 -47t30.5 -34t42.5 -21.5t47.5 -7.5q37 0 73.5 5.5t64.5 16.5v454h55v-493q-61 -21 -108 -28t-85 -7z" />
    <glyph glyph-name="uni0439.loclBGR" horiz-adv-x="512" 
d="M260 582q-40 0 -74 27t-42 79h51q7 -26 25.5 -40t39.5 -14t39.5 14t24.5 40h52q-8 -52 -42 -79t-74 -27zM252 -10q-35 0 -69 10.5t-60 30.5t-42 50.5t-16 71.5v365h55v-366q0 -27 11.5 -47t30.5 -34t42.5 -21.5t47.5 -7.5q37 0 73.5 5.5t64.5 16.5v454h55v-493
q-61 -21 -108 -28t-85 -7z" />
    <glyph glyph-name="uni043A.loclBGR" horiz-adv-x="483" 
d="M124 0h-56v708h56v-462l273 272h70l-232 -234l230 -284h-69l-200 244l-72 -72v-172z" />
    <glyph glyph-name="uni043B.loclBGR" horiz-adv-x="440" 
d="M223 465h-3l-24 -88l-125 -377h-57l173 515h72l166 -515h-58l-121 378z" />
    <glyph glyph-name="uni043F.loclBGR" horiz-adv-x="522" 
d="M457 361v-361h-56v363q0 28 -12 49t-31.5 35t-43.5 20.5t-49 6.5q-42 0 -81 -10t-62 -20v-444h-56v487q48 17 98 29t101 12q36 -1 70.5 -11.5t61.5 -31t43.5 -51.5t16.5 -73z" />
    <glyph glyph-name="uni0442.loclBGR" horiz-adv-x="811" 
d="M238 528q48 0 91.5 -16t72.5 -54q29 37 70 53.5t81 16.5q39 0 74 -10.5t62 -32.5t42.5 -54.5t15.5 -75.5v-355h-57v355q0 33 -11.5 55.5t-30 36.5t-43 20.5t-50.5 6.5q-21 0 -43 -6t-40 -17.5t-29.5 -29t-11.5 -40.5v-381h-55v377q0 25 -13 43.5t-33.5 30.5t-46.5 17.5
t-53 5.5q-32 0 -60.5 -7.5t-46.5 -21.5v-445h-57v484q34 19 79 31.5t93 12.5z" />
    <glyph glyph-name="uni0446.loclBGR" horiz-adv-x="533" 
d="M507 76q0 -57 -5 -106.5t-13 -91.5h-42l3 146h-21q-37 -16 -84 -24.5t-92 -8.5q-35 0 -69 10.5t-60.5 30.5t-43 50.5t-16.5 70.5v366h55v-367q0 -26 12 -46.5t30.5 -34.5t42 -21t47.5 -7q35 0 71 4.5t63 16.5v455h56v-443h66z" />
    <glyph glyph-name="uni0448.loclBGR" horiz-adv-x="783" 
d="M249 -10q-38 0 -71.5 10t-58.5 30.5t-39.5 52t-14.5 73.5v362h55v-360q0 -31 10.5 -53t28 -35.5t40 -19.5t47.5 -6q21 0 43 6.5t39 18t28 28.5t11 40v381h54v-381q0 -24 11.5 -42t30.5 -29.5t43 -17.5t50 -6q30 0 58 7t47 20v449h56v-484q-35 -20 -78 -32t-86 -12
q-44 0 -87 16t-72 54q-30 -39 -66.5 -54.5t-78.5 -15.5z" />
    <glyph glyph-name="uni0449.loclBGR" horiz-adv-x="809" 
d="M249 -10q-38 0 -71.5 10t-58.5 30.5t-39.5 52t-14.5 73.5v362h55v-360q0 -31 10.5 -53t28 -35.5t40 -19.5t47.5 -6q21 0 42.5 7t39 19t28 29t10.5 38v381h54v-381q0 -24 11.5 -42t30.5 -29.5t43 -17.5t50 -6q30 0 58.5 6t47.5 17v453h56v-442h66q-1 -57 -5.5 -106.5
t-12.5 -91.5h-44l3 146h-21q-32 -17 -71.5 -25.5t-79.5 -8.5q-44 0 -87 16t-72 54q-30 -39 -66 -54.5t-78 -15.5z" />
    <glyph glyph-name="uni044E.loclBGR" horiz-adv-x="705" 
d="M270 365q0 40 16.5 70.5t43.5 51t61.5 31t70.5 10.5t70 -10.5t60.5 -31t43 -51t16.5 -70.5v-212q0 -41 -16.5 -71.5t-43 -50.5t-60.5 -30.5t-70 -10.5t-70.5 10.5t-61.5 30.5t-43.5 50.5t-16.5 71.5v94h-148v-247h-55v708h55v-409h148v66zM462 473q-25 0 -49.5 -6
t-44 -19.5t-31.5 -34t-12 -48.5v-212q0 -29 12 -49.5t31.5 -33.5t44 -19.5t49.5 -6.5q24 0 48 6.5t43.5 19.5t31.5 33.5t12 49.5v212q0 28 -12 48.5t-31.5 34t-43.5 19.5t-48 6z" />
    <glyph glyph-name="newGlyph" horiz-adv-x="600" 
 />
    <glyph glyph-name=".ttfautohint" horiz-adv-x="508" 
d="M0 0z" />
    </font>
</defs>
</svg>
